<svg width="96" height="75" viewBox="0 0 96 75" fill="none" xmlns="http://www.w3.org/2000/svg">
<path d="M41.5816 74.7352C41.5816 74.7352 35.6414 74.7352 35.6414 68.5073C35.6414 62.2793 41.5816 43.5955 65.3425 43.5955C89.1034 43.5955 95.0437 62.2793 95.0437 68.5073C95.0437 74.7352 89.1034 74.7352 89.1034 74.7352H41.5816ZM65.3425 37.3676C70.0689 37.3676 74.6016 35.3991 77.9436 31.8952C81.2857 28.3913 83.1632 23.639 83.1632 18.6838C83.1632 13.7285 81.2857 8.97625 77.9436 5.47236C74.6016 1.96847 70.0689 0 65.3425 0C60.6162 0 56.0834 1.96847 52.7414 5.47236C49.3994 8.97625 47.5218 13.7285 47.5218 18.6838C47.5218 23.639 49.3994 28.3913 52.7414 31.8952C56.0834 35.3991 60.6162 37.3676 65.3425 37.3676ZM30.9842 74.7352C30.104 72.7908 29.6649 70.6592 29.7011 68.5073C29.7011 60.0684 33.7405 51.3804 41.2014 45.3393C37.478 44.1339 33.5978 43.5455 29.7011 43.5955C5.94023 43.5955 0 62.2793 0 68.5073C0 74.7352 5.94023 74.7352 5.94023 74.7352H30.9842ZM26.731 37.3676C30.6696 37.3676 34.4469 35.7272 37.232 32.8073C40.017 29.8874 41.5816 25.9271 41.5816 21.7978C41.5816 17.6684 40.017 13.7081 37.232 10.7882C34.4469 7.86832 30.6696 6.22793 26.731 6.22793C22.7924 6.22793 19.0151 7.86832 16.2301 10.7882C13.4451 13.7081 11.8805 17.6684 11.8805 21.7978C11.8805 25.9271 13.4451 29.8874 16.2301 32.8073C19.0151 35.7272 22.7924 37.3676 26.731 37.3676Z" fill="#EE5A22"/>
</svg>
