<svg width="78" height="72" viewBox="0 0 78 72" fill="none" xmlns="http://www.w3.org/2000/svg">
<path d="M57.2488 0.624512C62.8718 0.624512 67.6336 2.77971 71.5342 7.0901C75.4347 11.4005 77.3836 16.6022 77.3807 22.6952C77.3807 24.4836 77.1858 26.2662 76.7961 28.0431C76.4063 29.82 75.783 31.5381 74.926 33.1975H52.6877L44.9926 21.2465H40.9731L33.7638 43.2828L26.8941 33.1975H2.45039C1.59634 31.5381 0.972991 29.8329 0.580355 28.0818C0.193452 26.3335 0 24.5753 0 22.807C0 16.6366 1.93165 11.3976 5.79496 7.0901C9.65826 2.78257 14.4014 0.627378 20.0244 0.624512C22.9649 0.624512 25.7936 1.2235 28.5105 2.42146C31.2246 3.61657 33.6534 5.34904 35.7972 7.61887L38.6904 10.6797L41.4202 7.78653C43.6012 5.45938 46.063 3.68392 48.8057 2.46015C51.5485 1.23639 54.3628 0.624512 57.2488 0.624512ZM38.5829 72.0039L7.72088 40.927C7.18208 40.3882 6.66334 39.8336 6.16466 39.2633C5.66885 38.6987 5.2146 38.1097 4.8019 37.4964H24.5899L32.4999 49.3916H36.4979L43.6212 27.2478L50.4651 37.4964H72.5573C72.1446 38.0925 71.6904 38.6743 71.1946 39.2418C70.6988 39.8093 70.1886 40.3624 69.6641 40.9012L38.5829 72.0039Z" fill="#EE5A22"/>
</svg>
