<?xml version="1.0" standalone="no"?>
<!DOCTYPE svg PUBLIC "-//W3C//DTD SVG 20010904//EN"
 "http://www.w3.org/TR/2001/REC-SVG-20010904/DTD/svg10.dtd">
<svg version="1.0" xmlns="http://www.w3.org/2000/svg"
 width="300.000000pt" height="91.000000pt" viewBox="0 0 300.000000 91.000000"
 preserveAspectRatio="xMidYMid meet">

<g transform="translate(0.000000,91.000000) scale(0.100000,-0.100000)"
fill="#000000" stroke="none">
<path d="M1747 895 c-67 -23 -108 -74 -122 -148 l-7 -37 61 0 c57 0 61 1 61
23 0 37 40 67 89 67 104 0 111 -23 111 -340 l0 -250 60 0 60 0 0 258 c0 157
-4 272 -11 297 -7 23 -28 57 -53 81 -61 62 -160 81 -249 49z"/>
<path d="M1205 675 c-58 -20 -120 -92 -135 -156 -24 -97 3 -201 67 -261 36
-34 73 -48 129 -48 l44 0 0 50 0 50 -34 0 c-68 0 -116 76 -102 163 14 87 85
130 159 96 48 -22 57 -55 57 -213 l0 -146 65 0 65 0 0 156 0 156 29 29 c25 24
38 29 79 29 65 0 102 -27 102 -76 0 -49 -29 -74 -85 -74 l-45 0 0 -53 0 -53
48 0 c70 1 102 -23 102 -75 0 -50 -36 -88 -108 -114 -60 -22 -285 -32 -363
-16 -175 37 -269 144 -269 310 0 79 18 147 54 202 l26 39 -64 0 -64 0 -22 -44
c-11 -24 -28 -79 -37 -122 -47 -233 84 -421 337 -485 73 -19 307 -19 380 0
122 31 211 86 246 153 33 64 4 168 -54 190 l-27 11 37 37 c34 34 38 43 38 89
0 113 -80 183 -210 182 -80 0 -126 -17 -161 -58 l-25 -30 -41 38 c-61 57 -138
72 -218 44z"/>
<path d="M2472 675 c-60 -19 -106 -57 -132 -110 -22 -45 -22 -45 -73 -45 -111
-1 -177 -59 -177 -158 0 -101 51 -152 153 -152 60 0 109 18 125 46 8 14 14 13
52 -12 59 -39 176 -47 236 -16 64 33 114 102 114 157 0 23 4 25 43 25 48 0 67
-13 67 -47 0 -31 -42 -57 -80 -49 l-30 6 0 -49 c0 -56 6 -61 82 -61 64 0 103
23 129 78 36 74 16 154 -53 205 -17 12 -49 21 -92 24 -64 6 -68 7 -80 38 -21
50 -83 103 -139 120 -61 18 -88 18 -145 0z m132 -116 c14 -11 26 -25 26 -30 0
-5 -43 -9 -95 -9 -52 0 -95 4 -95 9 0 5 12 19 26 30 36 28 102 28 138 0z
m-284 -173 c0 -33 -37 -76 -65 -76 -30 0 -55 25 -55 54 0 34 19 46 72 46 44 0
48 -2 48 -24z m320 6 c0 -27 -26 -58 -59 -72 -44 -18 -95 -5 -125 31 -46 54
-38 59 79 59 94 0 105 -2 105 -18z"/>
<path d="M730 495 l0 -175 -130 0 -131 0 16 30 c8 16 15 51 15 78 0 136 -154
210 -292 141 -57 -29 -82 -72 -86 -151 l-4 -68 61 0 62 0 -6 43 c-13 83 64
129 120 72 14 -13 25 -36 25 -50 0 -33 -24 -81 -45 -89 -9 -3 -88 -6 -176 -6
l-159 0 0 -55 0 -55 425 0 425 0 0 230 0 230 -60 0 -60 0 0 -175z"/>
</g>
</svg>
