<?xml version="1.0" encoding="UTF-8"?>
<svg version="1.1" xmlns="http://www.w3.org/2000/svg" width="400" height="120">
<path d="M0 0 C0.83490967 0.00684814 1.66981934 0.01369629 2.5300293 0.02075195 C11.79907721 0.26194051 19.07787099 2.73448697 25.625 9.4375 C29.07212899 14.54610458 30.20415012 18.27964689 30.07910156 24.48413086 C30.07968567 25.25568512 30.08026978 26.02723938 30.08087158 26.82217407 C30.07810503 29.34936962 30.04708282 31.87535661 30.015625 34.40234375 C30.00815748 36.16353206 30.00246696 37.92472873 29.99847412 39.68592834 C29.98325796 44.30403901 29.94401124 48.9216403 29.8996582 53.53955078 C29.85861842 58.25871898 29.84044457 62.97797011 29.8203125 67.69726562 C29.77751255 76.94426934 29.70719603 86.19076247 29.625 95.4375 C24.015 95.4375 18.405 95.4375 12.625 95.4375 C12.61041748 93.16141846 12.59583496 90.88533691 12.58081055 88.5402832 C12.53045214 81.01640303 12.46385486 73.49272954 12.38928509 65.96905231 C12.34457562 61.40785301 12.30532079 56.84674314 12.27856445 52.28540039 C12.25253718 47.88265414 12.21213894 43.48025195 12.16181374 39.07771873 C12.1451411 37.39886953 12.13362928 35.7199608 12.12738609 34.04104042 C12.11774915 31.68755735 12.08969598 29.33495528 12.05737305 26.98168945 C12.05880814 26.2890097 12.06024323 25.59632996 12.0617218 24.88265991 C11.97840974 20.58787302 11.2421685 17.8621234 8.625 14.4375 C4.43658713 12.34329356 -0.8126797 13.02329736 -5.375 13.4375 C-8.64223977 14.63349043 -8.64223977 14.63349043 -10.375 17.4375 C-11.03493107 19.79675358 -11.4944424 22.08358914 -11.8203125 24.51171875 C-12.00335938 25.14722656 -12.18640625 25.78273438 -12.375 26.4375 C-13.365 26.7675 -14.355 27.0975 -15.375 27.4375 C-14.72273438 27.60765625 -14.07046875 27.7778125 -13.3984375 27.953125 C-8.04280556 29.43816748 -3.70589412 30.90440216 0.625 34.4375 C0.625 35.0975 0.625 35.7575 0.625 36.4375 C1.285 36.4375 1.945 36.4375 2.625 36.4375 C4.0625 38.37890625 4.0625 38.37890625 5.625 41 C6.140625 41.84691406 6.65625 42.69382813 7.1875 43.56640625 C10.50387292 50.1901402 10.90587928 56.02430085 10.8203125 63.30859375 C10.81829834 64.12718872 10.81628418 64.94578369 10.81420898 65.78918457 C10.80382387 68.81784753 10.77590187 71.84642999 10.75 74.875 C10.70875 81.660625 10.6675 88.44625 10.625 95.4375 C-13.795 95.4375 -38.215 95.4375 -63.375 95.4375 C-63.4575 88.38375 -63.54 81.33 -63.625 74.0625 C-63.66141602 71.85643066 -63.69783203 69.65036133 -63.73535156 67.37744141 C-63.74705119 65.59799162 -63.75723998 63.81853099 -63.765625 62.0390625 C-63.78608887 61.14018311 -63.80655273 60.24130371 -63.82763672 59.31518555 C-63.83241934 50.48886635 -61.25729771 42.48041007 -55.125 35.96484375 C-48.11152846 29.84371122 -38.64315168 26.4375 -29.375 26.4375 C-29.4575 25.2825 -29.54 24.1275 -29.625 22.9375 C-29.5833964 17.04018921 -27.54049864 12.83296309 -23.609375 8.484375 C-16.54674044 1.8666308 -9.55430192 -0.12035551 0 0 Z M-22.375 39.4375 C-21.715 40.4275 -21.055 41.4175 -20.375 42.4375 C-19.715 42.4375 -19.055 42.4375 -18.375 42.4375 C-14.13129694 52.44051436 -12.98363877 60.70369541 -16.38671875 71.07421875 C-18.45229317 76.01363584 -21.59683103 79.65933103 -25.375 83.4375 C-19.105 83.4375 -12.835 83.4375 -6.375 83.4375 C-6.30571366 79.31111349 -6.24610989 75.18622995 -6.21020508 71.05957031 C-6.19522086 69.65910969 -6.17482621 68.25869517 -6.14868164 66.85839844 C-5.61217824 54.65404125 -5.61217824 54.65404125 -10.65063477 43.89672852 C-14.2423163 40.49417676 -17.54396099 39.72736234 -22.375 39.4375 Z M-44.375 47.4375 C-46.55015243 51.54225307 -46.6081206 55.11334651 -46.5703125 59.70703125 C-46.5674826 60.38803391 -46.56465271 61.06903656 -46.56173706 61.77067566 C-46.55060525 63.93063455 -46.52551457 66.09016794 -46.5 68.25 C-46.48996111 69.72069711 -46.48083685 71.19140076 -46.47265625 72.66210938 C-46.45068913 76.25404286 -46.4162082 79.84572985 -46.375 83.4375 C-45.27671875 82.99921875 -44.1784375 82.5609375 -43.046875 82.109375 C-42.4290918 81.8628418 -41.81130859 81.61630859 -41.17480469 81.36230469 C-35.75711753 78.57850125 -33.35489577 72.88221335 -31.375 67.4375 C-29.4998671 60.78930154 -29.74969577 53.81323884 -32.375 47.4375 C-37.21218978 43.68867792 -39.49236894 43.89759248 -44.375 47.4375 Z " fill="#005383" transform="translate(369.375,-0.4375)"/>
<path d="M0 0 C3.99887603 3.38366433 7.1497181 6.91137241 8.4375 12.0625 C8.59289637 16.71575799 8.15251246 20.68295969 5.25 24.4375 C-0.29743327 29.61510439 -4.49671771 30.39127927 -11.87890625 30.265625 C-14.51190902 30.0663293 -16.98823361 29.63973152 -19.5625 29.0625 C-19.8925 30.0525 -20.2225 31.0425 -20.5625 32.0625 C-13.29738662 35.32335322 -7.47393731 35.26103033 0.3671875 34.76953125 C6.82043705 34.54532469 6.82043705 34.54532469 10.01953125 37.2265625 C12.32470303 41.83690606 12.08107176 46.02749737 11.4375 51.0625 C10.0543113 54.14323848 8.7990433 55.7009567 6.4375 58.0625 C6.870625 58.46339844 7.30375 58.86429687 7.75 59.27734375 C10.94927922 62.54327462 12.88801879 64.94573109 13.0625 69.625 C12.64067798 75.26207613 10.21074076 78.5165978 6 82.1875 C-3.78001138 88.02971005 -14.84371539 88.72010543 -25.9375 88.5625 C-26.95898132 88.55369308 -26.95898132 88.55369308 -28.00109863 88.54470825 C-43.65421355 88.38631966 -58.10334412 86.57382034 -69.6875 74.92578125 C-77.50755167 65.59059457 -77.99588523 56.2358402 -77.85546875 44.40234375 C-77.84986211 43.00273599 -77.84559707 41.60312227 -77.84260559 40.20350647 C-77.83124061 36.54887162 -77.80184742 32.89460378 -77.76849365 29.2401123 C-77.73761085 25.49931805 -77.72406165 21.75846356 -77.70898438 18.01757812 C-77.67696788 10.69903336 -77.62427039 3.3808652 -77.5625 -3.9375 C-71.9525 -3.9375 -66.3425 -3.9375 -60.5625 -3.9375 C-60.2325 16.5225 -59.9025 36.9825 -59.5625 58.0625 C-59.39263348 46.80066122 -59.39263348 46.80066122 -59.26464844 35.53833008 C-59.0643357 23.59430096 -58.29349673 11.60318738 -49.40625 2.640625 C-35.94800245 -8.87872248 -14.88151474 -9.13777221 0 0 Z M-36.5625 11.0625 C-38.03424029 12.84450063 -38.03424029 12.84450063 -38.875 14.8125 C-39.33326172 15.73289062 -39.33326172 15.73289062 -39.80078125 16.671875 C-41.75876863 22.81694308 -41.70434634 29.33019996 -41.66015625 35.71875 C-41.65803383 36.90035706 -41.65803383 36.90035706 -41.65586853 38.10583496 C-41.65032612 40.59143064 -41.63778485 43.07693211 -41.625 45.5625 C-41.61997754 47.26041535 -41.61541595 48.95833214 -41.61132812 50.65625 C-41.60123174 54.79173108 -41.58164578 58.92701161 -41.5625 63.0625 C-47.1725 62.7325 -52.7825 62.4025 -58.5625 62.0625 C-56.66594317 67.7521705 -55.60235169 70.2537289 -50.5625 73.0625 C-43.09470094 76.2484211 -35.30246399 76.33454617 -27.3125 76.375 C-26.37792969 76.38055908 -25.44335938 76.38611816 -24.48046875 76.3918457 C-17.97428158 76.32416933 -11.9247686 75.82769102 -6.0625 72.75 C-4.35399812 71.11390445 -4.35399812 71.11390445 -4.0625 68.5625 C-4.33683811 65.98160975 -4.33683811 65.98160975 -6.21386719 64.42456055 C-9.21164524 62.68603625 -11.18807019 62.71875839 -14.640625 62.76953125 C-15.80078125 62.77919922 -16.9609375 62.78886719 -18.15625 62.79882812 C-19.3628125 62.82396484 -20.569375 62.84910156 -21.8125 62.875 C-23.03453125 62.88853516 -24.2565625 62.90207031 -25.515625 62.91601562 C-28.53143821 62.95135719 -31.54702477 63.0051635 -34.5625 63.0625 C-34.5625 59.1025 -34.5625 55.1425 -34.5625 51.0625 C-31.79939453 51.09730469 -31.79939453 51.09730469 -28.98046875 51.1328125 C-26.57031654 51.15156855 -24.16015997 51.16976892 -21.75 51.1875 C-19.92758789 51.21263672 -19.92758789 51.21263672 -18.06835938 51.23828125 C-16.32329102 51.24794922 -16.32329102 51.24794922 -14.54296875 51.2578125 C-13.46942139 51.26828613 -12.39587402 51.27875977 -11.28979492 51.28955078 C-8.34316259 51.26565543 -8.34316259 51.26565543 -5.5625 49.0625 C-5.8925 47.4125 -6.2225 45.7625 -6.5625 44.0625 C-11.23947483 43.9882623 -15.62786506 44.02680882 -20.25 44.75 C-24.52482614 45.26387283 -26.95508699 44.57929978 -30.5625 42.0625 C-34.37052992 38.56322926 -35.32292805 35.34800612 -35.65625 30.33984375 C-35.5041462 26.64498887 -34.47117972 24.20258598 -32.5625 21.0625 C-28.69070798 17.55087468 -25.82092414 16.60306096 -20.5859375 16.84375 C-18.62871396 17.05534173 -16.68737972 17.40063644 -14.75 17.75 C-11.64712009 18.36151609 -11.64712009 18.36151609 -9.5625 16.9375 C-8.36642157 15.04901961 -8.36642157 15.04901961 -8.5625 12.5625 C-9.92081557 9.16671107 -11.26449909 8.60390921 -14.5625 7.0625 C-17.31018999 6.74709815 -19.76161849 6.59703139 -22.5 6.625 C-23.19029297 6.60501953 -23.88058594 6.58503906 -24.59179688 6.56445312 C-29.72865644 6.56932219 -32.64964619 7.79214141 -36.5625 11.0625 Z " fill="#005383" transform="translate(292.5625,31.9375)"/>
<path d="M0 0 C2.3203125 2.015625 2.3203125 2.015625 4 4 C4 4.66 4 5.32 4 6 C4.66 6 5.32 6 6 6 C6 5.34 6 4.68 6 4 C17.28865763 -3.05192686 28.72960547 -5.73187045 41.98828125 -3.49609375 C51.3140931 -1.23880872 58.53433428 3.00646389 64 11 C67.8690886 18.0731776 68.14328324 24.81608385 68.09765625 32.67578125 C68.09664917 33.49639038 68.09564209 34.31699951 68.09460449 35.16247559 C68.08939319 38.21249805 68.07543197 41.2625005 68.0625 44.3125 C68.041875 51.139375 68.02125 57.96625 68 65 C43.58 65 19.16 65 -6 65 C-6.3125 41.9375 -6.3125 41.9375 -6.38793945 34.69506836 C-6.42024699 32.78497387 -6.45362319 30.87489703 -6.48828125 28.96484375 C-6.49452515 27.98584106 -6.50076904 27.00683838 -6.50720215 25.99816895 C-6.62387508 20.41978877 -6.76851925 14.23148075 -11 10 C-14.3820287 9.56877594 -17.62051277 9.5418558 -21 10 C-24.80326232 12.9475283 -25.82974707 16.69364955 -26.6875 21.2734375 C-27.75457325 30.58365162 -28.36752168 41.79084919 -23 50 C-20.09907498 51.93395001 -19.10325263 52.30131941 -15.8125 52.625 C-13.9253125 52.810625 -13.9253125 52.810625 -12 53 C-12 56.96 -12 60.92 -12 65 C-20.97926082 65.41283958 -27.98371234 65.4091576 -34.96875 59.26953125 C-43.89370139 49.79622479 -45.3299395 39.47035316 -45.14453125 26.9453125 C-44.81790874 18.02940086 -42.64790816 11.07791044 -37 4 C-26.1963276 -5.52687475 -12.64371639 -6.54403213 0 0 Z M34 8 C34.39832031 8.42410156 34.79664063 8.84820312 35.20703125 9.28515625 C41.7285047 16.50479231 43.59758193 21.98198744 43.3515625 31.7109375 C42.39015269 40.70546042 38.24547552 46.75452448 32 53 C38.27 53 44.54 53 51 53 C51.06939297 49.03432015 51.12896219 45.07021436 51.16479492 41.10424805 C51.18705458 39.10255424 51.22520146 37.10105725 51.26367188 35.09960938 C51.32459131 27.03793689 51.3384678 19.56147085 46.421875 12.84375 C42.25721921 9.49645656 39.37025135 8.21919393 34 8 Z M15.25 15 C11.66131616 18.18994119 11.08350902 21.7365894 10.77294922 26.43505859 C10.78342285 27.66047363 10.79389648 28.88588867 10.8046875 30.1484375 C10.8075174 30.80582916 10.81034729 31.46322083 10.81326294 32.14053345 C10.82436553 34.21888233 10.84945014 36.29678366 10.875 38.375 C10.88504269 39.79296248 10.89416627 41.21093179 10.90234375 42.62890625 C10.92427195 46.08608037 10.95873182 49.54299642 11 53 C17.80579353 50.2986483 21.95802478 47.57525275 25.0390625 40.671875 C27.41311597 33.61627684 28.36365054 26.1548703 25.875 19 C24.22158776 15.82338176 24.22158776 15.82338176 21.125 14.375 C18.00876548 13.76262524 18.00876548 13.76262524 15.25 15 Z " fill="#005383" transform="translate(144,30)"/>
<path d="M0 0 C0.70125 0.61359375 1.4025 1.2271875 2.125 1.859375 C2.62128906 1.44945312 3.11757813 1.03953125 3.62890625 0.6171875 C10.21198697 -4.60430726 16.06438753 -6.67628765 24.5078125 -6.4453125 C31.29979596 -5.65460398 36.50308709 -3.26522009 41.125 1.796875 C45.95428198 7.98971895 46.88108587 13.07900749 46.125 20.859375 C44.36715104 27.06354779 41.12356222 30.12072436 36.125 33.859375 C37.91298695 35.69948985 39.62825535 37.23988514 41.6875 38.796875 C45.49785983 42.02102562 46.01655454 43.73877187 46.5 48.734375 C46.36205091 53.10005787 45.05679427 55.55170967 42.125 58.859375 C35.4884888 63.74436145 28.29568627 65.71048815 20.125 64.859375 C13.59395692 63.52789747 7.74343978 61.78703468 3.875 55.984375 C2.93062132 53.30863542 2.50768099 50.66570226 2.125 47.859375 C1.61453125 48.35566406 1.1040625 48.85195312 0.578125 49.36328125 C-8.38592869 57.73926758 -18.98378756 65.52588972 -31.76953125 65.10546875 C-38.94577516 64.26668699 -45.19690398 61.48345719 -49.875 55.859375 C-52.62120806 50.3945128 -52.53270237 44.84365457 -51.875 38.859375 C-49.16214394 33.23271057 -44.97267889 30.25782759 -39.875 26.859375 C-40.40609375 26.62863281 -40.9371875 26.39789063 -41.484375 26.16015625 C-45.98892159 24.08050244 -49.54042527 22.43125051 -51.875 17.859375 C-52.68373859 13.28361716 -52.93331474 8.96441709 -50.8046875 4.73046875 C-39.69618476 -9.32209073 -13.70309302 -10.20284643 0 0 Z M-14.875 5.859375 C-14.545 6.560625 -14.215 7.261875 -13.875 7.984375 C-12.37781655 12.28877743 -12.18425158 15.37426589 -14.125 19.546875 C-15.875 21.859375 -15.875 21.859375 -19.875 24.859375 C-15.585 24.859375 -11.295 24.859375 -6.875 24.859375 C-6.14770372 16.70629548 -6.14770372 16.70629548 -8.625 9.171875 C-10.81740213 6.91857281 -11.78178308 6.08031907 -14.875 5.859375 Z M12.5625 8.734375 C10.08543975 12.39611624 10.01548426 14.56489561 10.0625 18.984375 C10.07152344 20.08007812 10.08054688 21.17578125 10.08984375 22.3046875 C10.10144531 23.14773437 10.11304688 23.99078125 10.125 24.859375 C12.02010699 24.94098248 13.91624504 24.99883959 15.8125 25.046875 C17.39611328 25.09908203 17.39611328 25.09908203 19.01171875 25.15234375 C22.51374255 24.8227932 24.30413922 23.91091012 27.125 21.859375 C29.28379198 19.20994847 29.21978727 17.07621217 28.9375 13.796875 C28.66499272 11.39049719 28.30846664 10.11322821 26.8828125 8.140625 C22.73543057 5.1176444 16.51110042 5.84515518 12.5625 8.734375 Z M-34.875 8.859375 C-34.917721 10.52549405 -34.91563832 12.19320385 -34.875 13.859375 C-33.8154123 15.14260047 -33.8154123 15.14260047 -31.375 14.984375 C-28.9345877 15.14260047 -28.9345877 15.14260047 -27.875 13.859375 C-27.83436168 12.19320385 -27.832279 10.52549405 -27.875 8.859375 C-31.45827753 7.85720436 -31.45827753 7.85720436 -34.875 8.859375 Z M-34.875 40.859375 C-35.3840614 46.06326601 -35.3840614 46.06326601 -33.8125 50.859375 C-30.59387425 52.52060119 -28.46653145 52.32279841 -24.875 51.859375 C-16.48823941 48.35840815 -9.09331243 42.28472423 -1.875 36.859375 C-6.10410869 36.80120294 -10.33311409 36.76572037 -14.5625 36.734375 C-15.76068359 36.71761719 -16.95886719 36.70085937 -18.19335938 36.68359375 C-19.35029297 36.67714844 -20.50722656 36.67070313 -21.69921875 36.6640625 C-22.76229248 36.65358887 -23.82536621 36.64311523 -24.9206543 36.63232422 C-29.1141718 36.95460926 -31.89001671 37.87439171 -34.875 40.859375 Z M21.4375 46.359375 C21.004375 46.854375 20.57125 47.349375 20.125 47.859375 C20.785 49.509375 21.445 51.159375 22.125 52.859375 C23.775 52.859375 25.425 52.859375 27.125 52.859375 C27.785 51.209375 28.445 49.559375 29.125 47.859375 C27.81298827 46.29687691 27.81298827 46.29687691 26.125 44.859375 C23.12240483 44.52719308 23.12240483 44.52719308 21.4375 46.359375 Z " fill="#005383" transform="translate(52.875,32.140625)"/>
</svg>
