<svg width="33" height="29" viewBox="0 0 33 29" fill="none" xmlns="http://www.w3.org/2000/svg">
<path fill-rule="evenodd" clip-rule="evenodd" d="M11.4873 25.524C6.63135 21.8033 0 15.657 0 9.84571C0 0.137112 9.075 -3.48794 16.5 4.00966C23.925 -3.48794 33 0.137112 33 9.84571C33 15.657 26.367 21.8033 21.5127 25.524C19.3149 27.207 18.216 28.0502 16.5 28.0502C14.784 28.0502 13.6851 27.2087 11.4873 25.524ZM23.925 5.36266C24.2532 5.36266 24.568 5.49304 24.8 5.72512C25.0321 5.95719 25.1625 6.27196 25.1625 6.60016V8.66266H27.225C27.5532 8.66266 27.868 8.79304 28.1 9.02512C28.3321 9.25719 28.4625 9.57196 28.4625 9.90016C28.4625 10.2284 28.3321 10.5431 28.1 10.7752C27.868 11.0073 27.5532 11.1377 27.225 11.1377H25.1625V13.2002C25.1625 13.5284 25.0321 13.8431 24.8 14.0752C24.568 14.3073 24.2532 14.4377 23.925 14.4377C23.5968 14.4377 23.282 14.3073 23.05 14.0752C22.8179 13.8431 22.6875 13.5284 22.6875 13.2002V11.1377H20.625C20.2968 11.1377 19.982 11.0073 19.75 10.7752C19.5179 10.5431 19.3875 10.2284 19.3875 9.90016C19.3875 9.57196 19.5179 9.25719 19.75 9.02512C19.982 8.79304 20.2968 8.66266 20.625 8.66266H22.6875V6.60016C22.6875 6.27196 22.8179 5.95719 23.05 5.72512C23.282 5.49304 23.5968 5.36266 23.925 5.36266Z" fill="#EE5A22"/>
</svg>
