<svg width="39" height="46" viewBox="0 0 39 46" fill="none" xmlns="http://www.w3.org/2000/svg">
<path d="M20.6471 45.9412L20.0735 39.0588H19.5C14.0706 39.0588 9.46323 37.1662 5.67794 33.3809C1.89265 29.5956 0 24.9883 0 19.5588C0 14.1294 1.89265 9.52207 5.67794 5.73678C9.46323 1.95148 14.0706 0.0588379 19.5 0.0588379C22.2147 0.0588379 24.7482 0.565073 27.1004 1.57754C29.4526 2.59001 31.5174 3.9856 33.2945 5.76431C35.0717 7.54301 36.4665 9.60772 37.479 11.9584C38.4915 14.3091 38.9985 16.8426 39 19.5588C39 22.4265 38.532 25.1794 37.596 27.8177C36.66 30.4559 35.3784 32.903 33.7511 35.1588C32.1238 37.4147 30.1929 39.4603 27.9584 41.2956C25.7239 43.1309 23.2868 44.6794 20.6471 45.9412ZM19.4426 32.1191C20.0926 32.1191 20.6471 31.8897 21.1059 31.4309C21.5647 30.9721 21.7941 30.4177 21.7941 29.7677C21.7941 29.1177 21.5647 28.5633 21.1059 28.1044C20.6471 27.6456 20.0926 27.4162 19.4426 27.4162C18.7926 27.4162 18.2382 27.6456 17.7794 28.1044C17.3206 28.5633 17.0912 29.1177 17.0912 29.7677C17.0912 30.4177 17.3206 30.9721 17.7794 31.4309C18.2382 31.8897 18.7926 32.1191 19.4426 32.1191ZM17.7794 24.8353H21.2206C21.2206 23.6882 21.3353 22.8853 21.5647 22.4265C21.7941 21.9677 22.5206 21.1265 23.7441 19.903C24.4324 19.2147 25.0059 18.4691 25.4647 17.6662C25.9235 16.8633 26.1529 16.003 26.1529 15.0853C26.1529 13.1353 25.4938 11.6724 24.1754 10.6967C22.8571 9.7209 21.2986 9.23378 19.5 9.23531C17.8176 9.23531 16.4029 9.70407 15.2559 10.6416C14.1088 11.5791 13.3059 12.7163 12.8471 14.053L16.0588 15.3147C16.25 14.6647 16.6132 14.0247 17.1485 13.3945C17.6838 12.7644 18.4676 12.4486 19.5 12.4471C20.5324 12.4455 21.307 12.7323 21.8239 13.3074C22.3409 13.8824 22.5986 14.5133 22.5971 15.2C22.5971 15.85 22.4059 16.4335 22.0235 16.9504C21.6412 17.4674 21.1824 17.9927 20.6471 18.5265C19.3088 19.6735 18.4967 20.582 18.2107 21.2519C17.9247 21.9218 17.7809 23.1163 17.7794 24.8353Z" fill="#E6E6E6"/>
</svg>
