<?xml version="1.0" encoding="UTF-8"?>
<svg version="1.1" xmlns="http://www.w3.org/2000/svg" width="1736" height="1700">
<path d="M0 0 C572.88 0 1145.76 0 1736 0 C1736 561 1736 1122 1736 1700 C1163.12 1700 590.24 1700 0 1700 C0 1139 0 578 0 0 Z " fill="#FEFEFE" transform="translate(0,0)"/>
<path d="M0 0 C-0.35948787 9.36465896 -1.83406129 18.3997591 -3.54003906 27.59985352 C-7.81093428 50.89219841 -10.03887984 79.5281296 4 100 C7.1393959 104.05997971 10.68472701 107.71233031 14.3203125 111.32617188 C16.06791141 113.06767451 17.78511569 114.83568382 19.5 116.609375 C26.29546347 123.58779326 33.29235878 130.02465937 41 136 C41.95777344 136.77472656 42.91554688 137.54945313 43.90234375 138.34765625 C53.11519722 145.67843877 62.96312587 151.864895 73 158 C73.91458984 158.56122559 73.91458984 158.56122559 74.84765625 159.13378906 C81.33423416 163.10324364 87.89603103 166.94217866 94.46484375 170.7734375 C158.91825862 208.37061837 223.3033698 247.26353261 245 323 C260.99683909 384.72000555 255.12667141 447.65159094 222.6875 503.25 C217.0683886 512.6620116 210.83653398 521.44189342 204 530 C203.23171875 530.9796875 202.4634375 531.959375 201.671875 532.96875 C189.8795367 547.73038212 176.55212181 562.10038922 161.72265625 573.8359375 C158.87933895 576.09590563 156.13253964 578.4488946 153.375 580.8125 C111.21143279 615.97614944 58.17036287 634.05635456 7.43310547 652.97314453 C-88.87375629 685.80140681 -88.87375629 685.80140681 -172 742 C-172.78632813 742.74636719 -173.57265625 743.49273438 -174.3828125 744.26171875 C-178.17972218 747.93953716 -181.08468542 751.56648045 -184 756 C-183.44121922 756.00055616 -182.88243843 756.00111233 -182.30672489 756.00168534 C-121.46698381 756.06231044 -60.6272455 756.12539515 0.21247864 756.20132446 C1.12137435 756.20245809 2.03027006 756.20359171 2.96670806 756.20475969 C22.71977172 756.22941151 42.4728348 756.2545044 62.22589732 756.28005161 C71.91288652 756.29257739 81.59987584 756.30500571 91.28686523 756.31738281 C92.25083375 756.31861614 93.21480226 756.31984946 94.20798194 756.32112016 C125.44927912 756.36104535 156.69057918 756.39453577 187.9318872 756.42468691 C220.03814391 756.45570681 252.14438663 756.49322319 284.25062598 756.53890612 C288.78609037 756.54535646 293.32155487 756.55173258 297.85701942 756.55806351 C298.74965814 756.55931181 299.64229685 756.56056012 300.56198522 756.56184625 C314.92719665 756.58174436 329.29240654 756.59480035 343.65762759 756.60529328 C358.1018212 756.61599006 372.54599161 756.63390561 386.99016722 756.65916704 C395.57019659 756.67395389 404.15019045 756.68322855 412.73023268 756.68456683 C418.46604649 756.68600752 424.20182035 756.69468012 429.93761599 756.70915592 C433.20300525 756.71719226 436.46830137 756.72105429 439.73370173 756.71827881 C464.69084946 756.70054939 464.69084946 756.70054939 475 759 C475.79619993 759.17674613 476.59239986 759.35349227 477.41272706 759.53559434 C479.40349773 760.00258528 481.35332589 760.5400614 483.3125 761.125 C484.01906738 761.33527832 484.72563477 761.54555664 485.45361328 761.76220703 C493.42488253 764.26705846 500.72395847 767.93296257 508 772 C508.96292969 772.53238281 509.92585937 773.06476562 510.91796875 773.61328125 C538.2544237 789.88594202 556.59892447 817.42276792 564.9921875 847.70703125 C572.73217988 878.93686975 568.21330606 913.80345712 552.03125 941.70703125 C546.54431405 950.60219857 540.16083114 958.4067208 533 966 C532.38769531 966.67675781 531.77539062 967.35351562 531.14453125 968.05078125 C520.36627593 979.51847721 505.72178253 988.68503622 491 994 C490.16726563 994.33902344 489.33453125 994.67804687 488.4765625 995.02734375 C471.98542239 1001.28830669 453.55173335 1001.44769727 436.13174438 1001.36076355 C434.13285175 1001.36207607 432.13395962 1001.36471063 430.1350702 1001.36853105 C424.71195231 1001.37516046 419.28901606 1001.36334896 413.86592126 1001.34819686 C407.99167964 1001.3351303 402.11744666 1001.3396334 396.24319458 1001.34190369 C386.08873735 1001.34346977 375.93433836 1001.33413053 365.77989578 1001.31719017 C355.14170719 1001.29945443 344.50354047 1001.28788005 333.86533737 1001.28463173 C333.20140319 1001.28442551 332.53746901 1001.28421929 331.85341561 1001.28400682 C328.48099116 1001.28299168 325.10856669 1001.28208758 321.7361422 1001.2812262 C297.91148138 1001.27494174 274.08685083 1001.25477679 250.26220703 1001.22631836 C227.13134928 1001.19872075 204.00049984 1001.17749168 180.86962891 1001.16479492 C180.15537564 1001.16440034 179.44112238 1001.16400576 178.70522508 1001.16359923 C171.53174481 1001.15964333 164.35826448 1001.15581594 157.1847841 1001.15208265 C142.57439135 1001.14447606 127.96399914 1001.13601231 113.35360718 1001.12702942 C112.68199287 1001.12661755 112.01037857 1001.12620568 111.31841232 1001.12578133 C66.54559556 1001.09822607 21.7727959 1001.05063321 -23 1001 C-22.37957514 1004.65741951 -21.75304577 1008.31376885 -21.12548828 1011.9699707 C-20.9515303 1012.99590584 -20.77757233 1014.02184097 -20.5983429 1015.07886505 C-19.1329639 1023.58796527 -17.21832287 1031.8744132 -14.875 1040.1875 C-14.58903961 1041.21810547 -14.58903961 1041.21810547 -14.29730225 1042.26953125 C0.81973098 1096.58720539 26.51459344 1147.87502299 63 1191 C63.77085937 1191.95519531 64.54171875 1192.91039062 65.3359375 1193.89453125 C72.24743825 1202.34701256 79.86651623 1210.08229551 87.5625 1217.8125 C88.09302979 1218.34820618 88.62355957 1218.88391235 89.17016602 1219.43585205 C96.11163457 1226.43062174 103.26530671 1232.87348712 111 1239 C112.17404371 1239.97631003 113.34513131 1240.95619883 114.51171875 1241.94140625 C181.18751265 1297.37643839 271.29148403 1324.30582199 357.44311523 1317.48510742 C360.73200147 1317.16714763 364.00703835 1316.77509195 367.28320312 1316.34619141 C370.3465446 1315.9558411 373.41430042 1315.6261102 376.484375 1315.29296875 C412.63675707 1311.11042243 448.06913824 1300.36735421 481 1285 C481.91491211 1284.57348145 482.82982422 1284.14696289 483.77246094 1283.70751953 C521.26447308 1266.02624934 553.35803715 1241.55654759 582.6875 1212.5 C583.56688232 1211.63375 584.44626465 1210.7675 585.35229492 1209.875 C591.33611235 1203.89849569 596.76811957 1197.64159371 602 1191 C602.58080322 1190.2678125 603.16160645 1189.535625 603.76000977 1188.78125 C619.11008597 1169.2790468 632.34480443 1148.51819229 643.00976562 1126.07958984 C643.68338452 1124.66492373 644.36468058 1123.2538933 645.05273438 1121.84619141 C656.87102362 1097.5889936 664.66254157 1071.39582685 670 1045 C670.22445801 1043.91638184 670.44891602 1042.83276367 670.68017578 1041.71630859 C674.26646914 1023.4765802 674.38646896 1005.21298506 674.4375 986.6875 C674.44703201 984.914319 674.44703201 984.914319 674.45675659 983.10531616 C674.52791685 961.79438987 672.97357162 940.76083531 668.25 919.9375 C667.99178467 918.77669922 667.73356934 917.61589844 667.4675293 916.41992188 C655.39914537 863.41878924 631.20147581 813.73252192 595 773 C594.02933594 771.90014771 594.02933594 771.90014771 593.0390625 770.77807617 C587.42432698 764.46830671 581.59448732 758.41137665 575.625 752.4375 C574.75617187 751.55642578 573.88734375 750.67535156 572.9921875 749.76757812 C566.97846424 743.74051081 560.67654565 738.27852272 554 733 C552.94004969 732.14199438 551.88014194 731.28393616 550.8203125 730.42578125 C508.5689766 697.29828455 459.94290278 676.4224203 407.625 665.1875 C406.78493408 665.00469482 405.94486816 664.82188965 405.0793457 664.63354492 C394.45440566 662.47786109 383.79247599 661.40771426 373 660 C373 610.5 373 561 373 510 C446.10802672 510 511.91905085 523.17888329 578 555 C578.86383301 555.41072754 579.72766602 555.82145508 580.61767578 556.24462891 C613.1375622 571.75199936 644.27579979 591.89280057 671.41552734 615.62597656 C673.10239792 617.08879745 674.80843488 618.52654692 676.51953125 619.9609375 C683.19512594 625.5757379 689.53650533 631.34904713 695.59765625 637.625 C697.95473942 640.03875713 697.95473942 640.03875713 700.6015625 642.078125 C702.80682861 643.8452112 704.51086828 645.58625371 706.3125 647.75 C708.72356118 650.57765923 711.20549335 653.22790807 713.875 655.8125 C717.76811482 659.6533081 721.18316784 663.77872559 724.6015625 668.04296875 C726.63603627 670.55126948 728.72081579 673.00187978 730.83862305 675.43969727 C742.85080073 689.33468868 753.30555056 704.4212994 763 720 C763.36867188 720.58571777 763.73734375 721.17143555 764.1171875 721.77490234 C791.51286263 765.43051058 810.04172119 813.37126959 819.875 863.875 C820.02070435 864.62332092 820.16640869 865.37164185 820.31652832 866.14263916 C822.22802033 876.05915342 823.79406458 885.97032344 825 896 C825.11230957 896.91523437 825.22461914 897.83046875 825.34033203 898.7734375 C830.07132421 939.90700557 827.74438268 982.41973814 820 1023 C819.782229 1024.18480957 819.782229 1024.18480957 819.56005859 1025.39355469 C813.50768056 1058.07779225 802.84925966 1089.83846238 789 1120 C788.57493164 1120.93908203 788.14986328 1121.87816406 787.71191406 1122.84570312 C770.25458242 1161.28073127 746.207461 1197.44498889 717.4140625 1228.375 C715.50772953 1230.44790576 713.66609935 1232.54808634 711.83203125 1234.68359375 C707.46117803 1239.69514493 702.77344196 1244.37276258 698.0625 1249.0625 C697.20720703 1249.92166016 696.35191406 1250.78082031 695.47070312 1251.66601562 C690.47543914 1256.65365907 685.36464259 1261.41443389 680 1266 C678.95163682 1266.92540014 677.90468414 1267.85240148 676.859375 1268.78125 C667.00651841 1277.4382412 656.57703865 1285.255111 646 1293 C645.29004883 1293.5259375 644.58009766 1294.051875 643.84863281 1294.59375 C574.91379754 1345.57300228 490.82982423 1372.83341039 406 1380 C404.99952637 1380.09498779 403.99905273 1380.18997559 402.96826172 1380.2878418 C393.27288148 1381.1487181 383.60084208 1381.20088072 373.875 1381.1875 C372.99261658 1381.18656342 372.11023315 1381.18562683 371.20111084 1381.18466187 C328.65831741 1381.08724734 284.8670775 1375.83940224 244.47802734 1361.84960938 C241.66770783 1360.88607126 238.84436033 1359.96697998 236.01953125 1359.046875 C219.86478991 1353.71018311 204.39069736 1347.2380906 189 1340 C188.08492676 1339.57074219 187.16985352 1339.14148437 186.22705078 1338.69921875 C147.97873645 1320.5850011 112.40509481 1295.6366618 81.68164062 1266.58007812 C79.83681296 1264.84666862 77.97458363 1263.13332747 76.109375 1261.421875 C64.42273222 1250.67290806 64.42273222 1250.67290806 59.8515625 1245.1640625 C57.79175285 1242.75660565 55.62829333 1240.47056021 53.44897461 1238.17163086 C46.9506736 1231.29981061 40.98791442 1224.17077772 35.26464844 1216.64550781 C34.10735229 1215.13968232 32.91845055 1213.65828402 31.7265625 1212.1796875 C-8.1208432 1162.26843189 -37.0081784 1100.50419923 -50 1038 C-50.34949707 1036.37118896 -50.34949707 1036.37118896 -50.70605469 1034.70947266 C-51.4212539 1031.37139372 -52.12111035 1028.03058696 -52.8125 1024.6875 C-53.0199585 1023.69153809 -53.22741699 1022.69557617 -53.44116211 1021.66943359 C-54.82866104 1014.69386913 -55.40114399 1008.18627216 -56 1001 C-67.88 1001 -79.76 1001 -92 1001 C-82.57235353 1077.67819128 -50.74777836 1153.43325557 -6 1216 C-5.15937012 1217.17852539 -5.15937012 1217.17852539 -4.30175781 1218.38085938 C6.20618558 1233.04338163 17.32912994 1247.19464597 29.62109375 1260.41015625 C30.89732566 1261.79955158 32.16715235 1263.1957928 33.39208984 1264.63061523 C38.64654363 1270.78438591 44.31353085 1276.49964914 50.03222656 1282.2175293 C51.73794598 1283.92543056 53.43549027 1285.64118045 55.1328125 1287.35742188 C61.0343698 1293.28860644 67.00604105 1298.87219248 73.58349609 1304.05712891 C76.11167325 1306.08978538 78.49482177 1308.23428197 80.875 1310.4375 C151.5250715 1374.55410094 249.53194976 1412.23574142 418.83642578 1424.84326172 C426.24671713 1424.43671985 433.61862782 1423.75850447 441 1423 C443.20051644 1422.79162026 445.40103738 1422.58328809 447.6015625 1422.375 C508.59869232 1416.35299037 566.37701371 1397.37998592 621 1370 C622.26360352 1369.37013184 622.26360352 1369.37013184 623.55273438 1368.72753906 C658.09414089 1351.39671151 690.90876879 1328.39863869 719.41796875 1302.3359375 C721.53062793 1300.42463615 723.66341054 1298.54561198 725.8125 1296.67578125 C736.85197667 1287.03382103 747.25251732 1276.94195484 757 1266 C757.93106062 1264.98984682 758.86470092 1263.98206583 759.80078125 1262.9765625 C765.80315228 1256.52753713 771.53269951 1249.91118697 777 1243 C777.51433594 1242.35289063 778.02867187 1241.70578125 778.55859375 1241.0390625 C795.898986 1219.17334849 811.33011234 1196.32892774 825 1172 C825.50789063 1171.10458496 826.01578125 1170.20916992 826.5390625 1169.28662109 C839.4662234 1146.41334717 850.22944699 1122.61875235 858.99121094 1097.84912109 C859.64964517 1095.98950649 860.31659081 1094.13287737 860.99316406 1092.27978516 C865.96581639 1078.63832334 869.73722942 1064.761419 873.25 1050.6875 C873.45873749 1049.85226807 873.66747498 1049.01703613 873.88253784 1048.15649414 C878.29238595 1030.41854788 882.16797411 1012.77434418 884.38305664 994.61816406 C884.69010583 992.10366019 885.00916966 989.59089428 885.33007812 987.078125 C885.53714978 985.42977421 885.74355387 983.7813394 885.94921875 982.1328125 C886.04087814 981.40643585 886.13253754 980.6800592 886.22697449 979.93167114 C887.61659011 968.4708161 888.15778097 957.08039088 888.16796875 945.5390625 C888.17119913 944.17784595 888.17456437 942.81662972 888.17805481 941.45541382 C888.18399303 938.61658935 888.1859005 935.77779507 888.18530273 932.93896484 C888.18522193 930.08082691 888.19209966 927.22285083 888.20581055 924.36474609 C888.28705367 907.15033383 887.95280895 890.12697382 886 873 C885.92429779 872.30944519 885.84859558 871.61889038 885.77059937 870.90740967 C885.32628869 866.88705626 884.81093677 862.88062163 884.25 858.875 C884.08298584 857.67689697 883.91597168 856.47879395 883.74389648 855.24438477 C881.77608511 841.70256132 879.01063236 828.34414926 876 815 C875.79793945 814.09523926 875.59587891 813.19047852 875.38769531 812.25830078 C867.6120198 777.93692408 855.28198015 744.64949953 840 713 C839.6380957 712.24976563 839.27619141 711.49953125 838.90332031 710.7265625 C836.98924209 706.78484352 835.02410004 702.87243654 833.015625 698.97802734 C831.93491862 696.87324775 830.87413597 694.75898715 829.8125 692.64453125 C812.62959421 658.81860987 789.93110476 626.57981 764.3359375 598.58203125 C762.43681927 596.48283869 760.57137163 594.36310334 758.71484375 592.2265625 C750.155583 582.42604848 741.32161962 572.70128329 731.484375 564.16796875 C729.02003822 562.01748618 726.62948263 559.80497543 724.2421875 557.57006836 C718.03607882 551.76898043 711.66842727 546.26939793 705 541 C704.37029297 540.49774902 703.74058594 539.99549805 703.09179688 539.47802734 C629.36942431 480.7532682 542.07264568 444.76148859 441.41015625 432.91015625 C440.37114418 432.79358925 440.37114418 432.79358925 439.31114197 432.67466736 C417.17069155 430.34788557 395.33101325 431 373 431 C373 379.85 373 328.7 373 276 C385.30903739 272.92274065 398.84023914 273.81012044 411.4609375 273.76171875 C412.42965475 273.75687469 413.398372 273.75203064 414.39644432 273.74703979 C421.72262496 273.71081165 429.04873792 273.69474226 436.375 273.6875 C437.44721172 273.68620213 438.51942345 273.68490425 439.62412643 273.68356705 C471.21669733 273.65451768 502.63919027 273.7004506 534 278 C534.72646729 278.09901611 535.45293457 278.19803223 536.20141602 278.30004883 C544.42102517 279.43797734 552.58164961 280.81406861 560.73046875 282.38525391 C563.93894199 282.98851971 567.15174764 283.52508764 570.375 284.04296875 C622.69761867 292.66897924 674.36046699 311.07152504 722 334 C723.01545898 334.48581543 724.03091797 334.97163086 725.07714844 335.47216797 C740.51612429 342.89408489 755.31779443 351.18541422 770 360 C771.57790591 360.93526557 773.15601637 361.87018616 774.734375 362.8046875 C797.58460587 376.43896838 819.61096906 391.89640533 840 409 C841.85331423 410.50105309 843.70749732 412.001034 845.5625 413.5 C850.05491069 417.17328167 854.38966681 420.98778827 858.6796875 424.89453125 C860.70154184 426.72917685 862.74678522 428.52768786 864.8125 430.3125 C874.32375262 438.63720031 883.42424817 447.32628724 892.375 456.25 C893.21901367 457.08942139 894.06302734 457.92884277 894.93261719 458.79370117 C899.27492039 463.14675265 903.46811578 467.56801963 907.47607422 472.23095703 C909.55380448 474.64288165 911.71497502 476.97429114 913.875 479.3125 C917.91279322 483.74496474 921.77307434 488.27742177 925.53515625 492.9453125 C927.34085175 495.1831158 929.15979312 497.40481899 930.99609375 499.6171875 C952.09244113 525.11985606 970.82547487 553.13469361 987 582 C987.55316895 582.98291016 988.10633789 583.96582031 988.67626953 584.97851562 C1029.24731545 657.50597253 1054.08415193 738.18300796 1061 821 C1061.10296387 822.14936035 1061.20592773 823.2987207 1061.31201172 824.48291016 C1064.44259446 859.98757599 1063.79206309 895.58083639 1060 931 C1059.87978485 932.13317657 1059.87978485 932.13317657 1059.75714111 933.28924561 C1050.16680619 1022.58475131 1017.77399037 1108.76094252 969 1184 C968.52578613 1184.73283203 968.05157227 1185.46566406 967.56298828 1186.22070312 C958.37870894 1200.34825553 948.6655868 1214.14461116 938.25634766 1227.39648438 C936.94843073 1229.06581947 935.65137625 1230.74320402 934.35546875 1232.421875 C925.73302052 1243.54996544 916.60951509 1254.21670952 907.14453125 1264.63671875 C905.67479074 1266.25637814 904.21428095 1267.88444815 902.76171875 1269.51953125 C898.35938847 1274.46930156 893.82550893 1279.21245076 889.10546875 1283.859375 C887.19684143 1285.79987179 885.4364607 1287.79149234 883.6875 1289.875 C880.25038665 1293.88763 876.39911624 1297.39404926 872.48217773 1300.92431641 C869.48758158 1303.6253247 866.57626958 1306.37355996 863.75 1309.25 C860.75698453 1312.27959 857.67126737 1315.12757069 854.44140625 1317.90234375 C852.50031852 1319.57012632 850.57349044 1321.25086122 848.65234375 1322.94140625 C840.91976514 1329.72730505 833.04382339 1336.24731157 824.89697266 1342.52832031 C822.86193184 1344.10711388 820.84237912 1345.70438006 818.82421875 1347.3046875 C807.84488365 1355.98111742 796.5454165 1364.09604128 785 1372 C783.79555653 1372.83461177 782.59112788 1373.66924492 781.38671875 1374.50390625 C761.16136449 1388.37896556 739.7476107 1400.69771269 718 1412 C716.93410645 1412.55751953 715.86821289 1413.11503906 714.77001953 1413.68945312 C685.52114568 1428.91242576 655.18299663 1441.33592437 624 1452 C622.80020508 1452.41088867 621.60041016 1452.82177734 620.36425781 1453.24511719 C593.15468114 1462.42087935 564.83228034 1468.9428075 536.50048828 1473.57617188 C533.88684687 1474.01917925 531.28646765 1474.51339025 528.68359375 1475.015625 C477.09539554 1484.73500963 419.54635299 1484.60614893 367.46728516 1478.40576172 C364.09957805 1478.0116532 360.73221534 1477.68478736 357.35546875 1477.37890625 C262.45735093 1468.43700837 166.88899311 1437.0257706 47.51171875 1347.265625 C46.13288947 1346.02189097 44.74759583 1344.78474783 43.3347168 1343.57983398 C37.60890855 1338.67881216 32.26878623 1333.42151943 26.9543457 1328.0847168 C25.4400742 1326.56508332 23.9205257 1325.05087483 22.40039062 1323.53710938 C17.05643372 1318.19718865 11.88848433 1312.76415109 7 1307 C6.01552487 1305.87004542 5.02987981 1304.74110889 4.04296875 1303.61328125 C-42.76100467 1249.66643553 -75.23219771 1185.95919323 -99 1119 C-99.41878418 1117.82598633 -99.83756836 1116.65197266 -100.26904297 1115.44238281 C-111.36022274 1083.92204047 -118.56190036 1050.84458317 -124.44970703 1017.99072266 C-125.11958749 1014.35006801 -125.87063054 1010.72916272 -126.64819336 1007.11010742 C-127 1005 -127 1005 -127 1001 C-137.23 1001 -147.46 1001 -158 1001 C-151.98380424 1047.12416748 -143.45543372 1091.69467825 -129 1136 C-128.65888184 1137.04929687 -128.31776367 1138.09859375 -127.96630859 1139.1796875 C-110.22099832 1193.26693036 -84.12385264 1245.38426572 -50 1291 C-48.94602909 1292.4253485 -47.89264234 1293.85112913 -46.83984375 1295.27734375 C-41.09881241 1303.02633976 -35.21951945 1310.62602125 -29 1318 C-28.54657227 1318.53834473 -28.09314453 1319.07668945 -27.62597656 1319.63134766 C-26.12991771 1321.40373268 -24.6285943 1323.17150425 -23.125 1324.9375 C-22.45694336 1325.72471436 -22.45694336 1325.72471436 -21.77539062 1326.52783203 C-12.84320831 1336.94766743 -3.36345388 1346.80073261 6.35327148 1356.48364258 C8.19958246 1358.32454708 10.04042273 1360.17080272 11.88085938 1362.01757812 C17.74977205 1367.89014013 23.63068183 1373.66454755 30 1379 C31.04486099 1379.90035724 32.08915696 1380.80137072 33.1328125 1381.703125 C100.05593597 1438.66641025 179.57693277 1479.55353182 395 1526 C396.07109009 1526.10504852 396.07109009 1526.10504852 397.16381836 1526.21221924 C437.49231802 1530.12261623 480.72895835 1530.41225051 521 1526 C521.88798279 1525.90291748 522.77596558 1525.80583496 523.69085693 1525.70581055 C531.13190586 1524.88432492 538.56712222 1524.01724382 546 1523.125 C547.02445221 1523.00211609 548.04890442 1522.87923218 549.10440063 1522.75262451 C568.01395718 1520.45653337 586.90074633 1517.70354115 605.4375 1513.25 C607.02147583 1512.87548706 607.02147583 1512.87548706 608.63745117 1512.4934082 C612.09377456 1511.67095095 615.54684564 1510.83565391 619 1510 C620.25522461 1509.70077637 621.51044922 1509.40155273 622.80371094 1509.09326172 C675.0715156 1496.62839718 724.98532712 1478.03076476 773 1454 C774.1338916 1453.43700195 775.2677832 1452.87400391 776.43603516 1452.29394531 C794.22258418 1443.43008062 811.15876624 1433.51037632 828 1423 C829.79524797 1421.8914007 831.59079457 1420.78328477 833.38671875 1419.67578125 C851.39137369 1408.51196397 868.24434784 1395.94350154 885 1383 C885.68255859 1382.47486816 886.36511719 1381.94973633 887.06835938 1381.40869141 C898.63784456 1372.49779 909.72760821 1363.06448779 920.5234375 1353.23046875 C922.59972275 1351.36050206 924.69612326 1349.52071116 926.8046875 1347.6875 C930.86325295 1344.14228772 934.82304904 1340.50251761 938.75 1336.8125 C939.43956787 1336.16466553 940.12913574 1335.51683105 940.83959961 1334.84936523 C948.84721023 1327.29583738 956.83257247 1319.70800298 963.96875 1311.3125 C966.26028661 1308.70367371 968.63310146 1306.18307108 971.01611328 1303.65795898 C976.43020144 1297.91891176 981.69190577 1292.14288927 986.6171875 1285.97265625 C988.4328327 1283.70756445 990.26899223 1281.47099443 992.1328125 1279.24609375 C1018.39871024 1247.84072812 1041.21726876 1213.82589595 1061 1178 C1061.5878125 1176.93797363 1062.175625 1175.87594727 1062.78125 1174.78173828 C1096.93273608 1112.80212721 1120.28407483 1045.59438644 1133 976 C1133.1748291 975.06446289 1133.3496582 974.12892578 1133.52978516 973.16503906 C1148.28788669 893.46852449 1146.12851076 810.5472392 1127 717 C1126.83145508 716.22414551 1126.66291016 715.44829102 1126.48925781 714.64892578 C1124.30989023 704.65610547 1121.55698493 694.90278417 1118.55078125 685.12890625 C1117.53631506 681.81606945 1116.57385401 678.49647431 1115.66796875 675.15234375 C1105.557504 637.91651274 1090.25182405 602.42714333 1073 568 C1072.42636719 566.85015625 1071.85273437 565.7003125 1071.26171875 564.515625 C1053.53093491 529.134106 1032.1451387 495.37445869 1008 464 C1007.5153125 463.36658691 1007.030625 462.73317383 1006.53125 462.08056641 C1000.38711932 454.07274391 993.98204625 446.3058394 987.40917969 438.64746094 C985.97597461 436.9719121 984.55350262 435.28773026 983.1328125 433.6015625 C973.77535796 422.5323975 964.00561289 411.84342959 953.65625 401.69140625 C952.00591844 400.00604407 950.50214899 398.25526008 949 396.4375 C946.34888972 393.27464725 943.41050478 390.68214937 940.26953125 388.015625 C937.56864895 385.61690682 935.03388599 383.0716987 932.5 380.5 C928.1628049 376.11644533 923.70278209 371.98678758 919 368 C918.00742188 367.14148438 917.01484375 366.28296875 915.9921875 365.3984375 C903.00612862 354.17072998 889.88143189 343.11116644 876 333 C874.73683525 332.06529863 873.47382458 331.13038901 872.2109375 330.1953125 C845.44324265 310.4976782 817.30273333 292.68178618 788 277 C787.04528809 276.48646973 786.09057617 275.97293945 785.10693359 275.44384766 C738.0875736 250.26355945 688.67614723 231.61438916 637.16748047 217.85058594 C634.43138236 217.11584216 631.70108485 216.36415633 628.97265625 215.6015625 C551.93758917 194.29451953 464.80942272 188.01931589 385.453125 198.6328125 C381.65486843 199.03669951 377.81966984 199 374 199 C374 135.97 374 72.94 374 8 C465.8103696 3.88908793 465.8103696 3.88908793 486.39453125 3.76171875 C487.41148921 3.75439035 487.41148921 3.75439035 488.44899178 3.74691391 C493.57015678 3.71092032 498.6912174 3.69384017 503.8125 3.6875 C504.57476143 3.6864967 505.33702286 3.68549339 506.12238312 3.68445969 C565.35921828 3.63705601 624.42796292 9.08458454 682.375 21.75 C683.51509521 21.9975 684.65519043 22.245 685.82983398 22.5 C706.31259997 26.9999494 726.86581527 31.52877145 746.74780273 38.25976562 C749.45105033 39.14824765 752.17139212 39.97135896 754.89453125 40.796875 C844.77966128 68.33625912 929.19356723 111.8248064 1031.2265625 189.546875 C1032.8432593 190.87156929 1034.46808288 192.1863296 1036.09375 193.5 C1041.43054086 197.81740384 1046.60007006 202.26909833 1051.67578125 206.890625 C1053.72042335 208.74626657 1055.78784149 210.56756376 1057.875 212.375 C1065.53762133 219.06040444 1073.01242498 225.92603199 1080.14453125 233.17578125 C1082.01413647 235.01389838 1083.94850607 236.72985688 1085.9375 238.4375 C1092.51715082 244.11406149 1098.47192731 250.30946505 1104.12109375 256.90234375 C1106.32627296 259.364259 1108.64886677 261.6772364 1111 264 C1114.57083512 267.53313399 1117.96551225 271.13373095 1121.23046875 274.94921875 C1123.23786023 277.27566583 1125.30466638 279.54192686 1127.375 281.8125 C1131.20036325 286.05576008 1134.8509409 290.40859497 1138.44140625 294.8515625 C1140.32262409 297.17811454 1142.23129752 299.47966809 1144.15234375 301.7734375 C1153.16694686 312.56258909 1161.67257555 323.6739802 1170 335 C1170.84111328 336.13888672 1170.84111328 336.13888672 1171.69921875 337.30078125 C1196.3381127 370.71837851 1217.74912525 406.2405657 1237 443 C1237.76111084 444.45212891 1237.76111084 444.45212891 1238.53759766 445.93359375 C1265.56946932 497.87753956 1286.28615814 554.09498821 1300 611 C1300.4333667 612.77358887 1300.4333667 612.77358887 1300.87548828 614.58300781 C1310.07533708 652.74269195 1315.72350933 691.72197419 1318.82287598 730.82617188 C1319.08578441 734.05282481 1319.38635825 737.27598953 1319.6796875 740.5 C1324.03713661 792.21594763 1320.97504757 844.65637105 1314 896 C1313.8633493 897.01555969 1313.8633493 897.01555969 1313.72393799 898.05163574 C1308.11997396 939.57040542 1298.89300345 980.1233069 1286 1020 C1285.58284436 1021.30822335 1285.16634857 1022.61665727 1284.75048828 1023.92529297 C1267.89257529 1076.89451496 1245.37636804 1128.97191556 1216.49316406 1176.52636719 C1214.63656531 1179.60207984 1212.83836583 1182.7095428 1211.04052734 1185.81982422 C1194.58062361 1214.2041592 1175.50827251 1241.40490323 1155 1267 C1154.29230469 1267.89074219 1153.58460937 1268.78148437 1152.85546875 1269.69921875 C1150.91263913 1272.14020982 1148.95944654 1274.5723323 1147 1277 C1146.31679687 1277.84691406 1145.63359375 1278.69382812 1144.9296875 1279.56640625 C1136.51212755 1289.92996124 1127.86554958 1300.08378218 1118.79345703 1309.88037109 C1116.30773276 1312.56473661 1113.87569172 1315.28051421 1111.5 1318.0625 C1108.20520129 1321.87211101 1104.63826085 1325.39029267 1101.05566406 1328.92504883 C1097.73933967 1332.21333666 1094.643432 1335.62488097 1091.60546875 1339.16796875 C1087.78850456 1343.52357996 1083.6434413 1347.48291489 1079.25 1351.25 C1075.84159305 1354.18281528 1072.65628432 1357.30098279 1069.5 1360.5 C1065.79698188 1364.2478917 1062.0235326 1367.84424046 1058.015625 1371.265625 C1055.69885379 1373.25912581 1053.44580016 1375.31554388 1051.1875 1377.375 C1046.86739209 1381.27363397 1042.41928619 1384.97503858 1037.89453125 1388.6328125 C1035.38627168 1390.6841017 1032.91861567 1392.77467328 1030.4621582 1394.88745117 C1022.87603165 1401.4000142 1014.9754717 1407.4548826 1007 1413.48046875 C1005.19811061 1414.84948237 1003.40824597 1416.23183908 1001.625 1417.625 C934.90601872 1469.6658054 857.76454317 1510.10301096 778.25 1538.625 C777.04435898 1539.05755096 777.04435898 1539.05755096 775.81436157 1539.49884033 C766.48911428 1542.83047712 757.12149329 1545.95707934 747.65576172 1548.86474609 C744.42940396 1549.86665364 741.22731762 1550.917489 738.02734375 1552 C697.80518399 1565.36737449 655.79912852 1573.42930254 614 1580 C612.76983154 1580.19682373 611.53966309 1580.39364746 610.2722168 1580.59643555 C518.27567834 1595.11575605 421.32806979 1591.82292895 225 1550 C223.7723291 1549.59942383 222.5446582 1549.19884766 221.27978516 1548.78613281 C191.71813986 1539.08716543 163.03774647 1527.49933501 135 1514 C133.92556641 1513.48469727 132.85113281 1512.96939453 131.74414062 1512.43847656 C115.70049334 1504.70229649 100.24890533 1496.19723412 85 1487 C83.71512695 1486.22946289 83.71512695 1486.22946289 82.40429688 1485.44335938 C73.10982599 1479.86375175 63.92453452 1474.15950241 55 1468 C54.37834961 1467.57138672 53.75669922 1467.14277344 53.11621094 1466.70117188 C20.88432518 1444.4070633 -8.8116931 1419.20628882 -36.5625 1391.5625 C-37.39547607 1390.73419678 -38.22845215 1389.90589355 -39.08666992 1389.05249023 C-43.93124516 1384.19519315 -48.5295966 1379.20127541 -53 1374 C-54.45445517 1372.39231627 -55.91220895 1370.78760285 -57.375 1369.1875 C-62.10513275 1363.93801145 -66.58548951 1358.51631394 -71 1353 C-71.61415771 1352.23526367 -71.61415771 1352.23526367 -72.24072266 1351.45507812 C-84.22340326 1336.50303528 -95.61401876 1321.10527495 -106 1305 C-106.68328369 1303.95005859 -106.68328369 1303.95005859 -107.38037109 1302.87890625 C-141.07709928 1251.00622897 -164.76259318 1194.92085281 -183 1136 C-183.2779541 1135.10893555 -183.5559082 1134.21787109 -183.84228516 1133.29980469 C-198.80826197 1084.86652951 -210.09918587 1029.74728087 -210 979 C-209.41982806 978.99959982 -208.83965612 978.99919963 -208.24190321 978.99878732 C-145.06857422 978.95510669 -81.89524845 978.90772284 -18.72193909 978.84101868 C-17.77807605 978.84002311 -16.83421302 978.83902754 -15.86174807 978.83800181 C4.65160984 978.81634259 25.16496698 978.79401984 45.67832342 978.77101372 C55.73826691 978.75973534 65.79821056 978.74860355 75.8581543 978.73754883 C77.35977139 978.73589498 77.35977139 978.73589498 78.89172418 978.73420772 C111.33158777 978.69854786 143.77145033 978.67256603 176.21132647 978.65161031 C209.5512986 978.63002198 242.89124761 978.59865529 276.23119851 978.55500887 C280.94170381 978.54884675 285.65220924 978.54279625 290.36271477 978.53681374 C291.28979739 978.53563285 292.21688002 978.53445197 293.17205606 978.53323531 C308.08733669 978.51452374 323.00260618 978.50610079 337.91789711 978.50153876 C352.91775621 978.49673081 367.9175729 978.48105169 382.91740925 978.45433434 C391.82585833 978.4387956 400.73422373 978.43153369 409.64268561 978.43623071 C415.59997201 978.43854897 421.55717956 978.42996482 427.51444112 978.41267589 C430.90474567 978.40314405 434.29473199 978.39986505 437.68506474 978.40660437 C457.04302071 978.48133889 457.04302071 978.48133889 476 975 C476.78395616 974.7827732 477.56791231 974.5655464 478.37562472 974.34173697 C503.01798696 966.80277997 522.01239571 949.8965338 534.1875 927.4140625 C534.785625 926.28742187 535.38375 925.16078125 536 924 C536.7115625 922.71222656 536.7115625 922.71222656 537.4375 921.3984375 C547.86834173 900.86271785 549.78108649 873.75193433 543.25390625 851.7734375 C542.63322266 849.90558594 542.63322266 849.90558594 542 848 C541.79101074 847.36739258 541.58202148 846.73478516 541.36669922 846.08300781 C536.07813734 830.51443239 527.65286253 817.51987694 516 806 C515.20980469 805.19949219 514.41960938 804.39898438 513.60546875 803.57421875 C503.13135525 793.51698539 490.81269331 787.16677447 477 783 C475.99710938 782.69320312 474.99421875 782.38640625 473.9609375 782.0703125 C464.86895699 779.44040078 456.23424238 778.85195429 446.81747437 778.8613348 C445.70573559 778.85849258 444.59399682 778.85565036 443.448569 778.85272202 C439.71489137 778.84438516 435.98124481 778.84310759 432.24755859 778.84178162 C429.54715778 778.83721558 426.84676028 778.83225718 424.14636135 778.82681805 C418.27097958 778.81577443 412.39560209 778.80839451 406.52021217 778.80341911 C397.78373945 778.79600427 389.04728163 778.78291908 380.3108177 778.76867336 C365.61428991 778.74486967 350.91775948 778.72566261 336.22122192 778.70907402 C321.66952145 778.6926339 307.11782593 778.67415151 292.56613159 778.65294075 C291.66139706 778.65162314 290.75666253 778.65030554 289.8245118 778.648948 C285.2298341 778.64224593 280.63515645 778.63550736 276.04047883 778.62875474 C243.49525241 778.58098994 210.95002137 778.53780541 178.40478516 778.49731445 C146.78726871 778.45796723 115.1697561 778.41654534 83.55224609 778.37231445 C82.09039664 778.37027066 82.09039664 778.37027066 80.59901488 778.36818558 C70.81203163 778.35450022 61.02504845 778.34077268 51.2380653 778.32701423 C31.30080038 778.29898759 11.36353508 778.27124248 -8.57373047 778.2436676 C-9.49041642 778.2423994 -10.40710236 778.2411312 -11.35156667 778.23982458 C-72.56770489 778.15516673 -133.78385182 778.07707182 -195 778 C-195.33 778.66 -195.66 779.32 -196 780 C-213.29632635 750.4288614 -218.45860912 706.99787076 -210 674 C-204.11014663 653.10977102 -193.06354362 634.16836276 -180 617 C-179.53062012 616.38044434 -179.06124023 615.76088867 -178.57763672 615.12255859 C-172.82769436 607.57613687 -166.77674262 600.29884705 -160.62109375 593.08203125 C-137.66608627 566.15162241 -114.59665545 534.99499834 -115.65234375 497.6328125 C-116.97561874 483.8053323 -120.46391682 470.70878985 -126 458 C-126.3103418 457.28054199 -126.62068359 456.56108398 -126.94042969 455.81982422 C-137.76800275 431.07032231 -152.90496089 408.41046533 -168.75 386.625 C-193.12538895 353.10019321 -209.31654716 317.86298298 -217 277 C-217.16516113 276.15179688 -217.33032227 275.30359375 -217.50048828 274.4296875 C-226.85472741 225.05633019 -216.07897365 170.45530311 -188.15234375 128.69140625 C-181.96884067 119.65173282 -175.24902569 111.20080616 -168 103 C-167.31035156 102.19949219 -166.62070313 101.39898437 -165.91015625 100.57421875 C-155.28716675 88.44239773 -143.78380658 76.84016691 -131 67 C-129.67564701 65.93798656 -128.35286055 64.87401805 -127.03125 63.80859375 C-96.55919415 39.4234721 -40.74415952 0 0 0 Z " fill="#00AEEF" transform="translate(312,75)"/>
<path d="M0 0 C0.02187378 1.2375 0.02187378 1.2375 0.04418945 2.5 C0.81169586 41.37975924 9.51854711 67.48869659 38 95 C39.23335447 96.12272916 40.47978379 97.23165089 41.75 98.3125 C43.9776078 100.22308581 46.15752626 102.14971727 48.28515625 104.171875 C62.32515564 117.45236901 78.54449154 127.98262481 95 138 C95.60102539 138.36834961 96.20205078 138.73669922 96.82128906 139.11621094 C103.31665963 143.09166356 109.88684165 146.93681895 116.46484375 150.7734375 C151.54848564 171.23922094 186.45304608 191.78494294 216 220 C216.5576001 220.53206055 217.1152002 221.06412109 217.68969727 221.61230469 C234.44975859 237.95793708 244.01853169 256.96009872 251 279 C251.21140625 279.66451172 251.4228125 280.32902344 251.640625 281.01367188 C254.40966528 289.85402006 256.51732463 298.85572565 258 308 C258.17136475 309.04728271 258.34272949 310.09456543 258.51928711 311.17358398 C260.01999952 321.21918273 260.36215272 331.04693695 260.3125 341.1875 C260.31001251 342.00214722 260.30752502 342.81679443 260.30496216 343.65612793 C260.24682342 355.98395753 259.88321515 367.95959821 257 380 C256.76893555 380.96760254 256.53787109 381.93520508 256.29980469 382.93212891 C247.57588235 418.32711193 230.98468046 449.48932835 206.37109375 476.3828125 C205.0416365 477.85025296 203.72039678 479.32561663 202.43041992 480.82788086 C198.33173713 485.5990083 194.04000081 490.02694128 189.4375 494.3125 C188.39215088 495.28678955 188.39215088 495.28678955 187.32568359 496.28076172 C180.83739392 502.25918352 174.07371994 507.735285 167 513 C166.31180176 513.51804199 165.62360352 514.03608398 164.91455078 514.56982422 C124.46186521 544.92961431 76.42495091 560.93877683 29.51147461 578.44920349 C-31.14923261 601.08414857 -31.14923261 601.08414857 -90 628 C-91.37865234 628.68739258 -91.37865234 628.68739258 -92.78515625 629.38867188 C-109.38316774 637.71128788 -125.29319731 647.00742837 -139.9453125 658.453125 C-142 660 -142 660 -143 660 C-144.48985141 631.19620613 -130.3945441 606.03101471 -113 584 C-112.33097656 583.14921875 -111.66195312 582.2984375 -110.97265625 581.421875 C-108.99769035 578.93459121 -107.0033486 576.46446753 -105 574 C-103.95392578 572.70835937 -103.95392578 572.70835937 -102.88671875 571.390625 C-99.32916318 567.01792792 -95.73704927 562.68421023 -92.05932617 558.41186523 C-62.03102129 523.40289117 -43.72820872 484.02560937 -47 437 C-49.3474728 417.66085889 -57.87010937 399.13127606 -66.91064453 382.06347656 C-67.64957408 380.66378303 -68.37944748 379.25927813 -69.10107422 377.85058594 C-79.95253892 356.68444541 -93.71836843 337.02493596 -107.75244141 317.86328125 C-112.46420499 311.41868536 -116.86428229 304.82839041 -121 298 C-121.3707666 297.3901123 -121.7415332 296.78022461 -122.12353516 296.15185547 C-133.576429 277.10599067 -141.31936197 256.39080511 -146.25 234.75 C-146.40114258 234.09056396 -146.55228516 233.43112793 -146.70800781 232.75170898 C-149.65656166 219.00232951 -150.41060046 205.44430144 -150.375 191.4375 C-150.3737915 190.55537842 -150.37258301 189.67325684 -150.37133789 188.7644043 C-150.26656346 160.54430461 -144.14955931 133.67961369 -130 109 C-129.63181152 108.35160156 -129.26362305 107.70320313 -128.88427734 107.03515625 C-115.21829661 83.30041866 -95.42444742 61.87032023 -74 45 C-72.94170826 44.14055291 -71.88445331 43.27982791 -70.828125 42.41796875 C-18.42810581 0 -18.42810581 0 0 0 Z " fill="#FEFEFE" transform="translate(274,122)"/>
<path d="M0 0 C64.16363636 0 64.16363636 0 76.11328125 10.93359375 C87.43165378 22.55037911 90.39904129 37.09480662 90.3125 52.75 C90.30512817 54.32998779 90.30512817 54.32998779 90.29760742 55.94189453 C90.05799698 71.92329657 86.61668341 84.99298762 75.37890625 96.8046875 C56.27721315 114.43219411 20.78119974 107 0 107 C0 71.69 0 36.38 0 0 Z " fill="#00AEEF" transform="translate(132,899)"/>
<path d="M0 0 C8.889375 -0.04125 17.77875 -0.0825 26.9375 -0.125 C29.72695068 -0.14320801 32.51640137 -0.16141602 35.39038086 -0.18017578 C37.6235332 -0.18602194 39.85668769 -0.1911172 42.08984375 -0.1953125 C43.23134888 -0.20554443 44.372854 -0.21577637 45.5489502 -0.22631836 C56.54811277 -0.22870145 65.74729231 1.03549326 73.94921875 8.859375 C80.13634923 15.5523715 82.484258 22.02002156 83 31 C83.06445312 31.721875 83.12890625 32.44375 83.1953125 33.1875 C83.67915285 42.21918661 80.56108515 49.61273678 74.75 56.4375 C64.87910374 66.4997545 53.14353013 66.95301104 39.625 67.1171875 C33.74728233 67.15420801 27.87983947 67.06681636 22 67 C22 80.2 22 93.4 22 107 C14.74 107 7.48 107 0 107 C0 71.69 0 36.38 0 0 Z " fill="#03AFEF" transform="translate(439,899)"/>
<path d="M0 0 C7.92 0 15.84 0 24 0 C29.47976397 13.65430042 34.95668037 27.30973351 40.42835999 40.96727562 C42.96892372 47.30836295 45.51078025 53.64892633 48.05566406 59.98828125 C50.5096887 66.10131465 52.96013215 72.21577527 55.40835571 78.3311348 C56.34494476 80.66890012 57.28275147 83.00617797 58.22177124 85.34296799 C59.53254458 88.60547178 60.83905329 91.86965173 62.14453125 95.13427734 C62.53726227 96.10891434 62.92999329 97.08355133 63.33462524 98.08772278 C63.68801971 98.97395828 64.04141418 99.86019379 64.40551758 100.77328491 C64.71524002 101.54574743 65.02496246 102.31820995 65.34407043 103.11408043 C66 105 66 105 66 107 C58.08 107 50.16 107 42 107 C39.03 99.41 36.06 91.82 33 84 C18.81 83.67 4.62 83.34 -10 83 C-10.33 84.98 -10.66 86.96 -11 89 C-11.49399097 90.52456109 -12.03557751 92.03472174 -12.62890625 93.5234375 C-12.91064697 94.23935059 -13.1923877 94.95526367 -13.48266602 95.69287109 C-13.83901123 96.57797363 -14.19535645 97.46307617 -14.5625 98.375 C-15.696875 101.22125 -16.83125 104.0675 -18 107 C-25.59 107 -33.18 107 -41 107 C-40.30089853 103.50449266 -39.65752005 100.8176003 -38.39624023 97.58496094 C-38.06699051 96.7351918 -37.73774078 95.88542267 -37.39851379 95.00990295 C-36.85900337 93.63601662 -36.85900337 93.63601662 -36.30859375 92.234375 C-35.93139694 91.26426987 -35.55420013 90.29416473 -35.16557312 89.29466248 C-33.92680652 86.11156344 -32.6822353 82.93076922 -31.4375 79.75 C-30.57827136 77.54611309 -29.71938795 75.34209156 -28.86083984 73.13793945 C-27.1042916 68.63030677 -25.34534617 64.12362053 -23.58447266 59.61767578 C-21.1683213 53.43382891 -18.76084198 47.24663929 -16.35546875 41.05859375 C-15.28501875 38.30698725 -14.21428477 35.55549154 -13.14334106 32.80407715 C-12.47253614 31.08047698 -11.80201709 29.35676551 -11.13180542 27.63293457 C-7.5298765 18.37294482 -3.86712106 9.15316676 0 0 Z " fill="#01AEEF" transform="translate(719,899)"/>
<path d="M0 0 C7.26 0 14.52 0 22 0 C22.33 14.85 22.66 29.7 23 45 C27.51288737 40.48711263 31.71449018 36.24054696 35.828125 31.45703125 C39.3749452 27.44453142 43.05953091 23.56089264 46.72265625 19.65478516 C50.9207864 15.17235979 55.05551791 10.64368702 59.1328125 6.05078125 C59.74898437 5.37402344 60.36515625 4.69726562 61 4 C61.55961426 3.30575928 62.11922852 2.61151855 62.69580078 1.89624023 C65.81418203 -0.67003092 67.73449576 -0.46079832 71.734375 -0.390625 C73.67763672 -0.37128906 73.67763672 -0.37128906 75.66015625 -0.3515625 C77.02344824 -0.31814366 78.38672949 -0.28428391 79.75 -0.25 C81.12888064 -0.22992707 82.50778912 -0.21167767 83.88671875 -0.1953125 C87.25851744 -0.14815448 90.62890687 -0.08234538 94 0 C89.84356813 4.90698633 85.58603891 9.68437062 81.1875 14.375 C80.55457031 15.05473877 79.92164063 15.73447754 79.26953125 16.43481445 C75.67039207 20.26984079 71.9995642 24.00018589 68.20703125 27.64453125 C67.42239502 28.4039502 66.63775879 29.16336914 65.8293457 29.94580078 C64.29769904 31.41981604 62.75350195 32.88091972 61.19604492 34.32763672 C60.5022876 34.99682129 59.80853027 35.66600586 59.09375 36.35546875 C58.47177734 36.93965576 57.84980469 37.52384277 57.20898438 38.12573242 C55.75526457 39.97353524 55.75526457 39.97353524 56.14868164 42.45581055 C57.01840565 45.05500583 58.04358002 47.05099875 59.52734375 49.3515625 C60.06351318 50.18969482 60.59968262 51.02782715 61.15209961 51.89135742 C61.74128174 52.79345947 62.33046387 53.69556152 62.9375 54.625 C63.54924072 55.57415283 64.16098145 56.52330566 64.79125977 57.5012207 C70.66588417 66.57712367 76.66460919 75.57307064 82.69311523 84.54736328 C86.17422938 89.73489063 89.63794061 94.93282756 93.03515625 100.17578125 C93.60758057 101.05790283 94.18000488 101.94002441 94.76977539 102.84887695 C96 105 96 105 96 107 C72.25555792 109.32835473 72.25555792 109.32835473 66.01611328 105.91455078 C62.90954351 102.75549408 61.57846723 98.66632924 60.07324219 94.57373047 C57.86660025 89.28200633 54.69592576 84.46762033 51.75 79.5625 C50.57573311 77.54435859 49.40376494 75.52487746 48.234375 73.50390625 C46.24802308 70.08993717 44.20878944 66.72794835 42.078125 63.40234375 C40 60 40 60 40 58 C38.12443736 59.58937324 36.27499206 61.1973508 34.45092773 62.84594727 C32 65 32 65 29.62304688 66.765625 C25.55309751 70.10576693 23.30388074 72.58173883 22.18139648 77.82055664 C21.78709798 82.23524414 21.85281594 86.63574718 21.9375 91.0625 C21.93442015 92.61134162 21.92729213 94.16018074 21.91601562 95.70898438 C21.88981066 99.47645221 21.94665408 103.22951038 22 107 C14.74 107 7.48 107 0 107 C0 71.69 0 36.38 0 0 Z " fill="#00AEEF" transform="translate(581,899)"/>
<path d="M0 0 C26.4 0 52.8 0 80 0 C80 5.94 80 11.88 80 18 C60.86 18 41.72 18 22 18 C22 25.92 22 33.84 22 42 C39.82 42 57.64 42 76 42 C76 47.94 76 53.88 76 60 C58.18 60 40.36 60 22 60 C22 69.57 22 79.14 22 89 C41.8 89 61.6 89 82 89 C82 94.94 82 100.88 82 107 C54.94 107 27.88 107 0 107 C0 71.69 0 36.38 0 0 Z " fill="#00AEEF" transform="translate(240,899)"/>
<path d="M0 0 C26.07 0 52.14 0 79 0 C79 5.94 79 11.88 79 18 C60.19 18 41.38 18 22 18 C22 25.92 22 33.84 22 42 C39.49 42 56.98 42 75 42 C75 47.94 75 53.88 75 60 C57.51 60 40.02 60 22 60 C22 69.57 22 79.14 22 89 C41.47 89 60.94 89 81 89 C81 94.94 81 100.88 81 107 C54.27 107 27.54 107 0 107 C0 71.69 0 36.38 0 0 Z " fill="#00AEEF" transform="translate(340,899)"/>
<path d="M0 0 C29.66666667 0 29.66666667 0 37 6 C44.45558372 13.45558372 45.39133768 21.62526444 45.45898438 31.91796875 C45.45189453 33.22378906 45.44480469 34.52960937 45.4375 35.875 C45.4674707 37.82212891 45.4674707 37.82212891 45.49804688 39.80859375 C45.49334704 49.12366819 44.55241617 57.51273747 38.625 65 C26.97926881 73.87293805 14.84905833 71 0 71 C0 47.57 0 24.14 0 0 Z " fill="#FBFDFE" transform="translate(154,917)"/>
<path d="M0 0 C7.26 0 14.52 0 22 0 C22 35.31 22 70.62 22 107 C14.74 107 7.48 107 0 107 C0 71.69 0 36.38 0 0 Z " fill="#04AFEF" transform="translate(538,899)"/>
<path d="M0 0 C3.609375 -0.061875 7.21875 -0.12375 10.9375 -0.1875 C12.61573853 -0.22846802 12.61573853 -0.22846802 14.32788086 -0.27026367 C22.13900638 -0.33447605 28.80452972 0.4036804 35 5.4375 C38.41157154 9.80857603 38.37945012 13.4979733 38 19 C36.14984441 24.24210749 33.7645613 26.27018665 29 29 C25.625 29.828125 25.625 29.828125 22 30.25 C20.824375 30.39953125 19.64875 30.5490625 18.4375 30.703125 C12.30457955 31.11342602 6.14662998 31 0 31 C0 20.77 0 10.54 0 0 Z " fill="#F8FCFE" transform="translate(461,917)"/>
<path d="M0 0 C2.6316787 2.6316787 3.54618289 5.63348233 4.8203125 9.0546875 C5.21559647 10.10162277 5.21559647 10.10162277 5.61886597 11.16970825 C6.17459156 12.64645423 6.72751047 14.12425901 7.27783203 15.60302734 C8.1203409 17.86250503 8.97555746 20.11687838 9.83203125 22.37109375 C10.37056886 23.80700042 10.90835431 25.24318946 11.4453125 26.6796875 C11.70152374 27.35272919 11.95773499 28.02577087 12.22171021 28.71920776 C13.45778984 32.07070606 14 34.36881385 14 38 C5.09 38 -3.82 38 -13 38 C-12.10983052 33.54915259 -10.84186193 29.52478792 -9.27734375 25.29296875 C-8.87993736 24.20487663 -8.87993736 24.20487663 -8.47450256 23.09480286 C-7.63223577 20.79110656 -6.78494734 18.48929494 -5.9375 16.1875 C-5.36359921 14.62056466 -4.79002787 13.05350862 -4.21679688 11.48632812 C-2.81500906 7.65614382 -1.4087164 3.82764115 0 0 Z " fill="#FAFDFE" transform="translate(730,925)"/>
</svg>
