<?xml version="1.0" encoding="UTF-8"?>
<svg version="1.1" xmlns="http://www.w3.org/2000/svg" width="1024" height="1024">
<path d="M0 0 C1.36303823 -0.00195463 2.72607588 -0.00434413 4.08911267 -0.00712797 C7.84114517 -0.01351722 11.59315622 -0.01369045 15.34519312 -0.01285056 C19.42492239 -0.01302027 23.50464403 -0.01892883 27.58436948 -0.02409142 C35.67912449 -0.03341406 43.77387403 -0.03733891 51.86863374 -0.03961039 C61.56369077 -0.04257337 71.25874056 -0.0512714 80.9537938 -0.06002467 C104.38890771 -0.08086708 127.82402288 -0.09133888 151.2591439 -0.10015428 C162.34745662 -0.10436142 173.43576879 -0.10958335 184.52408106 -0.11483881 C222.48584802 -0.13272958 260.44761513 -0.14772493 298.40938568 -0.155159 C300.79259446 -0.15563375 303.17580324 -0.15610964 305.55901201 -0.15658666 C306.74086231 -0.15682303 307.9227126 -0.15705941 309.14037654 -0.15730295 C315.12814965 -0.15850414 321.11592276 -0.15971959 327.10369587 -0.16094494 C328.29198495 -0.16118509 329.48027404 -0.16142524 330.70457188 -0.16167267 C369.22245362 -0.16956371 407.74030456 -0.19299123 446.25817285 -0.22550088 C486.98761432 -0.25981432 527.71703776 -0.27951158 568.44649392 -0.28280324 C572.91954697 -0.28322077 577.3926 -0.28370033 581.86565304 -0.28422642 C582.96703316 -0.28434961 584.06841328 -0.2844728 585.20316856 -0.28459973 C602.91310114 -0.28692995 620.6229979 -0.30258009 638.33291772 -0.32306826 C656.14259897 -0.34334457 673.95223727 -0.34879503 691.76192793 -0.33929763 C702.33573122 -0.33408959 712.90939132 -0.33992718 723.48317396 -0.3618323 C730.55664962 -0.37537546 737.6300271 -0.37423243 744.70350382 -0.36143034 C748.72710423 -0.35455704 752.75043159 -0.35378325 756.77400722 -0.37099043 C776.53689988 -0.45036396 795.803947 -0.01770333 814.4818697 7.32172108 C815.25152058 7.61578846 816.02117146 7.90985584 816.81414509 8.21283436 C848.24366544 20.66573571 873.40161783 45.3081037 887.5131197 75.88031483 C894.42610804 92.26339178 897.88702703 108.67594598 897.86609077 126.40235138 C897.86804541 127.76538961 897.8704349 129.12842726 897.87321874 130.49146405 C897.87960799 134.24349655 897.87978123 137.9955076 897.87894134 141.7475445 C897.87911105 145.82727377 897.8850196 149.90699541 897.8901822 153.98672086 C897.89950484 162.08147587 897.90342968 170.17622541 897.90570116 178.27098511 C897.90866414 187.96604215 897.91736217 197.66109194 897.92611544 207.35614518 C897.94695785 230.79125909 897.95742966 254.22637426 897.96624505 277.66149528 C897.9704522 288.749808 897.97567412 299.83812017 897.98092958 310.92643244 C897.99882036 348.8881994 898.0138157 386.84996651 898.02124977 424.81173706 C898.02172453 427.19494584 898.02220042 429.57815462 898.02267743 431.96136339 C898.023032 433.73413883 898.023032 433.73413883 898.02339372 435.54272792 C898.02459491 441.53050103 898.02581037 447.51827414 898.02703571 453.50604725 C898.02727586 454.69433633 898.02751601 455.88262542 898.02776344 457.10692326 C898.03565448 495.624805 898.059082 534.14265593 898.09159166 572.66052423 C898.1259051 613.3899657 898.14560235 654.11938914 898.14889401 694.8488453 C898.14931154 699.32189835 898.14979111 703.79495138 898.15031719 708.26800442 C898.15044038 709.36938454 898.15056358 710.47076466 898.1506905 711.60551994 C898.15302072 729.31545252 898.16867086 747.02534928 898.18915904 764.7352691 C898.20943535 782.54495035 898.2148858 800.35458865 898.2053884 818.1642793 C898.20018037 828.7380826 898.20601796 839.3117427 898.22792308 849.88552534 C898.24146623 856.959001 898.2403232 864.03237848 898.22752112 871.1058552 C898.22064781 875.12945561 898.21987403 879.15278297 898.23708121 883.1763586 C898.31645473 902.93925126 897.88379411 922.20629838 890.5443697 940.88422108 C890.25030231 941.65387196 889.95623493 942.42352283 889.65325642 943.21649647 C877.20035507 974.64601682 852.55798707 999.80396921 821.98577595 1013.91547108 C805.60269899 1020.82845942 789.19014479 1024.2893784 771.4637394 1024.26844215 C770.10070117 1024.27039679 768.73766351 1024.27278628 767.37462673 1024.27557012 C763.62259423 1024.28195937 759.87058318 1024.28213261 756.11854628 1024.28129272 C752.03881701 1024.28146243 747.95909537 1024.28737098 743.87936991 1024.29253358 C735.78461491 1024.30185622 727.68986537 1024.30578106 719.59510566 1024.30805254 C709.90004862 1024.31101552 700.20499883 1024.31971355 690.5099456 1024.32846682 C667.07483169 1024.34930923 643.63971652 1024.35978104 620.2045955 1024.36859643 C609.11628278 1024.37280357 598.0279706 1024.3780255 586.93965834 1024.38328096 C548.97789138 1024.40117174 511.01612426 1024.41616708 473.05435371 1024.42360115 C470.67114494 1024.42407591 468.28793616 1024.4245518 465.90472738 1024.42502881 C464.72287709 1024.42526519 463.5410268 1024.42550156 462.32336286 1024.4257451 C456.33558975 1024.42694629 450.34781663 1024.42816175 444.36004353 1024.42938709 C443.17175444 1024.42962724 441.98346536 1024.42986739 440.75916751 1024.43011482 C402.24128577 1024.43800586 363.72343484 1024.46143338 325.20556655 1024.49394304 C284.47612508 1024.52825647 243.74670163 1024.54795373 203.01724547 1024.55124539 C198.54419243 1024.55166292 194.07113939 1024.55214249 189.59808636 1024.55266857 C188.49670624 1024.55279176 187.39532612 1024.55291495 186.26057084 1024.55304188 C168.55063825 1024.5553721 150.8407415 1024.57102224 133.13082167 1024.59151042 C115.32114042 1024.61178673 97.51150212 1024.61723718 79.70181147 1024.60773978 C69.12800817 1024.60253175 58.55434807 1024.60836934 47.98056544 1024.63027446 C40.90708978 1024.64381761 33.8337123 1024.64267458 26.76023558 1024.6298725 C22.73663516 1024.62299919 18.7133078 1024.6222254 14.68973217 1024.63943259 C-5.07316049 1024.71880611 -24.3402076 1024.28614549 -43.0181303 1016.94672108 C-44.17260662 1016.50562 -44.17260662 1016.50562 -45.35040569 1016.0556078 C-76.77992604 1003.60270645 -101.93787844 978.96033845 -116.0493803 948.38812733 C-122.96236864 932.00505037 -126.42328763 915.59249617 -126.40235138 897.86609077 C-126.40430601 896.50305255 -126.40669551 895.14001489 -126.40947935 893.77697811 C-126.4158686 890.02494561 -126.41604183 886.27293456 -126.41520194 882.52089766 C-126.41537165 878.44116839 -126.42128021 874.36144675 -126.4264428 870.28172129 C-126.43576544 862.18696629 -126.43969029 854.09221675 -126.44196177 845.99745704 C-126.44492475 836.3024 -126.45362278 826.60735021 -126.46237605 816.91229698 C-126.48321846 793.47718307 -126.49369026 770.0420679 -126.50250566 746.60694688 C-126.5067128 735.51863416 -126.51193473 724.43032198 -126.51719018 713.34200972 C-126.53508096 675.38024276 -126.55007631 637.41847564 -126.55751038 599.45670509 C-126.55798513 597.07349632 -126.55846102 594.69028754 -126.55893804 592.30707876 C-126.55917441 591.12522847 -126.55941079 589.94337818 -126.55965433 588.72571424 C-126.56085552 582.73794112 -126.56207097 576.75016801 -126.56329632 570.76239491 C-126.56353647 569.57410582 -126.56377662 568.38581674 -126.56402405 567.16151889 C-126.57191509 528.64363715 -126.59534261 490.12578622 -126.62785226 451.60791793 C-126.6621657 410.87847646 -126.68186296 370.14905301 -126.68515462 329.41959685 C-126.68557215 324.94654381 -126.68605171 320.47349077 -126.6865778 316.00043774 C-126.68670099 314.89905762 -126.68682418 313.79767749 -126.68695111 312.66292222 C-126.68928133 294.95298963 -126.70493147 277.24309288 -126.72541964 259.53317305 C-126.74569595 241.7234918 -126.75114641 223.9138535 -126.74164901 206.10416285 C-126.73644097 195.53035955 -126.74227856 184.95669945 -126.76418368 174.38291682 C-126.77772684 167.30944116 -126.77658381 160.23606368 -126.76378172 153.16258696 C-126.75690842 149.13898654 -126.75613463 145.11565918 -126.77334181 141.09208355 C-126.85271534 121.32919089 -126.42005471 102.06214378 -119.0806303 83.38422108 C-118.63952923 82.22974476 -118.63952923 82.22974476 -118.18951702 81.05194569 C-105.73661567 49.62242534 -81.09424768 24.46447294 -50.52203655 10.35297108 C-34.1389596 3.43998274 -17.7264054 -0.02093625 0 0 Z " fill="#E00713" transform="translate(126.2681303024292,-0.13422107696533203)"/>
<path d="M0 0 C45.48739502 -0.04415263 90.97476971 -0.08105718 136.46218006 -0.10213066 C141.84148596 -0.10463185 147.22079182 -0.10722052 152.60009766 -0.10986328 C153.67094814 -0.1103879 154.74179863 -0.11091252 155.84509914 -0.11145304 C173.14760165 -0.12013796 190.45009078 -0.13589732 207.75258537 -0.15430559 C225.52778583 -0.173058 243.30297931 -0.18412798 261.07818925 -0.18817699 C272.03220816 -0.190911 282.9861892 -0.19952264 293.94019644 -0.21583293 C301.46816661 -0.22646586 308.99611742 -0.22958647 316.52409454 -0.22700275 C320.85686602 -0.2257312 325.18957169 -0.22757633 329.52233124 -0.23841095 C354.21889941 -0.29701287 378.14076088 0.97634809 402.5 5.25 C403.39130615 5.40472778 404.2826123 5.55945557 405.20092773 5.71887207 C418.72023693 8.07910858 431.92141889 10.78997961 445 15 C446.21494141 15.38140137 447.42988281 15.76280273 448.68164062 16.15576172 C510.960654 35.73989841 567.85389831 67.6457767 615.46044922 112.55761719 C617.55921081 114.5239165 619.68657171 116.45790312 621.81445312 118.39257812 C628.59846641 124.56526606 635.08222173 130.83194821 641.06640625 137.7890625 C643.24595981 140.2812389 645.4977328 142.69838668 647.75 145.125 C653.05048523 150.93947167 657.88693817 157.05631628 662.67822266 163.29296875 C663.88717832 164.85429458 665.12015565 166.3969437 666.35546875 167.9375 C680.23733413 185.42353479 692.01819119 204.59495117 703 224 C703.40766602 224.71607422 703.81533203 225.43214844 704.23535156 226.16992188 C735.76500213 282.0377793 752.4916713 347.74374964 752.375 411.8125 C752.37512085 412.84315582 752.3752417 413.87381165 752.37536621 414.93569946 C752.33130302 441.60392124 750.43561166 468.52186588 744.54296875 494.59570312 C743.94311845 497.25187478 743.37770357 499.91437525 742.8125 502.578125 C740.62648783 512.71735366 738.16440284 522.68180621 734.83984375 532.51171875 C734.20779272 534.38435366 733.5842314 536.25985729 732.96484375 538.13671875 C714.46139968 594.14883928 685.95602766 645.99903686 645.546875 689.26953125 C643.15591984 691.83284054 640.82355911 694.43819654 638.5 697.0625 C631.76177553 704.5601308 624.67849886 711.73065349 617.00390625 718.2734375 C614.74766614 720.21741046 612.56636107 722.23323518 610.375 724.25 C593.7116789 739.24192415 575.01914518 752.19980044 556 764 C555.34273926 764.40782715 554.68547852 764.8156543 554.00830078 765.23583984 C525.99073879 782.4651498 496.23728931 795.8035599 465 806 C463.4855127 806.50442627 463.4855127 806.50442627 461.94042969 807.01904297 C435.88115774 815.65812581 409.36657092 820.7138722 382.10402811 823.75858521 C380.73099669 823.91612593 379.3587419 824.08063661 377.98750079 824.25306678 C360.76442973 826.40859687 343.53390954 826.27551727 326.21168864 826.23213124 C321.82142411 826.2233871 317.43116435 826.22642454 313.04089355 826.22793579 C305.45869203 826.2289778 297.87652528 826.22277336 290.2943325 826.21146011 C279.33214328 826.1951144 268.36997064 826.18998789 257.40777055 826.18748413 C239.61664548 826.18312116 221.82553888 826.16985024 204.03442383 826.15087891 C186.76554455 826.13248375 169.49667032 826.1183451 152.2277832 826.10986328 C151.16096898 826.10933783 150.09415476 826.10881239 148.99501284 826.10827102 C143.64241462 826.10566069 138.28981635 826.10313334 132.93721807 826.10064721 C88.62479563 826.0799583 44.31240741 826.04311223 0 826 C0 790.36 0 754.72 0 718 C10.63879395 717.98018066 21.27758789 717.96036133 32.23876953 717.93994141 C66.3429561 717.87502887 100.44711561 717.80048942 134.5512687 717.71994839 C139.85546803 717.70743066 145.15966754 717.69499771 150.46386719 717.68261719 C151.5197646 717.68015119 152.57566202 717.6776852 153.66355632 717.67514448 C170.72354847 717.63550354 187.78354718 717.60271801 204.84355833 717.57250018 C222.37017647 717.54130198 239.89676699 717.50265732 257.42335403 717.45720994 C268.22380712 717.42943518 279.02424019 717.40735486 289.82471924 717.39273749 C297.24758415 717.38213296 304.67041012 717.36424568 312.09324558 717.34083296 C316.36524398 717.32756724 320.63718821 717.31731863 324.9092083 717.31578636 C347.78507461 717.30472497 370.2558484 716.63688701 392.79882812 712.39892578 C394.96045735 712.00716645 397.1250154 711.66955366 399.296875 711.33984375 C423.78651205 707.34343744 448.90845812 698.1688249 471 687 C471.93086426 686.5359375 472.86172852 686.071875 473.82080078 685.59375 C485.63693584 679.67701538 497.12579085 673.52521959 508 666 C508.84667236 665.41702148 508.84667236 665.41702148 509.71044922 664.82226562 C523.13064443 655.54429042 535.68981352 645.54084916 547.55419922 634.34423828 C549.61606408 632.42721229 551.7454992 630.5912435 553.875 628.75 C557.26037725 625.75784261 560.24291797 622.6052158 563.15234375 619.15234375 C564.43975935 617.65262706 565.76922659 616.18843067 567.12890625 614.75390625 C580.72240065 600.39899701 591.90524149 583.94529046 602 567 C602.43119141 566.28199219 602.86238281 565.56398438 603.30664062 564.82421875 C637.22172826 507.83020052 653.16880065 431.65898703 640 366 C639.65340332 364.26919189 639.65340332 364.26919189 639.29980469 362.50341797 C627.64294134 306.08859821 601.94351501 254.92398533 563.1171875 212.3359375 C561.20919797 210.23081252 559.34952931 208.09386366 557.5 205.9375 C551.19881226 198.71951127 544.28909995 192.20268297 537 186 C536.10152344 185.21238281 535.20304688 184.42476562 534.27734375 183.61328125 C519.59718756 170.83279781 503.83221824 159.74926234 487 150 C486.28021973 149.5776709 485.56043945 149.1553418 484.81884766 148.72021484 C434.01941962 119.0254223 379.73665929 108.51374165 321.50527 108.56726015 C317.17034963 108.56789645 312.83548683 108.55115033 308.50059509 108.53674316 C301.02824063 108.5141814 293.55593206 108.50211143 286.08354568 108.49761391 C275.28036013 108.49109576 264.47725678 108.46806072 253.67410474 108.44127061 C236.13756586 108.39821891 218.60103049 108.36812953 201.06445312 108.34643555 C184.05108928 108.3253605 167.03775402 108.29802913 150.02441406 108.26245117 C148.97191234 108.26025235 147.91941061 108.25805352 146.83501489 108.25578807 C141.55378842 108.24471679 136.2725622 108.23352429 130.99133611 108.22227156 C87.32757475 108.12939327 43.66382121 108.0600863 0 108 C0 72.36 0 36.72 0 0 Z " fill="#FEFEFE" transform="translate(136,99)"/>
<path d="M0 0 C45.35175926 -0.04411881 90.70349823 -0.08103643 136.05527282 -0.10213066 C141.41355757 -0.10463197 146.77184227 -0.10722063 152.13012695 -0.10986328 C153.19683238 -0.1103879 154.26353782 -0.11091252 155.36256766 -0.11145304 C172.61806691 -0.12014766 189.87355279 -0.13591244 207.12904412 -0.15430559 C224.84432012 -0.17303088 242.55958914 -0.18412228 260.27487463 -0.18817699 C271.19973984 -0.19091659 282.12456725 -0.19955897 293.04942083 -0.21583293 C300.54837292 -0.22643227 308.04730556 -0.22959396 315.5462646 -0.22700275 C319.86804243 -0.22572605 324.18975437 -0.22763661 328.51152039 -0.23841095 C332.47779638 -0.24822619 336.44396286 -0.24858194 340.41024416 -0.24179779 C341.83580665 -0.24096075 343.2613763 -0.24342727 344.68692494 -0.24976636 C394.58605982 -0.45853106 446.35144999 20.6321872 484 53 C485.07991761 53.89811215 486.16071844 54.79516289 487.2421875 55.69140625 C499.3273878 65.78360273 510.32264417 76.5502125 520 89 C520.78761719 89.98226562 521.57523438 90.96453125 522.38671875 91.9765625 C554.20756141 131.96804652 572.2087399 180.50494489 572.25 231.5625 C572.25100708 232.42660492 572.25201416 233.29070984 572.25305176 234.18099976 C572.24169246 248.632196 571.47246425 262.73578318 569 277 C568.87141602 277.77891602 568.74283203 278.55783203 568.61035156 279.36035156 C562.55025778 314.74944887 545.34548286 349.12654054 523 377 C522.21882812 377.98484375 521.43765625 378.9696875 520.6328125 379.984375 C509.63679923 393.5530163 497.03237534 406.56723399 483 417 C482.46987305 417.39590332 481.93974609 417.79180664 481.39355469 418.19970703 C458.87319634 434.92636635 434.66321477 447.31591641 408 456 C407.20899902 456.26393555 406.41799805 456.52787109 405.60302734 456.79980469 C385.279455 463.53042686 364.42929669 466.16729034 343.08613586 466.12025452 C341.59996354 466.12069135 340.11379129 466.1215683 338.62761945 466.12284368 C334.57069888 466.12506671 330.51380501 466.12109756 326.45688784 466.11606562 C322.0719005 466.11172965 317.68691455 466.11320977 313.30192566 466.1139679 C305.71355651 466.11449114 298.12519598 466.11136519 290.53682899 466.10573006 C279.56545031 466.09758802 268.59407578 466.09499707 257.6226944 466.09374207 C239.82048205 466.09155579 222.0182743 466.08490723 204.21606445 466.07543945 C186.92732771 466.06625435 169.63859221 466.05917889 152.34985352 466.05493164 C150.75017183 466.05453756 150.75017183 466.05453756 149.11817334 466.05413551 C143.76785282 466.05283043 138.41753228 466.05156673 133.06721175 466.05032361 C88.71147042 466.03996422 44.35573759 466.02153304 0 466 C0 430.69 0 395.38 0 359 C10.37139404 358.98541748 20.74278809 358.97083496 31.4284668 358.95581055 C64.67323761 358.90697675 97.91796639 358.84354658 131.1626936 358.77101372 C136.33299016 358.75974655 141.50328698 358.74860794 146.67358398 358.73754883 C148.21745027 358.7342433 148.21745027 358.7342433 149.79250578 358.730871 C166.42315019 358.69556967 183.05379455 358.67066518 199.68446245 358.64965298 C216.76925116 358.6278337 233.85399155 358.59472551 250.93873912 358.55129844 C261.46742788 358.52488693 271.99605653 358.5071144 282.52477673 358.50065396 C289.76029608 358.49536776 296.99574001 358.47904352 304.23121884 358.45433434 C308.39578006 358.44042913 312.56020664 358.43110683 316.72479248 358.43499184 C362.18938417 358.46858304 399.19009075 349.75449575 432.171875 316.83203125 C454.65779801 292.86203732 464.93723808 259.65289882 464.08886719 227.22705078 C462.89275617 197.2519828 448.96700636 169.87294788 429 148 C428.00226563 146.89591797 428.00226563 146.89591797 426.984375 145.76953125 C413.08376276 131.13884484 394.90974504 120.64276758 376 114 C375.16726563 113.69578125 374.33453125 113.3915625 373.4765625 113.078125 C355.03574916 106.91020791 335.6708761 107.54954117 316.48985839 107.56726015 C312.23243614 107.56789019 307.97507476 107.55120663 303.71768188 107.53674316 C296.36134245 107.51406658 289.00505001 107.50209108 281.64867783 107.49761391 C271.01292289 107.49112503 260.37725253 107.46813989 249.74153186 107.44127061 C232.48118293 107.39810697 215.22083758 107.36808087 197.96044922 107.34643555 C181.20457195 107.3253945 164.44872394 107.29809225 147.69287109 107.26245117 C146.65812566 107.26025235 145.62338022 107.25805352 144.55727886 107.25578807 C139.36569326 107.24471763 134.17410793 107.23352497 128.98252273 107.22227156 C85.9883662 107.12923418 42.9942178 107.06000982 0 107 C0 71.69 0 36.38 0 0 Z " fill="#FEFEFE" transform="translate(136,279)"/>
<path d="M0 0 C43.9504333 -0.11030287 87.90073567 -0.20259455 131.85126785 -0.25532665 C137.04431878 -0.26157991 142.23736942 -0.26805155 147.43041992 -0.2746582 C148.98113293 -0.27662553 148.98113293 -0.27662553 150.56317347 -0.2786326 C167.28522298 -0.30036754 184.00718623 -0.33977851 200.72918463 -0.38576398 C217.89753009 -0.43258186 235.06583047 -0.46030666 252.23423713 -0.47044247 C262.82138807 -0.47729058 273.40829514 -0.49889107 283.99537098 -0.53958233 C291.26307316 -0.56608655 298.53064993 -0.57398366 305.79839689 -0.56750689 C309.98664835 -0.56431591 314.17447475 -0.5690807 318.36264992 -0.59602737 C322.20698713 -0.62057948 326.05061843 -0.62144777 329.89498996 -0.60449447 C331.92393999 -0.60142216 333.95288324 -0.62278962 335.98170954 -0.64540654 C351.98793683 -0.51675697 365.86381253 5.2056558 377.6875 16.0625 C388.23150856 27.15547849 393.70262074 40.72480797 393.34765625 55.98828125 C392.60321365 66.84540292 389.59799914 77.2434907 383 86 C382.41347656 86.77859375 381.82695313 87.5571875 381.22265625 88.359375 C373.04826886 98.32243203 360.20546406 106.08025029 347.30916488 107.80256546 C341.90873355 108.26430455 336.47675817 108.13253901 331.0606842 108.12025452 C329.6315865 108.12069088 328.20248887 108.12156698 326.77339166 108.12284368 C322.85565387 108.12507591 318.9379435 108.12108477 315.02020919 108.11606562 C310.79193555 108.11174304 306.56366342 108.11320883 302.33538818 108.1139679 C295.01268714 108.11449198 287.68999502 108.1113572 280.36729622 108.10573006 C269.77993169 108.09759948 259.19257147 108.09499824 248.60520416 108.09374207 C231.42747416 108.091554 214.24974891 108.08490055 197.07202148 108.07543945 C180.38647485 108.066259 163.70092951 108.05918126 147.01538086 108.05493164 C145.98670645 108.05466892 144.95803204 108.05440619 143.89818568 108.05413551 C138.73757554 108.05283046 133.5769654 108.05156676 128.41635525 108.05032361 C85.61089928 108.03995863 42.8054521 108.02152442 0 108 C0 72.36 0 36.72 0 0 Z " fill="#FEFEFE" transform="translate(136,458)"/>
</svg>
