<?xml version="1.0" encoding="UTF-8"?>
<svg version="1.1" xmlns="http://www.w3.org/2000/svg" width="285" height="350">
<path d="M0 0 C1.49495972 0.04253355 2.98962541 0.09626699 4.48388672 0.15869141 C5.68789627 0.19623032 5.68789627 0.19623032 6.91622925 0.23452759 C9.49910257 0.31679464 12.0812274 0.41295227 14.66357422 0.51025391 C18.02021537 0.62628913 21.3770332 0.73649834 24.73388672 0.84619141 C25.55821701 0.87456589 26.3825473 0.90294037 27.2318573 0.93217468 C33.91065605 1.15008197 40.5738564 1.15406753 47.25512695 1.06567383 C56.66847395 1.26515363 56.66847395 1.26515363 59.53857422 4.13525391 C59.61170988 6.66574793 59.63104949 9.16830227 59.60107422 11.69775391 C59.5965625 12.40867187 59.59205078 13.11958984 59.58740234 13.85205078 C59.57558286 15.61315404 59.55764685 17.37421427 59.53857422 19.13525391 C64.86705955 15.45859903 66.09486371 11.76723674 68.13232422 5.81494141 C69.53857422 3.13525391 69.53857422 3.13525391 71.77736568 1.98406696 C74.71436728 1.081214 77.05650903 0.88109281 80.12416077 0.8745575 C81.23592178 0.86747269 82.3476828 0.86038788 83.49313354 0.85308838 C84.70317047 0.8555658 85.9132074 0.85804321 87.15991211 0.8605957 C89.08257652 0.85292931 89.08257652 0.85292931 91.04408264 0.84510803 C94.55223683 0.83173986 98.06028315 0.8311367 101.56845784 0.83367133 C104.4985425 0.8347421 107.42860543 0.82985519 110.35868543 0.82506591 C117.26998331 0.8139792 124.18122683 0.81352921 131.0925293 0.81958008 C138.22206622 0.82562594 145.3514061 0.81329154 152.48090941 0.79201001 C158.60502635 0.77440188 164.72908051 0.76839122 170.85322183 0.77164775 C174.50974193 0.77346134 178.16612132 0.77081659 181.82261848 0.75693321 C185.89741987 0.74203942 189.97181888 0.75131797 194.04663086 0.76293945 C195.25869202 0.75529572 196.47075317 0.74765198 197.71954346 0.73977661 C199.38295525 0.75029808 199.38295525 0.75029808 201.07997131 0.7610321 C202.04320344 0.76086436 203.00643557 0.76069662 203.99885654 0.7605238 C207.22635989 1.23673526 208.44138841 1.58976042 210.53857422 4.13525391 C211.16853509 7.23331783 211.13960181 10.30396479 211.14204407 13.45700073 C211.1662262 14.88454677 211.1662262 14.88454677 211.19089687 16.34093213 C211.23923629 19.50014375 211.25891741 22.65884619 211.27807617 25.81835938 C211.30540185 28.04390213 211.33421666 30.26942706 211.36445332 32.49493217 C211.45062051 39.3749198 211.49658734 46.25487889 211.53857422 53.13525391 C211.5536159 55.18674165 211.56892404 57.23822747 211.58452988 59.289711 C211.67854121 72.21212368 211.70417894 85.1342058 211.70583129 98.0569253 C211.70655751 101.26991468 211.70871936 104.48290014 211.71132851 107.69588852 C211.72044662 118.95367443 211.72467778 130.2114488 211.72387695 141.46923828 C211.72326862 151.90441845 211.7340005 162.3395482 211.74962062 172.77471554 C211.76268138 181.82712039 211.76806199 190.87950859 211.76742154 199.93192279 C211.76716763 205.30091791 211.76996494 210.66986714 211.78059959 216.03885269 C211.79026428 221.04792703 211.79037114 226.05691105 211.78308296 231.06598854 C211.78203756 232.89818135 211.78439738 234.73037981 211.79044342 236.56256294 C211.79816728 239.06461163 211.79351735 241.56634788 211.78581238 244.06838989 C211.79095594 244.78887485 211.7960995 245.5093598 211.80139893 246.25167763 C211.77013536 250.85348622 211.15887767 254.82085833 209.53857422 259.13525391 C206.2058767 261.35705225 205.16699854 261.38613206 201.28288269 261.38922119 C200.19358963 261.39486084 199.10429657 261.40050049 197.98199463 261.40631104 C196.78661072 261.40226257 195.59122681 261.39821411 194.35961914 261.39404297 C193.10085464 261.39754761 191.84209015 261.40105225 190.54518127 261.40466309 C187.09048172 261.41379013 183.63590147 261.41024084 180.18119979 261.40390491 C176.5645069 261.39884324 172.94782427 261.40353714 169.33113098 261.40667725 C163.25401984 261.4103178 157.17695728 261.40551693 151.09985352 261.39599609 C144.08063451 261.38512603 137.06153182 261.38862618 130.04231566 261.3996489 C124.01332646 261.40873679 117.9843722 261.40999928 111.95537835 261.40477157 C108.35580911 261.40165822 104.75629445 261.40122472 101.15672874 261.40784454 C97.13965393 261.41471565 93.12277813 261.40518072 89.10571289 261.39404297 C87.91640167 261.39809143 86.72709045 261.40213989 85.5017395 261.40631104 C75.08734985 261.35280763 75.08734985 261.35280763 70.53857422 259.13525391 C68.56201172 256.63916016 68.56201172 256.63916016 66.91357422 253.69775391 C64.80737017 249.98470404 63.15442279 247.46423934 59.53857422 245.13525391 C59.55017578 246.13427734 59.56177734 247.13330078 59.57373047 248.16259766 C59.58275391 249.45294922 59.59177734 250.74330078 59.60107422 252.07275391 C59.61267578 253.36052734 59.62427734 254.64830078 59.63623047 255.97509766 C59.53857422 259.13525391 59.53857422 259.13525391 58.53857422 260.13525391 C56.15996921 260.32048331 53.80817497 260.44382433 51.42529297 260.52197266 C50.33810722 260.56025932 50.33810722 260.56025932 49.22895813 260.59931946 C47.68470884 260.65147739 46.14036467 260.70088575 44.59594727 260.74780273 C42.27348097 260.82125459 39.95216427 260.91235636 37.63037109 261.00439453 C25.29184579 261.43154328 13.26708453 261.84072642 3.53857422 253.13525391 C-3.74195566 245.55136862 -5.92319818 236.93701465 -5.84669495 226.63844299 C-5.85193064 225.72561568 -5.85716634 224.81278836 -5.86256069 223.87229961 C-5.87644506 220.83684807 -5.86924056 217.80182651 -5.86206055 214.76635742 C-5.86780679 212.58110682 -5.87489109 210.39585939 -5.88320923 208.21061707 C-5.89829042 203.5174878 -5.90409938 198.82447206 -5.90268135 194.13131905 C-5.90064561 186.71589469 -5.92022591 179.30062297 -5.94285583 171.88523865 C-5.98188637 158.16316115 -6.00098846 144.44109538 -6.01669878 130.71897489 C-6.03877401 111.70685865 -6.07293108 92.69476973 -6.12622684 73.68271393 C-6.14619491 66.30466941 -6.15573144 58.92670515 -6.157179 51.54863465 C-6.15991987 46.97171841 -6.17072818 42.3948469 -6.18368912 37.8179493 C-6.18798572 35.68859774 -6.18881749 33.55923609 -6.18601418 31.42988205 C-6.18263786 28.53421003 -6.19133912 25.63882319 -6.20314026 22.74317932 C-6.19716862 21.46544068 -6.19716862 21.46544068 -6.19107634 20.16188914 C-6.03084036 15.67526743 -6.03084036 15.67526743 -8.46142578 12.13525391 C-8.46142578 11.14525391 -8.46142578 10.15525391 -8.46142578 9.13525391 C-7.47142578 9.13525391 -6.48142578 9.13525391 -5.46142578 9.13525391 C-5.50267578 8.02150391 -5.54392578 6.90775391 -5.58642578 5.76025391 C-5.41936797 0.91557734 -4.85781429 0.18981726 0 0 Z M173.35107422 9.13525391 C172.44728027 9.35673096 171.54348633 9.57820801 170.61230469 9.80639648 C150.10403921 15.14142639 131.90857918 25.86767443 116.93896484 40.75390625 C115.67924078 41.99650018 114.38429652 43.20314458 113.08544922 44.40478516 C90.07771802 66.08514725 79.06969499 97.32600269 77.25732422 128.27978516 C76.43027058 162.29236586 89.52487876 194.73176724 112.66748047 219.52197266 C132.1428514 239.89607883 160.02547345 256.02317237 188.53857422 258.13525391 C194.14857422 258.13525391 199.75857422 258.13525391 205.53857422 258.13525391 C205.53857422 175.30525391 205.53857422 92.47525391 205.53857422 7.13525391 C189.07176678 6.73144577 189.07176678 6.73144577 173.35107422 9.13525391 Z " fill="#294778" transform="translate(42.46142578125,20.86474609375)"/>
<path d="M0 0 C1.11176102 -0.00708481 2.22352203 -0.01416962 3.36897278 -0.02146912 C4.5790097 -0.0189917 5.78904663 -0.01651428 7.03575134 -0.01396179 C8.95841576 -0.02162819 8.95841576 -0.02162819 10.91992188 -0.02944946 C14.42807607 -0.04281763 17.93612238 -0.0434208 21.44429708 -0.04088616 C24.37438174 -0.0398154 27.30444467 -0.0447023 30.23452467 -0.04949158 C37.14582255 -0.06057829 44.05706607 -0.06102829 50.96836853 -0.05497742 C58.09790545 -0.04893156 65.22724533 -0.06126596 72.35674864 -0.08254749 C78.48086558 -0.10015561 84.60491974 -0.10616627 90.72906107 -0.10290974 C94.38558116 -0.10109615 98.04196055 -0.1037409 101.69845772 -0.11762428 C105.7732591 -0.13251807 109.84765812 -0.12323952 113.92247009 -0.11161804 C115.13453125 -0.11926178 116.34659241 -0.12690552 117.59538269 -0.13478088 C119.25879448 -0.12425941 119.25879448 -0.12425941 120.95581055 -0.11352539 C121.91904267 -0.11369313 122.8822748 -0.11386087 123.87469578 -0.1140337 C127.10219912 0.36217777 128.31722764 0.71520293 130.41441345 3.26069641 C131.04437432 6.35876034 131.01544104 9.4294073 131.0178833 12.58244324 C131.04206544 14.00998928 131.04206544 14.00998928 131.0667361 15.46637464 C131.11507552 18.62558625 131.13475664 21.78428869 131.15391541 24.94380188 C131.18124108 27.16934464 131.21005589 29.39486957 131.24029255 31.62037468 C131.32645974 38.50036231 131.37242657 45.38032139 131.41441345 52.26069641 C131.42945514 54.31218416 131.44476327 56.36366997 131.46036911 58.4151535 C131.55438045 71.33756619 131.58001817 84.2596483 131.58167052 97.1823678 C131.58239675 100.39535718 131.5845586 103.60834265 131.58716774 106.82133102 C131.59628586 118.07911693 131.60051702 129.3368913 131.59971619 140.59468079 C131.59910785 151.02986095 131.60983973 161.4649907 131.62545985 171.90015805 C131.63852061 180.9525629 131.64390123 190.0049511 131.64326078 199.0573653 C131.64300686 204.42636042 131.64580418 209.79530964 131.65643883 215.1642952 C131.66610351 220.17336954 131.66621038 225.18235355 131.6589222 230.19143105 C131.65787679 232.02362386 131.66023661 233.85582231 131.66628265 235.68800545 C131.67400652 238.19005414 131.66935658 240.69179038 131.66165161 243.1938324 C131.66679517 243.91431735 131.67193874 244.63480231 131.67723817 245.37712014 C131.64536848 250.06814462 131.00185151 253.88513373 129.41441345 258.26069641 C128.75441345 258.59069641 128.09441345 258.92069641 127.41441345 259.26069641 C127.39161971 226.93664237 127.37391352 194.61259061 127.36334812 162.28853042 C127.36209736 158.47570422 127.36080304 154.66287805 127.35948181 150.85005188 C127.35908835 149.71141458 127.35908835 149.71141458 127.35868693 148.54977451 C127.35433107 136.24532333 127.34644398 123.94087679 127.33726066 111.63642837 C127.32792179 99.01870054 127.32235735 86.40097516 127.32032496 73.78324401 C127.31895022 65.99225273 127.31460225 58.2012746 127.30649699 50.41028737 C127.30060524 44.44448166 127.29995508 38.47868737 127.30130577 32.51287842 C127.30102944 30.05940545 127.29902427 27.60593202 127.29520798 25.15246201 C127.2902709 21.8162985 127.29141525 18.4801924 127.29415894 15.14402771 C127.28978967 13.67031493 127.28978967 13.67031493 127.28533214 12.16683018 C127.28732319 11.27806561 127.28931424 10.38930104 127.29136562 9.4736042 C127.2909859 8.70277193 127.29060618 7.93193966 127.29021496 7.13774884 C127.41441345 5.26069641 127.41441345 5.26069641 128.41441345 3.26069641 C110.75136572 3.1439351 93.08841804 3.05574372 75.4250679 3.00163555 C67.2237941 2.97584525 59.02275998 2.94067925 50.82164001 2.88349915 C43.67417485 2.83368909 36.52688324 2.8014114 29.37924933 2.79025394 C25.59394076 2.78373098 21.80912873 2.76838402 18.02397919 2.73204613 C14.46161456 2.69812386 10.89995129 2.68763539 7.33744049 2.695158 C5.40581319 2.69312515 3.4742624 2.66620999 1.54283142 2.63859558 C0.39300781 2.6454689 -0.7568158 2.65234222 -1.94148254 2.65942383 C-3.44031794 2.65251038 -3.44031794 2.65251038 -4.96943283 2.64545727 C-8.53788968 3.48464891 -9.59612781 5.2867075 -11.58558655 8.26069641 C-11.39808655 5.38569641 -11.39808655 5.38569641 -10.58558655 2.26069641 C-7.03062686 0.35698609 -3.98908495 0.00849833 0 0 Z " fill="#D3D3D3" transform="translate(122.58558654785156,21.739303588867188)"/>
<path d="M0 0 C2.44848556 2.36435385 2.97568049 3.69537366 3.2487793 7.11621094 C3.19117432 8.31020508 3.13356934 9.50419922 3.07421875 10.734375 C3.01943359 12.02988281 2.96464844 13.32539063 2.90820312 14.66015625 C2.83497615 16.02345584 2.76140406 17.38673694 2.6875 18.75 C2.62420736 20.12884074 2.56234243 21.5077478 2.50195312 22.88671875 C2.3486799 26.25872962 2.18081816 29.62937221 2 33 C1.34 33 0.68 33 0 33 C0 34.65 0 36.3 0 38 C-0.99 38 -1.98 38 -3 38 C-3 38.99 -3 39.98 -3 41 C-5.97922593 41.02683987 -8.95821295 41.04676037 -11.9375 41.0625 C-12.78763672 41.07087891 -13.63777344 41.07925781 -14.51367188 41.08789062 C-15.32255859 41.09111328 -16.13144531 41.09433594 -16.96484375 41.09765625 C-17.7137085 41.10289307 -18.46257324 41.10812988 -19.23413086 41.11352539 C-21 41 -21 41 -22 40 C-22.25 37.0625 -22.25 37.0625 -22 34 C-21.01 33.34 -20.02 32.68 -19 32 C-19.49113281 31.27554687 -19.98226562 30.55109375 -20.48828125 29.8046875 C-23.071443 24.63836399 -22.31126078 18.74818206 -22.1875 13.125 C-22.17396484 11.9596875 -22.16042969 10.794375 -22.14648438 9.59375 C-22.11125821 6.72868882 -22.06199715 3.86458623 -22 1 C-20.00045254 0.95745644 -17.99958364 0.95919217 -16 1 C-15 2 -15 2 -14.88647461 4.13305664 C-14.89171143 5.04949951 -14.89694824 5.96594238 -14.90234375 6.91015625 C-14.90556641 7.89951172 -14.90878906 8.88886719 -14.91210938 9.90820312 C-14.92048828 10.94912109 -14.92886719 11.99003906 -14.9375 13.0625 C-14.94201172 14.10728516 -14.94652344 15.15207031 -14.95117188 16.22851562 C-14.96300087 18.8190666 -14.97948311 21.40950559 -15 24 C-12.36 24 -9.72 24 -7 24 C-7 16.41 -7 8.82 -7 1 C-4.4254716 -0.2872642 -2.85291355 -0.34791629 0 0 Z " fill="#1E305F" transform="translate(248,297)"/>
<path d="M0 0 C4.10410755 -0.05796132 8.20811016 -0.09358313 12.3125 -0.125 C13.47974609 -0.14175781 14.64699219 -0.15851563 15.84960938 -0.17578125 C16.96787109 -0.18222656 18.08613281 -0.18867188 19.23828125 -0.1953125 C20.26993408 -0.20578613 21.30158691 -0.21625977 22.36450195 -0.22705078 C25 0 25 0 28 2 C28.34057617 4.79736328 28.34057617 4.79736328 28.29296875 8.3203125 C28.28330078 9.57714844 28.27363281 10.83398438 28.26367188 12.12890625 C28.23853516 13.44761719 28.21339844 14.76632812 28.1875 16.125 C28.17245483 17.46482903 28.15876613 18.80467404 28.14648438 20.14453125 C28.11102872 23.43008842 28.06160849 26.71484582 28 30 C26.02 30 24.04 30 22 30 C22 22.74 22 15.48 22 8 C20.02 8.99 20.02 8.99 18 10 C18 16.6 18 23.2 18 30 C15.03 30 12.06 30 9 30 C9 22.74 9 15.48 9 8 C7.35 8 5.7 8 4 8 C4 15.26 4 22.52 4 30 C1.69 30 -0.62 30 -3 30 C-3 21.42 -3 12.84 -3 4 C-2.34 4 -1.68 4 -1 4 C-0.67 2.68 -0.34 1.36 0 0 Z " fill="#243254" transform="translate(130,298)"/>
<path d="M0 0 C0.33 3.63 0.66 7.26 1 11 C1.99 11 2.98 11 4 11 C4.25394531 10.45730469 4.50789063 9.91460937 4.76953125 9.35546875 C5.11371094 8.64003906 5.45789062 7.92460937 5.8125 7.1875 C6.31716797 6.12595703 6.31716797 6.12595703 6.83203125 5.04296875 C8.05726623 2.89983197 9.02710246 1.48897927 11 0 C13.26171875 -0.29296875 13.26171875 -0.29296875 15.6875 -0.1875 C16.89986328 -0.14689453 16.89986328 -0.14689453 18.13671875 -0.10546875 C18.75160156 -0.07066406 19.36648437 -0.03585937 20 0 C19.39816251 2.02045442 18.72693904 4.02111039 18 6 C17.01 6.495 17.01 6.495 16 7 C14.97784597 8.75682725 13.95804552 10.51600076 13 12.30859375 C12 14 12 14 10 16 C8.38553207 18.15920854 8.38553207 18.15920854 8 21 C9.09813129 23.01396411 10.37267402 24.68469514 11.8359375 26.44921875 C13 28 13 28 13 30 C13.66 30 14.32 30 15 30 C15.33 30.99 15.66 31.98 16 33 C16.66 33.33 17.32 33.66 18 34 C18.33 34.99 18.66 35.98 19 37 C19.66 37.33 20.32 37.66 21 38 C21 38.66 21 39.32 21 40 C14.375 41.125 14.375 41.125 11 40 C11 39.34 11 38.68 11 38 C10.34 38 9.68 38 9 38 C8.896875 37.360625 8.79375 36.72125 8.6875 36.0625 C8.460625 35.381875 8.23375 34.70125 8 34 C7.01 33.67 6.02 33.34 5 33 C4.34 32.01 3.68 31.02 3 30 C2.34 29.67 1.68 29.34 1 29 C0.67 32.63 0.34 36.26 0 40 C-4 41 -4 41 -7 40 C-7 26.8 -7 13.6 -7 0 C-4 -1 -4 -1 0 0 Z " fill="#5E668F" transform="translate(44,288)"/>
<path d="M0 0 C2.375 -0.125 2.375 -0.125 5 0 C8.47290274 3.47290274 7.30390736 8.56455794 7.32226562 13.2578125 C7.31900269 14.36431152 7.31900269 14.36431152 7.31567383 15.49316406 C7.31253134 17.72771763 7.33590369 19.96092443 7.36132812 22.1953125 C7.36360304 23.62499834 7.36430372 25.05468772 7.36328125 26.484375 C7.36626221 27.78084961 7.36924316 29.07732422 7.37231445 30.41308594 C6.97457407 34.24495594 5.92930277 36.69553893 4 40 C1.41638482 40.05407567 -1.16609255 40.093707 -3.75 40.125 C-4.47960937 40.14175781 -5.20921875 40.15851563 -5.9609375 40.17578125 C-9.92072996 40.21177936 -12.5646681 39.93153875 -16 38 C-16.08694042 33.89596637 -16.14037149 29.79216871 -16.1875 25.6875 C-16.21263672 24.52025391 -16.23777344 23.35300781 -16.26367188 22.15039062 C-16.27817383 20.47299805 -16.27817383 20.47299805 -16.29296875 18.76171875 C-16.3086792 17.73006592 -16.32438965 16.69841309 -16.34057617 15.63549805 C-16 13 -16 13 -14.59985352 11.18261719 C-11.4020085 8.81875922 -8.11152374 8.88071289 -4.25 8.9375 C-2.14625 8.9684375 -2.14625 8.9684375 0 9 C0 6.03 0 3.06 0 0 Z M-9 17 C-9 22.28 -9 27.56 -9 33 C-6.36 33 -3.72 33 -1 33 C-0.80610904 30.5211787 -0.61959877 28.04219069 -0.4375 25.5625 C-0.35338867 24.50192383 -0.35338867 24.50192383 -0.26757812 23.41992188 C-0.13809007 21.61572163 -0.06478392 19.80768048 0 18 C-0.33 17.67 -0.66 17.34 -1 17 C-3.64 17 -6.28 17 -9 17 Z " fill="#101C41" transform="translate(213,288)"/>
<path d="M0 0 C19.47 0 38.94 0 59 0 C58.67 0.66 58.34 1.32 58 2 C39.19 1.67 20.38 1.34 1 1 C1 1.99 1 2.98 1 4 C0.34 4 -0.32 4 -1 4 C-0.99484627 4.67338 -0.98969254 5.34676001 -0.98438263 6.04054546 C-0.85619499 22.81354686 -0.73104334 39.5865683 -0.60884857 56.35961437 C-0.54967858 64.47258257 -0.48964879 72.5855423 -0.42724609 80.69848633 C-0.36088721 89.33811183 -0.29691773 97.97775252 -0.23554993 106.61741495 C-0.22434129 108.19400537 -0.21305985 109.77059528 -0.20170593 111.34718466 C-0.06942006 129.76762582 0.01817357 148.18695424 -0.00390625 166.60791016 C-0.00472356 167.40282116 -0.00554087 168.19773216 -0.00638294 169.01673138 C-0.01437053 176.63714415 -0.02596008 184.25749896 -0.05495071 191.87786341 C-0.0622644 193.9712124 -0.06734951 196.06455397 -0.07157898 198.1579113 C-0.07700139 200.67721234 -0.08625696 203.19651006 -0.10054016 205.71577644 C-0.10953577 211.8612677 0.03105258 217.98355546 0.38000488 224.11833191 C0.44889168 225.33874774 0.51777847 226.55916357 0.58875275 227.8165617 C0.97310305 230.79179249 1.6310242 232.40817432 3 235 C3 236.32 3 237.64 3 239 C3.99 239.33 4.98 239.66 6 240 C6.33 241.98 6.66 243.96 7 246 C3.91029117 245.08143792 2.30566684 244.39623479 0.3125 241.8125 C-2.69358441 235.37089056 -3.2924761 229.75301134 -3.26501465 222.74369812 C-3.26939592 221.83257965 -3.27377719 220.92146119 -3.27829123 219.98273307 C-3.29057644 216.94115634 -3.28880551 213.8997529 -3.28710938 210.8581543 C-3.29313553 208.67319992 -3.30006027 206.48824787 -3.30781555 204.30329895 C-3.32268833 199.6047008 -3.33144959 194.90614504 -3.33552551 190.20752525 C-3.34224031 182.78388088 -3.36399397 175.36032741 -3.38806152 167.9367218 C-3.43909139 151.51629009 -3.47202178 135.09583044 -3.5039072 118.67535305 C-3.53569686 102.32647479 -3.5710601 85.97762689 -3.62413073 69.62880069 C-3.64753485 62.24240253 -3.66123381 54.85606794 -3.66762543 47.46963632 C-3.67354298 42.88615878 -3.68762008 38.30273321 -3.70396996 33.71928215 C-3.70986994 31.58670981 -3.71231324 29.45412482 -3.71113014 27.32154465 C-3.7099794 24.42137924 -3.72091918 21.52150912 -3.73498535 18.62138367 C-3.73168638 17.76819367 -3.7283874 16.91500367 -3.72498846 16.03595942 C-3.56793534 11.54442624 -3.56793534 11.54442624 -6 8 C-6 7.01 -6 6.02 -6 5 C-5.01 5 -4.02 5 -3 5 C-3 4.34 -3 3.68 -3 3 C-2.01 3 -1.02 3 0 3 C0 2.01 0 1.02 0 0 Z " fill="#1C2A4F" transform="translate(40,25)"/>
<path d="M0 0 C3.10398978 -0.08710289 6.20766548 -0.14042309 9.3125 -0.1875 C10.19357422 -0.21263672 11.07464844 -0.23777344 11.98242188 -0.26367188 C13.25375977 -0.27817383 13.25375977 -0.27817383 14.55078125 -0.29296875 C15.72120972 -0.31653442 15.72120972 -0.31653442 16.9152832 -0.34057617 C19.53722536 0.08776547 20.3637512 0.95321167 22 3 C23.9425426 6.8850852 23.27195404 11.66395537 23.3125 15.9375 C23.34150391 16.95263672 23.37050781 17.96777344 23.40039062 19.01367188 C23.40876953 19.98755859 23.41714844 20.96144531 23.42578125 21.96484375 C23.44036377 22.8580835 23.45494629 23.75132324 23.4699707 24.67163086 C23 27 23 27 21.11914062 28.77832031 C16.22676825 31.59876171 10.47834597 31.23465809 5.0625 30.375 C2 29 2 29 0.0625 27 C-1.45761739 22.70790384 -1.5885386 18.50958151 -1 14 C-0.34 13.01 0.32 12.02 1 11 C1.66 11 2.32 11 3 11 C3 10.34 3 9.68 3 9 C2.34 9 1.68 9 1 9 C-0.60367292 6.45299007 -1.06442578 5.38598454 -0.55859375 2.35546875 C-0.37425781 1.57816406 -0.18992187 0.80085938 0 0 Z M8 15 C8 15.66 8 16.32 8 17 C7.34 17 6.68 17 6 17 C6 19.31 6 21.62 6 24 C7.45823212 24.0270043 8.91660675 24.04639787 10.375 24.0625 C11.59316406 24.07990234 11.59316406 24.07990234 12.8359375 24.09765625 C15.04937142 24.14466334 15.04937142 24.14466334 17 23 C17 21.35 17 19.7 17 18 C16.34 18 15.68 18 15 18 C14.67 17.01 14.34 16.02 14 15 C12.02 15 10.04 15 8 15 Z " fill="#132148" transform="translate(69,298)"/>
<path d="M0 0 C2.31 0 4.62 0 7 0 C7 7.59 7 15.18 7 23 C9.97 23 12.94 23 16 23 C16 15.41 16 7.82 16 0 C22 0 22 0 24 1 C24.47304171 20.2370295 24.47304171 20.2370295 22 28 C18.39888412 30.40074392 15.72396229 30.33244948 11.5625 30.3125 C9.58443359 30.33763672 9.58443359 30.33763672 7.56640625 30.36328125 C4 30 4 30 1.58984375 28.98046875 C-2.32423081 24.10470511 -1.15453751 15.57338316 -1.125 9.5625 C-1.12886719 8.74845703 -1.13273437 7.93441406 -1.13671875 7.09570312 C-1.12676222 1.12676222 -1.12676222 1.12676222 0 0 Z " fill="#21325A" transform="translate(99,298)"/>
<path d="M0 0 C1.99954746 -0.04254356 4.00041636 -0.04080783 6 0 C7 1 7 1 7.11352539 3.13305664 C7.10828857 4.04949951 7.10305176 4.96594238 7.09765625 5.91015625 C7.09443359 6.89951172 7.09121094 7.88886719 7.08789062 8.90820312 C7.07951172 9.94912109 7.07113281 10.99003906 7.0625 12.0625 C7.05798828 13.10728516 7.05347656 14.15207031 7.04882812 15.22851562 C7.03699913 17.8190666 7.02051689 20.40950559 7 23 C9.64 23 12.28 23 15 23 C15 15.41 15 7.82 15 0 C17.31 0 19.62 0 22 0 C23 1 23 1 23.1328125 3.95703125 C23.11646401 12.02500976 22.83782588 19.9658483 22 28 C21.01 28 20.02 28 19 28 C19 28.66 19 29.32 19 30 C14.2418865 32.37905675 7.00367323 31.33431286 2 30 C2 29.34 2 28.68 2 28 C1.34 28 0.68 28 0 28 C-0.19619224 23.70868391 -0.38048583 19.41693898 -0.5625 15.125 C-0.61857422 13.90167969 -0.67464844 12.67835938 -0.73242188 11.41796875 C-0.78076172 10.25136719 -0.82910156 9.08476562 -0.87890625 7.8828125 C-0.9260376 6.80402832 -0.97316895 5.72524414 -1.02172852 4.61376953 C-1 2 -1 2 0 0 Z " fill="#263252" transform="translate(167,298)"/>
<path d="M0 0 C0.33 0 0.66 0 1 0 C2.31052361 6.99315244 2.14823447 13.99423288 2.14526367 21.0859375 C2.14825912 22.51401863 2.15166253 23.94209895 2.15544128 25.37017822 C2.16424399 29.23375122 2.16661776 33.09730204 2.16725707 36.96088409 C2.16796943 39.3773064 2.17010722 41.79372313 2.17275429 44.21014404 C2.18199375 52.64726111 2.18609073 61.08436242 2.18530273 69.52148438 C2.18470158 77.37577061 2.19526441 85.22998825 2.2110464 93.08425713 C2.22413282 99.83859517 2.2294862 106.59291081 2.22884732 113.34726143 C2.22859276 117.37661277 2.23142128 121.40590303 2.24202538 125.4352417 C2.25172551 129.22409585 2.25177246 133.01283073 2.24450874 136.80168915 C2.24346544 138.18878097 2.24581064 139.5758803 2.2518692 140.96295929 C2.30684336 154.42498318 2.30684336 154.42498318 0 160 C-0.66 160.33 -1.32 160.66 -2 161 C-1.89093342 146.50497326 -1.77791714 132.00998133 -1.66066074 117.51501846 C-1.60625492 110.77906737 -1.55305115 104.04311179 -1.50268555 97.30712891 C-1.25920654 64.86329503 -0.87633109 32.43344787 0 0 Z " fill="#DBDBDB" transform="translate(252,120)"/>
<path d="M0 0 C0.33 5.94 0.66 11.88 1 18 C1.99 17.01 2.98 16.02 4 15 C4.66 15 5.32 15 6 15 C6.144375 16.11375 6.28875 17.2275 6.4375 18.375 C6.78372035 21.82142047 6.78372035 21.82142047 8 24 C10.52733235 24.65555119 10.52733235 24.65555119 13 25 C13.33 26.32 13.66 27.64 14 29 C14.66 29 15.32 29 16 29 C16.33 29.99 16.66 30.98 17 32 C17.66 32.33 18.32 32.66 19 33 C19.33 33.99 19.66 34.98 20 36 C20.66 36.33 21.32 36.66 22 37 C22 37.66 22 38.32 22 39 C15.375 40.125 15.375 40.125 12 39 C12 38.34 12 37.68 12 37 C11.34 37 10.68 37 10 37 C9.896875 36.360625 9.79375 35.72125 9.6875 35.0625 C9.460625 34.381875 9.23375 33.70125 9 33 C8.01 32.67 7.02 32.34 6 32 C5.34 31.01 4.68 30.02 4 29 C3.34 28.67 2.68 28.34 2 28 C1.67 31.63 1.34 35.26 1 39 C-0.98 39.495 -0.98 39.495 -3 40 C-3 27.13 -3 14.26 -3 1 C-1 0 -1 0 0 0 Z " fill="#1A2B5C" transform="translate(43,289)"/>
<path d="M0 0 C1.50007161 0.04251465 2.99999215 0.09056186 4.49975586 0.14282227 C5.30384384 0.16643326 6.10793182 0.19004425 6.93638611 0.21437073 C9.52929665 0.29116493 12.12192824 0.37477119 14.71459961 0.45922852 C18.08039477 0.56524542 21.44627826 0.66777176 24.81225586 0.76782227 C26.0533889 0.80574638 26.0533889 0.80574638 27.31959534 0.84443665 C34.00689401 1.0357393 40.68175284 1.03546519 47.37084961 0.94995117 C56.78628491 1.15591382 56.78628491 1.15591382 59.65209961 4.02172852 C59.72523527 6.55222254 59.74457488 9.05477688 59.71459961 11.58422852 C59.71008789 12.29514648 59.70557617 13.00606445 59.70092773 13.73852539 C59.68910825 15.49962865 59.67117224 17.26068887 59.65209961 19.02172852 C63.64778615 16.01351933 65.65515558 13.64623047 67.65209961 9.02172852 C68.64209961 9.51672852 68.64209961 9.51672852 69.65209961 10.02172852 C69.98209961 9.36172852 70.31209961 8.70172852 70.65209961 8.02172852 C71.64209961 8.35172852 72.63209961 8.68172852 73.65209961 9.02172852 C72.99209961 9.02172852 72.33209961 9.02172852 71.65209961 9.02172852 C71.42522461 9.88797852 71.19834961 10.75422852 70.96459961 11.64672852 C69.36060493 15.77128626 67.78276726 17.89106086 64.65209961 21.02172852 C62.08959961 22.08422852 62.08959961 22.08422852 59.65209961 22.02172852 C57.53881836 20.93188477 57.53881836 20.93188477 55.65209961 19.02172852 C55.11303711 15.92016602 55.11303711 15.92016602 55.02709961 12.39672852 C54.96603699 10.26893121 54.85639616 8.14057559 54.65209961 6.02172852 C53.99209961 5.69172852 53.33209961 5.36172852 52.65209961 5.02172852 C53.97209961 4.69172852 55.29209961 4.36172852 56.65209961 4.02172852 C37.18209961 4.02172852 17.71209961 4.02172852 -2.34790039 4.02172852 C-2.34790039 5.01172852 -2.34790039 6.00172852 -2.34790039 7.02172852 C-3.33790039 6.69172852 -4.32790039 6.36172852 -5.34790039 6.02172852 C-4.27205387 0.02772645 -4.27205387 0.02772645 0 0 Z " fill="#4D5B7B" transform="translate(42.347900390625,20.978271484375)"/>
<path d="M0 0 C2.375 -0.125 2.375 -0.125 5 0 C7 2 7 2 7.22705078 5.16455078 C7.22673389 6.50817963 7.21542181 7.8518341 7.1953125 9.1953125 C7.1924826 9.90275604 7.18965271 10.61019958 7.18673706 11.33908081 C7.17553137 13.6012251 7.15042679 15.86297515 7.125 18.125 C7.11497067 19.65754637 7.10584474 21.19009894 7.09765625 22.72265625 C7.07559086 26.48192301 7.04105896 30.24089464 7 34 C6.67 34 6.34 34 6 34 C5.34 23.11 4.68 12.22 4 1 C3.01 1 2.02 1 1 1 C1.495 7.93 1.495 7.93 2 15 C1.34 15 0.68 15 0 15 C-0.33 15.99 -0.66 16.98 -1 18 C-3.64 17.67 -6.28 17.34 -9 17 C-9 22.28 -9 27.56 -9 33 C-6.36 33 -3.72 33 -1 33 C-1 29.7 -1 26.4 -1 23 C-0.67 23 -0.34 23 0 23 C0 26.63 0 30.26 0 34 C-3.96 34 -7.92 34 -12 34 C-12 28.06 -12 22.12 -12 16 C-12.66 16 -13.32 16 -14 16 C-14.33 23.26 -14.66 30.52 -15 38 C-15.33 38 -15.66 38 -16 38 C-16.08694042 33.89596637 -16.14037149 29.79216871 -16.1875 25.6875 C-16.21263672 24.52025391 -16.23777344 23.35300781 -16.26367188 22.15039062 C-16.27817383 20.47299805 -16.27817383 20.47299805 -16.29296875 18.76171875 C-16.3086792 17.73006592 -16.32438965 16.69841309 -16.34057617 15.63549805 C-16 13 -16 13 -14.59985352 11.18261719 C-11.4020085 8.81875922 -8.11152374 8.88071289 -4.25 8.9375 C-2.14625 8.9684375 -2.14625 8.9684375 0 9 C0 6.03 0 3.06 0 0 Z " fill="#6D7B98" transform="translate(213,288)"/>
<path d="M0 0 C2.44848556 2.36435385 2.97568049 3.69537366 3.2487793 7.11621094 C3.19117432 8.31020508 3.13356934 9.50419922 3.07421875 10.734375 C3.01943359 12.02988281 2.96464844 13.32539063 2.90820312 14.66015625 C2.83497615 16.02345584 2.76140406 17.38673694 2.6875 18.75 C2.62420736 20.12884074 2.56234243 21.5077478 2.50195312 22.88671875 C2.3486799 26.25872962 2.18081816 29.62937221 2 33 C1.34 33 0.68 33 0 33 C0 34.65 0 36.3 0 38 C-0.99 38 -1.98 38 -3 38 C-3 38.99 -3 39.98 -3 41 C-5.97922593 41.02683987 -8.95821295 41.04676037 -11.9375 41.0625 C-12.78763672 41.07087891 -13.63777344 41.07925781 -14.51367188 41.08789062 C-15.32255859 41.09111328 -16.13144531 41.09433594 -16.96484375 41.09765625 C-17.7137085 41.10289307 -18.46257324 41.10812988 -19.23413086 41.11352539 C-21 41 -21 41 -22 40 C-22.04080783 38.00041636 -22.04254356 35.99954746 -22 34 C-21.67 34.99 -21.34 35.98 -21 37 C-20.34 37 -19.68 37 -19 37 C-19 37.99 -19 38.98 -19 40 C-14.05 40 -9.1 40 -4 40 C-5.05978933 38.71387324 -5.05978933 38.71387324 -7.50390625 38.90234375 C-8.51324219 38.91394531 -9.52257812 38.92554688 -10.5625 38.9375 C-11.57441406 38.94652344 -12.58632812 38.95554687 -13.62890625 38.96484375 C-14.41136719 38.97644531 -15.19382813 38.98804688 -16 39 C-16 38.34 -16 37.68 -16 37 C-11.05 37 -6.1 37 -1 37 C-1 25.12 -1 13.24 -1 1 C-1.99 1 -2.98 1 -4 1 C-4 8.92 -4 16.84 -4 25 C-7.96 25 -11.92 25 -16 25 C-16 17.41 -16 9.82 -16 2 C-15.67 2 -15.34 2 -15 2 C-15 9.26 -15 16.52 -15 24 C-12.36 24 -9.72 24 -7 24 C-7 16.41 -7 8.82 -7 1 C-4.4254716 -0.2872642 -2.85291355 -0.34791629 0 0 Z " fill="#2E3B60" transform="translate(248,297)"/>
<path d="M0 0 C6.27 0 12.54 0 19 0 C19 0.66 19 1.32 19 2 C17.02 2.99 17.02 2.99 15 4 C15 10.6 15 17.2 15 24 C12.03 24 9.06 24 6 24 C6 16.74 6 9.48 6 2 C4.35 2 2.7 2 1 2 C1 9.26 1 16.52 1 24 C0.67 24 0.34 24 0 24 C0 16.08 0 8.16 0 0 Z " fill="#8291B0" transform="translate(133,304)"/>
<path d="M0 0 C0.66 0 1.32 0 2 0 C2.01458252 0.58676514 2.02916504 1.17353027 2.04418945 1.77807617 C2.41609526 15.31518474 3.58555089 28.44606537 5.67871094 41.81933594 C6.21734402 45.47516475 6.52862766 49.14182744 6.81640625 52.82421875 C7.07653735 55.90704897 7.52457584 58.94370184 8 62 C7.34 61.01 6.68 60.02 6 59 C5.34 59.66 4.68 60.32 4 61 C2.39644899 57.49223216 1.77963136 54.85645121 2 51 C1.34 50.67 0.68 50.34 0 50 C-0.39477539 48.19677734 -0.39477539 48.19677734 -0.59765625 45.8359375 C-0.71596802 44.53414551 -0.71596802 44.53414551 -0.83666992 43.20605469 C-0.91119385 42.27180664 -0.98571777 41.33755859 -1.0625 40.375 C-1.14411377 39.4252832 -1.22572754 38.47556641 -1.30981445 37.49707031 C-1.54928874 34.66540022 -1.77488029 31.83284122 -2 29 C-2.12711182 27.52860322 -2.25466421 26.05724438 -2.3828125 24.5859375 C-3.72430458 7.69689614 -3.72430458 7.69689614 0 0 Z " fill="#1C2D53" transform="translate(118,138)"/>
<path d="M0 0 C2.68023682 -0.36749268 2.68023682 -0.36749268 6.14160156 -0.35644531 C8.0913665 -0.36088654 8.0913665 -0.36088654 10.08052063 -0.36541748 C11.51722534 -0.35336847 12.9539268 -0.34092624 14.390625 -0.328125 C15.87790254 -0.32539829 17.36518277 -0.32389501 18.85246277 -0.32354736 C22.83117419 -0.31854197 26.80955401 -0.29434675 30.78815842 -0.26589966 C34.05506262 -0.24480055 37.32196211 -0.23471967 40.58891582 -0.22460938 C63.39969339 -0.15164991 86.2045874 0.11391759 109 1 C109 1.33 109 1.66 109 2 C108.34402832 2.02505615 107.68805664 2.0501123 107.01220703 2.07592773 C104.04959817 2.1917326 101.08731969 2.31452886 98.125 2.4375 C97.09246094 2.47681641 96.05992187 2.51613281 94.99609375 2.55664062 C94.00996094 2.59853516 93.02382812 2.64042969 92.0078125 2.68359375 C91.09660645 2.72025146 90.18540039 2.75690918 89.24658203 2.79467773 C86.96516519 2.86577065 86.96516519 2.86577065 85 4 C84.01 3.67 83.02 3.34 82 3 C79.48117345 2.89894989 76.98995374 2.8531544 74.47094727 2.85473633 C73.70640228 2.85137772 72.9418573 2.8480191 72.15414429 2.84455872 C69.62488178 2.83505384 67.09568551 2.83310589 64.56640625 2.83203125 C62.80907667 2.82881855 61.05174735 2.82545447 59.29441833 2.82194519 C55.60992818 2.81595523 51.92546148 2.81410518 48.2409668 2.81469727 C43.51859987 2.81479893 38.79638317 2.80114204 34.07405186 2.78392506 C30.44438485 2.77280996 26.81475423 2.7707779 23.18507195 2.77130699 C21.44394347 2.77012632 19.70281408 2.76569964 17.96170235 2.75797462 C15.5271767 2.74818382 13.09297811 2.75104902 10.65844727 2.75708008 C9.93883316 2.75146057 9.21921906 2.74584106 8.47779846 2.74005127 C3.66980218 2.77033757 0.77310007 3.35354994 -2.75 6.625 C-3.1625 7.07875 -3.575 7.5325 -4 8 C-2.87548273 5.0280615 -1.77706209 2.66559313 0 0 Z " fill="#24335A" transform="translate(115,24)"/>
<path d="M0 0 C1.66369125 -0.00412399 1.66369125 -0.00412399 3.36099243 -0.0083313 C5.17144798 0.00245453 5.17144798 0.00245453 7.01847839 0.01345825 C8.93615021 0.01302017 8.93615021 0.01302017 10.89256287 0.01257324 C14.39014564 0.01200025 17.88759078 0.02374581 21.38514161 0.03772116 C25.04332418 0.05023748 28.70151002 0.05139973 32.35971069 0.05377197 C39.28339616 0.05998409 46.20701835 0.07639128 53.13067597 0.09647095 C61.01455078 0.1188383 68.89842864 0.12982548 76.78232729 0.13986182 C92.99674216 0.16075775 109.21109341 0.1959285 125.42546082 0.24050903 C125.42546082 1.23050903 125.42546082 2.22050903 125.42546082 3.24050903 C124.40282198 3.23359559 124.40282198 3.23359559 123.35952377 3.22654247 C106.77626081 3.11615493 90.19311411 3.03339732 73.60956955 2.98144817 C65.58989524 2.95565862 57.57046607 2.9204941 49.5509491 2.86331177 C42.56169703 2.81349936 35.57262247 2.78122347 28.58319783 2.77006656 C24.88172131 2.76354398 21.18075264 2.74819961 17.47943878 2.71185875 C13.3489116 2.6716321 9.21926911 2.67055818 5.08854675 2.67288208 C3.85927963 2.6549057 2.63001251 2.63692932 1.36349487 2.6184082 C-5.11310148 2.46154327 -5.11310148 2.46154327 -10.36598206 5.77598572 C-10.76480591 6.58927841 -11.16362976 7.40257111 -11.57453918 8.24050903 C-11.38703918 5.36550903 -11.38703918 5.36550903 -10.57453918 2.24050903 C-7.01839976 0.33472671 -3.9906685 -0.00765229 0 0 Z " fill="#AFB5C1" transform="translate(122.57453918457031,21.759490966796875)"/>
<path d="M0 0 C0.33 0 0.66 0 1 0 C1 61.38 1 122.76 1 186 C0.67 186 0.34 186 0 186 C-0.00331015 185.0793255 -0.00662029 184.15865101 -0.01003075 183.21007729 C-0.09115598 160.83583639 -0.18321372 138.46166396 -0.28752708 116.08751869 C-0.33770643 105.26767016 -0.38414863 94.4478294 -0.421875 83.62792969 C-0.45475636 74.20027012 -0.494566 64.77267001 -0.54279006 55.34507596 C-0.56809353 50.35056322 -0.58986332 45.35609012 -0.60334396 40.3615303 C-0.61612955 35.66497474 -0.63814565 30.96855484 -0.66738319 26.27207375 C-0.6764865 24.54426727 -0.68215557 22.81643893 -0.68421364 21.0886097 C-0.68751686 18.7375976 -0.70294076 16.38697473 -0.7215271 14.03604126 C-0.72705786 12.71787729 -0.73258862 11.39971333 -0.73828697 10.041605 C-0.68063131 6.89011198 -0.68063131 6.89011198 -3 5 C-3 4.01 -3 3.02 -3 2 C-2.01 2 -1.02 2 0 2 C0 1.34 0 0.68 0 0 Z " fill="#37435A" transform="translate(37,28)"/>
<path d="M0 0 C1.23943359 -0.00128906 2.47886719 -0.00257813 3.75585938 -0.00390625 C5.03654297 -0.00003906 6.31722656 0.00382812 7.63671875 0.0078125 C8.93673828 0.00394531 10.23675781 0.00007813 11.57617188 -0.00390625 C13.4256543 -0.00197266 13.4256543 -0.00197266 15.3125 0 C17.00693237 0.00169189 17.00693237 0.00169189 18.7355957 0.00341797 C21.32421875 0.1328125 21.32421875 0.1328125 22.32421875 1.1328125 C24.39506595 1.291239 26.47099904 1.38405672 28.546875 1.44921875 C29.80693359 1.49111328 31.06699219 1.53300781 32.36523438 1.57617188 C33.70572611 1.61598846 35.04622095 1.65570064 36.38671875 1.6953125 C37.73113398 1.73849292 39.07553535 1.78210706 40.41992188 1.82617188 C43.72124215 1.93266608 47.02264111 2.0346771 50.32421875 2.1328125 C50.32421875 2.4628125 50.32421875 2.7928125 50.32421875 3.1328125 C15.01421875 3.1328125 -20.29578125 3.1328125 -56.67578125 3.1328125 C-56.67578125 2.8028125 -56.67578125 2.4728125 -56.67578125 2.1328125 C-55.37431152 2.10775635 -54.0728418 2.0827002 -52.73193359 2.05688477 C-47.89004154 1.9625078 -43.04828283 1.86236165 -38.20654297 1.76049805 C-36.11347581 1.71726356 -34.02037599 1.67558065 -31.92724609 1.63549805 C-28.91363699 1.57751649 -25.90019054 1.51390308 -22.88671875 1.44921875 C-21.95524017 1.43250626 -21.0237616 1.41579376 -20.0640564 1.39857483 C-13.30545236 1.24547092 -6.75490355 0.00671128 0 0 Z " fill="#5B6381" transform="translate(175.67578125,278.8671875)"/>
<path d="M0 0 C0.33 0 0.66 0 1 0 C1.02505615 1.16345947 1.0501123 2.32691895 1.07592773 3.52563477 C1.17135157 7.91487391 1.27122094 12.30400332 1.37231445 16.69311523 C1.41516079 18.57915651 1.45686159 20.46522423 1.49731445 22.35131836 C1.69282979 31.43433346 1.89273992 40.51846189 2.41015625 49.58984375 C2.47468994 50.74218506 2.53922363 51.89452637 2.60571289 53.08178711 C2.98622505 55.89804832 3.7101051 57.52320561 5 60 C5 61.32 5 62.64 5 64 C5.99 64.33 6.98 64.66 8 65 C8.33 66.98 8.66 68.96 9 71 C5.91029117 70.08143792 4.30566684 69.39623479 2.3125 66.8125 C-0.75083997 60.24820007 -1.29013362 54.54770369 -1.23046875 47.40234375 C-1.23001053 46.49102188 -1.22955231 45.57970001 -1.2290802 44.64076233 C-1.22607029 42.71695653 -1.21822195 40.79315289 -1.20581055 38.86938477 C-1.18770781 35.97077477 -1.18530024 33.07248847 -1.18554688 30.17382812 C-1.16569837 20.07093855 -0.93207808 10.06622875 0 0 Z " fill="#263659" transform="translate(38,200)"/>
<path d="M0 0 C3.7969589 0.67703127 7.34764356 1.70296625 11 2.9375 C12.010625 3.27652344 13.02125 3.61554688 14.0625 3.96484375 C17 5 17 5 19.328125 6.0625 C23.08605858 7.38107318 26.79908107 7.69268792 30.75 8.0625 C31.57604736 8.14483887 32.40209473 8.22717773 33.25317383 8.31201172 C41.48862702 9.10425934 49.73743802 9.59798034 58 10 C58 10.66 58 11.32 58 12 C46.12 12 34.24 12 22 12 C22 11.67 22 11.34 22 11 C21.05125 10.95875 20.1025 10.9175 19.125 10.875 C14.57244495 10.25503824 11.22504578 7.94024542 7.4296875 5.47265625 C5.01557349 4.00943924 2.64438022 2.97399769 0 2 C0 1.34 0 0.68 0 0 Z " fill="#29324D" transform="translate(190,269)"/>
<path d="M0 0 C43.00840213 -0.20638953 43.00840213 -0.20638953 63 1 C63 1.66 63 2.32 63 3 C62.20529297 3.03963867 61.41058594 3.07927734 60.59179688 3.12011719 C40.43451672 4.06330391 40.43451672 4.06330391 20.7734375 8.29296875 C18 9 18 9 15 8 C18 6 18 6 22 6 C21.67 4.68 21.34 3.36 21 2 C14.07 1.67 7.14 1.34 0 1 C0 0.67 0 0.34 0 0 Z " fill="#333D5D" transform="translate(186,24)"/>
<path d="M0 0 C16.25 0 16.25 0 24 1 C24.33 1.99 24.66 2.98 25 4 C22.07330309 4.97556564 20.55938679 5.0606341 17.55078125 4.87890625 C16.78677002 4.83580322 16.02275879 4.7927002 15.2355957 4.74829102 C13.78866333 4.65632446 13.78866333 4.65632446 12.3125 4.5625 C7.7028125 4.2840625 7.7028125 4.2840625 3 4 C3 11.92 3 19.84 3 28 C2.01 28 1.02 28 0 28 C0 18.76 0 9.52 0 0 Z " fill="#081534" transform="translate(130,300)"/>
<path d="M0 0 C5.94 0 11.88 0 18 0 C18 2.31 18 4.62 18 7 C12.72 7 7.44 7 2 7 C2.144375 9.43375 2.28875 11.8675 2.4375 14.375 C2.50215454 15.52234619 2.50215454 15.52234619 2.56811523 16.69287109 C2.76209704 20.47181316 2.76209704 20.47181316 4 24 C1 23 1 23 -0.171875 21.25390625 C-1.11730993 18.68071777 -1.26651066 16.6741411 -1.25 13.9375 C-1.25515625 13.08027344 -1.2603125 12.22304688 -1.265625 11.33984375 C-1 9 -1 9 1 6 C1.66 6 2.32 6 3 6 C3 5.34 3 4.68 3 4 C2.34 4 1.68 4 1 4 C0.67 2.68 0.34 1.36 0 0 Z " fill="#3E4F7A" transform="translate(69,303)"/>
<path d="M0 0 C6 0 6 0 8 1 C8.47304171 20.2370295 8.47304171 20.2370295 6 28 C2.31912647 30.45391569 -0.44355588 30.22802759 -4.6875 30.125 C-5.38939453 30.11597656 -6.09128906 30.10695313 -6.81445312 30.09765625 C-8.54311525 30.07413704 -10.27160145 30.03826713 -12 30 C-12 29.67 -12 29.34 -12 29 C-8.7 28.67 -5.4 28.34 -2 28 C-2 27.67 -2 27.34 -2 27 C0.31 27 2.62 27 5 27 C5 18.42 5 9.84 5 1 C4.01 1 3.02 1 2 1 C2 8.59 2 16.18 2 24 C-1.63 24 -5.26 24 -9 24 C-9 23.67 -9 23.34 -9 23 C-6.03 23 -3.06 23 0 23 C0 15.41 0 7.82 0 0 Z " fill="#7B87A2" transform="translate(115,298)"/>
<path d="M0 0 C0.66 0 1.32 0 2 0 C2 11.88 2 23.76 2 36 C-2.95 36 -7.9 36 -13 36 C-13 36.66 -13 37.32 -13 38 C-7.06 37.505 -7.06 37.505 -1 37 C-1 37.66 -1 38.32 -1 39 C-5.95 39 -10.9 39 -16 39 C-16 38.01 -16 37.02 -16 36 C-16.66 36 -17.32 36 -18 36 C-18 35.01 -18 34.02 -18 33 C-12.06 33 -6.12 33 0 33 C0 22.11 0 11.22 0 0 Z " fill="#0A1740" transform="translate(245,298)"/>
<path d="M0 0 C4.10410755 -0.05796132 8.20811016 -0.09358313 12.3125 -0.125 C13.47974609 -0.14175781 14.64699219 -0.15851563 15.84960938 -0.17578125 C16.96787109 -0.18222656 18.08613281 -0.18867188 19.23828125 -0.1953125 C20.26993408 -0.20578613 21.30158691 -0.21625977 22.36450195 -0.22705078 C25 0 25 0 28 2 C27.67 2.99 27.34 3.98 27 5 C27 4.34 27 3.68 27 3 C18.09 2.67 9.18 2.34 0 2 C0 11.24 0 20.48 0 30 C-0.99 30 -1.98 30 -3 30 C-3 21.42 -3 12.84 -3 4 C-2.34 4 -1.68 4 -1 4 C-0.67 2.68 -0.34 1.36 0 0 Z " fill="#77839C" transform="translate(130,298)"/>
<path d="M0 0 C0 0.99 0 1.98 0 3 C-2.64 3 -5.28 3 -8 3 C-8 8.61 -8 14.22 -8 20 C-5.36 20 -2.72 20 0 20 C0 16.7 0 13.4 0 10 C0.33 10 0.66 10 1 10 C1 13.63 1 17.26 1 21 C-2.96 21 -6.92 21 -11 21 C-11 15.06 -11 9.12 -11 3 C-11.66 3 -12.32 3 -13 3 C-13 4.98 -13 6.96 -13 9 C-13.33 9 -13.66 9 -14 9 C-14 6.36 -14 3.72 -14 1 C-9.35846395 -0.76820421 -4.68450286 -2.34225143 0 0 Z " fill="#627291" transform="translate(212,301)"/>
<path d="M0 0 C0.88751953 0.10441406 0.88751953 0.10441406 1.79296875 0.2109375 C1.13296875 2.1909375 0.47296875 4.1709375 -0.20703125 6.2109375 C-1.52703125 6.2109375 -2.84703125 6.2109375 -4.20703125 6.2109375 C-4.20703125 7.2009375 -4.20703125 8.1909375 -4.20703125 9.2109375 C-4.86703125 9.2109375 -5.52703125 9.2109375 -6.20703125 9.2109375 C-6.86703125 10.8609375 -7.52703125 12.5109375 -8.20703125 14.2109375 C-8.86703125 14.2109375 -9.52703125 14.2109375 -10.20703125 14.2109375 C-10.53703125 15.5309375 -10.86703125 16.8509375 -11.20703125 18.2109375 C-11.53703125 16.8909375 -11.86703125 15.5709375 -12.20703125 14.2109375 C-13.19703125 14.5409375 -14.18703125 14.8709375 -15.20703125 15.2109375 C-15.20703125 14.5509375 -15.20703125 13.8909375 -15.20703125 13.2109375 C-14.54703125 13.2109375 -13.88703125 13.2109375 -13.20703125 13.2109375 C-13.14515625 12.1796875 -13.08328125 11.1484375 -13.01953125 10.0859375 C-11.34384402 2.0941984 -7.7925121 -0.53390784 0 0 Z " fill="#0D1D35" transform="translate(62.20703125,287.7890625)"/>
<path d="M0 0 C1.50007161 0.04251465 2.99999215 0.09056186 4.49975586 0.14282227 C5.30384384 0.16643326 6.10793182 0.19004425 6.93638611 0.21437073 C9.52929665 0.29116493 12.12192824 0.37477119 14.71459961 0.45922852 C18.08039477 0.56524542 21.44627856 0.66776164 24.81225586 0.76782227 C26.05454453 0.80581436 26.05454453 0.80581436 27.32192993 0.84457397 C33.97406194 1.03501739 40.61322786 1.03366503 47.26708984 0.94384766 C50.49839932 1.01819224 53.48410336 1.40375276 56.65209961 2.02172852 C56.65209961 2.35172852 56.65209961 2.68172852 56.65209961 3.02172852 C37.18209961 3.02172852 17.71209961 3.02172852 -2.34790039 3.02172852 C-2.34790039 4.34172852 -2.34790039 5.66172852 -2.34790039 7.02172852 C-3.33790039 6.69172852 -4.32790039 6.36172852 -5.34790039 6.02172852 C-4.27205387 0.02772645 -4.27205387 0.02772645 0 0 Z " fill="#B7BBCC" transform="translate(42.347900390625,20.978271484375)"/>
<path d="M0 0 C0.99 0 1.98 0 3 0 C3 8.58 3 17.16 3 26 C-1.95 26 -6.9 26 -12 26 C-12 25.34 -12 24.68 -12 24 C-12.66 23.67 -13.32 23.34 -14 23 C-9.38 23 -4.76 23 0 23 C0 15.41 0 7.82 0 0 Z " fill="#091431" transform="translate(117,299)"/>
<path d="M0 0 C0.33 0 0.66 0 1 0 C1.11157151 9.07448253 0.94242818 17.96278689 0 27 C-0.99 27 -1.98 27 -3 27 C-3 27.66 -3 28.32 -3 29 C-7.7581135 31.37905675 -14.99632677 30.33431286 -20 29 C-20 28.34 -20 27.68 -20 27 C-20.66 27 -21.32 27 -22 27 C-22 22.38 -22 17.76 -22 13 C-21.67 13 -21.34 13 -21 13 C-21 17.29 -21 21.58 -21 26 C-14.4 26 -7.8 26 -1 26 C-1.01160156 24.54207031 -1.02320313 23.08414062 -1.03515625 21.58203125 C-1.0445376 19.65885545 -1.05363743 17.73567826 -1.0625 15.8125 C-1.07087891 14.85279297 -1.07925781 13.89308594 -1.08789062 12.90429688 C-1.09272461 11.50727539 -1.09272461 11.50727539 -1.09765625 10.08203125 C-1.10551147 8.80162964 -1.10551147 8.80162964 -1.11352539 7.49536133 C-0.99579323 4.90753253 -0.57107044 2.52338047 0 0 Z " fill="#5A6988" transform="translate(189,299)"/>
<path d="M0 0 C1.98 0 3.96 0 6 0 C5.01 0.33 4.02 0.66 3 1 C3.33 10.57 3.66 20.14 4 30 C7.96 30 11.92 30 16 30 C16 30.99 16 31.98 16 33 C11.71 33 7.42 33 3 33 C2.34 31.02 1.68 29.04 1 27 C0.67 26.34 0.34 25.68 0 25 C-0.084915 23.1136088 -0.107193 21.22421485 -0.09765625 19.3359375 C-0.09443359 18.21445312 -0.09121094 17.09296875 -0.08789062 15.9375 C-0.07951172 14.761875 -0.07113281 13.58625 -0.0625 12.375 C-0.05798828 11.19164062 -0.05347656 10.00828125 -0.04882812 8.7890625 C-0.03701467 5.85932493 -0.02054258 2.92968728 0 0 Z " fill="#6A768E" transform="translate(226,298)"/>
<path d="M0 0 C1.99954746 -0.04254356 4.00041636 -0.04080783 6 0 C7 1 7 1 7.11352539 3.13305664 C7.10828857 4.04949951 7.10305176 4.96594238 7.09765625 5.91015625 C7.09443359 6.89951172 7.09121094 7.88886719 7.08789062 8.90820312 C7.07951172 9.94912109 7.07113281 10.99003906 7.0625 12.0625 C7.05798828 13.10728516 7.05347656 14.15207031 7.04882812 15.22851562 C7.03699913 17.8190666 7.02051689 20.40950559 7 23 C9.64 23 12.28 23 15 23 C15 15.41 15 7.82 15 0 C17.31 0 19.62 0 22 0 C22 0.33 22 0.66 22 1 C20.02 1 18.04 1 16 1 C16 8.59 16 16.18 16 24 C6 24 6 24 4 23 C3.67 16.07 3.34 9.14 3 2 C2.01 2 1.02 2 0 2 C0 1.34 0 0.68 0 0 Z " fill="#AEB7CC" transform="translate(167,298)"/>
<path d="M0 0 C4.84002726 1.29491957 7.64196371 3.11494385 11.25 6.5625 C14.36863347 9.64656631 14.36863347 9.64656631 18 12 C19.1875 14.375 19.1875 14.375 20 17 C19.67 17.99 19.34 18.98 19 20 C17.68 19.67 16.36 19.34 15 19 C15 17.68 15 16.36 15 15 C14.34 15 13.68 15 13 15 C12.67 14.34 12.34 13.68 12 13 C9.67843403 12.59270772 7.3431213 12.25561323 5 12 C5.33 10.35 5.66 8.7 6 7 C5.01 7 4.02 7 3 7 C0.8125 4 0.8125 4 -1 1 C-0.67 0.67 -0.34 0.34 0 0 Z " fill="#112654" transform="translate(155,243)"/>
<path d="M0 0 C-1.32 0.33 -2.64 0.66 -4 1 C-4 8.92 -4 16.84 -4 25 C-7.96 25 -11.92 25 -16 25 C-16 17.41 -16 9.82 -16 2 C-15.67 2 -15.34 2 -15 2 C-15 9.26 -15 16.52 -15 24 C-12.36 24 -9.72 24 -7 24 C-7 16.41 -7 8.82 -7 1 C-4.53721199 -0.231394 -2.7204945 -0.07159196 0 0 Z " fill="#96A3BC" transform="translate(248,297)"/>
<path d="M0 0 C0.33 0 0.66 0 1 0 C1.90638913 6.79791849 2.13820672 13.52569856 2.1875 20.375 C2.20039063 21.25510742 2.21328125 22.13521484 2.2265625 23.04199219 C2.22849609 24.30124512 2.22849609 24.30124512 2.23046875 25.5859375 C2.23457764 26.3392334 2.23868652 27.0925293 2.24291992 27.86865234 C1.96815042 30.27944408 1.19683307 31.9063574 0 34 C-2.60478883 34.0809313 -5.20706653 34.14045434 -7.8125 34.1875 C-8.55048828 34.21263672 -9.28847656 34.23777344 -10.04882812 34.26367188 C-12.20703125 34.29296875 -12.20703125 34.29296875 -16 34 C-16.99 33.01 -17.98 32.02 -19 31 C-12.73 31 -6.46 31 0 31 C0 20.77 0 10.54 0 0 Z " fill="#303C5F" transform="translate(217,294)"/>
<path d="M0 0 C0.99 0 1.98 0 3 0 C3.33 3.63 3.66 7.26 4 11 C5.32 11 6.64 11 8 11 C8 11.66 8 12.32 8 13 C8.33 13.33 8.66 13.66 9 14 C9.33 14.99 9.66 15.98 10 17 C10.33 16.01 10.66 15.02 11 14 C11.66 14 12.32 14 13 14 C13.66 12.35 14.32 10.7 15 9 C15.66 9 16.32 9 17 9 C17 8.01 17 7.02 17 6 C17.66 6.33 18.32 6.66 19 7 C15.25 13.75 15.25 13.75 13 16 C11.66096786 18.34754398 11.66096786 18.34754398 11 21 C11.76603959 23.2857711 11.76603959 23.2857711 13 25 C11.35 25 9.7 25 8 25 C8 22.03 8 19.06 8 16 C6.35 17.32 4.7 18.64 3 20 C0.88074396 17.88074396 1.58168983 13.3803907 1.4375 10.4375 C1.37272461 9.22803711 1.37272461 9.22803711 1.30664062 7.99414062 C1.20024738 5.99631195 1.09959112 3.9981793 1 2 C0.34 1.67 -0.32 1.34 -1 1 C-0.67 0.67 -0.34 0.34 0 0 Z " fill="#60728E" transform="translate(41,288)"/>
<path d="M0 0 C6.875 3.75 6.875 3.75 8 6 C8.99 6 9.98 6 11 6 C11 6.66 11 7.32 11 8 C11.9590625 8.2165625 11.9590625 8.2165625 12.9375 8.4375 C15 9 15 9 16 10 C19.02807044 10.1603556 22.03585454 10.25960448 25.06640625 10.31640625 C26.42934059 10.3475779 26.42934059 10.3475779 27.81980896 10.37937927 C30.73395946 10.44497672 33.64820304 10.5038068 36.5625 10.5625 C38.53321291 10.60567554 40.50391626 10.64928951 42.47460938 10.69335938 C47.31630988 10.80066843 52.15810437 10.90190675 57 11 C57 11.33 57 11.66 57 12 C52.37808986 12.1948256 47.75591852 12.37308829 43.1328125 12.53710938 C41.56558804 12.59491683 39.99851346 12.65697142 38.43164062 12.72363281 C12.67785725 13.8104293 12.67785725 13.8104293 2 5 C1.34 4.34 0.68 3.68 0 3 C0 2.01 0 1.02 0 0 Z " fill="#425272" transform="translate(44,269)"/>
<path d="M0 0 C0.33 0 0.66 0 1 0 C1 2.64 1 5.28 1 8 C4.96 8 8.92 8 13 8 C13 9.98 13 11.96 13 14 C4.57142857 15.28571429 4.57142857 15.28571429 0 14 C-0.91297308 9.02936879 -0.91297308 4.97063121 0 0 Z " fill="#112143" transform="translate(73,314)"/>
<path d="M0 0 C0.33 0 0.66 0 1 0 C1.33 4.29 1.66 8.58 2 13 C2.66 13 3.32 13 4 13 C3.67 14.65 3.34 16.3 3 18 C3.66 18 4.32 18 5 18 C5.5321441 20.08047297 6.05031786 22.16452293 6.5625 24.25 C6.85253906 25.41015625 7.14257812 26.5703125 7.44140625 27.765625 C7.95179964 30.72090983 8.02996165 32.24434101 7 35 C6.505 33.515 6.505 33.515 6 32 C5.34 32.66 4.68 33.32 4 34 C2.39644899 30.49223216 1.77963136 27.85645121 2 24 C1.34 23.67 0.68 23.34 0 23 C0 15.41 0 7.82 0 0 Z " fill="#172C5D" transform="translate(118,165)"/>
<path d="M0 0 C1.485 0.99 1.485 0.99 3 2 C3 2.66 3 3.32 3 4 C3.66 4 4.32 4 5 4 C5.34611328 4.8353125 5.34611328 4.8353125 5.69921875 5.6875 C7.78457867 10.56707737 10.09435838 14.9262703 13.14453125 19.2734375 C14 21 14 21 13 24 C6.2565445 19.89528796 6.2565445 19.89528796 5 16 C5 15.01 5 14.02 5 13 C4.34 13 3.68 13 3 13 C1.32889958 10.03821227 0.67317248 7.62928808 0.375 4.25 C0.30023438 3.45078125 0.22546875 2.6515625 0.1484375 1.828125 C0.09945312 1.22484375 0.05046875 0.6215625 0 0 Z " fill="#0D214D" transform="translate(127,203)"/>
<path d="M0 0 C0.99 0.33 1.98 0.66 3 1 C3 7.93 3 14.86 3 22 C3.66 22.33 4.32 22.66 5 23 C4.01 23 3.02 23 2 23 C2 23.66 2 24.32 2 25 C1.34 25 0.68 25 0 25 C-0.66 17.08 -1.32 9.16 -2 1 C-1.34 0.67 -0.68 0.34 0 0 Z " fill="#293A5F" transform="translate(168,299)"/>
<path d="M0 0 C15.51 0 31.02 0 47 0 C47 0.33 47 0.66 47 1 C46.01717041 1.02505615 45.03434082 1.0501123 44.02172852 1.07592773 C40.33705031 1.17088119 36.65252255 1.27087838 32.96801758 1.37231445 C31.38048855 1.41533386 29.792923 1.45702837 28.20532227 1.49731445 C13.50976147 0.9204852 13.50976147 0.9204852 0 5 C-0.70788435 8.33975372 -0.70788435 8.33975372 -0.75 12.125 C-0.80671875 13.40632813 -0.8634375 14.68765625 -0.921875 16.0078125 C-0.94765625 16.99523437 -0.9734375 17.98265625 -1 19 C-1.33 19 -1.66 19 -2 19 C-2 13.72 -2 8.44 -2 3 C-1.34 3 -0.68 3 0 3 C0 2.01 0 1.02 0 0 Z " fill="#253666" transform="translate(41,26)"/>
<path d="M0 0 C0.33 0 0.66 0 1 0 C1 24.42 1 48.84 1 74 C0.67 74 0.34 74 0 74 C-0.00808685 73.16506012 -0.01617371 72.33012024 -0.02450562 71.46987915 C-0.10235721 63.61194671 -0.18961893 55.75418781 -0.28752708 47.89647865 C-0.33753207 43.85647662 -0.38386148 39.81650126 -0.421875 35.77636719 C-0.45867508 31.87942462 -0.50502013 27.98270309 -0.55806351 24.08594894 C-0.57663565 22.59720094 -0.59173314 21.10840551 -0.60334396 19.61958694 C-0.62015869 17.53864014 -0.64918057 15.45820267 -0.68115234 13.37744141 C-0.69447601 12.19163483 -0.70779968 11.00582825 -0.7215271 9.78408813 C-0.71717205 6.86068118 -0.71717205 6.86068118 -3 5 C-3 4.01 -3 3.02 -3 2 C-2.01 2 -1.02 2 0 2 C0 1.34 0 0.68 0 0 Z " fill="#29354B" transform="translate(37,28)"/>
<path d="M0 0 C10.56 0 21.12 0 32 0 C32 0.99 32 1.98 32 3 C28.54168516 3.02949232 25.08340346 3.0469616 21.625 3.0625 C20.65949219 3.07087891 19.69398438 3.07925781 18.69921875 3.08789062 C12.40175711 3.10902305 6.25160137 2.76107198 0 2 C0 1.34 0 0.68 0 0 Z " fill="#A6A8AB" transform="translate(216,22)"/>
<path d="M0 0 C0.99 0.33 1.98 0.66 3 1 C2.34 2.32 1.68 3.64 1 5 C0.01 5 -0.98 5 -2 5 C-2.66 6.65 -3.32 8.3 -4 10 C-4.66 10 -5.32 10 -6 10 C-6 10.66 -6 11.32 -6 12 C-7.66666667 13.66666667 -9.33333333 15.33333333 -11 17 C-11.33 17.99 -11.66 18.98 -12 20 C-12.99 20.33 -13.98 20.66 -15 21 C-16.34090759 21.65129797 -17.67592331 22.31513275 -19 23 C-19 21.02 -19 19.04 -19 17 C-18.4225 16.87625 -17.845 16.7525 -17.25 16.625 C-14.82599488 15.95166524 -13.07041295 15.44928906 -11 14 C-10.71125 13.01 -10.4225 12.02 -10.125 11 C-9.75375 10.01 -9.3825 9.02 -9 8 C-7.01276732 7.29618843 -5.01222047 6.6288189 -3 6 C-1.62533375 3.52363988 -1.62533375 3.52363988 -1 1 C-0.67 0.67 -0.34 0.34 0 0 Z " fill="#253B6D" transform="translate(163,51)"/>
<path d="M0 0 C4.90494309 7.35741464 7.30063498 16.61776125 10 25 C9.34 24.67 8.68 24.34 8 24 C8 23.01 8 22.02 8 21 C7.34 21 6.68 21 6 21 C5.34 20.34 4.68 19.68 4 19 C4 20.98 4 22.96 4 25 C0.75709826 20.1356474 -1.55811184 14.95319301 -1 9 C-0.01 9.495 -0.01 9.495 1 10 C0.67 9.01 0.34 8.02 0 7 C-0.03954234 4.66700175 -0.04401732 2.33291811 0 0 Z " fill="#122652" transform="translate(124,186)"/>
<path d="M0 0 C1.65 0 3.3 0 5 0 C5 0.99 5 1.98 5 3 C4.01 3 3.02 3 2 3 C1.67 9.27 1.34 15.54 1 22 C1.66 22 2.32 22 3 22 C3.33 22.99 3.66 23.98 4 25 C-2.27 25 -8.54 25 -15 25 C-14.34 24.67 -13.68 24.34 -13 24 C-13 23.34 -13 22.68 -13 22 C-8.71 22 -4.42 22 0 22 C0 14.74 0 7.48 0 0 Z " fill="#0E2249" transform="translate(183,300)"/>
<path d="M0 0 C0.33 0 0.66 0 1 0 C1 3.63 1 7.26 1 11 C-12.53 11 -26.06 11 -40 11 C-40.33 10.34 -40.66 9.68 -41 9 C-27.8 9 -14.6 9 -1 9 C-0.67 6.03 -0.34 3.06 0 0 Z " fill="#233666" transform="translate(100,269)"/>
<path d="M0 0 C23.01812259 -0.16287589 45.99325347 0.29515712 69 1 C69 1.33 69 1.66 69 2 C68.34402832 2.02505615 67.68805664 2.0501123 67.01220703 2.07592773 C64.04959817 2.1917326 61.08731969 2.31452886 58.125 2.4375 C57.09246094 2.47681641 56.05992187 2.51613281 54.99609375 2.55664062 C54.00996094 2.59853516 53.02382812 2.64042969 52.0078125 2.68359375 C51.09660645 2.72025146 50.18540039 2.75690918 49.24658203 2.79467773 C46.96516519 2.86577065 46.96516519 2.86577065 45 4 C44.01 3.67 43.02 3.34 42 3 C40.04415987 3 38.08769083 3.00117048 36.1328125 3.0625 C34 3 34 3 31.79370117 2.51586914 C28.55943601 1.91864793 25.45550978 1.78497167 22.16796875 1.68359375 C20.87568359 1.64169922 19.58339844 1.59980469 18.25195312 1.55664062 C16.89713808 1.51683648 15.54232033 1.47712409 14.1875 1.4375 C12.81313895 1.39426277 11.43878976 1.35064688 10.06445312 1.30664062 C6.70973331 1.2007021 3.3549414 1.09862811 0 1 C0 0.67 0 0.34 0 0 Z " fill="#101D3F" transform="translate(155,24)"/>
<path d="M0 0 C0.99 0 1.98 0 3 0 C3.33 8.25 3.66 16.5 4 25 C2.68 25.33 1.36 25.66 0 26 C0 17.42 0 8.84 0 0 Z " fill="#202B4B" transform="translate(229,299)"/>
<path d="M0 0 C1.5 1.375 1.5 1.375 3 3 C3 3.66 3 4.32 3 5 C3.66 5 4.32 5 5 5 C5.33 5.99 5.66 6.98 6 8 C6.66 8.33 7.32 8.66 8 9 C8.33 9.99 8.66 10.98 9 12 C9.66 12.33 10.32 12.66 11 13 C11 13.66 11 14.32 11 15 C4.375 16.125 4.375 16.125 1 15 C1 14.34 1 13.68 1 13 C0.34 13 -0.32 13 -1 13 C-1.103125 12.360625 -1.20625 11.72125 -1.3125 11.0625 C-1.539375 10.381875 -1.76625 9.70125 -2 9 C-2.99 8.67 -3.98 8.34 -5 8 C-5 7.01 -5 6.02 -5 5 C-2.525 5.99 -2.525 5.99 0 7 C0 8.65 0 10.3 0 12 C0.99 12 1.98 12 3 12 C3.33 10.02 3.66 8.04 4 6 C3.34 6 2.68 6 2 6 C1.34 4.02 0.68 2.04 0 0 Z " fill="#5F6B7D" transform="translate(54,313)"/>
<path d="M0 0 C2.31 0 4.62 0 7 0 C7 7.59 7 15.18 7 23 C6.67 23 6.34 23 6 23 C6 15.74 6 8.48 6 1 C4.515 2.485 4.515 2.485 3 4 C2.34 4 1.68 4 1 4 C1 9.61 1 15.22 1 21 C-1 19 -1 19 -1.24291992 17.13647461 C-1.23881104 16.39921143 -1.23470215 15.66194824 -1.23046875 14.90234375 C-1.22853516 14.10119141 -1.22660156 13.30003906 -1.22460938 12.47460938 C-1.21236328 11.63736328 -1.20011719 10.80011719 -1.1875 9.9375 C-1.18685547 9.09638672 -1.18621094 8.25527344 -1.18554688 7.38867188 C-1.14023184 1.14023184 -1.14023184 1.14023184 0 0 Z " fill="#77809B" transform="translate(99,298)"/>
<path d="M0 0 C0.99 0 1.98 0 3 0 C4.13896163 4.34492771 3.93100471 8.38620785 3.5625 12.8125 C3.51029297 13.50537109 3.45808594 14.19824219 3.40429688 14.91210938 C3.27560181 16.60854437 3.13863816 18.30434863 3 20 C2.34 19.67 1.68 19.34 1 19 C0.67 22.96 0.34 26.92 0 31 C-0.33 31 -0.66 31 -1 31 C-1 25.39 -1 19.78 -1 14 C-0.34 14 0.32 14 1 14 C0.67 13.01 0.34 12.02 0 11 C-0.0685495 9.10529184 -0.08480372 7.2083166 -0.0625 5.3125 C-0.05347656 4.31863281 -0.04445312 3.32476562 -0.03515625 2.30078125 C-0.02355469 1.54152344 -0.01195312 0.78226562 0 0 Z " fill="#1C2B4F" transform="translate(214,289)"/>
<path d="M0 0 C0.99 0 1.98 0 3 0 C1.65604311 4.28908729 0.00608805 8.26212186 -1.9375 12.3125 C-4.35810226 17.47329505 -6.33777099 22.55158269 -8 28 C-8.33 28 -8.66 28 -9 28 C-9.24866266 21.03744565 -9.32447397 14.33989087 -4.5 8.875 C-1.93552473 5.92585344 -0.97926957 3.73902928 0 0 Z " fill="#2C4068" transform="translate(134,89)"/>
<path d="M0 0 C1.65 0 3.3 0 5 0 C3.96166016 0.80630859 3.96166016 0.80630859 2.90234375 1.62890625 C-0.33821544 4.2763079 -3.38516752 7.07794641 -6.4375 9.9375 C-10.52363538 13.76373984 -14.66841089 17.45240892 -19 21 C-19 20.01 -19 19.02 -19 18 C-18.34 18 -17.68 18 -17 18 C-16.67 17.01 -16.34 16.02 -16 15 C-15.34 15 -14.68 15 -14 15 C-14 14.34 -14 13.68 -14 13 C-13.34 13 -12.68 13 -12 13 C-11.773125 12.278125 -11.54625 11.55625 -11.3125 10.8125 C-9.23096303 6.35206364 -6.04684244 3.69789496 -2 1 C-1.34 1.33 -0.68 1.66 0 2 C0 1.34 0 0.68 0 0 Z " fill="#3A4A6C" transform="translate(171,48)"/>
<path d="M0 0 C0.33 0 0.66 0 1 0 C1.33 9.57 1.66 19.14 2 29 C2.33 25.7 2.66 22.4 3 19 C3.66 18.67 4.32 18.34 5 18 C5.99 19.32 6.98 20.64 8 22 C7.34 22.66 6.68 23.32 6 24 C5.67 23.67 5.34 23.34 5 23 C4.67 26.63 4.34 30.26 4 34 C2.02 34.495 2.02 34.495 0 35 C0 23.45 0 11.9 0 0 Z " fill="#202A52" transform="translate(40,294)"/>
<path d="M0 0 C0.99 0 1.98 0 3 0 C3 7.59 3 15.18 3 23 C2.01 23 1.02 23 0 23 C0 15.41 0 7.82 0 0 Z " fill="#111C42" transform="translate(142,305)"/>
<path d="M0 0 C1.98 0.99 1.98 0.99 4 2 C4 2.66 4 3.32 4 4 C5.0209375 4.061875 5.0209375 4.061875 6.0625 4.125 C10.25515787 5.37387681 12.8592439 8.04026731 16 11 C15.01 11.495 15.01 11.495 14 12 C13.67 12.99 13.34 13.98 13 15 C12.01 14.67 11.02 14.34 10 14 C9.66666667 12.66666667 9.33333333 11.33333333 9 10 C8.01 9.67 7.02 9.34 6 9 C4.3125 7.5625 4.3125 7.5625 3 6 C3 5.34 3 4.68 3 4 C2.34 4 1.68 4 1 4 C0.67 2.68 0.34 1.36 0 0 Z " fill="#293A5E" transform="translate(139,228)"/>
<path d="M0 0 C3.48240164 4.21553883 6.34891128 8.63732917 9.21875 13.28125 C10.99921002 15.99879424 12.93199152 18.49662132 15 21 C14.67 21.66 14.34 22.32 14 23 C11.525 22.01 11.525 22.01 9 21 C9 20.34 9 19.68 9 19 C8.21625 18.7525 7.4325 18.505 6.625 18.25 C3.67682892 16.84610901 3.0975223 15.99324263 2 13 C3.32 13.66 4.64 14.32 6 15 C4.92053462 11.94151475 3.73831038 9.62285907 1.875 6.9375 C0 4 0 4 0 0 Z " fill="#2D3D5E" transform="translate(134,211)"/>
<path d="M0 0 C3 3 3 3 3.2487793 6.00268555 C3.19117432 7.2019165 3.13356934 8.40114746 3.07421875 9.63671875 C3.01943359 10.93544922 2.96464844 12.23417969 2.90820312 13.57226562 C2.83497036 14.94402834 2.7613983 16.31577298 2.6875 17.6875 C2.62422838 19.07089921 2.56236272 20.45436349 2.50195312 21.83789062 C2.3484777 25.2261558 2.18058886 28.61308921 2 32 C1.34 32 0.68 32 0 32 C0 21.44 0 10.88 0 0 Z " fill="#C2D0E8" transform="translate(248,298)"/>
<path d="M0 0 C0.99 0 1.98 0 3 0 C3 7.26 3 14.52 3 22 C2.01 22 1.02 22 0 22 C0 14.74 0 7.48 0 0 Z " fill="#45546F" transform="translate(152,306)"/>
<path d="M0 0 C0.33 0.66 0.66 1.32 1 2 C1.99 2 2.98 2 4 2 C4.66 3.98 5.32 5.96 6 8 C6.66 8 7.32 8 8 8 C8.93065133 10.60582371 9.14917407 11.64198224 8.0625 14.25 C7.711875 14.8275 7.36125 15.405 7 16 C7 15.34 7 14.68 7 14 C6.01 14 5.02 14 4 14 C3.9175 13.21625 3.835 12.4325 3.75 11.625 C3.27193661 8.85250896 3.27193661 8.85250896 0.9375 7.6875 C0.298125 7.460625 -0.34125 7.23375 -1 7 C-0.67 4.69 -0.34 2.38 0 0 Z " fill="#0E2043" transform="translate(50,311)"/>
<path d="M0 0 C7.74136601 -0.10920422 15.31395526 0.02840067 23 1 C23.33 1.99 23.66 2.98 24 4 C20.09547658 5.30150781 16.79539691 4.62254053 12.8125 4.0625 C12.06291016 3.96259766 11.31332031 3.86269531 10.54101562 3.75976562 C8.69318518 3.51260359 6.8464734 3.25710389 5 3 C5 2.67 5 2.34 5 2 C3.35 1.67 1.7 1.34 0 1 C0 0.67 0 0.34 0 0 Z " fill="#16264B" transform="translate(131,300)"/>
<path d="M0 0 C0.66 0 1.32 0 2 0 C2 5.94 2 11.88 2 18 C3.32 18.33 4.64 18.66 6 19 C3.35261084 20.4606285 2.10551666 21 -1 21 C-1.02719556 18.62492145 -1.04693247 16.25016036 -1.0625 13.875 C-1.07087891 13.20984375 -1.07925781 12.5446875 -1.08789062 11.859375 C-1.10782292 7.79318646 -0.78890161 3.9879908 0 0 Z " fill="#051334" transform="translate(199,304)"/>
<path d="M0 0 C1.03157227 0.00966797 1.03157227 0.00966797 2.08398438 0.01953125 C9.63335098 0.12904155 17.16017657 0.62695464 24.6875 1.1875 C24.6875 1.5175 24.6875 1.8475 24.6875 2.1875 C23.67848633 2.19160889 22.66947266 2.19571777 21.62988281 2.19995117 C17.87969148 2.22175329 14.1305478 2.27605218 10.38085938 2.34008789 C8.75921687 2.36325884 7.13742407 2.37766154 5.515625 2.38305664 C3.18134004 2.39235373 0.84941559 2.433353 -1.484375 2.48046875 C-2.20743835 2.4765361 -2.93050171 2.47260345 -3.67547607 2.46855164 C-7.5798535 2.58127015 -9.02054349 2.88910074 -11.80175781 5.73168945 C-12.30030273 6.54210693 -12.79884766 7.35252441 -13.3125 8.1875 C-13.125 5.3125 -13.125 5.3125 -12.3125 2.1875 C-8.27689221 -0.09382306 -4.56006866 -0.05041282 0 0 Z " fill="#BFC5D0" transform="translate(124.3125,21.8125)"/>
<path d="M0 0 C0 12.21 0 24.42 0 37 C-2.40427111 33.39359333 -2.34578876 30.66318794 -2.4140625 26.48828125 C-2.43342865 25.76005661 -2.4527948 25.03183197 -2.4727478 24.28153992 C-2.53246376 21.95864525 -2.57889617 19.63570081 -2.625 17.3125 C-2.66318721 15.73630668 -2.70223938 14.16013405 -2.7421875 12.58398438 C-2.83815848 8.72282465 -2.92221849 4.86156724 -3 1 C-1 0 -1 0 0 0 Z " fill="#06113E" transform="translate(43,289)"/>
<path d="M0 0 C0.33 0 0.66 0 1 0 C1.03758423 0.86951294 1.03758423 0.86951294 1.07592773 1.7565918 C1.19246234 4.40042107 1.31492682 7.04394409 1.4375 9.6875 C1.47681641 10.59951172 1.51613281 11.51152344 1.55664062 12.45117188 C1.59853516 13.33740234 1.64042969 14.22363281 1.68359375 15.13671875 C1.72025146 15.94842529 1.75690918 16.76013184 1.79467773 17.59643555 C1.95018859 20.04460785 1.95018859 20.04460785 2.57055664 22.56958008 C3.19382652 26.09695451 2.21201008 28.68291978 1 32 C0.01 32.495 0.01 32.495 -1 33 C-1.12308347 21.94983981 -0.83058514 11.02008501 0 0 Z " fill="#DADBDE" transform="translate(251,248)"/>
<path d="M0 0 C0.33 0 0.66 0 1 0 C0.67 12.87 0.34 25.74 0 39 C-0.33 39 -0.66 39 -1 39 C-1.06058594 37.865625 -1.12117188 36.73125 -1.18359375 35.5625 C-1.26808494 34.04165865 -1.35272851 32.52082575 -1.4375 31 C-1.47681641 30.25621094 -1.51613281 29.51242188 -1.55664062 28.74609375 C-1.76563629 25.04847805 -2.05270164 21.40067672 -2.5546875 17.73046875 C-3.29884778 11.49649449 -2.7620429 5.708222 0 0 Z " fill="#1C3464" transform="translate(118,138)"/>
<path d="M0 0 C3.43536178 3.43536178 2.36910917 8.2807986 2.375 12.9375 C2.39949219 13.95263672 2.42398438 14.96777344 2.44921875 16.01367188 C2.45308594 16.98755859 2.45695312 17.96144531 2.4609375 18.96484375 C2.46915527 19.8580835 2.47737305 20.75132324 2.48583984 21.67163086 C2 24 2 24 0.09619141 25.81469727 C-2 27 -2 27 -4 27 C-4 26.01 -4 25.02 -4 24 C-2.68 24 -1.36 24 0 24 C0 16.08 0 8.16 0 0 Z " fill="#6F7DA2" transform="translate(90,301)"/>
<path d="M0 0 C0.66 0.33 1.32 0.66 2 1 C3.37206521 1.21691392 4.75139272 1.38923163 6.1328125 1.53515625 C6.93847656 1.62216797 7.74414062 1.70917969 8.57421875 1.79882812 C9.41597656 1.88583984 10.25773437 1.97285156 11.125 2.0625 C12.39923828 2.19881836 12.39923828 2.19881836 13.69921875 2.33789062 C15.7991145 2.5620368 17.89951293 2.78146448 20 3 C18 5 18 5 14.77734375 5.23046875 C12.87662109 5.20919922 12.87662109 5.20919922 10.9375 5.1875 C9.66777344 5.18105469 8.39804688 5.17460937 7.08984375 5.16796875 C4 5 4 5 3 4 C0.98405418 3.76572222 -1.038474 3.58663876 -3.0625 3.4375 C-4.16722656 3.35371094 -5.27195313 3.26992188 -6.41015625 3.18359375 C-7.26480469 3.12300781 -8.11945313 3.06242187 -9 3 C-9 2.67 -9 2.34 -9 2 C-6.94921875 1.77213542 -4.8984375 1.54427083 -2.84765625 1.31640625 C-0.98859771 1.18113386 -0.98859771 1.18113386 0 0 Z " fill="#25345F" transform="translate(194,276)"/>
<path d="M0 0 C0.99 0.33 1.98 0.66 3 1 C2.65066406 1.44730469 2.30132812 1.89460938 1.94140625 2.35546875 C-0.68898628 5.85023956 -2.59207142 8.51278557 -3 13 C-4.32 13 -5.64 13 -7 13 C-7.103125 13.928125 -7.20625 14.85625 -7.3125 15.8125 C-8.03227796 19.14965236 -8.57142872 19.83186532 -11 22 C-9.64651302 13.5050883 -9.64651302 13.5050883 -7 11.4375 C-6.34 10.963125 -5.68 10.48875 -5 10 C-4.3486107 7.95642574 -3.94040164 5.95500766 -3.58984375 3.83984375 C-3 2 -3 2 0 0 Z " fill="#223969" transform="translate(141,76)"/>
<path d="M0 0 C1.98 0 3.96 0 6 0 C6 7.59 6 15.18 6 23 C5.34 23 4.68 23 4 23 C3.67 16.07 3.34 9.14 3 2 C2.01 2 1.02 2 0 2 C0 1.34 0 0.68 0 0 Z " fill="#69789F" transform="translate(167,298)"/>
<path d="M0 0 C0.66 0.33 1.32 0.66 2 1 C2.5625 2.875 2.5625 2.875 3 5 C3.66868314 8.11332248 3.66868314 8.11332248 6.0625 9.1875 C6.701875 9.455625 7.34125 9.72375 8 10 C8 11.32 8 12.64 8 14 C5.75 13.9375 5.75 13.9375 3 13 C0.10795829 9.1185756 -1.10236909 7.40757497 -0.75 2.5625 C-0.5025 1.716875 -0.255 0.87125 0 0 Z " fill="#233A63" transform="translate(108,264)"/>
<path d="M0 0 C0.33 0 0.66 0 1 0 C1.53350857 3.41481264 2.04958186 6.83203896 2.5625 10.25 C2.71396484 11.21808594 2.86542969 12.18617188 3.02148438 13.18359375 C3.16005859 14.11816406 3.29863281 15.05273438 3.44140625 16.015625 C3.57232666 16.87446289 3.70324707 17.73330078 3.83813477 18.61816406 C4.0007082 21.01042114 3.71976511 22.72802578 3 25 C3 24.01 3 23.02 3 22 C2.34 22 1.68 22 1 22 C1.33 20.35 1.66 18.7 2 17 C1.34 17 0.68 17 0 17 C-0.33 17.66 -0.66 18.32 -1 19 C-1.09507063 12.56688704 -1.15316726 6.34241995 0 0 Z " fill="#324164" transform="translate(120,161)"/>
<path d="M0 0 C0.99 0 1.98 0 3 0 C3 5.28 3 10.56 3 16 C2.34 16 1.68 16 1 16 C0.67 16.99 0.34 17.98 0 19 C0 12.73 0 6.46 0 0 Z " fill="#1D2D52" transform="translate(102,299)"/>
<path d="M0 0 C0.66 0.33 1.32 0.66 2 1 C1.01 2.485 1.01 2.485 0 4 C-0.66 4 -1.32 4 -2 4 C-2 16.21 -2 28.42 -2 41 C-2.33 41 -2.66 41 -3 41 C-3 27.8 -3 14.6 -3 1 C-2.01 0.67 -1.02 0.34 0 0 Z " fill="#9EA5B5" transform="translate(40,287)"/>
<path d="M0 0 C7.86379677 2.18340181 15.41675284 4.99285026 23 8 C23 8.33 23 8.66 23 9 C21.56163249 8.88541307 20.12429034 8.75790884 18.6875 8.625 C17.88699219 8.55539062 17.08648437 8.48578125 16.26171875 8.4140625 C14 8 14 8 11 6 C8.41041887 5.20988819 5.80381181 4.54444502 3.1796875 3.87890625 C2.46039063 3.58886719 1.74109375 3.29882812 1 3 C0.67 2.01 0.34 1.02 0 0 Z " fill="#6C748C" transform="translate(194,268)"/>
<path d="M0 0 C4.62 0 9.24 0 14 0 C14 1.98 14 3.96 14 6 C13.34 6 12.68 6 12 6 C12 5.01 12 4.02 12 3 C8.04 3 4.08 3 0 3 C0 2.01 0 1.02 0 0 Z " fill="#2D4577" transform="translate(230,325)"/>
<path d="M0 0 C0.66 0 1.32 0 2 0 C2.33 6.27 2.66 12.54 3 19 C2.01 19.33 1.02 19.66 0 20 C-0.33 20.99 -0.66 21.98 -1 23 C-0.67 15.41 -0.34 7.82 0 0 Z " fill="#2E3E63" transform="translate(100,302)"/>
<path d="M0 0 C3.12492251 -0.05791844 6.24970766 -0.09356746 9.375 -0.125 C10.26445313 -0.14175781 11.15390625 -0.15851563 12.0703125 -0.17578125 C12.92109375 -0.18222656 13.771875 -0.18867188 14.6484375 -0.1953125 C15.82672119 -0.21102295 15.82672119 -0.21102295 17.02880859 -0.22705078 C19 0 19 0 21 2 C10.605 2.495 10.605 2.495 0 3 C-0.33 3.66 -0.66 4.32 -1 5 C-0.67 3.35 -0.34 1.7 0 0 Z " fill="#6B789A" transform="translate(69,298)"/>
<path d="M0 0 C3.71599191 -0.20086443 4.77208445 -0.1519437 8 2 C9.25 4.4375 9.25 4.4375 10 7 C9.67 7.99 9.34 8.98 9 10 C7.68 9.67 6.36 9.34 5 9 C5 7.68 5 6.36 5 5 C4.34 5 3.68 5 3 5 C1.375 3.625 1.375 3.625 0 2 C0 1.34 0 0.68 0 0 Z " fill="#182A50" transform="translate(165,253)"/>
<path d="M0 0 C1.16208984 0.01353516 1.16208984 0.01353516 2.34765625 0.02734375 C4.23190843 0.05060612 6.11599832 0.0864636 8 0.125 C8 0.785 8 1.445 8 2.125 C-4.375 2.62 -4.375 2.62 -17 3.125 C-17 2.795 -17 2.465 -17 2.125 C-11.16420924 0.44057858 -6.05539796 -0.13643011 0 0 Z " fill="#4E5361" transform="translate(241,24.875)"/>
<path d="M0 0 C0.33 0 0.66 0 1 0 C1.06058594 1.13179688 1.12117188 2.26359375 1.18359375 3.4296875 C1.26799917 4.91147145 1.35264717 6.3932416 1.4375 7.875 C1.47681641 8.62136719 1.51613281 9.36773437 1.55664062 10.13671875 C1.71573624 14.19986864 1.71573624 14.19986864 3 18 C0 17 0 17 -1.171875 15.25390625 C-2.11730993 12.68071777 -2.26651066 10.6741411 -2.25 7.9375 C-2.25515625 7.08027344 -2.2603125 6.22304688 -2.265625 5.33984375 C-2 3 -2 3 0 0 Z " fill="#838CAD" transform="translate(70,309)"/>
<path d="M0 0 C0.99 0 1.98 0 3 0 C1.5703053 4.08803327 -0.42413355 7.21670936 -3 10.6875 C-3.70125 11.64011719 -4.4025 12.59273437 -5.125 13.57421875 C-7 16 -7 16 -9 18 C-8.42151551 13.22750294 -6.41311991 10.07213985 -4 6 C-3.67 5.01 -3.34 4.02 -3 3 C-2.01 2.67 -1.02 2.34 0 2 C0 1.34 0 0.68 0 0 Z " fill="#3D4C6E" transform="translate(147,70)"/>
<path d="M0 0 C1.41823316 0.08006155 2.83603027 0.17654137 4.25 0.3125 C3.59 2.2925 2.93 4.2725 2.25 6.3125 C1.59 5.9825 0.93 5.6525 0.25 5.3125 C0.58 4.3225 0.91 3.3325 1.25 2.3125 C0.59 2.3125 -0.07 2.3125 -0.75 2.3125 C-1.08 2.9725 -1.41 3.6325 -1.75 4.3125 C-2.74 4.3125 -3.73 4.3125 -4.75 4.3125 C-6.11176581 6.29325027 -7.44593116 8.29329663 -8.75 10.3125 C-9.41 10.3125 -10.07 10.3125 -10.75 10.3125 C-8.6793872 4.27321268 -6.85696479 0 0 0 Z " fill="#717D8D" transform="translate(59.75,287.6875)"/>
<path d="M0 0 C4.95 0 9.9 0 15 0 C15 0.99 15 1.98 15 3 C13.06318839 3.08107583 11.1254066 3.13922475 9.1875 3.1875 C8.10855469 3.22230469 7.02960938 3.25710938 5.91796875 3.29296875 C3 3 3 3 0 0 Z " fill="#293B65" transform="translate(198,325)"/>
<path d="M0 0 C0.66 0 1.32 0 2 0 C1.67 1.65 1.34 3.3 1 5 C1.66 5 2.32 5 3 5 C3.5321441 7.08047297 4.05031786 9.16452293 4.5625 11.25 C4.85253906 12.41015625 5.14257812 13.5703125 5.44140625 14.765625 C5.95179964 17.72090983 6.02996165 19.24434101 5 22 C2.37837789 17.55464077 1.56609293 13.9037495 1.2109375 8.85546875 C1.19345347 6.98588386 1.19345347 6.98588386 0 6 C-0.04080783 4.00041636 -0.04254356 1.99954746 0 0 Z " fill="#0D1C47" transform="translate(120,178)"/>
<path d="M0 0 C0.99 0.33 1.98 0.66 3 1 C2.34 1 1.68 1 1 1 C0.566875 2.3921875 0.566875 2.3921875 0.125 3.8125 C-1 7 -1 7 -3 10 C-6.125 10.6875 -6.125 10.6875 -9 11 C-7.02 7.7 -5.04 4.4 -3 1 C-2.34 1.33 -1.68 1.66 -1 2 C-0.67 1.34 -0.34 0.68 0 0 Z " fill="#3B4E6D" transform="translate(113,29)"/>
<path d="M0 0 C0.99 0 1.98 0 3 0 C3.33 3.63 3.66 7.26 4 11 C5.32 11 6.64 11 8 11 C8 11.66 8 12.32 8 13 C7.34 13 6.68 13 6 13 C5.71125 13.61875 5.4225 14.2375 5.125 14.875 C4 17 4 17 2 19 C1.67 13.39 1.34 7.78 1 2 C0.34 1.67 -0.32 1.34 -1 1 C-0.67 0.67 -0.34 0.34 0 0 Z " fill="#4F5E81" transform="translate(41,288)"/>
<path d="M0 0 C0.66 0 1.32 0 2 0 C3.23102992 3.69308976 2.87175152 6.88050712 2.5625 10.6875 C2.51029297 11.38939453 2.45808594 12.09128906 2.40429688 12.81445312 C2.27492135 14.54338054 2.13817469 16.27175355 2 18 C1.67 18 1.34 18 1 18 C0.63494484 15.93939936 0.28339285 13.87640368 -0.0625 11.8125 C-0.35833984 10.08966797 -0.35833984 10.08966797 -0.66015625 8.33203125 C-0.97822284 5.21351634 -0.80843264 3.00194217 0 0 Z " fill="#3D4E74" transform="translate(119,127)"/>
<path d="M0 0 C0.66 0.33 1.32 0.66 2 1 C1.814375 1.99 1.62875 2.98 1.4375 4 C0.5305827 10.95303266 1.45115982 18.04239521 2 25 C1.34 25 0.68 25 0 25 C-0.66 17.08 -1.32 9.16 -2 1 C-1.34 0.67 -0.68 0.34 0 0 Z " fill="#2F3B54" transform="translate(168,299)"/>
<path d="M0 0 C2.97 0.99 5.94 1.98 9 3 C8.67 3.99 8.34 4.98 8 6 C5.03 5.67 2.06 5.34 -1 5 C-1 1 -1 1 0 0 Z " fill="#39476B" transform="translate(185,264)"/>
<path d="M0 0 C0.33 0.66 0.66 1.32 1 2 C2.32 1.34 3.64 0.68 5 0 C5 0.99 5 1.98 5 3 C-1.625 6.125 -1.625 6.125 -5 5 C-5.6875 2.9375 -5.6875 2.9375 -6 1 C-4 0 -4 0 0 0 Z " fill="#1D3265" transform="translate(194,32)"/>
<path d="M0 0 C5.61 0.33 11.22 0.66 17 1 C17 1.66 17 2.32 17 3 C9.08 3.495 9.08 3.495 1 4 C0.67 2.68 0.34 1.36 0 0 Z " fill="#586990" transform="translate(69,303)"/>
<path d="M0 0 C0.33 0 0.66 0 1 0 C1 3.63 1 7.26 1 11 C-4.28 11 -9.56 11 -15 11 C-15 10.67 -15 10.34 -15 10 C-10.38 9.67 -5.76 9.34 -1 9 C-0.67 6.03 -0.34 3.06 0 0 Z " fill="#1B2854" transform="translate(100,269)"/>
<path d="M0 0 C2.97 1.65 5.94 3.3 9 5 C9 5.99 9 6.98 9 8 C4.78087253 7.5205537 2.20336822 6.83374881 -1 4 C-0.34 3.67 0.32 3.34 1 3 C0.67 2.01 0.34 1.02 0 0 Z " fill="#2C3D5E" transform="translate(173,256)"/>
<path d="M0 0 C1.98 0.99 1.98 0.99 4 2 C4 2.66 4 3.32 4 4 C5.175625 4.0928125 5.175625 4.0928125 6.375 4.1875 C7.24125 4.455625 8.1075 4.72375 9 5 C10.3125 7.5625 10.3125 7.5625 11 10 C8.36 8.68 5.72 7.36 3 6 C3 5.34 3 4.68 3 4 C2.34 4 1.68 4 1 4 C0.67 2.68 0.34 1.36 0 0 Z " fill="#0B1F4A" transform="translate(139,228)"/>
<path d="M0 0 C2.9244745 2.63202705 5.02154932 5.60837026 7 9 C6.67 9.99 6.34 10.98 6 12 C2.17330957 8.57611908 0.27721526 5.99275057 -1 1 C-0.67 0.67 -0.34 0.34 0 0 Z " fill="#071A42" transform="translate(134,215)"/>
<path d="M0 0 C0.33 0.99 0.66 1.98 1 3 C1.66 3 2.32 3 3 3 C3 3.99 3 4.98 3 6 C7.95 6 12.9 6 18 6 C18.33 5.34 18.66 4.68 19 4 C19 4.99 19 5.98 19 7 C16.02077407 7.02683987 13.04178705 7.04676037 10.0625 7.0625 C8.78729492 7.07506836 8.78729492 7.07506836 7.48632812 7.08789062 C6.67744141 7.09111328 5.86855469 7.09433594 5.03515625 7.09765625 C4.2862915 7.10289307 3.53742676 7.10812988 2.76586914 7.11352539 C1 7 1 7 0 6 C-0.04080783 4.00041636 -0.04254356 1.99954746 0 0 Z " fill="#8B90A3" transform="translate(226,331)"/>
<path d="M0 0 C0.33 0 0.66 0 1 0 C1.33 2.31 1.66 4.62 2 7 C1.34 7 0.68 7 0 7 C-0.33 8.32 -0.66 9.64 -1 11 C-1.33 9.68 -1.66 8.36 -2 7 C-2.99 7.33 -3.98 7.66 -5 8 C-5 7.34 -5 6.68 -5 6 C-4.34 6 -3.68 6 -3 6 C-3 5.01 -3 4.02 -3 3 C-2.34 3 -1.68 3 -1 3 C-0.67 2.01 -0.34 1.02 0 0 Z " fill="#122343" transform="translate(52,295)"/>
<path d="M0 0 C0 3.63 0 7.26 0 11 C-3 9 -3 9 -3.44140625 7.08984375 C-3.48136719 6.37957031 -3.52132812 5.66929688 -3.5625 4.9375 C-3.706875 3.638125 -3.85125 2.33875 -4 1 C-4.66 0.67 -5.32 0.34 -6 0 C-2.25 -1.125 -2.25 -1.125 0 0 Z " fill="#273560" transform="translate(101,26)"/>
<path d="M0 0 C0 0.99 0 1.98 0 3 C-3.96 3 -7.92 3 -12 3 C-7.09396701 -0.67952474 -5.82490317 -0.29124516 0 0 Z " fill="#0F224D" transform="translate(213,322)"/>
<path d="M0 0 C1.65 0 3.3 0 5 0 C5 0.99 5 1.98 5 3 C4.01 3 3.02 3 2 3 C1.67 8.94 1.34 14.88 1 21 C0.67 21 0.34 21 0 21 C0 14.07 0 7.14 0 0 Z " fill="#1A223D" transform="translate(183,300)"/>
<path d="M0 0 C2.97 0.99 5.94 1.98 9 3 C9 3.33 9 3.66 9 4 C7.06524329 4.53093324 5.12706845 5.04942317 3.1875 5.5625 C1.56908203 5.99755859 1.56908203 5.99755859 -0.08203125 6.44140625 C-3 7 -3 7 -6 6 C-3 4 -3 4 1 4 C0.67 2.68 0.34 1.36 0 0 Z " fill="#182A59" transform="translate(207,26)"/>
<path d="M0 0 C2.33944736 0.28730055 4.6739143 0.61936779 7 1 C7 1.66 7 2.32 7 3 C5.02 3 3.04 3 1 3 C1 4.32 1 5.64 1 7 C0.01 6.67 -0.98 6.34 -2 6 C-1.125 1.125 -1.125 1.125 0 0 Z " fill="#DEE0E9" transform="translate(39,21)"/>
<path d="M0 0 C-1.78614318 1.03046722 -3.57910018 2.04913236 -5.375 3.0625 C-6.87160156 3.91521484 -6.87160156 3.91521484 -8.3984375 4.78515625 C-9.25695312 5.18605469 -10.11546875 5.58695313 -11 6 C-11.66 5.67 -12.32 5.34 -13 5 C-12 2 -12 2 -10.0390625 1.015625 C-9.24242187 0.76296875 -8.44578125 0.5103125 -7.625 0.25 C-6.83351562 -0.01296875 -6.04203125 -0.2759375 -5.2265625 -0.546875 C-3 -1 -3 -1 0 0 Z " fill="#516082" transform="translate(195,38)"/>
<path d="M0 0 C3.3 0 6.6 0 10 0 C10 0.99 10 1.98 10 3 C7.36 3.33 4.72 3.66 2 4 C2 3.01 2 2.02 2 1 C1.34 0.67 0.68 0.34 0 0 Z " fill="#2D3E65" transform="translate(76,325)"/>
<path d="M0 0 C0.33 0 0.66 0 1 0 C1.33 2.97 1.66 5.94 2 9 C2.33 9 2.66 9 3 9 C3.1875 11.875 3.1875 11.875 3 15 C2.01 15.66 1.02 16.32 0 17 C0 11.39 0 5.78 0 0 Z " fill="#D3D6D9" transform="translate(250,264)"/>
<path d="M0 0 C9 10.66666667 9 10.66666667 9 15 C8.34 15 7.68 15 7 15 C5.2734375 12.734375 5.2734375 12.734375 3.375 9.75 C2.74335938 8.77546875 2.11171875 7.8009375 1.4609375 6.796875 C0 4 0 4 0 0 Z " fill="#67728A" transform="translate(134,211)"/>
<path d="M0 0 C1.21816406 0.03480469 1.21816406 0.03480469 2.4609375 0.0703125 C3.68683594 0.09738281 3.68683594 0.09738281 4.9375 0.125 C5.87722656 0.15980469 5.87722656 0.15980469 6.8359375 0.1953125 C6.23007813 0.48148438 5.62421875 0.76765625 5 1.0625 C2.65366516 2.20021132 2.65366516 2.20021132 0.2109375 4.3203125 C-2.1640625 6.1953125 -2.1640625 6.1953125 -4.1640625 6.1953125 C-4.1640625 0.37581792 -4.1640625 0.37581792 0 0 Z " fill="#213967" transform="translate(118.1640625,25.8046875)"/>
<path d="M0 0 C1.79244141 0.01740234 1.79244141 0.01740234 3.62109375 0.03515625 C5.41740234 0.04869141 5.41740234 0.04869141 7.25 0.0625 C8.17683594 0.07410156 9.10367188 0.08570313 10.05859375 0.09765625 C10.05859375 0.42765625 10.05859375 0.75765625 10.05859375 1.09765625 C7.41859375 1.42765625 4.77859375 1.75765625 2.05859375 2.09765625 C2.05859375 2.75765625 2.05859375 3.41765625 2.05859375 4.09765625 C0.40859375 4.09765625 -1.24140625 4.09765625 -2.94140625 4.09765625 C-3.27140625 3.10765625 -3.60140625 2.11765625 -3.94140625 1.09765625 C-2.94140625 0.09765625 -2.94140625 0.09765625 0 0 Z " fill="#16264E" transform="translate(75.94140625,323.90234375)"/>
<path d="M0 0 C2.475 0.495 2.475 0.495 5 1 C5.93065133 3.60582371 6.14917407 4.64198224 5.0625 7.25 C4.711875 7.8275 4.36125 8.405 4 9 C4 8.34 4 7.68 4 7 C3.01 7 2.02 7 1 7 C0.67 4.69 0.34 2.38 0 0 Z " fill="#041432" transform="translate(53,318)"/>
<path d="M0 0 C0.66 0 1.32 0 2 0 C0.59155282 3.21524305 -1.10344786 5.32183868 -3.625 7.75 C-4.57246094 8.67039062 -4.57246094 8.67039062 -5.5390625 9.609375 C-6.02117187 10.06828125 -6.50328125 10.5271875 -7 11 C-7.66 10.34 -8.32 9.68 -9 9 C-8.01 8.67 -7.02 8.34 -6 8 C-5.67 7.01 -5.34 6.02 -5 5 C-4.34 5 -3.68 5 -3 5 C-3 4.34 -3 3.68 -3 3 C-2.34 3 -1.68 3 -1 3 C-0.67 2.01 -0.34 1.02 0 0 Z " fill="#52617E" transform="translate(160,58)"/>
<path d="M0 0 C6.93 0.495 6.93 0.495 14 1 C12 3 12 3 9.6171875 3.1953125 C8.71226563 3.17210937 7.80734375 3.14890625 6.875 3.125 C5.50988281 3.09792969 5.50988281 3.09792969 4.1171875 3.0703125 C3.41851562 3.04710937 2.71984375 3.02390625 2 3 C2 2.34 2 1.68 2 1 C1.34 0.67 0.68 0.34 0 0 Z " fill="#142750" transform="translate(103,322)"/>
<path d="M0 0 C1.32 1.32 2.64 2.64 4 4 C3.34 4.66 2.68 5.32 2 6 C1.67 5.67 1.34 5.34 1 5 C0.67 8.63 0.34 12.26 0 16 C-0.33 16 -0.66 16 -1 16 C-1.02685095 13.52076199 -1.04676547 11.0418116 -1.0625 8.5625 C-1.07506836 7.50192383 -1.07506836 7.50192383 -1.08789062 6.41992188 C-1.09653588 4.61306441 -1.05220011 2.80612397 -1 1 C-0.67 0.67 -0.34 0.34 0 0 Z " fill="#596689" transform="translate(44,312)"/>
<path d="M0 0 C0.99 0 1.98 0 3 0 C3.80967438 2.91482778 4.21845993 4.46113217 3.0625 7.3125 C2.5365625 8.1478125 2.5365625 8.1478125 2 9 C1.34 9 0.68 9 0 9 C0 6.03 0 3.06 0 0 Z " fill="#131F3C" transform="translate(214,289)"/>
<path d="M0 0 C2.00993705 3.01490557 2.72623341 5.2149927 3.625 8.6875 C3.88539062 9.68136719 4.14578125 10.67523438 4.4140625 11.69921875 C4.60742188 12.45847656 4.80078125 13.21773437 5 14 C4.34 14 3.68 14 3 14 C3 12.68 3 11.36 3 10 C2.34 10 1.68 10 1 10 C-0.1577506 6.52674819 -0.06866652 3.63932552 0 0 Z " fill="#4D5A77" transform="translate(124,186)"/>
<path d="M0 0 C1.32 0.33 2.64 0.66 4 1 C4 1.66 4 2.32 4 3 C9.94 2.505 9.94 2.505 16 2 C16 2.66 16 3.32 16 4 C11.05 4 6.1 4 1 4 C0.67 2.68 0.34 1.36 0 0 Z " fill="#202948" transform="translate(228,333)"/>
<path d="M0 0 C0 0.99 0 1.98 0 3 C-1.98 3.33 -3.96 3.66 -6 4 C-6 3.67 -6 3.34 -6 3 C-8.31 2.67 -10.62 2.34 -13 2 C-13 1.67 -13 1.34 -13 1 C-8.62426048 0.40667939 -4.42471556 -0.13827236 0 0 Z " fill="#162449" transform="translate(218,277)"/>
<path d="M0 0 C0.66 0 1.32 0 2 0 C1.71640113 1.4391134 1.42278601 2.87625518 1.125 4.3125 C0.88136719 5.51326172 0.88136719 5.51326172 0.6328125 6.73828125 C0 9 0 9 -2 12 C-2.28571429 3.42857143 -2.28571429 3.42857143 0 0 Z " fill="#4C5B7C" transform="translate(127,105)"/>
<path d="M0 0 C0.33 0 0.66 0 1 0 C1 3.96 1 7.92 1 12 C0.67 12 0.34 12 0 12 C-1.12880057 8.68885166 -2.21302675 5.41021743 -3 2 C-2.01 2 -1.02 2 0 2 C0 1.34 0 0.68 0 0 Z " fill="#8B92A0" transform="translate(37,28)"/>
<path d="M0 0 C0.66 0 1.32 0 2 0 C2.33 1.98 2.66 3.96 3 6 C2.01 6.33 1.02 6.66 0 7 C-0.33 7.66 -0.66 8.32 -1 9 C-1.09765625 2.84765625 -1.09765625 2.84765625 -1 1 C-0.67 0.67 -0.34 0.34 0 0 Z " fill="#122554" transform="translate(47,304)"/>
<path d="M0 0 C1.98 0 3.96 0 6 0 C6 2.97 6 5.94 6 9 C5.34 8.67 4.68 8.34 4 8 C3.375 4.9375 3.375 4.9375 3 2 C2.01 2 1.02 2 0 2 C0 1.34 0 0.68 0 0 Z " fill="#7D85A2" transform="translate(167,298)"/>
<path d="M0 0 C1.33617352 0.97528737 2.6688751 1.95533319 4 2.9375 C4.7425 3.48277344 5.485 4.02804688 6.25 4.58984375 C6.8275 5.05519531 7.405 5.52054688 8 6 C8 6.33 8 6.66 8 7 C6.02 7 4.04 7 2 7 C0.5393715 4.35261084 0 3.10551666 0 0 Z " fill="#3A4865" transform="translate(161,246)"/>
<path d="M0 0 C0.33 0 0.66 0 1 0 C1.66 5.28 2.32 10.56 3 16 C2.67 15.01 2.34 14.02 2 13 C1.34 13 0.68 13 0 13 C0.33 11.35 0.66 9.7 1 8 C0.34 8 -0.32 8 -1 8 C-0.67 5.36 -0.34 2.72 0 0 Z " fill="#5C6883" transform="translate(121,170)"/>
<path d="M0 0 C0.66 0 1.32 0 2 0 C2 3.63 2 7.26 2 11 C1.01 10.67 0.02 10.34 -1 10 C-0.34 10 0.32 10 1 10 C1 8.35 1 6.7 1 5 C0.34 5 -0.32 5 -1 5 C-1.33 4.01 -1.66 3.02 -2 2 C-1.34 2 -0.68 2 0 2 C0 1.34 0 0.68 0 0 Z " fill="#546282" transform="translate(85,311)"/>
<path d="M0 0 C2.97 0 5.94 0 9 0 C9.33 0.99 9.66 1.98 10 3 C6.67212881 4.1092904 5.3006216 4.01557588 2 3 C1.34 2.01 0.68 1.02 0 0 Z " fill="#091A3E" transform="translate(145,301)"/>
<path d="M0 0 C1.98 0.66 3.96 1.32 6 2 C5.67 3.32 5.34 4.64 5 6 C4.67 5.34 4.34 4.68 4 4 C1.97536745 3.34786708 1.97536745 3.34786708 0 3 C0 2.01 0 1.02 0 0 Z " fill="#243356" transform="translate(155,243)"/>
<path d="M0 0 C2.475 0.99 2.475 0.99 5 2 C5 3.65 5 5.3 5 7 C4.34 6.67 3.68 6.34 3 6 C3 5.34 3 4.68 3 4 C2.01 3.67 1.02 3.34 0 3 C0 2.01 0 1.02 0 0 Z " fill="#435369" transform="translate(49,318)"/>
<path d="M0 0 C0.33 0.99 0.66 1.98 1 3 C0.07421875 4.82421875 0.07421875 4.82421875 -1.3125 6.6875 C-1.76238281 7.31011719 -2.21226563 7.93273437 -2.67578125 8.57421875 C-3.11277344 9.04472656 -3.54976562 9.51523437 -4 10 C-4.66 10 -5.32 10 -6 10 C-4.6302836 6.00499382 -2.74277578 3.19990508 0 0 Z " fill="#8D9AA9" transform="translate(55,288)"/>
<path d="M0 0 C3.465 1.98 3.465 1.98 7 4 C7 4.66 7 5.32 7 6 C2.25 5.25 2.25 5.25 0 3 C0 2.01 0 1.02 0 0 Z " fill="#304060" transform="translate(44,269)"/>
<path d="M0 0 C0.66 0 1.32 0 2 0 C2 1.32 2 2.64 2 4 C1.34 4 0.68 4 0 4 C0.33 6.31 0.66 8.62 1 11 C-1.43769218 7.34346173 -1.23944439 5.30999899 -1 1 C-0.67 0.67 -0.34 0.34 0 0 Z " fill="#162E5C" transform="translate(121,119)"/>
<path d="M0 0 C0.66 0 1.32 0 2 0 C1.34 4.29 0.68 8.58 0 13 C-0.33 13 -0.66 13 -1 13 C-1.33 10.69 -1.66 8.38 -2 6 C-1.34 6 -0.68 6 0 6 C-0.2784375 4.7934375 -0.2784375 4.7934375 -0.5625 3.5625 C-0.706875 2.716875 -0.85125 1.87125 -1 1 C-0.67 0.67 -0.34 0.34 0 0 Z " fill="#5C728F" transform="translate(123,117)"/>
<path d="M0 0 C0.99 0 1.98 0 3 0 C1.84414715 3.91211733 0.64465038 6.8745041 -2 10 C-1.46274105 6.62294375 -0.88935377 3.303314 0 0 Z " fill="#435473" transform="translate(134,89)"/>
<path d="M0 0 C0.66 0 1.32 0 2 0 C1.34 1.98 0.68 3.96 0 6 C-1.65 5.67 -3.3 5.34 -5 5 C-4.67 4.34 -4.34 3.68 -4 3 C-2.68 3 -1.36 3 0 3 C0 2.01 0 1.02 0 0 Z " fill="#53627D" transform="translate(217,322)"/>
<path d="M0 0 C3.4375 0.8125 3.4375 0.8125 7 2 C7.33 2.99 7.66 3.98 8 5 C4.5625 4.1875 4.5625 4.1875 1 3 C0.67 2.01 0.34 1.02 0 0 Z " fill="#606C89" transform="translate(194,268)"/>
<path d="M0 0 C2.96052484 3.36423277 3.92289822 6.69159287 5 11 C4.34 10.67 3.68 10.34 3 10 C3 9.01 3 8.02 3 7 C2.34 7 1.68 7 1 7 C0.67 4.69 0.34 2.38 0 0 Z " fill="#63718C" transform="translate(129,200)"/>
<path d="M0 0 C0.33 0 0.66 0 1 0 C1 2.31 1 4.62 1 7 C0.01 7 -0.98 7 -2 7 C-2.33 6.01 -2.66 5.02 -3 4 C-1.625 1.8125 -1.625 1.8125 0 0 Z " fill="#1E3266" transform="translate(124,110)"/>
<path d="M0 0 C1.5 1.25 1.5 1.25 3 3 C3 4.32 3 5.64 3 7 C2.01 7.33 1.02 7.66 0 8 C0 5.36 0 2.72 0 0 Z " fill="#B9C7D9" transform="translate(248,298)"/>
<path d="M0 0 C1.79158489 -0.02696365 3.58328473 -0.04637917 5.375 -0.0625 C6.37273437 -0.07410156 7.37046875 -0.08570313 8.3984375 -0.09765625 C11 0 11 0 13 1 C12.67 1.99 12.34 2.98 12 4 C11.34 3.67 10.68 3.34 10 3 C10 2.34 10 1.68 10 1 C6.7 1 3.4 1 0 1 C0 0.67 0 0.34 0 0 Z " fill="#26375B" transform="translate(144,300)"/>
<path d="M0 0 C1.98 0 3.96 0 6 0 C6 0.99 6 1.98 6 3 C4.02 3 2.04 3 0 3 C0 2.01 0 1.02 0 0 Z " fill="#101C38" transform="translate(227,331)"/>
<path d="M0 0 C0.66 0.66 1.32 1.32 2 2 C1.67 2.66 1.34 3.32 1 4 C-2.63 3.34 -6.26 2.68 -10 2 C-10 1.67 -10 1.34 -10 1 C-8.37675914 0.77837671 -6.751279 0.57310197 -5.125 0.375 C-4.22007813 0.25898438 -3.31515625 0.14296875 -2.3828125 0.0234375 C-1.59648438 0.01570313 -0.81015625 0.00796875 0 0 Z " fill="#0C1B3C" transform="translate(117,321)"/>
<path d="M0 0 C0.33 0 0.66 0 1 0 C1.22786458 2.01822917 1.45572917 4.03645833 1.68359375 6.0546875 C1.91292961 8.07404316 1.91292961 8.07404316 3 10 C1.68 10.33 0.36 10.66 -1 11 C-0.67 7.37 -0.34 3.74 0 0 Z " fill="#00082C" transform="translate(73,314)"/>
<path d="M0 0 C1.875 0.3125 1.875 0.3125 4 1 C4.66 1.99 5.32 2.98 6 4 C4.02 4 2.04 4 0 4 C0 2.68 0 1.36 0 0 Z " fill="#475270" transform="translate(153,240)"/>
</svg>
