<?xml version="1.0" encoding="UTF-8"?>
<svg version="1.1" xmlns="http://www.w3.org/2000/svg" width="238" height="212">
<path d="M0 0 C78.54 0 157.08 0 238 0 C238 69.96 238 139.92 238 212 C159.46 212 80.92 212 0 212 C0 142.04 0 72.08 0 0 Z " fill="#258EBF" transform="translate(0,0)"/>
<path d="M0 0 C38.88794991 -0.1209091 38.88794991 -0.1209091 55.22265625 -0.14648438 C66.48750928 -0.16426374 77.75229483 -0.18512989 89.01708984 -0.22631836 C97.22231514 -0.25630544 105.42748553 -0.27559504 113.6327641 -0.28226548 C117.97373839 -0.28616203 122.31455567 -0.29526137 126.65547943 -0.31719017 C130.74960459 -0.33770273 134.84350953 -0.34380428 138.9376812 -0.33932304 C140.43233122 -0.34014169 141.92698937 -0.34601882 143.42159462 -0.35761642 C157.89146752 -0.46429611 172.2213194 1.41093785 183.25 11.625 C196.40964168 25.82146193 196.43573151 42.73601625 196.29296875 60.953125 C196.28736394 63.06589454 196.28309803 65.17866802 196.28010559 67.29144287 C196.26872652 72.81519598 196.23931995 78.33870726 196.20599365 83.86236572 C196.1751422 89.5136793 196.16156822 95.16503248 196.14648438 100.81640625 C196.11444282 111.87772676 196.06173248 122.93880531 196 134 C182.8 134 169.6 134 156 134 C155.96132813 124.54085937 155.96132813 124.54085937 155.921875 114.890625 C155.89671197 110.89839665 155.87038334 106.90624448 155.83984375 102.9140625 C155.79146874 96.57584327 155.74743939 90.2378003 155.72900391 83.89941406 C155.71387287 78.78989606 155.67949062 73.68083876 155.63169098 68.57152557 C155.61684046 66.62111157 155.60895689 64.6706318 155.60811615 62.72016144 C155.60575576 59.99034869 155.57875174 57.26181877 155.54589844 54.53222656 C155.5509288 53.72374268 155.55595917 52.91525879 155.56114197 52.08227539 C155.49551431 48.56360663 155.30287993 46.41944793 153.21588135 43.52923584 C143.91263801 37.10883199 122.72332047 40.19077735 117 40 C117 70.69 117 101.38 117 133 C103.8 133 90.6 133 77 133 C77 102.31 77 71.62 77 40 C64.79 40 52.58 40 40 40 C40 55.18 40 70.36 40 86 C26.8 86 13.6 86 0 86 C0 57.62 0 29.24 0 0 Z " fill="#F6F7F7" transform="translate(21,19)"/>
<path d="M0 0 C1.28093033 -0.002062 1.28093033 -0.002062 2.58773804 -0.00416565 C3.5213768 -0.00057037 4.45501556 0.0030249 5.41694641 0.00672913 C6.89526947 0.00651009 6.89526947 0.00651009 8.40345764 0.00628662 C11.66619557 0.00698417 14.92887664 0.01476924 18.19160461 0.02259827 C20.45176156 0.02446301 22.71191892 0.02588665 24.97207642 0.02688599 C30.92494317 0.03070676 36.87778558 0.04053332 42.8306427 0.05158997 C48.90343395 0.06181352 54.97622912 0.06638563 61.04902649 0.07142639 C72.9676587 0.08215596 84.88626645 0.09974923 96.80488586 0.12025452 C96.80488586 12.33025452 96.80488586 24.54025452 96.80488586 37.12025452 C18.92488586 37.12025452 -58.95511414 37.12025452 -139.19511414 37.12025452 C-139.19511414 30.85025452 -139.19511414 24.58025452 -139.19511414 18.12025452 C-136.22511414 18.12025452 -133.25511414 18.12025452 -130.19511414 18.12025452 C-130.19511414 16.47025452 -130.19511414 14.82025452 -130.19511414 13.12025452 C-129.86511414 13.12025452 -129.53511414 13.12025452 -129.19511414 13.12025452 C-129.19511414 18.73025452 -129.19511414 24.34025452 -129.19511414 30.12025452 C-127.54511414 30.12025452 -125.89511414 30.12025452 -124.19511414 30.12025452 C-124.19511414 25.50025452 -124.19511414 20.88025452 -124.19511414 16.12025452 C-122.21511414 16.12025452 -120.23511414 16.12025452 -118.19511414 16.12025452 C-118.19511414 20.74025452 -118.19511414 25.36025452 -118.19511414 30.12025452 C-116.54511414 30.12025452 -114.89511414 30.12025452 -113.19511414 30.12025452 C-113.19511414 25.83025452 -113.19511414 21.54025452 -113.19511414 17.12025452 C-111.54511414 17.12025452 -109.89511414 17.12025452 -108.19511414 17.12025452 C-108.19511414 21.41025452 -108.19511414 25.70025452 -108.19511414 30.12025452 C-106.21511414 30.12025452 -104.23511414 30.12025452 -102.19511414 30.12025452 C-102.19511414 26.16025452 -102.19511414 22.20025452 -102.19511414 18.12025452 C-100.54511414 18.45025452 -98.89511414 18.78025452 -97.19511414 19.12025452 C-97.52511414 19.78025452 -97.85511414 20.44025452 -98.19511414 21.12025452 C-98.23533804 23.45324112 -98.23831661 25.78732117 -98.19511414 28.12025452 C-95.02337614 29.70612352 -91.55997591 29.49891897 -88.07011414 29.68275452 C-87.31601257 29.72593811 -86.56191101 29.7691217 -85.78495789 29.81361389 C-83.92189526 29.91973771 -82.05852889 30.02050452 -80.19511414 30.12025452 C-80.19511414 26.16025452 -80.19511414 22.20025452 -80.19511414 18.12025452 C-78.54511414 17.79025452 -76.89511414 17.46025452 -75.19511414 17.12025452 C-75.13903992 18.04257874 -75.13903992 18.04257874 -75.08183289 18.98353577 C-75.0160907 19.79177795 -74.95034851 20.60002014 -74.88261414 21.43275452 C-74.82460632 22.23326233 -74.76659851 23.03377014 -74.70683289 23.85853577 C-74.09979334 26.54155788 -73.37362568 27.47609486 -71.19511414 29.12025452 C-68.08672392 29.84717712 -68.08672392 29.84717712 -65.19511414 30.12025452 C-65.19511414 28.80025452 -65.19511414 27.48025452 -65.19511414 26.12025452 C-66.51511414 26.12025452 -67.83511414 26.12025452 -69.19511414 26.12025452 C-69.19511414 23.15025452 -69.19511414 20.18025452 -69.19511414 17.12025452 C-67.21511414 17.45025452 -65.23511414 17.78025452 -63.19511414 18.12025452 C-63.19511414 13.83025452 -63.19511414 9.54025452 -63.19511414 5.12025452 C-62.20511414 4.79025452 -61.21511414 4.46025452 -60.19511414 4.12025452 C-59.20511414 5.11025452 -59.20511414 5.11025452 -58.19511414 6.12025452 C-59.51511414 6.12025452 -60.83511414 6.12025452 -62.19511414 6.12025452 C-62.19511414 14.04025452 -62.19511414 21.96025452 -62.19511414 30.12025452 C-60.54511414 30.12025452 -58.89511414 30.12025452 -57.19511414 30.12025452 C-57.19511414 25.83025452 -57.19511414 21.54025452 -57.19511414 17.12025452 C-55.21511414 17.12025452 -53.23511414 17.12025452 -51.19511414 17.12025452 C-51.19511414 21.41025452 -51.19511414 25.70025452 -51.19511414 30.12025452 C-49.54511414 30.12025452 -47.89511414 30.12025452 -46.19511414 30.12025452 C-46.19511414 25.50025452 -46.19511414 20.88025452 -46.19511414 16.12025452 C-45.20511414 16.12025452 -44.21511414 16.12025452 -43.19511414 16.12025452 C-43.19511414 20.74025452 -43.19511414 25.36025452 -43.19511414 30.12025452 C-41.54511414 30.12025452 -39.89511414 30.12025452 -38.19511414 30.12025452 C-38.19511414 25.83025452 -38.19511414 21.54025452 -38.19511414 17.12025452 C-36.21511414 17.12025452 -34.23511414 17.12025452 -32.19511414 17.12025452 C-32.19511414 15.80025452 -32.19511414 14.48025452 -32.19511414 13.12025452 C-31.53511414 13.12025452 -30.87511414 13.12025452 -30.19511414 13.12025452 C-30.1345282 13.8563092 -30.07394226 14.59236389 -30.01152039 15.35072327 C-29.92773132 16.32654358 -29.84394226 17.30236389 -29.75761414 18.30775452 C-29.6764032 19.2706842 -29.59519226 20.23361389 -29.51152039 21.22572327 C-29.22162053 23.8777701 -28.71832149 26.50421774 -28.19511414 29.12025452 C-23.24511414 29.45025452 -18.29511414 29.78025452 -13.19511414 30.12025452 C-13.19511414 24.51025452 -13.19511414 18.90025452 -13.19511414 13.12025452 C-12.86511414 13.12025452 -12.53511414 13.12025452 -12.19511414 13.12025452 C-11.86511414 10.81025452 -11.53511414 8.50025452 -11.19511414 6.12025452 C-10.86511414 6.12025452 -10.53511414 6.12025452 -10.19511414 6.12025452 C-10.19511414 14.04025452 -10.19511414 21.96025452 -10.19511414 30.12025452 C-7.94698914 29.97587952 -5.69886414 29.83150452 -3.38261414 29.68275452 C-2.11804382 29.60154358 -0.85347351 29.52033264 0.44941711 29.43666077 C3.79670479 29.24840904 3.79670479 29.24840904 6.80488586 28.12025452 C6.88602692 26.35017738 6.94414091 24.57903354 6.99238586 22.80775452 C7.02719055 21.8216217 7.06199524 20.83548889 7.09785461 19.81947327 C7.02159719 17.13610164 7.02159719 17.13610164 5.58613586 15.33900452 C3.43716165 13.86865374 1.67023944 13.41372693 -0.88261414 12.93275452 C-1.69085632 12.77419983 -2.49909851 12.61564514 -3.33183289 12.45228577 C-3.9467157 12.34271545 -4.56159851 12.23314514 -5.19511414 12.12025452 C-5.19511414 9.81025452 -5.19511414 7.50025452 -5.19511414 5.12025452 C-6.51511414 5.12025452 -7.83511414 5.12025452 -9.19511414 5.12025452 C-9.19511414 4.46025452 -9.19511414 3.80025452 -9.19511414 3.12025452 C-8.53511414 3.12025452 -7.87511414 3.12025452 -7.19511414 3.12025452 C-7.19511414 2.46025452 -7.19511414 1.80025452 -7.19511414 1.12025452 C-4.44022989 0.20195977 -2.83579198 -0.00352272 0 0 Z " fill="#161616" transform="translate(140.1951141357422,173.87974548339844)"/>
<path d="M0 0 C78.54 0 157.08 0 238 0 C238 69.96 238 139.92 238 212 C159.46 212 80.92 212 0 212 C0 142.04 0 72.08 0 0 Z M193 7 C190.53339474 7.09119009 188.09574678 7.12601829 185.62937927 7.11352539 C184.87276994 7.11367425 184.11616061 7.11382311 183.33662373 7.11397648 C180.79396783 7.11328038 178.25138362 7.10543086 175.70874023 7.09765625 C173.88890626 7.09573772 172.06907175 7.09427361 170.24923706 7.0932312 C166.32704635 7.09006667 162.40487708 7.08379285 158.48269463 7.07516479 C152.28599582 7.06167087 146.08930422 7.05575441 139.89259338 7.05102539 C126.74088604 7.03991411 113.58919576 7.02037503 100.4375 7 C86.2374231 6.97800498 72.03735318 6.95742193 57.83726269 6.94658184 C51.67184356 6.941586 45.50645698 6.9317065 39.34105098 6.91815186 C35.51256864 6.91071563 31.68409085 6.90738131 27.85560226 6.9051857 C26.07456124 6.90330666 24.29352112 6.8996919 22.51248741 6.89425278 C20.08951601 6.8870837 17.66661722 6.88599692 15.24363708 6.88647461 C14.53168369 6.88287965 13.8197303 6.87928469 13.08620256 6.87558079 C9.41977763 6.83557903 9.41977763 6.83557903 6 8 C5.97113016 11.97915159 5.95324594 15.95827653 5.9375 19.9375 C5.92912109 21.07380859 5.92074219 22.21011719 5.91210938 23.38085938 C5.90727539 25.00024414 5.90727539 25.00024414 5.90234375 26.65234375 C5.89710693 27.65257568 5.89187012 28.65280762 5.88647461 29.68334961 C5.73818905 31.96207228 5.73818905 31.96207228 7 33 C6.75614085 34.77352107 6.51193162 36.5469943 6.26660156 38.3203125 C5.74917128 43.52115017 5.85328262 48.7472272 5.86962891 53.96923828 C5.87491475 55.96776757 5.86918823 57.9663162 5.86328125 59.96484375 C5.86521484 61.93130859 5.86521484 61.93130859 5.8671875 63.9375 C5.86831543 65.10152344 5.86944336 66.26554687 5.87060547 67.46484375 C5.93598061 71.42555943 6.22560181 75.36142673 6.50219727 79.3125 C7.1235164 88.56467775 7.1269455 97.79323222 7.09765625 107.0625 C7.09578524 108.83325154 7.09436458 110.60400361 7.09336853 112.37475586 C7.08959702 116.97771702 7.07981433 121.58064534 7.06866455 126.18359375 C7.05833331 130.90364132 7.05384612 135.62369432 7.04882812 140.34375 C7.03818579 149.56251423 7.02117607 158.78125436 7 168 C14.68847187 168.95680419 22.26624531 169.13235738 30.0078125 169.09765625 C31.2144455 169.0962413 32.42107849 169.09482635 33.66427612 169.09336853 C37.48454359 169.08781082 41.30475052 169.07526628 45.125 169.0625 C47.72916581 169.05747953 50.33333256 169.05291758 52.9375 169.04882812 C59.29168701 169.03785527 65.64583918 169.02115974 72 169 C72 169.66 72 170.32 72 171 C66.72 171 61.44 171 56 171 C56 171.66 56 172.32 56 173 C37.85 173 19.7 173 1 173 C1 185.54 1 198.08 1 211 C78.88 211 156.76 211 237 211 C237.12375 171.02875 237.12375 171.02875 237.25 130.25 C237.28641602 121.84950195 237.32283203 113.44900391 237.36035156 104.79394531 C237.37373289 97.23520225 237.37373289 97.23520225 237.3817749 89.67645264 C237.38548745 86.32103806 237.40042066 82.96587904 237.42230225 79.61053467 C237.44991465 75.31899808 237.45793249 71.02782847 237.4522891 66.7362113 C237.45346766 65.16844673 237.46129525 63.60066819 237.47686052 62.03298044 C237.6375087 45.05223486 233.04605863 32.14522351 221.25 19.75 C214.2128951 13.04392735 203.47001892 3.50999369 193 7 Z " fill="#9BD0EA" transform="translate(0,0)"/>
<path d="M0 0 C44.55 0 89.1 0 135 0 C134.01 0.33 133.02 0.66 132 1 C132 1.66 132 2.32 132 3 C131.34 3 130.68 3 130 3 C130 3.66 130 4.32 130 5 C131.32 5 132.64 5 134 5 C134 7.31 134 9.62 134 12 C135.051875 11.938125 136.10375 11.87625 137.1875 11.8125 C141.18387024 12.0090428 142.86899906 12.60570516 146 15 C147.14993366 17.29986731 147.2316929 18.81469088 147.3125 21.375 C147.36857422 22.53128906 147.36857422 22.53128906 147.42578125 23.7109375 C146.81442784 26.99766317 145.713577 28.0747977 143 30 C138.2805118 30.53387876 133.76525513 30.17649093 129 30 C128.67 25.05 128.34 20.1 128 15 C127.67 15 127.34 15 127 15 C126.67 19.95 126.34 24.9 126 30 C113.51943136 30.37070996 113.51943136 30.37070996 111.14453125 28.67578125 C108.83422493 25.29311431 108.89091285 22.27240759 108.9375 18.3125 C108.94652344 17.31863281 108.95554687 16.32476562 108.96484375 15.30078125 C108.97644531 14.54152344 108.98804687 13.78226563 109 13 C108.34 13 107.68 13 107 13 C107 14.32 107 15.64 107 17 C105.02 17 103.04 17 101 17 C101 21.29 101 25.58 101 30 C96.66666667 30 92.33333333 30 88 30 C88 25.71 88 21.42 88 17 C86.02 17 84.04 17 82 17 C82 21.29 82 25.58 82 30 C80.35 30 78.7 30 77 30 C77 21.66666667 77 13.33333333 77 5 C76.67 9.29 76.34 13.58 76 18 C74.02 17.67 72.04 17.34 70 17 C70 19.97 70 22.94 70 26 C71.32 26 72.64 26 74 26 C74 27.32 74 28.64 74 30 C70.58243849 30.31068741 68.59893023 30.3625104 65.625 28.5625 C63.23826634 24.79880462 63.66612069 21.34043107 64 17 C62.35 17.33 60.7 17.66 59 18 C59 21.96 59 25.92 59 30 C56.39555652 30.05394705 53.79223002 30.09364469 51.1875 30.125 C50.44951172 30.14175781 49.71152344 30.15851563 48.95117188 30.17578125 C45.08753574 30.21074628 43.29096332 30.19397555 40 28 C39.5625 21.875 39.5625 21.875 41 19 C39.68 18.67 38.36 18.34 37 18 C37 21.96 37 25.92 37 30 C35.02 30 33.04 30 31 30 C31 25.71 31 21.42 31 17 C29.35 17 27.7 17 26 17 C26 21.29 26 25.58 26 30 C24.35 30 22.7 30 21 30 C21 25.38 21 20.76 21 16 C19.02 16 17.04 16 15 16 C15 20.62 15 25.24 15 30 C13.35 30 11.7 30 10 30 C9.67 26.04 9.34 22.08 9 18 C6.03 18 3.06 18 0 18 C0 12.06 0 6.12 0 0 Z " fill="#2B2B2B" transform="translate(1,174)"/>
<path d="M0 0 C43.56 0 87.12 0 132 0 C131.01 0.33 130.02 0.66 129 1 C129 1.66 129 2.32 129 3 C128.34 3 127.68 3 127 3 C127 3.66 127 4.32 127 5 C128.32 5 129.64 5 131 5 C131 7.31 131 9.62 131 12 C132.051875 11.938125 133.10375 11.87625 134.1875 11.8125 C138.18387024 12.0090428 139.86899906 12.60570516 143 15 C144.14993366 17.29986731 144.2316929 18.81469088 144.3125 21.375 C144.36857422 22.53128906 144.36857422 22.53128906 144.42578125 23.7109375 C143.81442784 26.99766317 142.713577 28.0747977 140 30 C135.2805118 30.53387876 130.76525513 30.17649093 126 30 C125.505 22.575 125.505 22.575 125 15 C124.67 15 124.34 15 124 15 C123.67 19.95 123.34 24.9 123 30 C110.51943136 30.37070996 110.51943136 30.37070996 108.14453125 28.67578125 C105.83422493 25.29311431 105.89091285 22.27240759 105.9375 18.3125 C105.94652344 17.31863281 105.95554687 16.32476562 105.96484375 15.30078125 C105.97644531 14.54152344 105.98804687 13.78226563 106 13 C105.34 13 104.68 13 104 13 C104 14.32 104 15.64 104 17 C102.02 17 100.04 17 98 17 C98 21.29 98 25.58 98 30 C93.66666667 30 89.33333333 30 85 30 C85 25.71 85 21.42 85 17 C83.02 17 81.04 17 79 17 C79 21.29 79 25.58 79 30 C77.35 30 75.7 30 74 30 C74 22.08 74 14.16 74 6 C73.01 6 72.02 6 71 6 C71 5.34 71 4.68 71 4 C70.34 4 69.68 4 69 4 C68.505 3.01 68.505 3.01 68 2 C34.34 1.505 34.34 1.505 0 1 C0 0.67 0 0.34 0 0 Z " fill="#2D2B29" transform="translate(4,174)"/>
<path d="M0 0 C1.1325119 0.00444122 2.2650238 0.00888245 3.43185425 0.01345825 C4.71303131 0.01360931 5.99420837 0.01376038 7.31420898 0.01391602 C8.71784621 0.02413008 10.12148186 0.03456209 11.52511597 0.04519653 C12.95715132 0.04892612 14.38918922 0.05177335 15.82122803 0.05377197 C19.59259064 0.06141276 23.3637995 0.08106495 27.13510132 0.10317993 C30.98253296 0.12362884 34.82998941 0.13277164 38.67745972 0.14285278 C46.2283111 0.16431053 53.77903575 0.19845171 61.32980347 0.24050903 C60.33980347 2.22050903 59.34980347 4.20050903 58.32980347 6.24050903 C58.98980347 6.24050903 59.64980347 6.24050903 60.32980347 6.24050903 C60.32980347 5.58050903 60.32980347 4.92050903 60.32980347 4.24050903 C62.30980347 4.24050903 64.28980347 4.24050903 66.32980347 4.24050903 C66.32980347 12.16050903 66.32980347 20.08050903 66.32980347 28.24050903 C64.34980347 28.24050903 62.36980347 28.24050903 60.32980347 28.24050903 C60.32980347 24.28050903 60.32980347 20.32050903 60.32980347 16.24050903 C59.66980347 16.24050903 59.00980347 16.24050903 58.32980347 16.24050903 C57.99980347 20.20050903 57.66980347 24.16050903 57.32980347 28.24050903 C55.67980347 28.24050903 54.02980347 28.24050903 52.32980347 28.24050903 C52.32980347 23.95050903 52.32980347 19.66050903 52.32980347 15.24050903 C50.67980347 15.24050903 49.02980347 15.24050903 47.32980347 15.24050903 C47.32980347 19.53050903 47.32980347 23.82050903 47.32980347 28.24050903 C45.34980347 28.24050903 43.36980347 28.24050903 41.32980347 28.24050903 C41.32980347 23.95050903 41.32980347 19.66050903 41.32980347 15.24050903 C39.67980347 15.24050903 38.02980347 15.24050903 36.32980347 15.24050903 C36.32980347 19.53050903 36.32980347 23.82050903 36.32980347 28.24050903 C34.67980347 28.24050903 33.02980347 28.24050903 31.32980347 28.24050903 C30.99980347 23.95050903 30.66980347 19.66050903 30.32980347 15.24050903 C29.99980347 15.24050903 29.66980347 15.24050903 29.32980347 15.24050903 C28.99980347 19.53050903 28.66980347 23.82050903 28.32980347 28.24050903 C18.56417847 28.72879028 18.56417847 28.72879028 15.32980347 28.24050903 C11.00480426 24.14314137 10.71447542 20.91442032 10.32980347 15.24050903 C9.99980347 15.24050903 9.66980347 15.24050903 9.32980347 15.24050903 C8.99980347 19.53050903 8.66980347 23.82050903 8.32980347 28.24050903 C6.67980347 28.24050903 5.02980347 28.24050903 3.32980347 28.24050903 C3.32980347 23.95050903 3.32980347 19.66050903 3.32980347 15.24050903 C1.34980347 15.24050903 -0.63019653 15.24050903 -2.67019653 15.24050903 C-2.67019653 19.53050903 -2.67019653 23.82050903 -2.67019653 28.24050903 C-4.32019653 28.24050903 -5.97019653 28.24050903 -7.67019653 28.24050903 C-7.75697956 24.28231292 -7.81051386 20.32435969 -7.85769653 16.36550903 C-7.88283325 15.23757935 -7.90796997 14.10964966 -7.93386841 12.94754028 C-7.94353638 11.8711731 -7.95320435 10.79480591 -7.96316528 9.68582153 C-7.97887573 8.69082642 -7.99458618 7.6958313 -8.01077271 6.67068481 C-7.89838257 5.86872681 -7.78599243 5.0667688 -7.67019653 4.24050903 C-6.68019653 3.58050903 -5.69019653 2.92050903 -4.67019653 2.24050903 C-2.67019653 0.24050903 -2.67019653 0.24050903 0 0 Z " fill="#313131" transform="translate(158.67019653320313,175.75949096679688)"/>
<path d="M0 0 C9.6215625 -0.0309375 9.6215625 -0.0309375 19.4375 -0.0625 C21.46447021 -0.071604 23.49144043 -0.08070801 25.57983398 -0.09008789 C27.1769199 -0.09300703 28.77400655 -0.09555559 30.37109375 -0.09765625 C31.20805786 -0.10277222 32.04502197 -0.10788818 32.90734863 -0.11315918 C34.93858265 -0.11346924 36.96972471 -0.06240188 39 0 C40 1 40 1 40.11352539 4.69360352 C40.11327427 6.33871291 40.10771184 7.98382757 40.09765625 9.62890625 C40.09664917 10.39456909 40.09564209 11.16023193 40.09460449 11.94909668 C40.08935663 14.82024627 40.07539547 17.69137458 40.0625 20.5625 C40.041875 26.976875 40.02125 33.39125 40 40 C26.8 40 13.6 40 0 40 C0 26.8 0 13.6 0 0 Z " fill="#E26A29" transform="translate(22,113)"/>
<path d="M0 0 C59.73 0 119.46 0 181 0 C180.34 0.33 179.68 0.66 179 1 C178.59270772 3.32156597 178.25561323 5.6568787 178 8 C177.03327614 7.71758327 176.06655228 7.43516655 175.07053375 7.14419174 C165.17428316 4.38318597 156.03545897 3.41490776 145.77148438 3.45410156 C144.22233558 3.44533768 142.6731958 3.43484228 141.12406921 3.42277527 C136.97424863 3.39523844 132.82472808 3.39150332 128.67482948 3.39249516 C124.31729256 3.38933784 119.95988532 3.36366187 115.60241699 3.34051514 C107.37582222 3.30016531 99.14930629 3.27966423 90.92262793 3.26654124 C79.78835195 3.24761054 68.65421714 3.19751714 57.5200367 3.14929771 C40.01336523 3.0742913 22.5068642 3.04048766 5 3 C5 31.38 5 59.76 5 89 C5.99 89 6.98 89 8 89 C8.33 89.99 8.66 90.98 9 92 C21.54 92.33 34.08 92.66 47 93 C47.33 77.82 47.66 62.64 48 47 C58.89 47 69.78 47 81 47 C81 47.33 81 47.66 81 48 C71.1 48.33 61.2 48.66 51 49 C50.95101562 52.06925781 50.90203125 55.13851562 50.8515625 58.30078125 C50.79757099 61.26949999 50.74025629 64.23813722 50.68261719 67.20678711 C50.64430652 69.27182965 50.60945734 71.3369394 50.578125 73.40209961 C50.53251986 76.36857138 50.47451799 79.3345796 50.4140625 82.30078125 C50.39673569 83.68841423 50.39673569 83.68841423 50.37905884 85.1040802 C50.35918915 85.96474594 50.33931946 86.82541168 50.31884766 87.7121582 C50.30552399 88.46938675 50.29220032 89.2266153 50.2784729 90.00679016 C50 92 50 92 48 95 C48.30840599 97.15274948 48.30840599 97.15274948 49 99 C48.42320496 98.83923477 47.84640991 98.67846954 47.25213623 98.51283264 C45.08683776 98.01977378 43.18076513 97.84501739 40.96582031 97.79467773 C40.17449707 97.77449585 39.38317383 97.75431396 38.56787109 97.73352051 C37.74625488 97.71704468 36.92463867 97.70056885 36.078125 97.68359375 C35.3154834 97.66494263 34.5528418 97.6462915 33.76708984 97.6270752 C30.92817364 97.5589649 28.08907365 97.49869679 25.25 97.4375 C18.8975 97.293125 12.545 97.14875 6 97 C6 111.52 6 126.04 6 141 C9.3 141 12.6 141 16 141 C17.485 141.99 17.485 141.99 19 143 C15.846632 143.70074844 13.27275026 144 10 144 C8.2365625 144.0309375 8.2365625 144.0309375 6.4375 144.0625 C3 144 3 144 0 143 C0 140.69 0 138.38 0 136 C0.66 136 1.32 136 2 136 C1.85789093 135.09407608 1.71578186 134.18815216 1.56936646 133.254776 C-0.43342482 119.29861709 -0.25484057 105.37975688 -0.1953125 91.30859375 C-0.19236486 88.96293228 -0.19032887 86.6172695 -0.18920898 84.27160645 C-0.17880519 75.66021732 -0.15088297 67.04885652 -0.125 58.4375 C-0.08375 39.153125 -0.0425 19.86875 0 0 Z " fill="#65C3F4" transform="translate(16,16)"/>
<path d="M0 0 C19.8 0 39.6 0 60 0 C60 69.96 60 139.92 60 212 C59.67 212 59.34 212 59 212 C58.99853344 211.16584942 58.99706688 210.33169884 58.99555588 209.47227097 C58.95844141 189.13905101 58.89936523 168.80599713 58.81609726 148.47291183 C58.77635377 138.63981619 58.74393749 128.80680003 58.72900391 118.97363281 C58.71596304 110.39915275 58.6889364 101.82484793 58.64538693 93.25046659 C58.62282677 88.71389019 58.60708604 84.17752949 58.60811615 79.64089203 C58.608866 75.3627713 58.59078606 71.08512641 58.55883217 66.80712891 C58.55037787 65.2447858 58.54855255 63.68238904 58.55419731 62.12003326 C58.60623356 45.4905577 54.3085865 32.47025871 42.75 20.25 C30.62250571 8.77804594 16.09716794 3.96844326 0 1 C0 0.67 0 0.34 0 0 Z " fill="#F9FBFC" transform="translate(178,0)"/>
<path d="M0 0 C0.33 0 0.66 0 1 0 C1 40.26 1 80.52 1 122 C-48.17 122 -97.34 122 -148 122 C-148 121.01 -148 120.02 -148 119 C-142.72 119 -137.44 119 -132 119 C-132 118.34 -132 117.68 -132 117 C-134.31 117 -136.62 117 -139 117 C-139 116.67 -139 116.34 -139 116 C-126.13 116 -113.26 116 -100 116 C-100 117.32 -100 118.64 -100 120 C-67.99 120.33 -35.98 120.66 -3 121 C-3.33 119.35 -3.66 117.7 -4 116 C-4.09131002 113.58524379 -4.12789693 111.16819048 -4.12939453 108.75170898 C-4.13202301 107.68155548 -4.13202301 107.68155548 -4.13470459 106.58978271 C-4.13910842 104.22519498 -4.1361806 101.8606823 -4.1328125 99.49609375 C-4.13348823 97.81828294 -4.13446048 96.14047222 -4.13571167 94.46266174 C-4.13718853 90.92439859 -4.1350428 87.38616061 -4.13037109 83.84790039 C-4.12480799 79.43020198 -4.12795468 75.01256563 -4.13382339 70.59486961 C-4.15974593 47.38011098 -3.78719824 24.20148461 -3 1 C-2.01 1.495 -2.01 1.495 -1 2 C-0.67 1.34 -0.34 0.68 0 0 Z " fill="#084772" transform="translate(236,52)"/>
<path d="M0 0 C1.9375 0.75 1.9375 0.75 4 2 C4.625 4.0625 4.625 4.0625 5 6 C5.66 6.33 6.32 6.66 7 7 C7.6328125 9.43359375 7.6328125 9.43359375 8.125 12.4375 C8.37636719 13.92056641 8.37636719 13.92056641 8.6328125 15.43359375 C9 18 9 18 9 20 C9.99 20 10.98 20 12 20 C11.8563501 20.62874023 11.7127002 21.25748047 11.56469727 21.90527344 C9.93509285 29.76313086 9.81029377 37.24842971 9.9375 45.25 C9.96564845 48.13929208 9.98253514 51.028574 9.99609375 53.91796875 C10.00003143 54.69256943 10.00396912 55.4671701 10.00802612 56.26524353 C10.04028316 67.36671614 9.75405898 78.46463197 9.5 89.5625 C9.46385086 91.1624884 9.46385086 91.1624884 9.42697144 92.7947998 C9.28941226 98.86331852 9.1469492 104.93170167 9 111 C9.99 111.495 9.99 111.495 11 112 C11.625 114.5625 11.625 114.5625 12 117 C10.68 117 9.36 117 8 117 C8 117.66 8 118.32 8 119 C7.44763672 118.83773926 6.89527344 118.67547852 6.32617188 118.50830078 C3.74546955 117.94438157 1.42255818 117.87046805 -1.21875 117.8671875 C-2.7337207 117.86428711 -2.7337207 117.86428711 -4.27929688 117.86132812 C-5.87354492 117.8680957 -5.87354492 117.8680957 -7.5 117.875 C-8.57830078 117.87693359 -9.65660156 117.87886719 -10.76757812 117.88085938 C-17.89157145 117.91960012 -24.92256268 118.13084103 -32 119 C-32 118.34 -32 117.68 -32 117 C-33.98 117.99 -33.98 117.99 -36 119 C-36 88.31 -36 57.62 -36 26 C-35.67 26 -35.34 26 -35 26 C-35 54.38 -35 82.76 -35 112 C-21.8 112 -8.6 112 5 112 C4.9369071 99.82062992 4.86134851 87.64150804 4.76428509 75.46236038 C4.7196961 69.80613907 4.68041496 64.14998788 4.65356445 58.49365234 C4.62741674 53.02756053 4.58693405 47.56174026 4.53681374 42.09581757 C4.52022227 40.01803738 4.50866021 37.94021031 4.50238609 35.86237335 C4.46670686 25.125386 4.247268 15.33195317 1 5 C0.64739213 3.33730442 0.3084306 1.67145429 0 0 Z " fill="#02233E" transform="translate(212,41)"/>
<path d="M0 0 C0.33 0 0.66 0 1 0 C1 21.45 1 42.9 1 65 C1.99 65 2.98 65 4 65 C4.33 65.99 4.66 66.98 5 68 C17.54 68.33 30.08 68.66 43 69 C43.33 53.82 43.66 38.64 44 23 C54.89 23 65.78 23 77 23 C77 23.33 77 23.66 77 24 C67.1 24.33 57.2 24.66 47 25 C46.95101562 28.06925781 46.90203125 31.13851562 46.8515625 34.30078125 C46.79757099 37.26949999 46.74025629 40.23813722 46.68261719 43.20678711 C46.64430652 45.27182965 46.60945734 47.3369394 46.578125 49.40209961 C46.53251986 52.36857138 46.47451799 55.3345796 46.4140625 58.30078125 C46.39673569 59.68841423 46.39673569 59.68841423 46.37905884 61.1040802 C46.35918915 61.96474594 46.33931946 62.82541168 46.31884766 63.7121582 C46.30552399 64.46938675 46.29220032 65.2266153 46.2784729 66.00679016 C46 68 46 68 44 71 C44.30840599 73.15274948 44.30840599 73.15274948 45 75 C44.42320496 74.83923477 43.84640991 74.67846954 43.25213623 74.51283264 C41.08683776 74.01977378 39.18076513 73.84501739 36.96582031 73.79467773 C36.17449707 73.77449585 35.38317383 73.75431396 34.56787109 73.73352051 C33.74625488 73.71704468 32.92463867 73.70056885 32.078125 73.68359375 C31.3154834 73.66494263 30.5528418 73.6462915 29.76708984 73.6270752 C26.92817364 73.5589649 24.08907365 73.49869679 21.25 73.4375 C14.8975 73.293125 8.545 73.14875 2 73 C2 87.52 2 102.04 2 117 C5.3 117 8.6 117 12 117 C13.485 117.99 13.485 117.99 15 119 C11.846632 119.70074844 9.27275026 120 6 120 C4.824375 120.020625 3.64875 120.04125 2.4375 120.0625 C-1 120 -1 120 -4 119 C-4 116.69 -4 114.38 -4 112 C-3.34 112 -2.68 112 -2 112 C-2.144375 111.10925781 -2.28875 110.21851563 -2.4375 109.30078125 C-4.53876297 94.91593199 -4.19242541 80.50443548 -4 66 C-2.02 65.505 -2.02 65.505 0 65 C-0.66 65 -1.32 65 -2 65 C-2 59.39 -2 53.78 -2 48 C-1.67 48 -1.34 48 -1 48 C-0.67 32.16 -0.34 16.32 0 0 Z " fill="#46BBE7" transform="translate(20,40)"/>
<path d="M0 0 C1.98 0 3.96 0 6 0 C6.11020529 21.35948117 6.0981867 42.66129772 5 64 C6.11632812 63.99476318 7.23265625 63.98952637 8.3828125 63.98413086 C28.94633503 63.89605097 49.4620963 63.82038707 70 65 C70 65.66 70 66.32 70 67 C64.72 67 59.44 67 54 67 C54 67.66 54 68.32 54 69 C35.85 69 17.7 69 -1 69 C-1.08726778 45.96130559 -0.8990193 23.01824146 0 0 Z " fill="#46B9E8" transform="translate(2,104)"/>
<path d="M0 0 C14.36113103 -0.09383439 28.72221387 -0.16390259 43.08358955 -0.20724869 C49.75327842 -0.22806014 56.42270505 -0.25625965 63.09228516 -0.30175781 C69.53732188 -0.34544551 75.98216038 -0.36918551 82.42733383 -0.37950897 C84.87753287 -0.3868593 87.32772194 -0.401212 89.77783585 -0.42292023 C115.67987054 -0.64313961 115.67987054 -0.64313961 126 4 C126.99 4.99 126.99 4.99 128 6 C122.15414596 7.0117746 116.49158609 7.1357922 110.56665039 7.11352539 C109.02892975 7.11374443 109.02892975 7.11374443 107.46014404 7.1139679 C104.08929286 7.11327413 100.71849772 7.10550689 97.34765625 7.09765625 C95.00353526 7.09579017 92.65941388 7.09436716 90.31529236 7.09336853 C84.15862951 7.08955836 78.00199041 7.0797409 71.84533691 7.06866455 C65.55770184 7.05841815 59.2700629 7.053864 52.98242188 7.04882812 C40.65493751 7.03811727 28.32747073 7.02105889 16 7 C16 6.67 16 6.34 16 6 C23.92 5.505 23.92 5.505 32 5 C32 4.01 32 3.02 32 2 C21.44 1.67 10.88 1.34 0 1 C0 0.67 0 0.34 0 0 Z " fill="#37B3E1" transform="translate(72,1)"/>
<path d="M0 0 C1.2683091 -0.002062 1.2683091 -0.002062 2.5622406 -0.00416565 C3.48652863 -0.00057037 4.41081665 0.0030249 5.3631134 0.00672913 C6.82680611 0.00651009 6.82680611 0.00651009 8.32006836 0.00628662 C11.55034089 0.00698414 14.780556 0.01476907 18.01081848 0.02259827 C20.24855518 0.02446302 22.48629229 0.02588665 24.72402954 0.02688599 C30.61771265 0.03070667 36.51137117 0.04053316 42.40504456 0.05158997 C48.41751269 0.0618137 54.42998479 0.06638567 60.44245911 0.07142639 C72.24260013 0.08215581 84.04272289 0.09922688 95.84284973 0.12025452 C95.84284973 6.06025452 95.84284973 12.00025452 95.84284973 18.12025452 C92.54284973 18.12025452 89.24284973 18.12025452 85.84284973 18.12025452 C85.34784973 15.15025452 85.34784973 15.15025452 84.84284973 12.12025452 C83.52284973 11.79025452 82.20284973 11.46025452 80.84284973 11.12025452 C82.16284973 11.12025452 83.48284973 11.12025452 84.84284973 11.12025452 C84.84284973 9.47025452 84.84284973 7.82025452 84.84284973 6.12025452 C82.86284973 6.12025452 80.88284973 6.12025452 78.84284973 6.12025452 C78.84284973 6.78025452 78.84284973 7.44025452 78.84284973 8.12025452 C78.18284973 8.12025452 77.52284973 8.12025452 76.84284973 8.12025452 C77.50284973 6.47025452 78.16284973 4.82025452 78.84284973 3.12025452 C58.05284973 3.12025452 37.26284973 3.12025452 15.84284973 3.12025452 C15.51284973 4.11025452 15.18284973 5.10025452 14.84284973 6.12025452 C13.52284973 6.12025452 12.20284973 6.12025452 10.84284973 6.12025452 C10.84284973 10.08025452 10.84284973 14.04025452 10.84284973 18.12025452 C6.84284973 17.12025452 6.84284973 17.12025452 5.38581848 15.63197327 C3.40285591 13.68917196 1.85844121 13.44203262 -0.84465027 12.93275452 C-1.65289246 12.77419983 -2.46113464 12.61564514 -3.29386902 12.45228577 C-4.21619324 12.2879303 -4.21619324 12.2879303 -5.15715027 12.12025452 C-5.15715027 9.81025452 -5.15715027 7.50025452 -5.15715027 5.12025452 C-6.47715027 5.12025452 -7.79715027 5.12025452 -9.15715027 5.12025452 C-9.15715027 4.46025452 -9.15715027 3.80025452 -9.15715027 3.12025452 C-8.49715027 3.12025452 -7.83715027 3.12025452 -7.15715027 3.12025452 C-7.15715027 2.46025452 -7.15715027 1.80025452 -7.15715027 1.12025452 C-4.41255779 0.20539036 -2.8229036 -0.00354191 0 0 Z " fill="#2D2A27" transform="translate(140.1571502685547,173.87974548339844)"/>
<path d="M0 0 C30 0 30 0 35 2 C35 2.99 35 3.98 35 5 C34.47438477 4.67854004 33.94876953 4.35708008 33.40722656 4.02587891 C30.34051063 2.71894784 27.81471656 2.676765 24.484375 2.5859375 C23.23398438 2.54726563 21.98359375 2.50859375 20.6953125 2.46875 C19.39335937 2.4378125 18.09140625 2.406875 16.75 2.375 C15.43257812 2.33632813 14.11515625 2.29765625 12.7578125 2.2578125 C9.50534839 2.16353818 6.25289004 2.0779325 3 2 C2.97644015 10.26940209 2.95886945 18.5387893 2.94818783 26.80821705 C2.94305158 30.65137257 2.93613125 34.49450453 2.92456055 38.33764648 C2.91142988 42.79410938 2.9046538 47.25055005 2.90234375 51.70703125 C2.90165264 52.43772953 2.90096153 53.16842781 2.90024948 53.92126846 C2.89767099 65.30485882 3.18115677 76.64696092 3.82322693 88.01460266 C3.90021568 89.55944588 3.90021568 89.55944588 3.97875977 91.13549805 C4.03073013 92.03221725 4.0827005 92.92893646 4.13624573 93.85282898 C4 96 4 96 2 98 C-5.87860589 99.70270613 -14.42476822 99.216631 -22.4375 99.25 C-23.70271484 99.270625 -24.96792969 99.29125 -26.27148438 99.3125 C-27.47998047 99.31765625 -28.68847656 99.3228125 -29.93359375 99.328125 C-31.02728271 99.3374707 -32.12097168 99.34681641 -33.24780273 99.35644531 C-36 99 -36 99 -37.87915039 97.66699219 C-39 96 -39 96 -39 93 C-26.13 93 -13.26 93 0 93 C0 62.31 0 31.62 0 0 Z " fill="#09374F" transform="translate(138,59)"/>
<path d="M0 0 C12.21 0 24.42 0 37 0 C37 1.65 37 3.3 37 5 C25.78 4.67 14.56 4.34 3 4 C3.01160156 7.15304688 3.02320313 10.30609375 3.03515625 13.5546875 C3.04294901 16.59944559 3.04902453 19.64420258 3.05493164 22.68896484 C3.05996872 24.80941259 3.06679859 26.92985685 3.07543945 29.05029297 C3.08753234 32.09343322 3.09323447 35.13652766 3.09765625 38.1796875 C3.10281754 39.13181122 3.10797882 40.08393494 3.11329651 41.06491089 C3.11337204 41.94567291 3.11344757 42.82643494 3.11352539 43.73388672 C3.115746 44.51110077 3.11796661 45.28831482 3.12025452 46.08908081 C3 48 3 48 2 50 C-10.54 50 -23.08 50 -36 50 C-36.33 48.68 -36.66 47.36 -37 46 C-24.79 46 -12.58 46 0 46 C0 30.82 0 15.64 0 0 Z " fill="#287592" transform="translate(61,59)"/>
<path d="M0 0 C1.9375 0.75 1.9375 0.75 4 2 C4.625 4.0625 4.625 4.0625 5 6 C5.66 6.33 6.32 6.66 7 7 C7.6328125 9.43359375 7.6328125 9.43359375 8.125 12.4375 C8.37636719 13.92056641 8.37636719 13.92056641 8.6328125 15.43359375 C9 18 9 18 9 20 C9.99 20 10.98 20 12 20 C11.8563501 20.62874023 11.7127002 21.25748047 11.56469727 21.90527344 C9.93509285 29.76313086 9.81029377 37.24842971 9.9375 45.25 C9.96564845 48.13929208 9.98253514 51.028574 9.99609375 53.91796875 C10.00003143 54.69256943 10.00396912 55.4671701 10.00802612 56.26524353 C10.04028316 67.36671614 9.75405898 78.46463197 9.5 89.5625 C9.46385086 91.1624884 9.46385086 91.1624884 9.42697144 92.7947998 C9.28941226 98.86331852 9.1469492 104.93170167 9 111 C9.99 111.495 9.99 111.495 11 112 C11.625 114.5625 11.625 114.5625 12 117 C10.68 117 9.36 117 8 117 C8 117.66 8 118.32 8 119 C7.44763672 118.83773926 6.89527344 118.67547852 6.32617188 118.50830078 C3.74546955 117.94438157 1.42255818 117.87046805 -1.21875 117.8671875 C-2.7337207 117.86428711 -2.7337207 117.86428711 -4.27929688 117.86132812 C-5.87354492 117.8680957 -5.87354492 117.8680957 -7.5 117.875 C-8.57830078 117.87693359 -9.65660156 117.87886719 -10.76757812 117.88085938 C-17.89157145 117.91960012 -24.92256268 118.13084103 -32 119 C-32 118.34 -32 117.68 -32 117 C-33.98 117.99 -33.98 117.99 -36 119 C-36 88.31 -36 57.62 -36 26 C-35.67 26 -35.34 26 -35 26 C-35 54.38 -35 82.76 -35 112 C-33.68 112.33 -32.36 112.66 -31 113 C-31 113.66 -31 114.32 -31 115 C-18.46 115 -5.92 115 7 115 C7.02918953 102.48926001 7.02918953 102.48926001 7.04882812 89.97851562 C7.05475616 84.85977107 7.06169075 79.74104476 7.07543945 74.62231445 C8.48808071 43.46983055 8.48808071 43.46983055 3.5 13.125 C3.05082094 11.66965986 2.60286656 10.21394106 2.15625 8.7578125 C1.7746875 7.51773438 1.393125 6.27765625 1 5 C0.63768564 3.33939252 0.28900618 1.67492218 0 0 Z " fill="#024D7C" transform="translate(212,41)"/>
<path d="M0 0 C0.33 0 0.66 0 1 0 C1 31.35 1 62.7 1 95 C-12.2 95 -25.4 95 -39 95 C-39 66.95 -39 38.9 -39 10 C-38.67 10 -38.34 10 -38 10 C-37.67 21.88 -37.34 33.76 -37 46 C-36.67 46 -36.34 46 -36 46 C-35.67 43.36 -35.34 40.72 -35 38 C-34.67 38 -34.34 38 -34 38 C-33.93941406 38.90363281 -33.87882813 39.80726562 -33.81640625 40.73828125 C-33.73261719 41.91777344 -33.64882812 43.09726563 -33.5625 44.3125 C-33.48128906 45.48425781 -33.40007812 46.65601563 -33.31640625 47.86328125 C-33.1132629 51.02590958 -33.1132629 51.02590958 -32 54 C-31.90408957 56.33569047 -31.86925714 58.67406084 -31.8671875 61.01171875 C-31.86623077 61.69877396 -31.86527405 62.38582916 -31.86428833 63.09370422 C-31.86360816 64.54871716 -31.86545108 66.00373314 -31.86962891 67.45874023 C-31.87493859 69.66201807 -31.86969974 71.86508822 -31.86328125 74.06835938 C-31.86394286 75.48697961 -31.86522573 76.90559972 -31.8671875 78.32421875 C-31.86831543 79.60385498 -31.86944336 80.88349121 -31.87060547 82.2019043 C-32.00512012 86.15028999 -32.5099789 90.07983124 -33 94 C-22.11 94 -11.22 94 0 94 C0 62.98 0 31.96 0 0 Z " fill="#D0D7DE" transform="translate(216,58)"/>
<path d="M0 0 C1.32 0.33 2.64 0.66 4 1 C5.00455378 5.18329211 5.17638616 9.25075437 5.203125 13.53125 C5.20882507 14.24478638 5.21452515 14.95832275 5.22039795 15.69348145 C5.22980684 17.19619277 5.2363655 18.69892435 5.24023438 20.20166016 C5.24996974 22.49287827 5.28104225 24.78320959 5.3125 27.07421875 C5.31902837 28.53905721 5.32427949 30.00390204 5.328125 31.46875 C5.3404718 32.14909302 5.3528186 32.82943604 5.36553955 33.53039551 C5.34550748 37.83016443 4.8906429 40.73946441 2 44 C-2.03704912 45.1915242 -5.75744362 45.04156101 -9.921875 44.6953125 C-11.58476563 44.56189453 -11.58476563 44.56189453 -13.28125 44.42578125 C-14.4259375 44.32652344 -15.570625 44.22726563 -16.75 44.125 C-17.87921875 44.03347656 -19.0084375 43.94195312 -20.171875 43.84765625 C-26.78877668 43.30390623 -33.39651512 42.68731678 -40 42 C-40 40.68 -40 39.36 -40 38 C-26.8 38 -13.6 38 0 38 C0 25.46 0 12.92 0 0 Z " fill="#2B94C3" transform="translate(62,115)"/>
<path d="M0 0 C30.5947297 -0.18990235 30.5947297 -0.18990235 45.5 0.4375 C46.45197266 0.47673584 47.40394531 0.51597168 48.38476562 0.55639648 C53.63651018 0.80298615 58.79236875 1.27604192 64 2 C64 2.99 64 3.98 64 5 C69.28 5 74.56 5 80 5 C80 5.33 80 5.66 80 6 C54.99532564 7.0178367 30.02262192 7.11545077 5 7 C5 6.67 5 6.34 5 6 C3.35 5.67 1.7 5.34 0 5 C0 3.35 0 1.7 0 0 Z " fill="#5FC4EE" transform="translate(40,1)"/>
<path d="M0 0 C35.97 0 71.94 0 109 0 C108.34 0.33 107.68 0.66 107 1 C106.59270772 3.32156597 106.25561323 5.6568787 106 8 C104.72866211 7.57747955 104.72866211 7.57747955 103.43164062 7.14642334 C90.19064814 3.25927929 77.21237533 3.39529543 63.5 3.390625 C60.96694902 3.37561817 58.43390773 3.35888584 55.90087891 3.34051514 C49.95861179 3.30152613 44.01644515 3.27969302 38.07407951 3.26654124 C31.29744113 3.250558 24.52098498 3.21209633 17.74445343 3.17194796 C3.82969735 3.09000144 -10.08505359 3.03562838 -24 3 C-24 2.67 -24 2.34 -24 2 C-16.08 1.67 -8.16 1.34 0 1 C0 0.67 0 0.34 0 0 Z " fill="#30B0E2" transform="translate(88,16)"/>
<path d="M0 0 C1.65 0 3.3 0 5 0 C5 2.31 5 4.62 5 7 C6.5778125 6.9071875 6.5778125 6.9071875 8.1875 6.8125 C12.18387024 7.0090428 13.86899906 7.60570516 17 10 C18.14993366 12.29986731 18.2316929 13.81469088 18.3125 16.375 C18.34988281 17.14585937 18.38726562 17.91671875 18.42578125 18.7109375 C17.81442784 21.99766317 16.713577 23.0747977 14 25 C9.2805118 25.53387876 4.76525513 25.17649093 0 25 C0 16.75 0 8.5 0 0 Z " fill="#EFEFEF" transform="translate(130,179)"/>
<path d="M0 0 C3.41687783 -0.0539507 6.83290364 -0.09365049 10.25 -0.125 C11.21808594 -0.14175781 12.18617188 -0.15851563 13.18359375 -0.17578125 C14.11816406 -0.18222656 15.05273438 -0.18867188 16.015625 -0.1953125 C16.87446289 -0.20578613 17.73330078 -0.21625977 18.61816406 -0.22705078 C21.21730884 0.02071517 22.80451408 0.60470931 25 2 C26.50156874 5.00313748 26.09281204 7.79067522 26.0625 11.125 C26.05347656 12.40632812 26.04445312 13.68765625 26.03515625 15.0078125 C26.02355469 15.99523437 26.01195312 16.98265625 26 18 C24.35 18 22.7 18 21 18 C21 13.71 21 9.42 21 5 C19.35 5 17.7 5 16 5 C16 9.29 16 13.58 16 18 C14.02 18 12.04 18 10 18 C10 13.71 10 9.42 10 5 C8.35 5 6.7 5 5 5 C5 9.29 5 13.58 5 18 C3.35 18 1.7 18 0 18 C0 12.06 0 6.12 0 0 Z " fill="#E8E8E8" transform="translate(190,186)"/>
<path d="M0 0 C3.58378549 -0.08090486 7.16574647 -0.14045667 10.75 -0.1875 C11.76578125 -0.21263672 12.7815625 -0.23777344 13.828125 -0.26367188 C14.8078125 -0.27333984 15.7875 -0.28300781 16.796875 -0.29296875 C17.69760742 -0.3086792 18.59833984 -0.32438965 19.52636719 -0.34057617 C22.5254191 0.07234106 23.87176037 0.86442161 26 3 C26.29642569 5.71229503 26.38061189 7.99739732 26.25 10.6875 C26.23195313 11.38939453 26.21390625 12.09128906 26.1953125 12.81445312 C26.14826213 14.54355436 26.07651873 16.27195205 26 18 C24.35 18 22.7 18 21 18 C21 13.71 21 9.42 21 5 C19.35 5 17.7 5 16 5 C16 9.29 16 13.58 16 18 C14.35 18 12.7 18 11 18 C11 13.38 11 8.76 11 4 C9.02 4 7.04 4 5 4 C5 8.62 5 13.24 5 18 C3.35 18 1.7 18 0 18 C0 12.06 0 6.12 0 0 Z " fill="#EAEAEA" transform="translate(11,186)"/>
<path d="M0 0 C52.26545704 -0.21177018 52.26545704 -0.21177018 72 1 C72 1.33 72 1.66 72 2 C77.28 2.66 82.56 3.32 88 4 C88 4.99 88 5.98 88 7 C64.24 7 40.48 7 16 7 C16 6.67 16 6.34 16 6 C23.92 5.505 23.92 5.505 32 5 C32 4.01 32 3.02 32 2 C21.44 1.67 10.88 1.34 0 1 C0 0.67 0 0.34 0 0 Z " fill="#47BDE8" transform="translate(72,1)"/>
<path d="M0 0 C0.33 0.66 0.66 1.32 1 2 C1.66 2.33 2.32 2.66 3 3 C2.83757813 4.010625 2.67515625 5.02125 2.5078125 6.0625 C1.6849282 12.68046701 1.85055547 19.34251124 1.875 26 C1.87588623 26.69286102 1.87677246 27.38572205 1.87768555 28.09957886 C1.89102441 36.96389608 2.09098307 45.76280915 2.7734375 54.60546875 C3.82436548 70.35126904 3.82436548 70.35126904 2 74 C0.35 74 -1.3 74 -3 74 C-3 84.56 -3 95.12 -3 106 C-3.33 106 -3.66 106 -4 106 C-4 79.6 -4 53.2 -4 26 C-3.67 26 -3.34 26 -3 26 C-2.67 31.28 -2.34 36.56 -2 42 C-1.34 28.14 -0.68 14.28 0 0 Z " fill="#57C2E8" transform="translate(5,30)"/>
<path d="M0 0 C0.33 0.99 0.66 1.98 1 3 C1.66 3 2.32 3 3 3 C3 2.34 3 1.68 3 1 C12.28765465 0.14297837 21.48780311 -0.15801404 30.8125 -0.125 C31.80674484 -0.12367065 31.80674484 -0.12367065 32.82107544 -0.12231445 C45.56247992 -0.10247724 58.27705947 0.31747387 71 1 C71 1.66 71 2.32 71 3 C65.72 3 60.44 3 55 3 C55 3.66 55 4.32 55 5 C36.85 5 18.7 5 0 5 C0 3.35 0 1.7 0 0 Z " fill="#34ADE0" transform="translate(1,168)"/>
<path d="M0 0 C33 0 66 0 100 0 C100 5.94 100 11.88 100 18 C96.7 18 93.4 18 90 18 C89 14 89 14 89.5 12.25 C90.3391392 9.0694693 90.3391392 9.0694693 89 2 C59.63 1.67 30.26 1.34 0 1 C0 0.67 0 0.34 0 0 Z " fill="#282D31" transform="translate(136,174)"/>
<path d="M0 0 C0.66 0.33 1.32 0.66 2 1 C2.6875 4 2.6875 4 3 7 C2.67 7.33 2.34 7.66 2 8 C1.91141354 10.73894085 1.88476521 13.4525327 1.90234375 16.19140625 C1.9037587 17.01124496 1.90517365 17.83108368 1.90663147 18.67576599 C1.91224711 21.30471382 1.92480221 23.93357773 1.9375 26.5625 C1.94251299 28.34049357 1.94707624 30.11848846 1.95117188 31.89648438 C1.96222161 36.26435545 1.97949669 40.63216348 2 45 C1.67 45 1.34 45 1 45 C0.67 53.91 0.34 62.82 0 72 C-0.33 72 -0.66 72 -1 72 C-1.33 77.28 -1.66 82.56 -2 88 C-2.33 88 -2.66 88 -3 88 C-3.02313538 77.08230602 -3.04092121 66.16461784 -3.05181217 55.24690437 C-3.05703837 50.17777772 -3.06413128 45.1086678 -3.07543945 40.03955078 C-3.08627763 35.15071319 -3.09227882 30.26189173 -3.09487724 25.37304306 C-3.09672981 23.50466533 -3.10034721 21.63628852 -3.10573006 19.76791763 C-3.11295281 17.15792154 -3.11399041 14.54799271 -3.11352539 11.93798828 C-3.11712067 11.1597168 -3.12071594 10.38144531 -3.12442017 9.57958984 C-3.11405216 4.22810432 -3.11405216 4.22810432 -2 2 C-1.34 2 -0.68 2 0 2 C0 1.34 0 0.68 0 0 Z " fill="#F2F1EF" transform="translate(181,64)"/>
<path d="M0 0 C4.02081788 -0.02921779 8.04160814 -0.04687188 12.0625 -0.0625 C13.7630957 -0.07506836 13.7630957 -0.07506836 15.49804688 -0.08789062 C21.10878867 -0.10424847 26.47649331 -0.01812097 32 1 C32 2.32 32 3.64 32 5 C19.78463076 5.94746864 7.65308097 6.13309629 -4.59375 6.09765625 C-6.52144331 6.09578584 -8.4491371 6.09436489 -10.37683105 6.09336853 C-15.39407721 6.08959232 -20.41129335 6.07980526 -25.42852783 6.06866455 C-30.57083734 6.05834376 -35.71315182 6.0538483 -40.85546875 6.04882812 C-50.90365885 6.03817743 -60.95182691 6.02116163 -71 6 C-71 5.67 -71 5.34 -71 5 C-52.85 5 -34.7 5 -16 5 C-16 4.34 -16 3.68 -16 3 C-10.72 3 -5.44 3 0 3 C0 2.01 0 1.02 0 0 Z " fill="#1C8BBA" transform="translate(72,168)"/>
<path d="M0 0 C9.9 0 19.8 0 30 0 C30.33 0.66 30.66 1.32 31 2 C21.1 2 11.2 2 1 2 C1.0721875 6.78371094 1.144375 11.56742188 1.21875 16.49609375 C1.26446191 19.56314911 1.31009826 22.63020524 1.35546875 25.69726562 C1.42717321 30.54403788 1.49912716 35.39080535 1.57275391 40.23754883 C1.63222873 44.15385925 1.69042883 48.07018688 1.74781799 51.9865284 C1.76970371 53.46571567 1.79201581 54.94489671 1.81480408 56.42407036 C1.84713832 58.52805931 1.87806904 60.63206243 1.90820312 62.73608398 C1.91812035 63.40953071 1.92803757 64.08297743 1.93825531 64.77683163 C1.98606615 68.41310812 2.00090059 72.04706687 1.97827148 75.68362427 C1.97420036 76.4551864 1.97012924 77.22674852 1.96593475 78.02169132 C1.95634314 79.50006299 1.94237467 80.97841506 1.92328644 82.4566946 C1.9014498 85.79002049 1.95740612 88.81405104 3 92 C2.01 92.495 2.01 92.495 1 93 C-0.83309809 89.33380382 -0.39803009 84.99915478 -0.5546875 80.95703125 C-0.59673309 79.90240189 -0.63877869 78.84777252 -0.68209839 77.76118469 C-1.15655854 64.51410244 -1.15163239 51.26413142 -1.13037109 38.01049805 C-1.12455998 34.3525052 -1.12804407 30.69458393 -1.13394356 27.03659344 C-1.13754589 24.18764192 -1.13641406 21.33870765 -1.13381577 18.48975563 C-1.13283118 16.48720375 -1.13585015 14.48465117 -1.13894653 12.48210144 C-1.13579437 11.27846451 -1.13264221 10.07482758 -1.12939453 8.8347168 C-1.12859894 7.77681442 -1.12780334 6.71891205 -1.12698364 5.62895203 C-1 3 -1 3 0 0 Z " fill="#146E96" transform="translate(141,61)"/>
<path d="M0 0 C12.87 0 25.74 0 39 0 C39 1.32 39 2.64 39 4 C39.66 4.33 40.32 4.66 41 5 C38.58225419 6.20887291 37.06668936 6.12059343 34.36669922 6.11352539 C33.40585419 6.11344986 32.44500916 6.11337433 31.45504761 6.11329651 C30.41542877 6.10813522 29.37580994 6.10297394 28.3046875 6.09765625 C27.24210724 6.0962413 26.17952698 6.09482635 25.08474731 6.09336853 C21.68146991 6.08775834 18.27825762 6.07520409 14.875 6.0625 C12.57161553 6.05748631 10.26823003 6.05292318 7.96484375 6.04882812 C2.30987351 6.0377856 -3.34505859 6.02103752 -9 6 C-9 5.01 -9 4.02 -9 3 C-3.72 3 1.56 3 7 3 C7 2.34 7 1.68 7 1 C4.69 1 2.38 1 0 1 C0 0.67 0 0.34 0 0 Z " fill="#0D6C9E" transform="translate(97,168)"/>
<path d="M0 0 C2.08268593 -0.08126087 4.16628658 -0.13930839 6.25 -0.1875 C7.99023438 -0.23970703 7.99023438 -0.23970703 9.765625 -0.29296875 C13 0 13 0 15.40625 1.03125 C17.82228735 4.01576672 17.4273471 7.03483178 17.25 10.6875 C17.23195313 11.38939453 17.21390625 12.09128906 17.1953125 12.81445312 C17.14826213 14.54355436 17.07651873 16.27195205 17 18 C14.5622037 18.05397335 12.12560315 18.09365616 9.6875 18.125 C8.65206055 18.15013672 8.65206055 18.15013672 7.59570312 18.17578125 C3.82864604 18.21217794 2.21568296 18.14378864 -1 16 C-0.67 14.35 -0.34 12.7 0 11 C0.495 11.309375 0.99 11.61875 1.5 11.9375 C4.97986781 13.41644382 8.24028509 13.62402851 12 14 C12 13.01 12 12.02 12 11 C9.03 11 6.06 11 3 11 C3 10.01 3 9.02 3 8 C5.97 8 8.94 8 12 8 C12 7.01 12 6.02 12 5 C8.04 5 4.08 5 0 5 C0 3.35 0 1.7 0 0 Z " fill="#F7F7F7" transform="translate(42,186)"/>
<path d="M0 0 C1.98 0 3.96 0 6 0 C6 4.62 6 9.24 6 14 C7.65 14 9.3 14 11 14 C11 9.38 11 4.76 11 0 C12.98 0 14.96 0 17 0 C17 5.94 17 11.88 17 18 C4.51943136 18.37070996 4.51943136 18.37070996 2.14453125 16.67578125 C-0.26201225 13.15220732 -0.1068532 9.93734767 -0.0625 5.8125 C-0.05347656 4.72582031 -0.04445313 3.63914063 -0.03515625 2.51953125 C-0.02355469 1.68808594 -0.01195313 0.85664063 0 0 Z " fill="#DDDDDD" transform="translate(110,186)"/>
<path d="M0 0 C1.65 0 3.3 0 5 0 C5 2.31 5 4.62 5 7 C7.97851562 6.90234375 7.97851562 6.90234375 10.95703125 6.8046875 C13 7 13 7 16 9 C16.22137393 11.62697064 16.28162025 14.00893964 16.1875 16.625 C16.16719727 17.68460938 16.16719727 17.68460938 16.14648438 18.765625 C16.1111104 20.51074128 16.05730221 22.25546608 16 24 C14.35 24 12.7 24 11 24 C11 19.71 11 15.42 11 11 C9.02 11 7.04 11 5 11 C5 15.29 5 19.58 5 24 C3.35 24 1.7 24 0 24 C0 16.08 0 8.16 0 0 Z " fill="#F1F1F1" transform="translate(151,180)"/>
<path d="M0 0 C1.65 0 3.3 0 5 0 C5 2.31 5 4.62 5 7 C6.258125 6.938125 7.51625 6.87625 8.8125 6.8125 C11.31482332 6.68943492 12.59535509 6.75432273 14.75 8.0625 C16.67816053 11.05114883 16.2839325 13.68378595 16.1875 17.1875 C16.16042969 18.45980469 16.13335937 19.73210937 16.10546875 21.04296875 C16.07066406 22.01878906 16.03585938 22.99460938 16 24 C14.35 24 12.7 24 11 24 C11 19.71 11 15.42 11 11 C9.02 11 7.04 11 5 11 C5 15.29 5 19.58 5 24 C3.35 24 1.7 24 0 24 C0 16.08 0 8.16 0 0 Z " fill="#F6F6F6" transform="translate(78,180)"/>
<path d="M0 0 C12.87 0 25.74 0 39 0 C39 0.33 39 0.66 39 1 C34.545 1.495 34.545 1.495 30 2 C30 2.66 30 3.32 30 4 C28.68 4 27.36 4 26 4 C26 4.66 26 5.32 26 6 C23.36 6.66 20.72 7.32 18 8 C18 7.34 18 6.68 18 6 C15.52039864 6.14024219 13.04147598 6.2869185 10.5625 6.4375 C9.50192383 6.49647461 9.50192383 6.49647461 8.41992188 6.55664062 C4.91309581 6.47624438 4.91309581 6.47624438 2 8 C1.91286169 9.70772358 1.89299993 11.41898649 1.90234375 13.12890625 C1.90556641 14.16337891 1.90878906 15.19785156 1.91210938 16.26367188 C1.92467773 17.8965918 1.92467773 17.8965918 1.9375 19.5625 C1.94201172 20.65498047 1.94652344 21.74746094 1.95117188 22.87304688 C1.96300174 25.58208495 1.97948457 28.29101599 2 31 C1.34 31 0.68 31 0 31 C0 20.77 0 10.54 0 0 Z " fill="#F38048" transform="translate(22,113)"/>
<path d="M0 0 C0.33 0 0.66 0 1 0 C1 20.13 1 40.26 1 61 C1.66 61 2.32 61 3 61 C3 57.7 3 54.4 3 51 C3.33 51 3.66 51 4 51 C4 64.86 4 78.72 4 93 C2.68 93 1.36 93 0 93 C0 62.31 0 31.62 0 0 Z " fill="#D6E6EF" transform="translate(98,59)"/>
<path d="M0 0 C12.21 0 24.42 0 37 0 C37 0.33 37 0.66 37 1 C19.675 1.495 19.675 1.495 2 2 C1.67 17.51 1.34 33.02 1 49 C-4.89875 49.020625 -10.7975 49.04125 -16.875 49.0625 C-18.73624512 49.071604 -20.59749023 49.08070801 -22.51513672 49.09008789 C-23.98665291 49.09300788 -25.45816991 49.09555624 -26.9296875 49.09765625 C-27.69676025 49.10277222 -28.46383301 49.10788818 -29.25415039 49.11315918 C-34.7718564 49.1140718 -34.7718564 49.1140718 -37 48 C-37 47.34 -37 46.68 -37 46 C-24.79 46 -12.58 46 0 46 C0 30.82 0 15.64 0 0 Z " fill="#204B5B" transform="translate(61,59)"/>
<path d="M0 0 C0.66 0 1.32 0 2 0 C2 13.2 2 26.4 2 40 C-11.2 40 -24.4 40 -38 40 C-38 39.01 -38 38.02 -38 37 C-25.46 37 -12.92 37 0 37 C0 24.79 0 12.58 0 0 Z " fill="#135771" transform="translate(62,116)"/>
<path d="M0 0 C1.65 0 3.3 0 5 0 C5 5.94 5 11.88 5 18 C-6.35368043 18.36624776 -6.35368043 18.36624776 -8.875 16.9375 C-10.62336781 13.9264221 -10.28209401 11.24941563 -10.1875 7.8125 C-10.16042969 6.54019531 -10.13335937 5.26789063 -10.10546875 3.95703125 C-10.07066406 2.98121094 -10.03585938 2.00539062 -10 1 C-8.35 1 -6.7 1 -5 1 C-5 5.29 -5 9.58 -5 14 C-3.35 14 -1.7 14 0 14 C0 9.38 0 4.76 0 0 Z " fill="#EDEDED" transform="translate(181,186)"/>
<path d="M0 0 C10.89 0 21.78 0 33 0 C33 0.33 33 0.66 33 1 C23.1 1.33 13.2 1.66 3 2 C2.95101562 5.08085938 2.90203125 8.16171875 2.8515625 11.3359375 C2.79759282 14.31124846 2.74026958 17.28647714 2.68261719 20.26171875 C2.64427315 22.33359681 2.60942995 24.40554269 2.578125 26.47753906 C2.53259191 29.45141887 2.47457882 32.42482962 2.4140625 35.3984375 C2.39673569 36.79381241 2.39673569 36.79381241 2.37905884 38.21737671 C2.35918915 39.07811798 2.33931946 39.93885925 2.31884766 40.82568359 C2.30552399 41.58513275 2.29220032 42.34458191 2.2784729 43.12704468 C2 45 2 45 0 47 C-2.98976403 47.18780399 -5.885302 47.25549632 -8.875 47.23046875 C-9.75526855 47.23001053 -10.63553711 47.22955231 -11.54248047 47.2290802 C-13.40528713 47.22605657 -15.26809124 47.21816695 -17.13085938 47.20581055 C-19.98837199 47.18757421 -22.84556032 47.1853007 -25.703125 47.18554688 C-27.51041948 47.18063096 -29.31771175 47.17480232 -31.125 47.16796875 C-31.98335449 47.16685593 -32.84170898 47.1657431 -33.72607422 47.16459656 C-39.76787219 47.11606391 -39.76787219 47.11606391 -42 46 C-41.67 44.68 -41.34 43.36 -41 42 C-40.34 42.99 -39.68 43.98 -39 45 C-36.10031255 45.33745213 -33.39836856 45.4893235 -30.4921875 45.51171875 C-29.74718994 45.52835571 -29.00219238 45.54499268 -28.23461914 45.56213379 C-25.44836738 45.62002147 -22.66162956 45.65220741 -19.875 45.6875 C-13.64625 45.790625 -7.4175 45.89375 -1 46 C-0.67 30.82 -0.34 15.64 0 0 Z " fill="#3DA4CE" transform="translate(64,63)"/>
<path d="M0 0 C0.33 0 0.66 0 1 0 C1.02339917 8.05095779 1.04105314 16.10190085 1.05181217 24.15288448 C1.05698171 27.89319517 1.06396837 31.63348221 1.07543945 35.3737793 C1.17053406 67.18189156 1.17053406 67.18189156 0 81 C0.66 81 1.32 81 2 81 C1.67 81.99 1.34 82.98 1 84 C1 83.34 1 82.68 1 82 C0.01 81.67 -0.98 81.34 -2 81 C-2.1699653 53.99382166 -2.08276269 26.9429727 0 0 Z " fill="#59C6EB" transform="translate(18,24)"/>
<path d="M0 0 C0.99 0.33 1.98 0.66 3 1 C3 38.62 3 76.24 3 115 C2.67 115 2.34 115 2 115 C1.98969254 113.91227798 1.97938507 112.82455597 1.96876526 111.70387268 C1.8712064 101.47640569 1.76848941 91.24900194 1.66066074 81.02163792 C1.60538625 75.76306363 1.55195916 70.50448382 1.50268555 65.24584961 C1.45510858 60.17541936 1.40276846 55.10505903 1.34705925 50.03471184 C1.32660538 48.09575061 1.30789743 46.15677018 1.29092598 44.21777534 C1.26694883 41.51173046 1.23688555 38.80581901 1.20532227 36.09985352 C1.1995668 35.28993454 1.19381134 34.48001556 1.18788147 33.64555359 C1.47650331 30.02335774 1.47650331 30.02335774 0 27 C-0.08758003 25.00035018 -0.10696576 22.9976389 -0.09765625 20.99609375 C-0.09443359 19.78115234 -0.09121094 18.56621094 -0.08789062 17.31445312 C-0.07951172 16.03505859 -0.07113281 14.75566406 -0.0625 13.4375 C-0.05798828 12.15423828 -0.05347656 10.87097656 -0.04882812 9.54882812 C-0.03699545 6.36583978 -0.02051068 3.18294238 0 0 Z " fill="#004E89" transform="translate(233,53)"/>
<path d="M0 0 C1.65 0 3.3 0 5 0 C5 2.31 5 4.62 5 7 C6.65 7 8.3 7 10 7 C10 7.99 10 8.98 10 10 C8.35 10 6.7 10 5 10 C5.33 12.97 5.66 15.94 6 19 C7.32 19.33 8.64 19.66 10 20 C10 21.32 10 22.64 10 24 C6.58243849 24.31068741 4.59893023 24.3625104 1.625 22.5625 C-0.76173366 18.79880462 -0.33387931 15.34043107 0 11 C-0.99 11 -1.98 11 -3 11 C-3 9.35 -3 7.7 -3 6 C-2.01 6 -1.02 6 0 6 C0 4.02 0 2.04 0 0 Z " fill="#EFEFEF" transform="translate(65,180)"/>
<path d="M0 0 C7.96103517 1.22477464 13.39311407 7.94279812 18 14 C21.68595867 19.87392922 23.6155819 25.08047411 24 32 C22.02 32 20.04 32 18 32 C18 30.68 18 29.36 18 28 C17.34 29.32 16.68 30.64 16 32 C16 26.06 16 20.12 16 14 C14.68 14 13.36 14 12 14 C11.01 14 10.02 14 9 14 C8.87625 12.88625 8.87625 12.88625 8.75 11.75 C7.83903627 8.40979966 6.64363853 7.19044335 4 5 C1.86690808 3.76487921 1.86690808 3.76487921 0 3 C0 2.01 0 1.02 0 0 Z " fill="#E9EDEF" transform="translate(192,24)"/>
<path d="M0 0 C20.46 0 40.92 0 62 0 C62 0.33 62 0.66 62 1 C51.52019471 2.83399517 41.48455763 3.26965174 30.8828125 3.1953125 C29.28856587 3.1915709 27.69431691 3.18872937 26.10006714 3.18673706 C21.95405449 3.1791907 17.80818751 3.15962243 13.66223145 3.1373291 C9.41155974 3.11667393 5.16086394 3.10769378 0.91015625 3.09765625 C-7.39329516 3.07636566 -15.69662934 3.04234209 -24 3 C-24 2.67 -24 2.34 -24 2 C-16.08 1.67 -8.16 1.34 0 1 C0 0.67 0 0.34 0 0 Z " fill="#44BAE4" transform="translate(88,16)"/>
<path d="M0 0 C0.66 0 1.32 0 2 0 C2 12.21 2 24.42 2 37 C5.3 37 8.6 37 12 37 C12.99 37.66 13.98 38.32 15 39 C11.846632 39.70074844 9.27275026 40 6 40 C4.2365625 40.0309375 4.2365625 40.0309375 2.4375 40.0625 C-1 40 -1 40 -4 39 C-4 36.69 -4 34.38 -4 32 C-3.34 32 -2.68 32 -2 32 C-2 26.72 -2 21.44 -2 16 C-1.67 16 -1.34 16 -1 16 C-0.67 10.72 -0.34 5.44 0 0 Z " fill="#38B4DD" transform="translate(20,120)"/>
<path d="M0 0 C0.99 0.33 1.98 0.66 3 1 C3 11.89 3 22.78 3 34 C1.35 34 -0.3 34 -2 34 C-2.0583721 29.64589022 -2.09372173 25.29188207 -2.125 20.9375 C-2.14175781 19.70837891 -2.15851562 18.47925781 -2.17578125 17.21289062 C-2.20876483 11.09443607 -2.17209842 5.75520567 0 0 Z " fill="#E1590C" transform="translate(58,118)"/>
<path d="M0 0 C0 0.66 0 1.32 0 2 C-9.31858623 2.75738872 -18.58845351 3.10689485 -27.9375 3.125 C-29.37428101 3.13176758 -29.37428101 3.13176758 -30.84008789 3.13867188 C-36.63857122 3.12659065 -42.24873525 2.74324037 -48 2 C-48 1.67 -48 1.34 -48 1 C-32.5023089 -2.99940415 -15.81711515 -0.73295974 0 0 Z " fill="#279FD4" transform="translate(72,169)"/>
<path d="M0 0 C0.66 0 1.32 0 2 0 C2.04898438 0.72445312 2.09796875 1.44890625 2.1484375 2.1953125 C2.55206152 7.41458867 3.01275807 12.09813658 5 17 C0.64425167 18.15299221 -1.16651657 17.80558057 -6 17 C-6 12.71 -6 8.42 -6 4 C-4.02 4 -2.04 4 0 4 C0 2.68 0 1.36 0 0 Z " fill="#1C1C1C" transform="translate(108,187)"/>
<path d="M0 0 C3.66666667 0 7.33333333 0 11 0 C11 1.65 11 3.3 11 5 C9.02 5 7.04 5 5 5 C5 9.29 5 13.58 5 18 C3.35 18 1.7 18 0 18 C0 12.06 0 6.12 0 0 Z " fill="#EFEFEF" transform="translate(97,186)"/>
<path d="M0 0 C1.8359375 0.2109375 1.8359375 0.2109375 4 1 C7.98393712 6.74479331 11.28010747 14.28857602 10.75 21.3125 C10 24 10 24 8 26 C6.35199144 22.33552568 5.66419027 19.18796534 5.375 15.1875 C5.30023438 14.21167969 5.22546875 13.23585938 5.1484375 12.23046875 C5.09945312 11.49441406 5.05046875 10.75835937 5 10 C2.69 10 0.38 10 -2 10 C-1.67 7.69 -1.34 5.38 -1 3 C-0.34 3.66 0.32 4.32 1 5 C0.67 3.35 0.34 1.7 0 0 Z " fill="#1680B2" transform="translate(226,30)"/>
<path d="M0 0 C1.32 0.66 2.64 1.32 4 2 C2.68 2 1.36 2 0 2 C0 9.92 0 17.84 0 26 C1.32 26.33 2.64 26.66 4 27 C1.69 27.66 -0.62 28.32 -3 29 C-3 28.34 -3 27.68 -3 27 C-3.928125 27.309375 -3.928125 27.309375 -4.875 27.625 C-5.57625 27.74875 -6.2775 27.8725 -7 28 C-7.66 27.34 -8.32 26.68 -9 26 C-7.02 26 -5.04 26 -3 26 C-3 24.68 -3 23.36 -3 22 C-4.32 22 -5.64 22 -7 22 C-7 19.03 -7 16.06 -7 13 C-4.03 13.495 -4.03 13.495 -1 14 C-1.01160156 13.07316406 -1.02320312 12.14632812 -1.03515625 11.19140625 C-1.04417969 9.99386719 -1.05320312 8.79632813 -1.0625 7.5625 C-1.07410156 6.36753906 -1.08570312 5.17257813 -1.09765625 3.94140625 C-1 1 -1 1 0 0 Z " fill="#0B0B0B" transform="translate(78,178)"/>
<path d="M0 0 C0.33 0 0.66 0 1 0 C1 1.98 1 3.96 1 6 C4.96 6 8.92 6 13 6 C13 6.99 13 7.98 13 9 C10.36 9.33 7.72 9.66 5 10 C5 10.33 5 10.66 5 11 C7.64 11.33 10.28 11.66 13 12 C13 12.99 13 13.98 13 15 C11.741875 15.04125 10.48375 15.0825 9.1875 15.125 C8.47980469 15.14820313 7.77210937 15.17140625 7.04296875 15.1953125 C5 15 5 15 2 13 C1.01 13.495 1.01 13.495 0 14 C0.33 12.02 0.66 10.04 1 8 C-0.32 7.67 -1.64 7.34 -3 7 C-3 10.96 -3 14.92 -3 19 C-3.33 19 -3.66 19 -4 19 C-4 14.05 -4 9.1 -4 4 C-3.01 4 -2.02 4 -1 4 C-0.67 2.68 -0.34 1.36 0 0 Z " fill="#323232" transform="translate(41,185)"/>
<path d="M0 0 C1.54977539 -0.01353516 1.54977539 -0.01353516 3.13085938 -0.02734375 C4.56268555 -0.02154297 4.56268555 -0.02154297 6.0234375 -0.015625 C6.86567871 -0.01336914 7.70791992 -0.01111328 8.57568359 -0.00878906 C10.625 0.25 10.625 0.25 12.625 2.25 C10.20725419 3.45887291 8.69168936 3.37059343 5.99169922 3.36352539 C5.03085419 3.36344986 4.07000916 3.36337433 3.08004761 3.36329651 C2.04042877 3.35813522 1.00080994 3.35297394 -0.0703125 3.34765625 C-1.13289276 3.3462413 -2.19547302 3.34482635 -3.29025269 3.34336853 C-6.69353009 3.33775834 -10.09674238 3.32520409 -13.5 3.3125 C-15.80338447 3.30748631 -18.10676997 3.30292318 -20.41015625 3.29882812 C-26.06512649 3.2877856 -31.72005859 3.27103752 -37.375 3.25 C-37.375 2.92 -37.375 2.59 -37.375 2.25 C-24.92168758 0.99532544 -12.52242629 0.04584171 0 0 Z " fill="#0E6998" transform="translate(125.375,170.75)"/>
<path d="M0 0 C12.87 0 25.74 0 39 0 C39 0.33 39 0.66 39 1 C29.35951232 2.93939498 19.86621325 3.34767604 10.05273438 3.48217773 C9.04146484 3.50739502 8.03019531 3.5326123 6.98828125 3.55859375 C6.07602783 3.57204834 5.16377441 3.58550293 4.22387695 3.59936523 C3.48999756 3.73157471 2.75611816 3.86378418 2 4 C1.34 4.99 0.68 5.98 0 7 C0 4.69 0 2.38 0 0 Z " fill="#D78A60" transform="translate(22,113)"/>
<path d="M0 0 C1.65 0 3.3 0 5 0 C5 4.29 5 8.58 5 13 C6.98 13 8.96 13 11 13 C11 8.71 11 4.42 11 0 C11.33 0 11.66 0 12 0 C12 4.62 12 9.24 12 14 C4.5 16.25 4.5 16.25 0 14 C0 9.38 0 4.76 0 0 Z " fill="#060606" transform="translate(195,191)"/>
<path d="M0 0 C1.65 0 3.3 0 5 0 C5 5.94 5 11.88 5 18 C3.35 18 1.7 18 0 18 C0 12.06 0 6.12 0 0 Z " fill="#ECECEC" transform="translate(220,186)"/>
<path d="M0 0 C0.99 0 1.98 0 3 0 C3.33 0.66 3.66 1.32 4 2 C22.315 2.99 22.315 2.99 41 4 C36.78559959 6.10720021 33.83501387 6.30660186 29.27734375 6.30078125 C28.53545303 6.30506638 27.79356232 6.3093515 27.02919006 6.31376648 C25.46502705 6.31949617 23.90083739 6.32002008 22.33666992 6.31567383 C19.94208595 6.31250607 17.5487289 6.33601493 15.15429688 6.36132812 C13.63281406 6.36360047 12.11132792 6.36430491 10.58984375 6.36328125 C9.87416733 6.372491 9.15849091 6.38170074 8.42112732 6.39118958 C5.5031844 6.36396351 3.48171214 6.32576773 1.02563477 4.66479492 C0 3 0 3 0 0 Z " fill="#0C638D" transform="translate(99,152)"/>
<path d="M0 0 C19.8 0.495 19.8 0.495 40 1 C40.66 2.65 41.32 4.3 42 6 C40.77410156 5.68160156 39.54820313 5.36320312 38.28515625 5.03515625 C32.35975335 3.71930176 26.4871522 3.58540444 20.4375 3.4375 C13.55977363 3.2454304 6.81252497 2.99917033 0 2 C0 1.34 0 0.68 0 0 Z " fill="#3EB1DE" transform="translate(23,109)"/>
<path d="M0 0 C1.98 0.99 1.98 0.99 4 2 C4.625 4.0625 4.625 4.0625 5 6 C5.66 6.33 6.32 6.66 7 7 C7.6328125 9.43359375 7.6328125 9.43359375 8.125 12.4375 C8.29257813 13.42621094 8.46015625 14.41492188 8.6328125 15.43359375 C9 18 9 18 9 20 C9.99 20 10.98 20 12 20 C11.34 23.63 10.68 27.26 10 31 C9.34 31 8.68 31 8 31 C7.86722656 30.05898437 7.73445312 29.11796875 7.59765625 28.1484375 C7.42105469 26.90320313 7.24445313 25.65796875 7.0625 24.375 C6.88847656 23.14523438 6.71445313 21.91546875 6.53515625 20.6484375 C6.06225699 17.42443816 5.54848998 14.21187824 5 11 C4.34 11 3.68 11 3 11 C2.01 7.37 1.02 3.74 0 0 Z " fill="#0B6798" transform="translate(212,41)"/>
<path d="M0 0 C4.34863652 0.56444825 7.17827655 2.15427964 10.8125 4.5625 C12.27623047 5.52349609 12.27623047 5.52349609 13.76953125 6.50390625 C14.50558594 6.99761719 15.24164063 7.49132812 16 8 C11.1625907 9.34972358 6.23315905 9.89326362 1.5 8 C1.005 7.67 0.51 7.34 0 7 C0 4.69 0 2.38 0 0 Z " fill="#2AA2D1" transform="translate(200,7)"/>
<path d="M0 0 C1.65 0.33 3.3 0.66 5 1 C4.67 1.66 4.34 2.32 4 3 C3.95977609 5.3329866 3.95679753 7.66706666 4 10 C7.171738 11.585869 10.63513822 11.37866445 14.125 11.5625 C15.25615234 11.62727539 15.25615234 11.62727539 16.41015625 11.69335938 C18.27321888 11.7994832 20.13658524 11.90025001 22 12 C20 14 20 14 16.84765625 14.16015625 C15.59855469 14.12792969 14.34945312 14.09570312 13.0625 14.0625 C7.93796524 13.89518909 7.93796524 13.89518909 3 15 C2.34 14.34 1.68 13.68 1 13 C-2.58343976 12.83322718 -2.58343976 12.83322718 -6 13 C-6 12.67 -6 12.34 -6 12 C-4.02 12 -2.04 12 0 12 C0 8.04 0 4.08 0 0 Z " fill="#101010" transform="translate(38,192)"/>
<path d="M0 0 C2.875 -0.125 2.875 -0.125 6 0 C8 2 8 2 8.25 5 C8 8 8 8 6 10 C2.875 10.125 2.875 10.125 0 10 C0 6.7 0 3.4 0 0 Z " fill="#2E2E2E" transform="translate(135,190)"/>
<path d="M0 0 C3.79160297 -0.05786668 7.58309311 -0.09355054 11.375 -0.125 C12.45523438 -0.14175781 13.53546875 -0.15851562 14.6484375 -0.17578125 C15.6796875 -0.18222656 16.7109375 -0.18867187 17.7734375 -0.1953125 C19.20308838 -0.21102295 19.20308838 -0.21102295 20.66162109 -0.22705078 C23 0 23 0 25 2 C24.01 2.495 24.01 2.495 23 3 C23.66 3.66 24.32 4.32 25 5 C24.67 5.66 24.34 6.32 24 7 C23.44054687 6.81824219 22.88109375 6.63648438 22.3046875 6.44921875 C14.96510769 4.14822508 7.53384953 2.53065243 0 1 C0 0.67 0 0.34 0 0 Z " fill="#F0F6F8" transform="translate(178,0)"/>
<path d="M0 0 C2.10353495 -0.0810206 4.20795952 -0.13919907 6.3125 -0.1875 C7.48425781 -0.22230469 8.65601563 -0.25710937 9.86328125 -0.29296875 C13 0 13 0 14.91796875 1.51171875 C15.27503906 2.00285156 15.63210937 2.49398437 16 3 C15.01 3.495 15.01 3.495 14 4 C13.01 5.485 13.01 5.485 12 7 C12 6.34 12 5.68 12 5 C8.04 5 4.08 5 0 5 C0 3.35 0 1.7 0 0 Z " fill="#C3C3C3" transform="translate(42,186)"/>
<path d="M0 0 C9.24 0 18.48 0 28 0 C26.68 0.33 25.36 0.66 24 1 C23.67 1.66 23.34 2.32 23 3 C10.13 3 -2.74 3 -16 3 C-16 2.67 -16 2.34 -16 2 C-8.08 1.505 -8.08 1.505 0 1 C0 0.67 0 0.34 0 0 Z " fill="#50BAE8" transform="translate(104,5)"/>
<path d="M0 0 C0.99 0.33 1.98 0.66 3 1 C3 4.96 3 8.92 3 13 C0.03 12.505 0.03 12.505 -3 12 C-3 14.64 -3 17.28 -3 20 C-3.33 20 -3.66 20 -4 20 C-4 17.03 -4 14.06 -4 11 C-2.35 11 -0.7 11 1 11 C1 10.01 1 9.02 1 8 C-0.65 8 -2.3 8 -4 8 C-4 5.69 -4 3.38 -4 1 C-3.67 1.66 -3.34 2.32 -3 3 C-2.34 3 -1.68 3 -1 3 C-0.67 2.01 -0.34 1.02 0 0 Z " fill="#464646" transform="translate(74,179)"/>
<path d="M0 0 C3.96 0 7.92 0 12 0 C11.01 0.495 11.01 0.495 10 1 C9.59270772 3.32156597 9.25561323 5.6568787 9 8 C7.41531323 7.54636829 5.83230076 7.08688548 4.25 6.625 C3.36828125 6.36976562 2.4865625 6.11453125 1.578125 5.8515625 C-0.76080572 5.0790066 -2.83442562 4.16374324 -5 3 C-3.68 3 -2.36 3 -1 3 C-0.67 2.01 -0.34 1.02 0 0 Z " fill="#24ABD9" transform="translate(185,16)"/>
<path d="M0 0 C0.99 0 1.98 0 3 0 C3 5.28 3 10.56 3 16 C4.32 16.33 5.64 16.66 7 17 C5.02 17.99 5.02 17.99 3 19 C2.34 18.34 1.68 17.68 1 17 C-2.35744112 16.75622117 -2.35744112 16.75622117 -6.125 16.875 C-7.40632812 16.89304688 -8.68765625 16.91109375 -10.0078125 16.9296875 C-10.99523437 16.95289063 -11.98265625 16.97609375 -13 17 C-13 16.67 -13 16.34 -13 16 C-8.71 16 -4.42 16 0 16 C0 10.72 0 5.44 0 0 Z " fill="#0C0C0C" transform="translate(187,188)"/>
<path d="M0 0 C0.03738281 0.67546875 0.07476562 1.3509375 0.11328125 2.046875 C0.17902344 2.93890625 0.24476563 3.8309375 0.3125 4.75 C0.37050781 5.63171875 0.42851562 6.5134375 0.48828125 7.421875 C1.06666901 10.33588968 2.2266075 11.67488539 4 14 C3.1875 16.75 3.1875 16.75 2 19 C-0.32500208 17.83749896 -1.45047158 17.10823163 -3 15 C-3.29296875 11.64453125 -3.29296875 11.64453125 -3.1875 7.8125 C-3.16042969 6.54019531 -3.13335937 5.26789063 -3.10546875 3.95703125 C-3.07066406 2.98121094 -3.03585938 2.00539062 -3 1 C-1 0 -1 0 0 0 Z " fill="#292929" transform="translate(170,189)"/>
<path d="M0 0 C1.65 0 3.3 0 5 0 C5 4.29 5 8.58 5 13 C3.35 13.33 1.7 13.66 0 14 C0 9.38 0 4.76 0 0 Z " fill="#0F0F0F" transform="translate(27,191)"/>
<path d="M0 0 C1.65 0 3.3 0 5 0 C5 1.65 5 3.3 5 5 C3.68 5.33 2.36 5.66 1 6 C0.67 11.94 0.34 17.88 0 24 C-0.33 24 -0.66 24 -1 24 C-1 20.04 -1 16.08 -1 12 C-1.66 12 -2.32 12 -3 12 C-3 11.34 -3 10.68 -3 10 C-3.66 10 -4.32 10 -5 10 C-5 9.34 -5 8.68 -5 8 C-4.34 8 -3.68 8 -3 8 C-2.67 7.01 -2.34 6.02 -2 5 C-1.34 5 -0.68 5 0 5 C0 3.35 0 1.7 0 0 Z " fill="#454545" transform="translate(220,180)"/>
<path d="M0 0 C0.33 0.66 0.66 1.32 1 2 C1.66 2.33 2.32 2.66 3 3 C2.83628906 4.093125 2.67257812 5.18625 2.50390625 6.3125 C1.84990093 11.54454258 1.89029598 16.73493662 1.9375 22 C1.94201172 22.96550781 1.94652344 23.93101563 1.95117188 24.92578125 C1.96284583 27.28392089 1.97921979 29.64192602 2 32 C1.67 32 1.34 32 1 32 C0.67 35.3 0.34 38.6 0 42 C-0.33 42 -0.66 42 -1 42 C-1.19058861 27.981149 -0.60272612 14.00376437 0 0 Z " fill="#64CBEF" transform="translate(5,30)"/>
<path d="M0 0 C1.65 0 3.3 0 5 0 C5 4.62 5 9.24 5 14 C4.34 13.01 3.68 12.02 3 11 C2.01 11.99 1.02 12.98 0 14 C0 9.38 0 4.76 0 0 Z " fill="#0F0F0F" transform="translate(17,191)"/>
<path d="M0 0 C1.65 0 3.3 0 5 0 C5 4.29 5 8.58 5 13 C3.35 12.67 1.7 12.34 0 12 C0 8.04 0 4.08 0 0 Z " fill="#131313" transform="translate(157,191)"/>
<path d="M0 0 C0.99 0.33 1.98 0.66 3 1 C3 9.58 3 18.16 3 27 C2.67 27 2.34 27 2 27 C2 24.36 2 21.72 2 19 C1.34 19 0.68 19 0 19 C0 12.73 0 6.46 0 0 Z " fill="#055F97" transform="translate(233,53)"/>
<path d="M0 0 C10.56 0 21.12 0 32 0 C32 0.66 32 1.32 32 2 C27.75121826 2.84919949 24.03906058 3.02308926 19.7265625 2.66015625 C18.57285156 2.56669922 17.41914062 2.47324219 16.23046875 2.37695312 C15.04066406 2.27318359 13.85085937 2.16941406 12.625 2.0625 C11.41199219 1.96259766 10.19898438 1.86269531 8.94921875 1.75976562 C5.96553235 1.51308289 2.98258408 1.25961764 0 1 C0 0.67 0 0.34 0 0 Z " fill="#29A3D1" transform="translate(32,157)"/>
<path d="M0 0 C0.91007812 0.00902344 1.82015625 0.01804688 2.7578125 0.02734375 C3.45648438 0.03894531 4.15515625 0.05054688 4.875 0.0625 C4.875 0.3925 4.875 0.7225 4.875 1.0625 C2.235 1.3925 -0.405 1.7225 -3.125 2.0625 C-3.125 2.3925 -3.125 2.7225 -3.125 3.0625 C-0.485 3.3925 2.155 3.7225 4.875 4.0625 C4.875 5.0525 4.875 6.0425 4.875 7.0625 C3.616875 7.10375 2.35875 7.145 1.0625 7.1875 C0.35480469 7.21070313 -0.35289063 7.23390625 -1.08203125 7.2578125 C-3.125 7.0625 -3.125 7.0625 -6.125 5.0625 C-7.115 5.5575 -7.115 5.5575 -8.125 6.0625 C-7.75 3.625 -7.75 3.625 -7.125 1.0625 C-4.60024538 -0.19987731 -2.81299534 -0.03606404 0 0 Z " fill="#E2E2E2" transform="translate(49.125,192.9375)"/>
<path d="M0 0 C2.97 0.495 2.97 0.495 6 1 C6 3.97 6 6.94 6 10 C3.03 9.505 3.03 9.505 0 9 C0 6.03 0 3.06 0 0 Z " fill="#181818" transform="translate(71,191)"/>
<path d="M0 0 C0 4.29 0 8.58 0 13 C-1.32 13 -2.64 13 -4 13 C-4.08086147 11.20906809 -4.13912702 9.41710372 -4.1875 7.625 C-4.22230469 6.62726563 -4.25710937 5.62953125 -4.29296875 4.6015625 C-4.14794922 3.31378906 -4.14794922 3.31378906 -4 2 C-1 0 -1 0 0 0 Z " fill="#FDFDFD" transform="translate(167,191)"/>
<path d="M0 0 C2.31 0.33 4.62 0.66 7 1 C7 2.32 7 3.64 7 5 C6.01 5.495 6.01 5.495 5 6 C4.5316735 8.58605332 4.5316735 8.58605332 4.375 11.5625 C4.26285156 13.08037109 4.26285156 13.08037109 4.1484375 14.62890625 C4.09945312 15.41136719 4.05046875 16.19382813 4 17 C3.67 17 3.34 17 3 17 C3 12.71 3 8.42 3 4 C1.02 4 -0.96 4 -3 4 C-2.01 3.67 -1.02 3.34 0 3 C0 2.01 0 1.02 0 0 Z " fill="#E5E5E5" transform="translate(159,187)"/>
<path d="M0 0 C0.99 0 1.98 0 3 0 C3 4.62 3 9.24 3 14 C4.98 14 6.96 14 9 14 C9 14.33 9 14.66 9 15 C7.41870971 15.22331199 5.83478911 15.42804644 4.25 15.625 C3.36828125 15.74101562 2.4865625 15.85703125 1.578125 15.9765625 C-1.22859878 16.00207817 -2.63384866 15.44843844 -5 14 C-3.35 14 -1.7 14 0 14 C0 9.38 0 4.76 0 0 Z " fill="#060606" transform="translate(94,190)"/>
<path d="M0 0 C6.0546875 -0.1953125 6.0546875 -0.1953125 8 0 C8.66 0.66 9.32 1.32 10 2 C7.39048764 3.30475618 5.47298715 3.11301572 2.5546875 3.09765625 C0.94013672 3.09282227 0.94013672 3.09282227 -0.70703125 3.08789062 C-1.83496094 3.07951172 -2.96289062 3.07113281 -4.125 3.0625 C-5.26066406 3.05798828 -6.39632812 3.05347656 -7.56640625 3.04882812 C-10.37765638 3.03701615 -13.1888023 3.02054507 -16 3 C-16 2.67 -16 2.34 -16 2 C-10.72 2 -5.44 2 0 2 C0 1.34 0 0.68 0 0 Z " fill="#095783" transform="translate(128,171)"/>
<path d="M0 0 C1.98 0.66 3.96 1.32 6 2 C6 4.64 6 7.28 6 10 C5.01 10 4.02 10 3 10 C-0.22265625 4.82421875 -0.22265625 4.82421875 -1 3 C-0.67 2.01 -0.34 1.02 0 0 Z " fill="#178ABC" transform="translate(210,32)"/>
<path d="M0 0 C2.49415718 2.49415718 2.67218669 4.5887947 3.046875 8.0234375 C2.98156312 10.77742178 1.95188553 12.12618989 0 14 C-2.23150482 9.66825536 -1.97917594 6.71784771 -1 2 C-0.67 1.34 -0.34 0.68 0 0 Z " fill="#1571A3" transform="translate(234,42)"/>
<path d="M0 0 C1.65 0 3.3 0 5 0 C5 2.64 5 5.28 5 8 C3.35 8 1.7 8 0 8 C0 5.36 0 2.72 0 0 Z " fill="#080808" transform="translate(116,192)"/>
<path d="M0 0 C1.65 0 3.3 0 5 0 C5 2.64 5 5.28 5 8 C3.35 8 1.7 8 0 8 C0 5.36 0 2.72 0 0 Z " fill="#131313" transform="translate(176,192)"/>
<path d="M0 0 C1.65 0 3.3 0 5 0 C4.67 3.3 4.34 6.6 4 10 C2.68 9.67 1.36 9.34 0 9 C0 6.03 0 3.06 0 0 Z " fill="#1A1A1A" transform="translate(84,191)"/>
<path d="M0 0 C0.99 0.33 1.98 0.66 3 1 C3 3.64 3 6.28 3 9 C1.35 9.33 -0.3 9.66 -2 10 C-1.85950482 8.52031676 -1.71245174 7.04125484 -1.5625 5.5625 C-1.48128906 4.73878906 -1.40007813 3.91507812 -1.31640625 3.06640625 C-1 1 -1 1 0 0 Z " fill="#E36219" transform="translate(58,118)"/>
<path d="M0 0 C0.99 0.33 1.98 0.66 3 1 C3 4.96 3 8.92 3 13 C2.01 13.495 2.01 13.495 1 14 C-0.76667664 10.46664672 -1.06486811 8.16398887 -0.5625 4.3125 C-0.46066406 3.50425781 -0.35882813 2.69601563 -0.25390625 1.86328125 C-0.17011719 1.24839844 -0.08632812 0.63351563 0 0 Z " fill="#0B0B0B" transform="translate(148,191)"/>
<path d="M0 0 C5.45769811 -0.11138159 10.61509359 0.08342019 16 1 C16 1.66 16 2.32 16 3 C10.72 3 5.44 3 0 3 C0 2.01 0 1.02 0 0 Z " fill="#107DB3" transform="translate(88,168)"/>
<path d="M0 0 C4 2 4 2 5.046875 4.20703125 C5.27890625 5.06683594 5.5109375 5.92664062 5.75 6.8125 C6.11351562 8.09060547 6.11351562 8.09060547 6.484375 9.39453125 C7.0004137 12.00209044 7.09516664 14.34960919 7 17 C6.34 16.34 5.68 15.68 5 15 C5 13.68 5 12.36 5 11 C4.34 11 3.68 11 3 11 C2.01 7.37 1.02 3.74 0 0 Z " fill="#0C5273" transform="translate(212,41)"/>
<path d="M0 0 C0.99 0 1.98 0 3 0 C3 4.29 3 8.58 3 13 C2.01 12.67 1.02 12.34 0 12 C0 8.04 0 4.08 0 0 Z " fill="#1A1A1A" transform="translate(196,191)"/>
<path d="M0 0 C0.33 0.66 0.66 1.32 1 2 C1.66 2 2.32 2 3 2 C3 5.63 3 9.26 3 13 C2.01 13.33 1.02 13.66 0 14 C0 9.38 0 4.76 0 0 Z " fill="#0C0C0C" transform="translate(216,190)"/>
<path d="M0 0 C0.33 4.62 0.66 9.24 1 14 C0.01 14 -0.98 14 -2 14 C-2.33 9.71 -2.66 5.42 -3 1 C-1 0 -1 0 0 0 Z " fill="#131313" transform="translate(170,189)"/>
<path d="M0 0 C2.475 0.99 2.475 0.99 5 2 C4.67 3.32 4.34 4.64 4 6 C0.7 5.01 -2.6 4.02 -6 3 C-4.68 2.67 -3.36 2.34 -2 2 C-1.34 1.34 -0.68 0.68 0 0 Z " fill="#30A5D4" transform="translate(190,18)"/>
<path d="M0 0 C5.02254631 -0.2954439 7.89542386 0.01485372 12 3 C10.68 3.99 9.36 4.98 8 6 C7.01 5.34 6.02 4.68 5 4 C5 3.34 5 2.68 5 2 C3.35 1.67 1.7 1.34 0 1 C0 0.67 0 0.34 0 0 Z " fill="#DDDDDD" transform="translate(135,186)"/>
<path d="M0 0 C1.32 0.66 2.64 1.32 4 2 C4 4.31 4 6.62 4 9 C1.4375 6.75 1.4375 6.75 -1 4 C-0.8125 1.6875 -0.8125 1.6875 0 0 Z " fill="#1C98C9" transform="translate(204,24)"/>
<path d="M0 0 C1.65 1.65 3.3 3.3 5 5 C4 6 4 6 0.9375 6.0625 C-0.5165625 6.0315625 -0.5165625 6.0315625 -2 6 C-2 4.35 -2 2.7 -2 1 C-1.34 0.67 -0.68 0.34 0 0 Z " fill="#1694C5" transform="translate(218,18)"/>
<path d="M0 0 C3.82097239 0.53069061 6.06171403 1.49701566 9 4 C6.03 3.505 6.03 3.505 3 3 C2.34 4.32 1.68 5.64 1 7 C0.67 7 0.34 7 0 7 C0 4.69 0 2.38 0 0 Z " fill="#33A6D6" transform="translate(200,7)"/>
<path d="M0 0 C2.64 0 5.28 0 8 0 C8 0.99 8 1.98 8 3 C5.36 3 2.72 3 0 3 C0 2.01 0 1.02 0 0 Z " fill="#1A1A1A" transform="translate(46,197)"/>
<path d="M0 0 C2.97 0 5.94 0 9 0 C8.67 0.99 8.34 1.98 8 3 C5.36 3 2.72 3 0 3 C0 2.01 0 1.02 0 0 Z " fill="#FDFDFD" transform="translate(45,194)"/>
<path d="M0 0 C2.97 0 5.94 0 9 0 C8.67 0.99 8.34 1.98 8 3 C5.36 3 2.72 3 0 3 C0 2.01 0 1.02 0 0 Z " fill="#F7F7F7" transform="translate(42,187)"/>
<path d="M0 0 C1.65 0 3.3 0 5 0 C5 1.65 5 3.3 5 5 C3.35 5 1.7 5 0 5 C0 3.35 0 1.7 0 0 Z " fill="#E8E8E8" transform="translate(220,180)"/>
<path d="M0 0 C1.32 0.33 2.64 0.66 4 1 C3.67 1.33 3.34 1.66 3 2 C2.72046781 4.0587768 2.55265649 6.11728432 2.37890625 8.1875 C2.25386719 8.785625 2.12882813 9.38375 2 10 C1.01 10.495 1.01 10.495 0 11 C0 7.37 0 3.74 0 0 Z " fill="#1E1E1E" transform="translate(207,191)"/>
<path d="M0 0 C1.23104155 3.68400584 0.90767252 6.91474976 0.5625 10.75 C0.46066406 11.92046875 0.35882813 13.0909375 0.25390625 14.296875 C0.17011719 15.18890625 0.08632812 16.0809375 0 17 C-0.33 17 -0.66 17 -1 17 C-1 12.71 -1 8.42 -1 4 C-1.66 4 -2.32 4 -3 4 C-3 3.34 -3 2.68 -3 2 C-2.01 1.34 -1.02 0.68 0 0 Z " fill="#202020" transform="translate(96,186)"/>
<path d="M0 0 C1.65 0.33 3.3 0.66 5 1 C5 2.65 5 4.3 5 6 C2.36 5.01 -0.28 4.02 -3 3 C-2.01 2.67 -1.02 2.34 0 2 C0 1.34 0 0.68 0 0 Z " fill="#E4E9EA" transform="translate(171,57)"/>
<path d="M0 0 C0.33 0.66 0.66 1.32 1 2 C1.99 2.33 2.98 2.66 4 3 C3.01 4.485 3.01 4.485 2 6 C0.68 6 -0.64 6 -2 6 C-2 4.35 -2 2.7 -2 1 C-1.34 0.67 -0.68 0.34 0 0 Z " fill="#212121" transform="translate(139,194)"/>
<path d="M0 0 C2.475 0.495 2.475 0.495 5 1 C4.2884375 1.804375 4.2884375 1.804375 3.5625 2.625 C1.71813924 5.42842836 1.37543153 7.69620258 1 11 C0.67 11 0.34 11 0 11 C0 7.37 0 3.74 0 0 Z " fill="#090909" transform="translate(38,192)"/>
<path d="M0 0 C1.5 1.375 1.5 1.375 3 3 C3 3.66 3 4.32 3 5 C1.68 5 0.36 5 -1 5 C-1 5.66 -1 6.32 -1 7 C-2.32 6.67 -3.64 6.34 -5 6 C-5 5.34 -5 4.68 -5 4 C-4.360625 3.71125 -3.72125 3.4225 -3.0625 3.125 C-0.84793921 2.17176549 -0.84793921 2.17176549 0 0 Z " fill="#054B7B" transform="translate(221,153)"/>
<path d="M0 0 C1.32 0 2.64 0 4 0 C4 0.99 4 1.98 4 3 C2.35 3.33 0.7 3.66 -1 4 C-1 4.66 -1 5.32 -1 6 C-1.66 6 -2.32 6 -3 6 C-1.125 1.125 -1.125 1.125 0 0 Z " fill="#2A2A2A" transform="translate(220,176)"/>
<path d="M0 0 C2.475 0.99 2.475 0.99 5 2 C4.01 2.66 3.02 3.32 2 4 C1.34 3.67 0.68 3.34 0 3 C0 5.64 0 8.28 0 11 C-0.33 11 -0.66 11 -1 11 C-1.02688151 9.35425434 -1.04634123 7.70838587 -1.0625 6.0625 C-1.07410156 5.14597656 -1.08570313 4.22945312 -1.09765625 3.28515625 C-1 1 -1 1 0 0 Z " fill="#F1F3F0" transform="translate(209,45)"/>
<path d="M0 0 C2.97 0.495 2.97 0.495 6 1 C5.67 1.99 5.34 2.98 5 4 C2.69 4 0.38 4 -2 4 C-1.34 2.68 -0.68 1.36 0 0 Z " fill="#1DA1D4" transform="translate(203,10)"/>
<path d="M0 0 C0.33 0.66 0.66 1.32 1 2 C1.66 2 2.32 2 3 2 C3 3.65 3 5.3 3 7 C1.68 7 0.36 7 -1 7 C-0.67 4.69 -0.34 2.38 0 0 Z " fill="#202020" transform="translate(117,193)"/>
<path d="M0 0 C0.66 0 1.32 0 2 0 C2 3.96 2 7.92 2 12 C1.67 12 1.34 12 1 12 C0.8046875 9.98177083 0.609375 7.96354167 0.4140625 5.9453125 C0.13625251 3.77331755 0.13625251 3.77331755 -2 2 C-1.34 2 -0.68 2 0 2 C0 1.34 0 0.68 0 0 Z " fill="#1B1B1B" transform="translate(149,180)"/>
<path d="M0 0 C1.9375 0.75 1.9375 0.75 4 2 C4.75 4.125 4.75 4.125 5 6 C4.01 6.33 3.02 6.66 2 7 C1.34 4.69 0.68 2.38 0 0 Z " fill="#105E85" transform="translate(212,41)"/>
<path d="M0 0 C0.99 0.33 1.98 0.66 3 1 C4.1875 4.0625 4.1875 4.0625 5 7 C4.01 7.495 4.01 7.495 3 8 C1.02 4.535 1.02 4.535 -1 1 C-0.67 0.67 -0.34 0.34 0 0 Z " fill="#EDF3F5" transform="translate(228,26)"/>
<path d="M0 0 C2.475 0.495 2.475 0.495 5 1 C5 2.98 5 4.96 5 7 C4.34 7 3.68 7 3 7 C3 5.35 3 3.7 3 2 C2.01 2 1.02 2 0 2 C0 1.34 0 0.68 0 0 Z " fill="#42BDE9" transform="translate(16,113)"/>
<path d="M0 0 C0.66 0.33 1.32 0.66 2 1 C2 1.99 2 2.98 2 4 C-3.75 3.25 -3.75 3.25 -6 1 C-4.7934375 1.0309375 -4.7934375 1.0309375 -3.5625 1.0625 C-1.06645115 1.29633621 -1.06645115 1.29633621 0 0 Z " fill="#247CA4" transform="translate(174,62)"/>
<path d="M0 0 C4.875 4.625 4.875 4.625 6 8 C5.01 8.495 5.01 8.495 4 9 C0 2.25 0 2.25 0 0 Z " fill="#277698" transform="translate(207,33)"/>
<path d="M0 0 C3.91402949 1.26941497 5.79072873 2.51167694 8 6 C7.67 6.66 7.34 7.32 7 8 C5.83035398 6.8572081 4.66435444 5.71068285 3.5 4.5625 C2.8503125 3.92441406 2.200625 3.28632813 1.53125 2.62890625 C0 1 0 1 0 0 Z " fill="#288DAF" transform="translate(199,26)"/>
<path d="M0 0 C-0.33 1.98 -0.66 3.96 -1 6 C-2.65 4.68 -4.3 3.36 -6 2 C-2.25 0 -2.25 0 0 0 Z " fill="#ECF2F8" transform="translate(216,9)"/>
</svg>
