<?xml version="1.0" encoding="UTF-8"?>
<svg version="1.1" xmlns="http://www.w3.org/2000/svg" width="500" height="500">
<path d="M0 0 C2.77091418 0.00314547 5.54074136 -0.02033576 8.31152344 -0.0456543 C60.95522762 -0.23111921 111.28044085 20.18607338 151.92089844 52.87817383 C152.91379883 53.67348511 152.91379883 53.67348511 153.92675781 54.48486328 C158.45924332 58.17347454 162.60285824 62.12424098 166.67089844 66.31567383 C167.55777344 67.20254883 168.44464844 68.08942383 169.35839844 69.00317383 C170.12152344 69.76629883 170.88464844 70.52942383 171.67089844 71.31567383 C172.43402344 72.03754883 173.19714844 72.75942383 173.98339844 73.50317383 C175.67089844 75.31567383 175.67089844 75.31567383 175.67089844 77.31567383 C176.26491455 77.5723584 176.85893066 77.82904297 177.47094727 78.09350586 C179.87814115 79.43080611 181.1369089 80.74494752 182.87011719 82.87036133 C183.43923828 83.56774414 184.00835937 84.26512695 184.59472656 84.98364258 C185.17673828 85.71196289 185.75875 86.4402832 186.35839844 87.19067383 C186.95201172 87.91125977 187.545625 88.6318457 188.15722656 89.37426758 C192.92627824 95.27984354 192.92627824 95.27984354 193.67089844 99.31567383 C194.33089844 99.31567383 194.99089844 99.31567383 195.67089844 99.31567383 C197.03123706 101.31263892 198.27104137 103.29365028 199.48339844 105.37817383 C201.60998004 108.96909402 203.72520659 112.44318725 206.19824219 115.80395508 C208.63819841 119.17145932 210.59652758 122.70845786 212.42089844 126.44067383 C212.75452393 127.11735107 213.08814941 127.79402832 213.43188477 128.49121094 C226.65811498 155.71160655 236.02800752 184.00823637 238.67089844 214.31567383 C238.83525391 215.91475586 238.83525391 215.91475586 239.00292969 217.54614258 C242.49278563 256.49293488 236.66736997 294.91459401 222.67089844 331.31567383 C222.40809082 332.00048828 222.1452832 332.68530273 221.87451172 333.39086914 C210.91542174 361.42915546 193.58027212 386.80632801 172.67089844 408.31567383 C172.1565625 408.85047363 171.64222656 409.38527344 171.11230469 409.9362793 C164.58561401 416.70914503 164.58561401 416.70914503 161.67089844 419.31567383 C161.01089844 419.31567383 160.35089844 419.31567383 159.67089844 419.31567383 C159.44015625 419.88930664 159.20941406 420.46293945 158.97167969 421.05395508 C154.52724251 428.78167016 143.94531521 434.32961141 136.61621094 439.27270508 C133.67858509 441.25687571 133.67858509 441.25687571 131.07714844 443.41333008 C128.79663758 445.21626642 126.60860597 446.58001804 124.04589844 447.94067383 C123.08941406 448.44856445 122.13292969 448.95645508 121.14746094 449.47973633 C120.00019531 450.0855957 118.85292969 450.69145508 117.67089844 451.31567383 C116.19905371 452.1142495 114.72773571 452.91379646 113.25683594 453.71411133 C103.59764107 458.93417422 94.01012889 463.57831577 83.67089844 467.31567383 C82.68549072 467.68619873 82.68549072 467.68619873 81.68017578 468.06420898 C72.33944951 471.56006269 62.94520959 474.08117442 53.17089844 476.06567383 C52.19975098 476.26427002 51.22860352 476.46286621 50.22802734 476.66748047 C34.72466943 479.64987796 19.30858245 480.69924006 3.54589844 480.62817383 C2.69916565 480.62635101 1.85243286 480.6245282 0.9800415 480.62265015 C-22.87789925 480.53660438 -51.50894618 479.22575152 -73.32910156 468.31567383 C-73.65910156 467.32567383 -73.98910156 466.33567383 -74.32910156 465.31567383 C-73.78495605 465.08904053 -73.24081055 464.86240723 -72.68017578 464.62890625 C-70.18723913 463.58916667 -67.69566614 462.54619683 -65.20410156 461.50317383 C-64.34816406 461.14674805 -63.49222656 460.79032227 -62.61035156 460.4230957 C-47.44340347 454.06464439 -34.46815808 445.52777143 -22.14160156 434.69067383 C-19.32910156 432.31567383 -19.32910156 432.31567383 -17.32910156 432.31567383 C-17.08933594 431.7562207 -16.84957031 431.19676758 -16.60253906 430.62036133 C-15.05559798 427.82068269 -13.14107675 425.77296298 -10.95410156 423.44067383 C-8.36355447 420.62974311 -5.9220919 417.93328198 -3.89160156 414.69067383 C-3.11816406 413.51504883 -3.11816406 413.51504883 -2.32910156 412.31567383 C-1.66910156 412.31567383 -1.00910156 412.31567383 -0.32910156 412.31567383 C-0.25046875 411.7974707 -0.17183594 411.27926758 -0.09082031 410.74536133 C0.98823737 407.303444 2.94338624 404.46578738 4.85839844 401.44067383 C9.24926341 394.30334196 12.62526026 387.13843544 15.67089844 379.31567383 C16.34958984 377.68952148 16.34958984 377.68952148 17.04199219 376.03051758 C20.98596086 366.02430627 22.49122833 355.95789351 23.67089844 345.31567383 C23.75887695 344.57865234 23.84685547 343.84163086 23.9375 343.08227539 C26.33739236 321.8524584 22.80933434 299.60222156 15.29589844 279.69067383 C14.99208252 278.87453613 14.6882666 278.05839844 14.37524414 277.2175293 C12.43640634 272.0959746 10.32143551 267.14704274 7.71386719 262.32348633 C6.52963705 260.04373242 5.59342539 257.71173931 4.67089844 255.31567383 C4.01089844 255.31567383 3.35089844 255.31567383 2.67089844 255.31567383 C2.38988281 256.03368164 2.10886719 256.75168945 1.81933594 257.49145508 C0.71704708 260.20218583 -0.47299125 262.84883727 -1.70410156 265.50317383 C-3.29209167 268.97459406 -4.81129758 272.4491223 -6.20410156 276.00317383 C-7.96575645 280.49324543 -9.88277473 284.90359068 -11.82910156 289.31567383 C-14.03309624 294.31737828 -16.16784823 299.32874144 -18.16503906 304.41723633 C-19.8582368 308.63318506 -21.62650899 312.81690486 -23.39160156 317.00317383 C-23.73247803 317.81181885 -24.07335449 318.62046387 -24.42456055 319.45361328 C-24.75528564 320.23696045 -25.08601074 321.02030762 -25.42675781 321.82739258 C-25.74531738 322.58842285 -26.06387695 323.34945313 -26.39208984 324.13354492 C-26.99528426 325.5382744 -27.62223046 326.93316048 -28.27783203 328.31420898 C-29.91758641 331.77852413 -29.91758641 331.77852413 -30.14550781 335.53833008 C-29.3020966 337.37446454 -28.3327383 339.03741972 -27.26660156 340.75317383 C-24.07310188 347.02319519 -24.24723957 354.23134093 -26.02441406 360.94067383 C-28.40529848 366.86287371 -31.72781949 371.61472226 -37.58691406 374.38208008 C-45.09575489 377.00664357 -51.480182 376.42468455 -59.01660156 374.25317383 C-64.47931329 371.05800282 -68.88387436 366.20900943 -71.32910156 360.31567383 C-72.96125996 352.57608399 -72.43382463 346.21330915 -68.64160156 339.19067383 C-64.02138875 333.44662547 -59.7907778 329.64811601 -52.32910156 328.31567383 C-45.95596723 328.00224099 -45.95596723 328.00224099 -43.32910156 329.31567383 C-42.90951172 328.22125977 -42.90951172 328.22125977 -42.48144531 327.10473633 C-38.80717048 318.21174573 -33.41412267 309.97186378 -28.58496094 301.66577148 C-24.76356506 295.08751143 -21.01636726 288.47030767 -17.30175781 281.83129883 C-15.67506106 278.92497124 -14.02644779 276.03161791 -12.37133789 273.14135742 C-10.44683083 269.7702017 -8.54484308 266.38636592 -6.64160156 263.00317383 C-6.23876953 262.28838867 -5.8359375 261.57360352 -5.42089844 260.8371582 C-3.31347037 257.1094159 -3.31347037 257.1094159 -1.32910156 253.31567383 C-33.31340066 253.41393588 -63.59981822 269.73738744 -86.32910156 291.31567383 C-86.84351807 291.86739258 -87.35793457 292.41911133 -87.88793945 292.98754883 C-89.32910156 294.31567383 -89.32910156 294.31567383 -91.32910156 294.31567383 C-91.73128906 295.18192383 -91.73128906 295.18192383 -92.14160156 296.06567383 C-93.35839345 298.37117425 -94.63244035 300.33623575 -96.32910156 302.31567383 C-96.98910156 302.31567383 -97.64910156 302.31567383 -98.32910156 302.31567383 C-98.69068359 303.35981445 -98.69068359 303.35981445 -99.05957031 304.42504883 C-100.55071926 307.82028027 -102.47805512 310.55488987 -104.64160156 313.56567383 C-124.52960032 341.7486072 -131.00164353 377.0967869 -127.14160156 411.00317383 C-127.01430664 412.1356958 -126.88701172 413.26821777 -126.75585938 414.43505859 C-125.76080181 422.50065513 -124.02888917 429.82458269 -121.21972656 437.43676758 C-120.32910156 440.31567383 -120.32910156 440.31567383 -121.32910156 443.31567383 C-126.07380482 442.8412035 -128.99079419 440.60680606 -132.57910156 437.69067383 C-133.14830322 437.23990479 -133.71750488 436.78913574 -134.30395508 436.32470703 C-135.44999233 435.41676124 -136.59335531 434.50542866 -137.73388672 433.59057617 C-139.89030424 431.86715831 -142.07847856 430.1860596 -144.26660156 428.50317383 C-145.62229925 427.44262803 -146.97660045 426.38029318 -148.32910156 425.31567383 C-149.26109375 424.58864258 -149.26109375 424.58864258 -150.21191406 423.84692383 C-151.62375327 422.71745247 -152.98348445 421.52327893 -154.32910156 420.31567383 C-154.32910156 419.65567383 -154.32910156 418.99567383 -154.32910156 418.31567383 C-154.94785156 418.06817383 -155.56660156 417.82067383 -156.20410156 417.56567383 C-158.73268783 416.07827014 -159.04749161 414.87889374 -160.32910156 412.31567383 C-161.65430659 411.63299245 -162.98722338 410.96496972 -164.32910156 410.31567383 C-164.82410156 408.83067383 -164.82410156 408.83067383 -165.32910156 407.31567383 C-166.18761719 406.91155273 -166.18761719 406.91155273 -167.06347656 406.49926758 C-170.30702098 404.80479523 -172.29575945 402.16114704 -174.57910156 399.37817383 C-175.06217773 398.79769287 -175.54525391 398.21721191 -176.04296875 397.61914062 C-180.38140342 392.35566198 -184.41066106 386.89799564 -188.32910156 381.31567383 C-188.9465625 380.46102539 -189.56402344 379.60637695 -190.20019531 378.72583008 C-193.5338235 374.0730888 -196.53095503 369.39523517 -199.18847656 364.32348633 C-200.27289121 362.29256818 -200.27289121 362.29256818 -201.72363281 360.56958008 C-204.04635083 357.30873265 -205.60004554 353.75842072 -207.26660156 350.12817383 C-207.62214111 349.36150391 -207.97768066 348.59483398 -208.34399414 347.80493164 C-209.34385905 345.64402957 -210.33709744 343.48019254 -211.32910156 341.31567383 C-211.73644531 340.43782227 -212.14378906 339.5599707 -212.56347656 338.65551758 C-233.4472842 292.86520165 -239.90470853 236.03095035 -227.25878906 186.99145508 C-226.53072424 184.11284585 -225.94217222 181.30161748 -225.45410156 178.37817383 C-220.74464982 154.21663881 -208.64246639 129.80017194 -195.32910156 109.31567383 C-194.95736816 108.74316895 -194.58563477 108.17066406 -194.20263672 107.58081055 C-187.60262117 97.49795069 -180.35734936 88.29075594 -172.32910156 79.31567383 C-171.53503906 78.41075195 -170.74097656 77.50583008 -169.92285156 76.57348633 C-161.41158756 66.95336047 -152.44938241 58.23656233 -142.32910156 50.31567383 C-141.68714844 49.80649414 -141.04519531 49.29731445 -140.38378906 48.77270508 C-108.63206288 24.2372803 -71.85392743 8.77907681 -32.32910156 2.31567383 C-31.30655273 2.13093506 -30.28400391 1.94619629 -29.23046875 1.75585938 C-19.48176818 0.13802356 -9.86332387 -0.02330327 0 0 Z M1.65527344 198.02270508 C-3.93301319 204.48003628 -6.20266184 210.79763567 -5.81738281 219.35083008 C-4.62692495 226.57929025 -1.00178418 232.69837402 4.67089844 237.31567383 C5.17621094 237.77973633 5.68152344 238.24379883 6.20214844 238.72192383 C12.74655882 243.8885636 20.80374236 243.17627088 28.67089844 242.31567383 C34.9704956 240.68564108 39.66831373 236.31625048 43.67089844 231.31567383 C47.23543366 225.13714611 48.43854747 217.94392674 47.26855469 210.88989258 C45.101364 203.46502035 40.30867999 196.38885796 33.67089844 192.31567383 C21.56323313 187.68509322 11.20890192 188.72316246 1.65527344 198.02270508 Z " fill="#034479" transform="translate(247.3291015625,10.684326171875)"/>
<path d="M0 0 C1.70363822 0.22622081 3.41328701 0.40888473 5.125 0.5625 C6.03507812 0.64628906 6.94515625 0.73007812 7.8828125 0.81640625 C8.58148438 0.87699219 9.28015625 0.93757813 10 1 C10 1.66 10 2.32 10 3 C10.99 3.33 11.98 3.66 13 4 C13.66 3.01 14.32 2.02 15 1 C16.60725635 4.21451269 16.05748185 7.43612536 16 11 C16.99 11.495 16.99 11.495 18 12 C21.60412752 16.45215753 22.4560284 19.29964499 22 25 C19.91906437 22.91906437 19.24202355 21.49427967 18.125 18.8125 C16.82172905 15.7748008 15.43482292 12.9063855 13.75 10.0625 C12 7 12 7 12 5 C11.34 5 10.68 5 10 5 C9.71898437 5.71800781 9.43796875 6.43601562 9.1484375 7.17578125 C8.04614865 9.886512 6.85611031 12.53316344 5.625 15.1875 C4.03700989 18.65892024 2.51780398 22.13344847 1.125 25.6875 C-0.63665489 30.1775716 -2.55367317 34.58791685 -4.5 39 C-6.70399468 44.00170445 -8.83874667 49.01306761 -10.8359375 54.1015625 C-12.52913524 58.31751123 -14.29740743 62.50123103 -16.0625 66.6875 C-16.40337646 67.49614502 -16.74425293 68.30479004 -17.09545898 69.13793945 C-17.42618408 69.92128662 -17.75690918 70.70463379 -18.09765625 71.51171875 C-18.57549561 72.65326416 -18.57549561 72.65326416 -19.06298828 73.81787109 C-19.6661827 75.22260057 -20.29312889 76.61748665 -20.94873047 77.99853516 C-22.58848485 81.46285031 -22.58848485 81.46285031 -22.81640625 85.22265625 C-21.97299503 87.05879072 -21.00363674 88.72174589 -19.9375 90.4375 C-16.74400032 96.70752136 -16.91813801 103.9156671 -18.6953125 110.625 C-21.07619691 116.54719988 -24.39871793 121.29904843 -30.2578125 124.06640625 C-37.76665333 126.69096974 -44.15108044 126.10901072 -51.6875 123.9375 C-57.15021173 120.74232899 -61.5547728 115.8933356 -64 110 C-65.6321584 102.26041017 -65.10472307 95.89763532 -61.3125 88.875 C-56.69228719 83.13095164 -52.46167624 79.33244219 -45 78 C-38.62686567 77.68656716 -38.62686567 77.68656716 -36 79 C-35.72027344 78.27039063 -35.44054687 77.54078125 -35.15234375 76.7890625 C-31.47806892 67.8960719 -26.08502111 59.65618995 -21.25585938 51.35009766 C-17.43446349 44.7718376 -13.68726569 38.15463384 -9.97265625 31.515625 C-8.3459595 28.60929741 -6.69734623 25.71594408 -5.04223633 22.82568359 C-3.11772927 19.45452787 -1.21574152 16.0706921 0.6875 12.6875 C1.09033203 11.97271484 1.49316406 11.25792969 1.90820312 10.52148438 C4.0156312 6.79374207 4.0156312 6.79374207 6 3 C1.38 3 -3.24 3 -8 3 C-7.67 2.01 -7.34 1.02 -7 0 C-2.25 -1.125 -2.25 -1.125 0 0 Z " fill="#0A4679" transform="translate(240,261)"/>
<path d="M0 0 C1.70363822 0.22622081 3.41328701 0.40888473 5.125 0.5625 C6.03507812 0.64628906 6.94515625 0.73007812 7.8828125 0.81640625 C8.58148438 0.87699219 9.28015625 0.93757813 10 1 C10 1.66 10 2.32 10 3 C10.99 3.33 11.98 3.66 13 4 C13.66 3.01 14.32 2.02 15 1 C16.60725635 4.21451269 16.05748185 7.43612536 16 11 C16.66 11.33 17.32 11.66 18 12 C21.60412752 16.45215753 22.4560284 19.29964499 22 25 C19.91906437 22.91906437 19.24202355 21.49427967 18.125 18.8125 C16.82172905 15.7748008 15.43482292 12.9063855 13.75 10.0625 C12 7 12 7 12 5 C11.34 5 10.68 5 10 5 C9.71898437 5.71800781 9.43796875 6.43601562 9.1484375 7.17578125 C8.04614865 9.886512 6.85611031 12.53316344 5.625 15.1875 C4.03700989 18.65892024 2.51780398 22.13344847 1.125 25.6875 C-0.63665166 30.17756338 -2.55353667 34.58798236 -4.5 39 C-6.72992812 44.05672084 -8.87451861 49.12706066 -10.890625 54.2734375 C-13.45410277 60.57381597 -16.25200792 66.77842242 -19 73 C-19.33 73 -19.66 73 -20 73 C-20.31563182 67.73946963 -19.66590937 64.55426184 -17 60 C-21.77187019 60 -22.65941835 60.74507429 -26 64 C-27.80979141 67.11662908 -27.80979141 67.11662908 -29 70 C-29.66 70 -30.32 70 -31 70 C-29.72710743 66.65363727 -28.28844127 63.57815253 -26.49609375 60.48046875 C-26.00689453 59.63049316 -25.51769531 58.78051758 -25.01367188 57.90478516 C-24.2334668 56.559729 -24.2334668 56.559729 -23.4375 55.1875 C-22.35241094 53.30364664 -21.26778017 51.41952924 -20.18359375 49.53515625 C-19.64589355 48.60203613 -19.10819336 47.66891602 -18.55419922 46.70751953 C-15.98684042 42.2350079 -13.46414837 37.73773878 -10.94311523 33.23901367 C-8.99273336 29.76014608 -7.02599767 26.29127464 -5.04443359 22.83007812 C-3.11954892 19.45725542 -1.21654342 16.07211755 0.6875 12.6875 C1.09033203 11.97271484 1.49316406 11.25792969 1.90820312 10.52148438 C4.0156312 6.79374207 4.0156312 6.79374207 6 3 C1.38 3 -3.24 3 -8 3 C-7.67 2.01 -7.34 1.02 -7 0 C-2.25 -1.125 -2.25 -1.125 0 0 Z " fill="#244A74" transform="translate(240,261)"/>
<path d="M0 0 C0.92035034 -0.00095673 1.84070068 -0.00191345 2.78894043 -0.00289917 C4.72176177 -0.00357527 6.65458545 -0.00176107 8.58740234 0.00244141 C11.52316453 0.00779775 14.45877375 0.0024769 17.39453125 -0.00390625 C19.2838545 -0.00324537 21.17317766 -0.001964 23.0625 0 C23.92838745 -0.00202423 24.7942749 -0.00404846 25.68640137 -0.00613403 C40.95019091 0.05175341 40.95019091 0.05175341 44.09375 3.1953125 C44.403125 3.8346875 44.7125 4.4740625 45.03125 5.1328125 C39.76563114 5.22580356 34.87891687 4.92113957 29.65625 4.1328125 C15.63517915 2.26824745 2.08589332 3.06501671 -11.96875 4.4453125 C-13.81182739 4.62163208 -13.81182739 4.62163208 -15.69213867 4.80151367 C-21.95848348 5.46859956 -27.73361072 6.46384335 -33.72070312 8.43041992 C-37.16715961 9.50725043 -40.65862545 10.06960967 -44.21875 10.6328125 C-45.69302606 10.88093198 -47.16698158 11.13096284 -48.640625 11.3828125 C-49.72827148 11.5684375 -49.72827148 11.5684375 -50.83789062 11.7578125 C-59.43373911 13.27055577 -67.75974826 15.16058773 -75.96875 18.1328125 C-75.96875 18.7928125 -75.96875 19.4528125 -75.96875 20.1328125 C-78.96875 21.1328125 -78.96875 21.1328125 -81.15625 20.1953125 C-82.0534375 19.669375 -82.0534375 19.669375 -82.96875 19.1328125 C-56.47296449 8.51177951 -28.81032628 -0.06735143 0 0 Z " fill="#3B5B7C" transform="translate(238.96875,10.8671875)"/>
<path d="M0 0 C0.99 0.495 0.99 0.495 2 1 C2 1.66 2 2.32 2 3 C1.01 3 0.02 3 -1 3 C-1.556875 3.5775 -2.11375 4.155 -2.6875 4.75 C-5.85899196 7.83577596 -10.41959993 11 -15 11 C-15.268125 11.61875 -15.53625 12.2375 -15.8125 12.875 C-17 15 -17 15 -20 17 C-20.66128906 17.1340625 -21.32257813 17.268125 -22.00390625 17.40625 C-24.60202217 18.17907509 -25.34281047 19.34429781 -26.9375 21.5 C-29.5387819 24.72872677 -30.87958287 25.36608967 -35 26 C-37.57624277 28.2695472 -39.65220998 30.50506804 -41.625 33.3125 C-42.07875 33.869375 -42.5325 34.42625 -43 35 C-43.99 35 -44.98 35 -46 35 C-46 35.66 -46 36.32 -46 37 C-46.804375 37.268125 -47.60875 37.53625 -48.4375 37.8125 C-49.7059375 38.4003125 -49.7059375 38.4003125 -51 39 C-51.33 39.99 -51.66 40.98 -52 42 C-54.31979381 43.03101947 -56.65429915 44.02936517 -59 45 C-60.88029239 46.53951047 -60.88029239 46.53951047 -62 48 C-62.66 47.67 -63.32 47.34 -64 47 C-56.703861 39.47466292 -49.29542556 32.44191641 -41 26 C-40.360625 25.49339844 -39.72125 24.98679687 -39.0625 24.46484375 C-27.13286355 15.23480176 -13.77864396 6.16463874 0 0 Z " fill="#446385" transform="translate(146,35)"/>
<path d="M0 0 C0.33 0 0.66 0 1 0 C1.02743793 1.9999203 1.04659055 3.99995477 1.0625 6 C1.07410156 7.11375 1.08570313 8.2275 1.09765625 9.375 C1 13 1 13 0.51367188 16.74023438 C-0.00520397 20.75528254 -0.20212409 24.73239618 -0.31640625 28.78125 C-0.33718735 29.48020386 -0.35796844 30.17915771 -0.37937927 30.89929199 C-0.44398535 33.09944259 -0.50333909 35.29969696 -0.5625 37.5 C-0.60577017 39.00521842 -0.64938693 40.51042693 -0.69335938 42.015625 C-0.79957319 45.67697744 -0.90108196 49.33844234 -1 53 C-0.34 53 0.32 53 1 53 C1.05534912 53.54938232 1.11069824 54.09876465 1.16772461 54.66479492 C1.42181253 57.17262423 1.67962299 59.68005761 1.9375 62.1875 C2.02451172 63.05181641 2.11152344 63.91613281 2.20117188 64.80664062 C2.55357024 68.21315818 2.9078047 71.54872825 3.59375 74.90625 C4.14834449 77.76454466 3.5909272 80.17668115 3 83 C3.66 83 4.32 83 5 83 C5.20496094 84.14339844 5.40992188 85.28679687 5.62109375 86.46484375 C5.8930231 87.95576676 6.16516974 89.44665016 6.4375 90.9375 C6.57220703 91.69224609 6.70691406 92.44699219 6.84570312 93.22460938 C7.24272034 96.91953174 7.24272034 96.91953174 9 100 C9.04063832 101.66617115 9.042721 103.33388095 9 105 C7.515 105.495 7.515 105.495 6 106 C-2.68117831 71.38962025 -5.22947288 35.48570882 0 0 Z " fill="#4F6C8A" transform="translate(17,211)"/>
<path d="M0 0 C1.70363822 0.22622081 3.41328701 0.40888473 5.125 0.5625 C6.03507813 0.64628906 6.94515625 0.73007812 7.8828125 0.81640625 C8.58148438 0.87699219 9.28015625 0.93757813 10 1 C10 1.66 10 2.32 10 3 C10.99 3.33 11.98 3.66 13 4 C13.66 3.01 14.32 2.02 15 1 C16.60725635 4.21451269 16.05748185 7.43612536 16 11 C16.66 11.33 17.32 11.66 18 12 C21.60412752 16.45215753 22.4560284 19.29964499 22 25 C19.91906437 22.91906437 19.24202355 21.49427967 18.125 18.8125 C16.82172905 15.7748008 15.43482292 12.9063855 13.75 10.0625 C12 7 12 7 12 5 C11.34 5 10.68 5 10 5 C9.7215625 5.71027344 9.443125 6.42054688 9.15625 7.15234375 C8.00386793 9.99047392 6.77127665 12.77576855 5.5 15.5625 C5.0771875 16.49191406 4.654375 17.42132813 4.21875 18.37890625 C3.18269045 20.60709842 2.11323357 22.80960988 1 25 C1 23.35 1 21.7 1 20 C0.34 19.67 -0.32 19.34 -1 19 C-1 19.99 -1 20.98 -1 22 C-1.99 22.33 -2.98 22.66 -4 23 C-2.34229667 18.50675151 -0.15017838 14.38813854 2.125 10.1875 C2.49753906 9.49462891 2.87007812 8.80175781 3.25390625 8.08789062 C4.16690377 6.39065164 5.08312716 4.69514862 6 3 C1.38 3 -3.24 3 -8 3 C-7.67 2.01 -7.34 1.02 -7 0 C-2.25 -1.125 -2.25 -1.125 0 0 Z " fill="#5F6D88" transform="translate(240,261)"/>
<path d="M0 0 C0.99 0.33 1.98 0.66 3 1 C1.72666891 7.59757041 -0.17807567 13.38369799 -2.9375 19.5 C-3.45860352 20.71429688 -3.45860352 20.71429688 -3.99023438 21.953125 C-4.33248047 22.72140625 -4.67472656 23.4896875 -5.02734375 24.28125 C-5.33406006 24.97283203 -5.64077637 25.66441406 -5.95678711 26.37695312 C-7 28 -7 28 -10 29 C-10.33 29.66 -10.66 30.32 -11 31 C-11 30.34 -11 29.68 -11 29 C-11.66 28.67 -12.32 28.34 -13 28 C-12.01 26.515 -12.01 26.515 -11 25 C-11.66 24.67 -12.32 24.34 -13 24 C-11.36716198 16.65222892 -7.96537908 7.87633167 -2 3 C-1.34 3 -0.68 3 0 3 C0 2.01 0 1.02 0 0 Z " fill="#3D5A80" transform="translate(239,280)"/>
<path d="M0 0 C0.66 0.33 1.32 0.66 2 1 C-1 3 -1 3 -4 3 C-4 3.66 -4 4.32 -4 5 C-3.03320312 5.10957031 -2.06640625 5.21914063 -1.0703125 5.33203125 C5.81312509 6.17031127 12.10633238 7.19972339 18.703125 9.40234375 C22.5117174 10.39335504 26.08641627 10.18936695 30 10 C30 10.66 30 11.32 30 12 C30.99128906 11.9690625 31.98257813 11.938125 33.00390625 11.90625 C37.16887055 12.00396177 40.88670399 12.61749096 44.9375 13.5 C45.96327148 13.71462891 45.96327148 13.71462891 47.00976562 13.93359375 C48.67449514 14.28283771 50.33744875 14.64052946 52 15 C50 17 50 17 46.78125 17.1875 C45.35345521 17.14419719 43.92621556 17.07988917 42.5 17 C41.72188965 16.95657471 40.9437793 16.91314941 40.14208984 16.8684082 C25.19877233 15.72836977 7.65337071 12.32642258 -6 6 C-6.33 5.01 -6.66 4.02 -7 3 C-4.69631264 1.93347808 -2.35981813 0.93578995 0 0 Z " fill="#2F5072" transform="translate(180,473)"/>
<path d="M0 0 C1.32 0 2.64 0 4 0 C4 0.99 4 1.98 4 3 C5.32 2.67 6.64 2.34 8 2 C8.33 2.66 8.66 3.32 9 4 C11.0478676 5.59326697 13.16268581 7.07042939 15.28515625 8.5625 C16.13400391 9.2740625 16.13400391 9.2740625 17 10 C17 10.66 17 11.32 17 12 C17.7425 12.061875 18.485 12.12375 19.25 12.1875 C22.85122777 13.25149912 23.96756296 14.91370672 26 18 C26 18.66 26 19.32 26 20 C27.32 19.67 28.64 19.34 30 19 C30.33 16.36 30.66 13.72 31 11 C33.57146057 13.57146057 33.80117997 15.6050417 34.625 19.125 C35.01558594 20.76855469 35.01558594 20.76855469 35.4140625 22.4453125 C35.60742188 23.28835938 35.80078125 24.13140625 36 25 C33.78515625 25.7109375 33.78515625 25.7109375 31 26 C28.74609375 24.6640625 28.74609375 24.6640625 26.4375 22.625 C22.65169717 19.39294146 18.82085349 16.32852363 14.8125 13.375 C10.38270186 10.0655121 6.0473017 6.77134932 2 3 C2 2.34 2 1.68 2 1 C1.34 0.67 0.68 0.34 0 0 Z " fill="#3A577A" transform="translate(91,428)"/>
<path d="M0 0 C-0.99 0.33 -1.98 0.66 -3 1 C-3 1.66 -3 2.32 -3 3 C-9.86005825 5.07689837 -16.78632518 6.6172488 -23.8125 8 C-24.67818604 8.17039795 -25.54387207 8.3407959 -26.43579102 8.51635742 C-28.15404829 8.85362765 -29.87238976 9.19046924 -31.59082031 9.52685547 C-40.2410592 11.22569647 -48.69435959 12.99278537 -57 16 C-57 16.66 -57 17.32 -57 18 C-60 19 -60 19 -62.1875 18.0625 C-63.0846875 17.5365625 -63.0846875 17.5365625 -64 17 C-19.87466513 -0.68796918 -19.87466513 -0.68796918 0 0 Z " fill="#2B4F75" transform="translate(220,13)"/>
<path d="M0 0 C0.33 0 0.66 0 1 0 C1.41006829 7.7912976 -0.47977152 13.51445479 -5 20 C-5.66 20 -6.32 20 -7 20 C-7.33 20.66 -7.66 21.32 -8 22 C-15.90435643 26.91109674 -25.0344617 26.99087777 -34 26 C-36.92721913 24.9725948 -38.55984983 23.95212014 -41 22 C-40.34 21.67 -39.68 21.34 -39 21 C-38.34 21.33 -37.68 21.66 -37 22 C-33.96554055 22.29123419 -30.92181768 22.27798167 -27.875 22.3125 C-27.04484375 22.34150391 -26.2146875 22.37050781 -25.359375 22.40039062 C-17.75219569 22.47789324 -12.3356797 20.26569654 -6.6875 15.1875 C-2.68741347 10.88305906 -0.87191496 5.75463872 0 0 Z " fill="#42607E" transform="translate(294,230)"/>
<path d="M0 0 C0.66 0 1.32 0 2 0 C3.26237731 2.52475462 3.09856404 4.31200466 3.0625 7.125 C3.05347656 8.03507812 3.04445313 8.94515625 3.03515625 9.8828125 C3.02355469 10.58148438 3.01195312 11.28015625 3 12 C3.66 12 4.32 12 5 12 C6.64363623 18.95013822 6.33216921 26.14553689 6.375 33.25 C6.38055908 34.01511902 6.38611816 34.78023804 6.3918457 35.56854248 C6.43416424 47.05651419 5.62569859 57.32785255 1 68 C-0.05128687 64.76470168 0.08098225 62.60277903 0.875 59.3125 C1.05804688 58.52488281 1.24109375 57.73726563 1.4296875 56.92578125 C2 55 2 55 3 54 C3.10036349 51.68273946 3.13081533 49.36240084 3.1328125 47.04296875 C3.13424759 45.99391106 3.13424759 45.99391106 3.13571167 44.92366028 C3.13639359 43.43990998 3.13453847 41.95615671 3.13037109 40.47241211 C3.1250469 38.20745057 3.13030315 35.94268951 3.13671875 33.67773438 C3.1360575 32.23697873 3.13477537 30.79622321 3.1328125 29.35546875 C3.13168457 28.04215576 3.13055664 26.72884277 3.12939453 25.37573242 C3.02502648 22.65290781 2.72650162 20.58283974 2 18 C1.93101758 15.40626086 1.90565248 12.84189803 1.9375 10.25 C1.94201172 9.55261719 1.94652344 8.85523438 1.95117188 8.13671875 C1.9628998 6.42444197 1.98083347 4.71220967 2 3 C1.34 3 0.68 3 0 3 C0 2.01 0 1.02 0 0 Z " fill="#0D3964" transform="translate(270,308)"/>
<path d="M0 0 C1 3 1 3 -0.5 6.4375 C-2.14792736 10.31887071 -2.14792736 10.31887071 -1 14 C-0.33154388 15.15704654 0.35723997 16.30251164 1.0625 17.4375 C4.27148904 23.73793269 4.14131167 31.05829922 2.19921875 37.765625 C0.55405613 41.70385212 -0.37382132 43.58254755 -4 46 C-4 44.68 -4 43.36 -4 42 C-3.34 42 -2.68 42 -2 42 C-2.33 39.69 -2.66 37.38 -3 35 C-0.525 34.505 -0.525 34.505 2 34 C1.67 31.36 1.34 28.72 1 26 C0.01 25.67 -0.98 25.34 -2 25 C-2.6953125 22.96875 -2.6953125 22.96875 -3.125 20.5 C-3.47887416 17.46069634 -3.47887416 17.46069634 -5 15 C-5.04092937 12.66702567 -5.04241723 10.33294775 -5 8 C-4.34 8 -3.68 8 -3 8 C-3.33 7.01 -3.66 6.02 -4 5 C-2.99500868 2.37156116 -2.55192629 1.27596315 0 0 Z " fill="#20466F" transform="translate(219,334)"/>
<path d="M0 0 C0 4.87615533 -3.04879284 8.26226829 -6 12 C-9.05720987 14.34623083 -10.16400921 15 -14 15 C-14 15.66 -14 16.32 -14 17 C-19.56962025 18.89873418 -19.56962025 18.89873418 -22.125 19.5 C-25.39944611 20.37318563 -27.60440063 21.60440063 -30 24 C-31.32 23.34 -32.64 22.68 -34 22 C-33.39414063 21.70867187 -32.78828125 21.41734375 -32.1640625 21.1171875 C-20.8183175 15.56649995 -9.02839338 9.02839338 0 0 Z " fill="#264D73" transform="translate(222,448)"/>
<path d="M0 0 C0.33 0 0.66 0 1 0 C3.59127907 22.2109635 3.59127907 43.7890365 1 66 C0.67 66 0.34 66 0 66 C-0.33 60.72 -0.66 55.44 -1 50 C-0.67 50 -0.34 50 0 50 C0 39.44 0 28.88 0 18 C-0.33 18 -0.66 18 -1 18 C-1.09706112 11.88514973 -0.77040851 6.06696699 0 0 Z " fill="#5B7396" transform="translate(484,218)"/>
<path d="M0 0 C5.28335591 2.64167796 8.95459617 6.80659359 13 11 C13.9075 11.9075 14.815 12.815 15.75 13.75 C16.4925 14.4925 17.235 15.235 18 16 C18.763125 16.721875 19.52625 17.44375 20.3125 18.1875 C22 20 22 20 22 22 C23.32 22.66 24.64 23.32 26 24 C25.01 24 24.02 24 23 24 C22.566875 23.54625 22.13375 23.0925 21.6875 22.625 C19.40220764 20.4243481 17.00910851 19.86929801 14 19 C14 17.68 14 16.36 14 15 C12.865625 14.731875 11.73125 14.46375 10.5625 14.1875 C8.7990625 13.5996875 8.7990625 13.5996875 7 13 C6.67 12.01 6.34 11.02 6 10 C3.49552484 8.78130071 3.49552484 8.78130071 1 8 C0.67 5.36 0.34 2.72 0 0 Z " fill="#2E5678" transform="translate(401,66)"/>
<path d="M0 0 C2.475 0.495 2.475 0.495 5 1 C4.04882866 2.1725131 3.08882991 3.33787015 2.125 4.5 C1.32449219 5.47453125 1.32449219 5.47453125 0.5078125 6.46875 C0.01023437 6.9740625 -0.48734375 7.479375 -1 8 C-1.66 8 -2.32 8 -3 8 C-3.21785156 8.56332031 -3.43570312 9.12664062 -3.66015625 9.70703125 C-5.43959265 12.75230578 -7.69406889 14.48328245 -10.4375 16.6875 C-11.40558594 17.47511719 -12.37367188 18.26273437 -13.37109375 19.07421875 C-16 21 -16 21 -19 22 C-19 21.01 -19 20.02 -19 19 C-18.01 19 -17.02 19 -16 19 C-16 18.01 -16 17.02 -16 16 C-15.34 16 -14.68 16 -14 16 C-14.33 14.35 -14.66 12.7 -15 11 C-14.360625 10.87625 -13.72125 10.7525 -13.0625 10.625 C-12.381875 10.41875 -11.70125 10.2125 -11 10 C-10.67 9.34 -10.34 8.68 -10 8 C-9.34 8 -8.68 8 -8 8 C-8 7.34 -8 6.68 -8 6 C-6.02 6 -4.04 6 -2 6 C-1.34 4.02 -0.68 2.04 0 0 Z " fill="#2E537A" transform="translate(410,422)"/>
<path d="M0 0 C0.33 0.66 0.66 1.32 1 2 C-0.09166436 3.6748823 -1.19873637 5.33973123 -2.3125 7 C-2.92738281 7.928125 -3.54226562 8.85625 -4.17578125 9.8125 C-4.77777344 10.534375 -5.37976563 11.25625 -6 12 C-6.99 12 -7.98 12 -9 12 C-9 12.66 -9 13.32 -9 14 C-9.804375 14.268125 -10.60875 14.53625 -11.4375 14.8125 C-12.283125 15.204375 -13.12875 15.59625 -14 16 C-14.33 16.99 -14.66 17.98 -15 19 C-17.31979381 20.03101947 -19.65429915 21.02936517 -22 22 C-23.88029239 23.53951047 -23.88029239 23.53951047 -25 25 C-25.66 24.67 -26.32 24.34 -27 24 C-18.51079991 15.24412347 -9.80896847 7.28860852 0 0 Z " fill="#355679" transform="translate(109,58)"/>
<path d="M0 0 C-4.16398739 2.23621545 -8.06607539 4.11450263 -12.625 5.375 C-18.23879179 6.95034312 -23.47685286 9.25465081 -28.80078125 11.59765625 C-31.5156412 12.78768644 -34.24072655 13.91803349 -37 15 C-37.33 14.01 -37.66 13.02 -38 12 C-35.03 11.34 -32.06 10.68 -29 10 C-29 9.34 -29 8.68 -29 8 C-28.01 8 -27.02 8 -26 8 C-25.67 7.01 -25.34 6.02 -25 5 C-18.44479382 0.62467236 -7.64262145 -2.52333582 0 0 Z " fill="#274F75" transform="translate(226,265)"/>
<path d="M0 0 C2.4797852 3.7196778 2.0666167 5.01633383 1.57421875 9.3828125 C1.43693359 10.63191406 1.29964844 11.88101563 1.15820312 13.16796875 C1.00287109 14.47378906 0.84753906 15.77960938 0.6875 17.125 C0.54136356 18.45171817 0.39617021 19.77854058 0.25195312 21.10546875 C-0.85167638 30.85167638 -0.85167638 30.85167638 -2 32 C-2.15825258 33.99782126 -2.25119171 36.00088834 -2.31640625 38.00390625 C-2.35830078 39.21884766 -2.40019531 40.43378906 -2.44335938 41.68554688 C-2.48267578 42.96494141 -2.52199219 44.24433594 -2.5625 45.5625 C-2.60568359 46.84576172 -2.64886719 48.12902344 -2.69335938 49.45117188 C-2.799848 52.63399853 -2.90185962 55.81690674 -3 59 C-3.33 59 -3.66 59 -4 59 C-4.37984983 27.83186027 -4.37984983 27.83186027 -3.125 14.875 C-3.04652832 14.04911377 -2.96805664 13.22322754 -2.88720703 12.37231445 C-2.40853699 8.01145585 -1.56987345 4.12916294 0 0 Z " fill="#0E3A62" transform="translate(20,205)"/>
<path d="M0 0 C0.99 0.495 0.99 0.495 2 1 C2 1.99 2 2.98 2 4 C2.639375 4.12375 3.27875 4.2475 3.9375 4.375 C4.618125 4.58125 5.29875 4.7875 6 5 C7.4783226 7.95664519 7.06032783 10.74229737 7 14 C7.66 14 8.32 14 9 14 C10.26264601 18.29299643 9.62950412 20.87831311 8 25 C8.66 25 9.32 25 10 25 C10 29.95 10 34.9 10 40 C9.67 40 9.34 40 9 40 C8.85304688 38.76507813 8.70609375 37.53015625 8.5546875 36.2578125 C7.16508377 25.48972074 4.9142763 15.63570743 1.20703125 5.4296875 C0 2 0 2 0 0 Z " fill="#4C688B" transform="translate(262,286)"/>
<path d="M0 0 C2.35987697 3.70678787 2.25812395 6.96053147 2.265625 11.28515625 C2.26753845 11.98265488 2.2694519 12.6801535 2.27142334 13.39878845 C2.27278073 14.86880862 2.26911549 16.33884095 2.26074219 17.80883789 C2.25001964 20.05837882 2.26066034 22.30712416 2.2734375 24.55664062 C2.27211614 25.98698093 2.26955424 27.41732073 2.265625 28.84765625 C2.26336914 30.14711182 2.26111328 31.44656738 2.25878906 32.78540039 C2 36 2 36 0 39 C-0.54339806 42.51052398 -0.88949601 46.02026852 -1.2421875 49.5546875 C-2.07943992 53.361165 -3.36001938 55.18900849 -6 58 C-5.48071394 54.62464063 -4.84894113 51.3093695 -4.0625 47.98828125 C-2.85316004 42.57156063 -2.07319684 37.12848643 -1.375 31.625 C-1.17716919 30.06845703 -1.17716919 30.06845703 -0.9753418 28.48046875 C0.15173438 18.95678431 0.30484552 9.5744075 0 0 Z " fill="#657B95" transform="translate(272,326)"/>
<path d="M0 0 C8.44788 0.40662788 16.09666466 2.16890196 24.1875 4.5625 C25.90163086 5.0565332 25.90163086 5.0565332 27.65039062 5.56054688 C30.43630009 6.3648471 33.21924246 7.17809964 36 8 C36 8.33 36 8.66 36 9 C27.91229331 8.15528397 27.91229331 8.15528397 24.0625 7.5 C20.50669256 6.91946001 16.95529545 6.59423138 13.3671875 6.28125 C11.15749698 6.01871251 9.14563909 5.57637756 7 5 C5.41773109 4.64110788 3.83437137 4.28699368 2.25 3.9375 C1.45078125 3.76089844 0.6515625 3.58429687 -0.171875 3.40234375 C-0.77515625 3.26957031 -1.3784375 3.13679688 -2 3 C-1.34 2.01 -0.68 1.02 0 0 Z " fill="#3C6082" transform="translate(292,15)"/>
<path d="M0 0 C0.33 0.66 0.66 1.32 1 2 C1.66 2 2.32 2 3 2 C2.85433594 2.56332031 2.70867187 3.12664062 2.55859375 3.70703125 C2.18547223 5.23865594 1.84431726 6.77841368 1.53515625 8.32421875 C1.37917969 9.10410156 1.22320312 9.88398438 1.0625 10.6875 C0.90910156 11.47511719 0.75570312 12.26273437 0.59765625 13.07421875 C0.40042969 13.70972656 0.20320312 14.34523438 0 15 C-0.99 15.495 -0.99 15.495 -2 16 C-2.33 13.69 -2.66 11.38 -3 9 C-3.5878125 9.9590625 -3.5878125 9.9590625 -4.1875 10.9375 C-6.38472296 13.43778819 -7.75791433 13.64950425 -11 14 C-11 13.34 -11 12.68 -11 12 C-10.34 12 -9.68 12 -9 12 C-8.87625 11.401875 -8.7525 10.80375 -8.625 10.1875 C-8 8 -8 8 -6 5 C-5.34 5 -4.68 5 -4 5 C-3.67 4.01 -3.34 3.02 -3 2 C-2.01 1.34 -1.02 0.68 0 0 Z " fill="#0C3E6A" transform="translate(220,319)"/>
<path d="M0 0 C0 3.92998307 -1.27858835 6.49342071 -3 10 C-3.99 10.66 -4.98 11.32 -6 12 C-6.515625 12.86625 -7.03125 13.7325 -7.5625 14.625 C-8.2740625 15.800625 -8.2740625 15.800625 -9 17 C-9.66 17 -10.32 17 -11 17 C-11.33 18.32 -11.66 19.64 -12 21 C-12.598125 21.12375 -13.19625 21.2475 -13.8125 21.375 C-16.26231348 21.95475985 -16.26231348 21.95475985 -19 24 C-17.32191256 19.99015152 -14.56372917 16.93511979 -11.75 13.6875 C-11.25781982 13.11298096 -10.76563965 12.53846191 -10.25854492 11.9465332 C-8.84245774 10.2947038 -7.42148088 8.64718723 -6 7 C-4.77046227 5.56281737 -3.54119792 4.12540068 -2.3125 2.6875 C-1.549375 1.800625 -0.78625 0.91375 0 0 Z " fill="#3B5D7B" transform="translate(81,83)"/>
<path d="M0 0 C0.33 1.32 0.66 2.64 1 4 C1.66 4 2.32 4 3 4 C2.690625 4.763125 2.38125 5.52625 2.0625 6.3125 C1.32106407 8.18789677 0.63771783 10.08684652 0 12 C-0.99 12.33 -1.98 12.66 -3 13 C-3.69159401 14.84725052 -3.69159401 14.84725052 -4 17 C-4.375 19.1875 -4.375 19.1875 -5 21 C-5.99 21.33 -6.98 21.66 -8 22 C-8.33 24.31 -8.66 26.62 -9 29 C-9.66 28.67 -10.32 28.34 -11 28 C-10.29670963 23.20051842 -8.49136526 19.00090169 -6.625 14.5625 C-6.16867188 13.45551758 -6.16867188 13.45551758 -5.703125 12.32617188 C-3.95726502 8.12939308 -2.08793557 4.04137222 0 0 Z " fill="#436183" transform="translate(39,143)"/>
<path d="M0 0 C1.32 0.66 2.64 1.32 4 2 C3.34 2 2.68 2 2 2 C1.731875 2.5775 1.46375 3.155 1.1875 3.75 C-0.02929189 6.05550043 -1.30333879 8.02056192 -3 10 C-3.66 10 -4.32 10 -5 10 C-5.2475 10.7425 -5.495 11.485 -5.75 12.25 C-7.09147301 15.20124062 -8.60905526 16.84814974 -11 19 C-11.20086443 15.28400809 -11.1519437 14.22791555 -9 11 C-8.83286431 8.37468476 -8.83286431 8.37468476 -9 6 C-8.01 6.33 -7.02 6.66 -6 7 C-6 6.34 -6 5.68 -6 5 C-4.02 4.01 -2.04 3.02 0 2 C0 1.34 0 0.68 0 0 Z " fill="#31537A" transform="translate(154,303)"/>
<path d="M0 0 C4.45920857 8.43338042 3.73173356 20.68589998 3 30 C2.34 30.99 1.68 31.98 1 33 C0.0902196 25.60072623 -0.12410745 18.32476219 -0.0625 10.875 C-0.05798828 9.823125 -0.05347656 8.77125 -0.04882812 7.6875 C-0.03718011 5.12493779 -0.02082553 2.56250123 0 0 Z " fill="#103A62" transform="translate(115,392)"/>
<path d="M0 0 C0.33 0.99 0.66 1.98 1 3 C1.99 3 2.98 3 4 3 C4.20496094 4.14339844 4.40992188 5.28679687 4.62109375 6.46484375 C4.8930231 7.95576676 5.16516974 9.44665016 5.4375 10.9375 C5.57220703 11.69224609 5.70691406 12.44699219 5.84570312 13.22460938 C6.24272034 16.91953174 6.24272034 16.91953174 8 20 C8.04063832 21.66617115 8.042721 23.33388095 8 25 C7.01 25.33 6.02 25.66 5 26 C4.15731913 22.60641656 3.32752099 19.20980915 2.5 15.8125 C2.26152344 14.85279297 2.02304687 13.89308594 1.77734375 12.90429688 C1.43896484 11.50727539 1.43896484 11.50727539 1.09375 10.08203125 C0.88427734 9.22843018 0.67480469 8.3748291 0.45898438 7.49536133 C-0.01093734 4.94053693 -0.08117627 2.59155241 0 0 Z " fill="#325377" transform="translate(18,291)"/>
<path d="M0 0 C0.66 0.33 1.32 0.66 2 1 C1.608125 1.61875 1.21625 2.2375 0.8125 2.875 C-1.66594973 7.14818919 -3.82253745 11.56761575 -6 16 C-6.66 16 -7.32 16 -8 16 C-8 19.96 -8 23.92 -8 28 C-8.33 28 -8.66 28 -9 28 C-10.22086299 19.94890355 -10.31150477 14.00660826 -6.125 6.75 C-4.22065991 4.28555988 -2.27968312 2.11684861 0 0 Z " fill="#516C87" transform="translate(185,343)"/>
<path d="M0 0 C0.33 0 0.66 0 1 0 C1.41006829 7.7912976 -0.47977152 13.51445479 -5 20 C-5.66 20 -6.32 20 -7 20 C-7.33 20.66 -7.66 21.32 -8 22 C-9.65 21.67 -11.3 21.34 -13 21 C-8 16 -8 16 -5.875 14.125 C-2.33499602 10.11299549 -0.79228542 5.2290838 0 0 Z " fill="#2B5176" transform="translate(294,230)"/>
<path d="M0 0 C0.33 0.66 0.66 1.32 1 2 C0.67 2.66 0.34 3.32 0 4 C0.99 4.33 1.98 4.66 3 5 C2.01 6.485 2.01 6.485 1 8 C2.32 8.33 3.64 8.66 5 9 C4.46930939 12.82097239 3.50298434 15.06171403 1 18 C1 16.35 1 14.7 1 13 C0.01 14.485 0.01 14.485 -1 16 C-1 15.34 -1 14.68 -1 14 C-1.99 14.33 -2.98 14.66 -4 15 C-3.67 14.030625 -3.34 13.06125 -3 12.0625 C-1.94826637 9.37850426 -1.94826637 9.37850426 -2 8 C-2.66 7.67 -3.32 7.34 -4 7 C-2.68 4.69 -1.36 2.38 0 0 Z " fill="#3E628C" transform="translate(226,300)"/>
<path d="M0 0 C0.66 0.66 1.32 1.32 2 2 C1.828125 3.91796875 1.828125 3.91796875 1.25 6.1875 C1.04890625 7.0021875 0.8478125 7.816875 0.640625 8.65625 C0.13356572 10.51134493 -0.42432566 12.35253804 -1 14.1875 C-2.53489371 20.03928225 -3.21870932 26.00733423 -4 32 C-4.33 32 -4.66 32 -5 32 C-5.37376483 24.81540929 -4.86094844 18.00362185 -3.625 10.9375 C-3.49891357 10.19959229 -3.37282715 9.46168457 -3.24291992 8.70141602 C-2.59886697 5.22642287 -1.98546946 2.97820418 0 0 Z " fill="#547190" transform="translate(124,354)"/>
<path d="M0 0 C0.99 0.33 1.98 0.66 3 1 C2.07934219 7.30719307 1.0022542 10.91921368 -4 15 C-4.99 14.34 -5.98 13.68 -7 13 C-5.35 9.7 -3.7 6.4 -2 3 C-1.34 3 -0.68 3 0 3 C0 2.01 0 1.02 0 0 Z " fill="#2C4A75" transform="translate(239,280)"/>
<path d="M0 0 C2.31 0.33 4.62 0.66 7 1 C3.55167456 3.79746183 0.0376692 6.46376868 -3.5625 9.0625 C-6.72812298 11.35000287 -9.88339821 13.646049 -13 16 C-13 14.35 -13 12.7 -13 11 C-12.34 10.67 -11.68 10.34 -11 10 C-10.34 10.33 -9.68 10.66 -9 11 C-8.67 9.68 -8.34 8.36 -8 7 C-6.68 7 -5.36 7 -4 7 C-3.67 6.01 -3.34 5.02 -3 4 C-2.34 3.67 -1.68 3.34 -1 3 C-0.67 2.01 -0.34 1.02 0 0 Z " fill="#4E6A90" transform="translate(179,281)"/>
<path d="M0 0 C0.99 0.33 1.98 0.66 3 1 C3.05404449 3.75026417 3.09369306 6.49946203 3.125 9.25 C3.15013672 10.41595703 3.15013672 10.41595703 3.17578125 11.60546875 C3.23662606 18.72431144 3.23662606 18.72431144 1 22 C0.34 22 -0.32 22 -1 22 C-0.67 14.74 -0.34 7.48 0 0 Z " fill="#174067" transform="translate(295,218)"/>
<path d="M0 0 C0.33 0 0.66 0 1 0 C1.65779458 9.04467541 -0.76562494 17.31187198 -3 26 C-5 22.25 -5 22.25 -5 20 C-4.34 20 -3.68 20 -3 20 C-3.02320313 19.28714844 -3.04640625 18.57429688 -3.0703125 17.83984375 C-3.19330105 11.31266557 -2.96283774 5.92567548 0 0 Z " fill="#4C6B8D" transform="translate(483,284)"/>
<path d="M0 0 C1.06089844 0.07863281 2.12179687 0.15726563 3.21484375 0.23828125 C6.0625 0.6875 6.0625 0.6875 9.0625 2.6875 C7.78375 2.625625 6.505 2.56375 5.1875 2.5 C-3.5283632 2.52740837 -10.2140472 5.27950536 -16.9375 10.6875 C-16.14792494 6.87520828 -14.92432184 5.247633 -11.9375 2.6875 C-9.8125 1.5 -9.8125 1.5 -7.9375 0.6875 C-5.15288966 -0.70480517 -3.08802401 -0.25078498 0 0 Z " fill="#506D8A" transform="translate(265.9375,198.3125)"/>
<path d="M0 0 C-0.08249353 2.80478015 -0.60004327 4.53967244 -2.44921875 6.66796875 C-7.13463567 10.94684191 -7.13463567 10.94684191 -10.734375 11.16796875 C-11.85585937 11.08482422 -11.85585937 11.08482422 -13 11 C-5.39667458 0 -5.39667458 0 0 0 Z " fill="#0B3A66" transform="translate(233,442)"/>
<path d="M0 0 C2.42581871 2.42581871 2.96355664 4.07433869 3.09765625 7.48046875 C3.08605469 8.37378906 3.07445313 9.26710938 3.0625 10.1875 C3.05347656 11.08855469 3.04445313 11.98960937 3.03515625 12.91796875 C3.02355469 13.60503906 3.01195313 14.29210937 3 15 C2.67 14.34 2.34 13.68 2 13 C0.68 13.33 -0.64 13.66 -2 14 C-3.65 12.02 -5.3 10.04 -7 8 C-4.69 7.34 -2.38 6.68 0 6 C0 4.02 0 2.04 0 0 Z " fill="#0A4071" transform="translate(119,434)"/>
<path d="M0 0 C0.66 0.33 1.32 0.66 2 1 C-1 3 -1 3 -4 3 C-4 3.66 -4 4.32 -4 5 C-2.92878906 5.12117188 -1.85757813 5.24234375 -0.75390625 5.3671875 C0.64328752 5.53597601 2.04041991 5.70527313 3.4375 5.875 C4.14455078 5.95363281 4.85160156 6.03226562 5.58007812 6.11328125 C7.39673432 6.33927676 9.20062522 6.66300727 11 7 C11.33 7.66 11.66 8.32 12 9 C12.99 9.66 13.98 10.32 15 11 C7.6974913 10.51316609 0.66778797 9.13905602 -6 6 C-6.33 5.01 -6.66 4.02 -7 3 C-4.69631264 1.93347808 -2.35981813 0.93578995 0 0 Z " fill="#577792" transform="translate(180,473)"/>
<path d="M0 0 C0.33 0 0.66 0 1 0 C1.5326386 4.24860767 2.0490656 8.49903225 2.5625 12.75 C2.71396484 13.9565625 2.86542969 15.163125 3.02148438 16.40625 C3.16005859 17.56640625 3.29863281 18.7265625 3.44140625 19.921875 C3.57232666 20.99018555 3.70324707 22.05849609 3.83813477 23.15917969 C3.98608812 25.75583919 3.80814243 27.55233537 3 30 C-2.6253372 20.95054451 -1.04962683 10.15715806 0 0 Z " fill="#627693" transform="translate(118,409)"/>
<path d="M0 0 C5.15877635 4.83635282 9.3043539 11.49873588 12 18 C11.67 18.66 11.34 19.32 11 20 C9.29115995 18.37660195 7.62553283 16.70680947 6 15 C6 14.34 6 13.68 6 13 C5.34 12.67 4.68 12.34 4 12 C2.9296875 10.29296875 2.9296875 10.29296875 1.875 8.1875 C1.52179688 7.50042969 1.16859375 6.81335938 0.8046875 6.10546875 C0 4 0 4 0 0 Z " fill="#3F5D7E" transform="translate(447,118)"/>
<path d="M0 0 C4.35541251 4.35541251 4.80587183 13.96526167 5.19140625 19.9921875 C5.18820558 21.99580521 5.10530794 23.99914908 5 26 C4.67 26 4.34 26 4 26 C3.731875 24.741875 3.46375 23.48375 3.1875 22.1875 C2.16214067 17.53281125 0.90370272 12.96237281 -0.4140625 8.3828125 C-1.21852741 5.11132188 -1.06991994 3.20975981 0 0 Z " fill="#506F8C" transform="translate(479,192)"/>
<path d="M0 0 C-1.49739583 1.20442708 -2.99479167 2.40885417 -4.4921875 3.61328125 C-6.25292107 5.12270545 -6.25292107 5.12270545 -8 8 C-11.625 8.6875 -11.625 8.6875 -15 9 C-14.00261116 5.40940017 -13.11279244 4.08827235 -10.125 1.75 C-4.3880597 -1.46268657 -4.3880597 -1.46268657 0 0 Z " fill="#113D68" transform="translate(124,52)"/>
<path d="M0 0 C0.33 0 0.66 0 1 0 C1.44415014 7.98236506 1.67171981 15.17210182 -3 22 C-3.99 22.66 -4.98 23.32 -6 24 C-6 22.68 -6 21.36 -6 20 C-5.34 20 -4.68 20 -4 20 C-4.33 17.69 -4.66 15.38 -5 13 C-3.35 12.67 -1.7 12.34 0 12 C0 8.04 0 4.08 0 0 Z " fill="#496386" transform="translate(221,356)"/>
<path d="M0 0 C2.36672211 3.55008317 2.4025104 4.81389189 2 9 C1.15236534 11.4400119 0.12140032 13.66374933 -1 16 C-1.99 16 -2.98 16 -4 16 C-3.47606294 10.13190493 -2.23891142 5.45126259 0 0 Z " fill="#466183" transform="translate(26,176)"/>
<path d="M0 0 C0 0.66 0 1.32 0 2 C-5.51986745 6.13990059 -12.32838957 6.99925844 -19 8 C-18.34 7.67 -17.68 7.34 -17 7 C-17 6.34 -17 5.68 -17 5 C-15.10908264 4.15557119 -13.21202485 3.32488413 -11.3125 2.5 C-10.25675781 2.0359375 -9.20101562 1.571875 -8.11328125 1.09375 C-5.14372184 0.05049199 -3.10804937 -0.23065301 0 0 Z " fill="#0E3A6A" transform="translate(180,24)"/>
<path d="M0 0 C3.8925987 3.8925987 5.13664474 9.9005983 7 15 C7.50853516 16.36318359 7.50853516 16.36318359 8.02734375 17.75390625 C8.30707031 18.53636719 8.58679688 19.31882813 8.875 20.125 C9.11992187 20.80820313 9.36484375 21.49140625 9.6171875 22.1953125 C10 24 10 24 9 27 C8.34 25.35 7.68 23.7 7 22 C6.34 22 5.68 22 5 22 C4.87882812 21.30132812 4.75765625 20.60265625 4.6328125 19.8828125 C4.46523438 18.97273438 4.29765625 18.06265625 4.125 17.125 C3.96257812 16.22007812 3.80015625 15.31515625 3.6328125 14.3828125 C3.16955297 11.83494012 3.16955297 11.83494012 1 10 C0.5859375 7.6171875 0.5859375 7.6171875 0.375 4.875 C0.30023438 3.96492187 0.22546875 3.05484375 0.1484375 2.1171875 C0.09945313 1.41851562 0.05046875 0.71984375 0 0 Z " fill="#607892" transform="translate(465,150)"/>
<path d="M0 0 C0 4.047971 -1.47965645 6.92283636 -4 10 C-7.5625 11.75 -7.5625 11.75 -11 13 C-12.88029239 14.53951047 -12.88029239 14.53951047 -14 16 C-14.66 15.67 -15.32 15.34 -16 15 C-14.08643227 13.05935348 -12.16932062 11.122443 -10.25 9.1875 C-9.71117188 8.64029297 -9.17234375 8.09308594 -8.6171875 7.52929688 C-5.88259137 4.77802637 -3.20316096 2.21577882 0 0 Z " fill="#43678B" transform="translate(98,67)"/>
<path d="M0 0 C2.4375 0.8125 2.4375 0.8125 5 2 C5.33 2.99 5.66 3.98 6 5 C6.639375 5.226875 7.27875 5.45375 7.9375 5.6875 C10.51634079 7.3285805 10.54132286 8.22401228 11.25 11.125 C11.4975 12.40375 11.745 13.6825 12 15 C9.46690121 14.62890909 8.29892362 14.35481302 6.62109375 12.36328125 C6.23050781 11.68652344 5.83992188 11.00976562 5.4375 10.3125 C5.01984375 9.59707031 4.6021875 8.88164062 4.171875 8.14453125 C2.70680545 5.46345397 1.31090734 2.75980492 0 0 Z " fill="#345578" transform="translate(46,371)"/>
<path d="M0 0 C0.66 0 1.32 0 2 0 C1.23049956 4.61700263 1.23049956 4.61700263 -0.02734375 6.70703125 C-1.42022791 9.99065777 -1.22620474 12.88721989 -1.1875 16.4375 C-1.18105469 17.73558594 -1.17460937 19.03367188 -1.16796875 20.37109375 C-1.02836295 23.38722841 -0.70454736 26.07471935 0 29 C-3.38242068 26.09039081 -3.60062459 23.90764846 -3.9375 19.60546875 C-4.10804501 12.49587356 -3.81092536 6.13061906 0 0 Z " fill="#113867" transform="translate(243,211)"/>
<path d="M0 0 C-0.99 0.33 -1.98 0.66 -3 1 C-3 1.66 -3 2.32 -3 3 C-10.7558343 4.70994772 -18.06603268 5.24923458 -26 5 C-22.12027898 2.63306144 -17.97096008 2.11288059 -13.5625 1.375 C-12.81162109 1.2409375 -12.06074219 1.106875 -11.28710938 0.96875 C-7.48143878 0.31271532 -3.87804635 -0.16961634 0 0 Z " fill="#50708C" transform="translate(220,13)"/>
<path d="M0 0 C-6.61581199 3.52270508 -13.68557421 3.13245439 -21 3 C-14.43053499 -2.18862204 -7.9154355 -0.91548631 0 0 Z " fill="#49668B" transform="translate(299,486)"/>
<path d="M0 0 C1.32 0 2.64 0 4 0 C4 0.99 4 1.98 4 3 C5.32 2.67 6.64 2.34 8 2 C8.33 2.66 8.66 3.32 9 4 C10.3236458 5.08018452 11.6827031 6.11752925 13.0625 7.125 C13.79597656 7.66382813 14.52945313 8.20265625 15.28515625 8.7578125 C16.13400391 9.37269531 16.13400391 9.37269531 17 10 C14 11 14 11 11.58984375 9.92578125 C10.71457031 9.39339844 9.83929688 8.86101562 8.9375 8.3125 C8.05964844 7.79300781 7.18179688 7.27351563 6.27734375 6.73828125 C3.9028305 4.92583117 3.17786136 3.67695764 2 1 C1.34 0.67 0.68 0.34 0 0 Z " fill="#17416D" transform="translate(91,428)"/>
<path d="M0 0 C5.24881176 0.48657624 9.0073114 3.26547398 13.3125 6.0625 C14.05306641 6.53494141 14.79363281 7.00738281 15.55664062 7.49414062 C17.37551219 8.65587149 19.1883659 9.82701482 21 11 C17.30741897 12.23086034 16.41793707 11.66728638 13 10 C10.75748284 8.46227395 8.9242236 6.9242236 7 5 C4.42938689 4.35232207 4.42938689 4.35232207 2 4 C2 3.34 2 2.68 2 2 C1.34 2 0.68 2 0 2 C0 1.34 0 0.68 0 0 Z " fill="#637E9B" transform="translate(359,38)"/>
<path d="M0 0 C3.3 0.33 6.6 0.66 10 1 C7.50742747 2.66171502 5.20483487 3.9387679 2.5 5.1875 C1.7265625 5.55230469 0.953125 5.91710937 0.15625 6.29296875 C-2 7 -2 7 -5 6 C-5 5.67 -5 5.34 -5 5 C-5.33 4.34 -5.66 3.68 -6 3 C-5.195625 2.87625 -4.39125 2.7525 -3.5625 2.625 C-2.716875 2.41875 -1.87125 2.2125 -1 2 C-0.67 1.34 -0.34 0.68 0 0 Z " fill="#325A82" transform="translate(336,470)"/>
<path d="M0 0 C0.8353125 1.1446875 0.8353125 1.1446875 1.6875 2.3125 C3.96679369 4.96140888 5.93599872 6.38288822 9 8 C8.67 9.98 8.34 11.96 8 14 C0.08881579 6.30263158 0.08881579 6.30263158 -0.1875 2.25 C-0.125625 1.5075 -0.06375 0.765 0 0 Z " fill="#2F5376" transform="translate(59,387)"/>
<path d="M0 0 C0.66 0 1.32 0 2 0 C3.85776765 3.13498292 4.20140476 5.37471432 4 9 C3.01 9.33 2.02 9.66 1 10 C0.67 10.66 0.34 11.32 0 12 C0 11.34 0 10.68 0 10 C-0.66 9.67 -1.32 9.34 -2 9 C-1.34 8.01 -0.68 7.02 0 6 C-0.66 5.67 -1.32 5.34 -2 5 C-1.34 3.35 -0.68 1.7 0 0 Z " fill="#123C67" transform="translate(228,299)"/>
<path d="M0 0 C2 2 2 2 2.1953125 3.9453125 C2.13020833 5.96354167 2.06510417 7.98177083 2 10 C2.66 10.33 3.32 10.66 4 11 C7.60412752 15.45215753 8.4560284 18.29964499 8 24 C2.94457907 18.94457907 1.00507291 10.91648855 0 4 C0 2.68 0 1.36 0 0 Z " fill="#3D5F89" transform="translate(254,262)"/>
<path d="M0 0 C2.97 0.495 2.97 0.495 6 1 C6.66 3.64 7.32 6.28 8 9 C7.67 9 7.34 9 7 9 C6.67 10.65 6.34 12.3 6 14 C5.67 14 5.34 14 5 14 C4.80664062 13.40832031 4.61328125 12.81664062 4.4140625 12.20703125 C3.05585281 8.0853355 1.67949415 4.0049476 0 0 Z " fill="#406485" transform="translate(289,210)"/>
<path d="M0 0 C1.32830615 3.98491845 0.23204404 5.40048548 -1.4375 9.1875 C-1.91058594 10.27417969 -2.38367188 11.36085938 -2.87109375 12.48046875 C-3.42990234 13.72763672 -3.42990234 13.72763672 -4 15 C-5.58158962 11.99112219 -6.43945339 9.36327963 -7 6 C-4 4 -4 4 -1 4 C-0.67 2.68 -0.34 1.36 0 0 Z " fill="#2C5281" transform="translate(472,331)"/>
<path d="M0 0 C3.8308188 2.83118307 6.54373956 5.75603532 9.3125 9.625 C10.00988281 10.58664063 10.70726562 11.54828125 11.42578125 12.5390625 C13 15 13 15 13 17 C12.34 17 11.68 17 11 17 C11 16.01 11 15.02 11 14 C10.01 14 9.02 14 8 14 C8 12.68 8 11.36 8 10 C7.401875 9.95875 6.80375 9.9175 6.1875 9.875 C4 9 4 9 2.3125 6.125 C1 3 1 3 0 0 Z " fill="#4B6287" transform="translate(428,93)"/>
<path d="M0 0 C-6 2 -12 4 -18 6 C-18 6.66 -18 7.32 -18 8 C-21 9 -21 9 -23.1875 8.0625 C-23.785625 7.711875 -24.38375 7.36125 -25 7 C-21.59029681 5.62781327 -18.17130714 4.28046394 -14.75 2.9375 C-13.78191406 2.54755859 -12.81382812 2.15761719 -11.81640625 1.75585938 C-10.88183594 1.39169922 -9.94726562 1.02753906 -8.984375 0.65234375 C-8.12553711 0.31195068 -7.26669922 -0.02844238 -6.38183594 -0.37915039 C-3.80190439 -1.05163562 -2.48003405 -0.88608504 0 0 Z " fill="#6F84A2" transform="translate(181,23)"/>
<path d="M0 0 C0.33 0 0.66 0 1 0 C1.37992882 3.34218632 1.23536171 4.66954796 -0.75 7.45703125 C-1.86375 8.62298828 -1.86375 8.62298828 -3 9.8125 C-3.7425 10.60269531 -4.485 11.39289063 -5.25 12.20703125 C-6.11625 13.09455078 -6.11625 13.09455078 -7 14 C-7.33 13.34 -7.66 12.68 -8 12 C-8.66 11.67 -9.32 11.34 -10 11 C-9.01 11 -8.02 11 -7 11 C-7 10.01 -7 9.02 -7 8 C-6.34 8 -5.68 8 -5 8 C-5 7.01 -5 6.02 -5 5 C-3.68 4.67 -2.36 4.34 -1 4 C-0.67 2.68 -0.34 1.36 0 0 Z " fill="#486281" transform="translate(433,399)"/>
<path d="M0 0 C0.94314127 3.41610225 1.08065117 6.45134864 1 10 C0.34 10 -0.32 10 -1 10 C-1.33 12.31 -1.66 14.62 -2 17 C-3.32 17 -4.64 17 -6 17 C-4.14506608 11.28062041 -2.06896109 5.64444725 0 0 Z " fill="#406086" transform="translate(265,384)"/>
<path d="M0 0 C1 3 1 3 -0.5 6.4375 C-2.21967869 9.71678013 -2.21967869 9.71678013 -1.75 12.3125 C-1.19742351 13.55579711 -0.60846174 14.78307651 0 16 C-1.65 15.67 -3.3 15.34 -5 15 C-5 12.69 -5 10.38 -5 8 C-4.34 8 -3.68 8 -3 8 C-3.33 7.01 -3.66 6.02 -4 5 C-2.99500868 2.37156116 -2.55192629 1.27596315 0 0 Z " fill="#546F91" transform="translate(219,334)"/>
<path d="M0 0 C1.32 0 2.64 0 4 0 C4.33 1.32 4.66 2.64 5 4 C6.65 4.33 8.3 4.66 10 5 C10 5.99 10 6.98 10 8 C9.34 8 8.68 8 8 8 C7.67 8.66 7.34 9.32 7 10 C5.82739389 8.71372289 4.6620717 7.42080217 3.5 6.125 C2.8503125 5.40570313 2.200625 4.68640625 1.53125 3.9453125 C0 2 0 2 0 0 Z " fill="#3A587F" transform="translate(67,401)"/>
<path d="M0 0 C1.9375 0.75 1.9375 0.75 3.9375 1.75 C4.2675 1.09 4.5975 0.43 4.9375 -0.25 C5.5975 0.41 6.2575 1.07 6.9375 1.75 C4.2975 2.74 1.6575 3.73 -1.0625 4.75 C-1.0625 5.41 -1.0625 6.07 -1.0625 6.75 C-2.7125 7.08 -4.3625 7.41 -6.0625 7.75 C-5.69537028 5.03324005 -5.33505401 3.13936287 -3.75 0.875 C-2.0625 -0.25 -2.0625 -0.25 0 0 Z " fill="#0A3A6D" transform="translate(190.0625,273.25)"/>
<path d="M0 0 C5.05411901 5.49360762 4.14311716 12.98725938 4 20 C1.44085276 17.44085276 1.43065115 15.79558351 0.875 12.25 C0.70742188 11.22390625 0.53984375 10.1978125 0.3671875 9.140625 C0.00710522 6.06077228 -0.06491813 3.09752203 0 0 Z " fill="#0E3760" transform="translate(480,207)"/>
<path d="M0 0 C1.60332791 -0.08121924 3.20784026 -0.13929134 4.8125 -0.1875 C6.15248047 -0.23970703 6.15248047 -0.23970703 7.51953125 -0.29296875 C10 0 10 0 11.78125 1.3125 C13.52649962 3.72899948 13.67582719 6.08244473 14 9 C13.23816406 8.38511719 13.23816406 8.38511719 12.4609375 7.7578125 C8.4359113 4.60713656 5.04815754 2.26203939 0 1 C0 0.67 0 0.34 0 0 Z " fill="#506D8C" transform="translate(275,201)"/>
<path d="M0 0 C0.33 0 0.66 0 1 0 C1.11459026 7.41017023 0.91160286 14.64206267 0 22 C-0.33 22 -0.66 22 -1 22 C-1.22201613 19.0837882 -1.42808498 16.16792256 -1.625 13.25 C-1.72167969 12.0125 -1.72167969 12.0125 -1.8203125 10.75 C-1.871875 9.95078125 -1.9234375 9.1515625 -1.9765625 8.328125 C-2.02893066 7.5949707 -2.08129883 6.86181641 -2.13525391 6.10644531 C-1.97767085 3.65224559 -1.22264839 2.11146787 0 0 Z " fill="#637C98" transform="translate(118,386)"/>
<path d="M0 0 C0.99 0 1.98 0 3 0 C1.45315734 3.32687768 -0.45954979 6.24703978 -2.5625 9.25 C-3.18253906 10.14203125 -3.80257813 11.0340625 -4.44140625 11.953125 C-5.21291016 12.96632813 -5.21291016 12.96632813 -6 14 C-6.33 14 -6.66 14 -7 14 C-7 12.35 -7 10.7 -7 9 C-5.68 8.67 -4.36 8.34 -3 8 C-3.33 7.01 -3.66 6.02 -4 5 C-3.34 4.67 -2.68 4.34 -2 4 C-0.86649466 1.98330173 -0.86649466 1.98330173 0 0 Z " fill="#506C8C" transform="translate(442,387)"/>
<path d="M0 0 C-2.22884145 0.95909551 -4.45805968 1.91729837 -6.6875 2.875 C-7.31333984 3.14441406 -7.93917969 3.41382813 -8.58398438 3.69140625 C-12.03842094 5.17446278 -15.50218321 6.62227484 -19 8 C-19.33 7.01 -19.66 6.02 -20 5 C-17.03 4.34 -14.06 3.68 -11 3 C-11 2.34 -11 1.68 -11 1 C-3.375 -1.125 -3.375 -1.125 0 0 Z " fill="#5F799A" transform="translate(208,272)"/>
<path d="M0 0 C0 0.33 0 0.66 0 1 C-2.64 1 -5.28 1 -8 1 C-8 1.99 -8 2.98 -8 4 C-8.7425 4.28875 -9.485 4.5775 -10.25 4.875 C-12.56739797 5.82302644 -14.77917115 6.84845911 -17 8 C-16.42655063 5.13275314 -16.1385485 4.1385485 -14 2 C-9.44286619 -0.48570935 -5.04011994 -0.19765176 0 0 Z " fill="#103863" transform="translate(201,341)"/>
<path d="M0 0 C0.99 0.33 1.98 0.66 3 1 C1.25192871 6.46737191 -0.65794081 11.75824848 -3 17 C-3.33 17 -3.66 17 -4 17 C-4.46612972 11.17337852 -3.33707542 8.69276231 0 4 C0 2.68 0 1.36 0 0 Z " fill="#4A607E" transform="translate(224,317)"/>
<path d="M0 0 C0.99 0.33 1.98 0.66 3 1 C3 1.66 3 2.32 3 3 C3.8971875 3.1546875 3.8971875 3.1546875 4.8125 3.3125 C7.31258286 4.09824033 8.37535082 4.96918853 10 7 C10 7.66 10 8.32 10 9 C11.32 9.66 12.64 10.32 14 11 C13.01 11 12.02 11 11 11 C10.566875 10.54625 10.13375 10.0925 9.6875 9.625 C7.40220764 7.4243481 5.00910851 6.86929801 2 6 C2 4.68 2 3.36 2 2 C1.34 2 0.68 2 0 2 C0 1.34 0 0.68 0 0 Z " fill="#305277" transform="translate(413,79)"/>
<path d="M0 0 C0.9590625 0.2784375 0.9590625 0.2784375 1.9375 0.5625 C2.9584375 0.7790625 2.9584375 0.7790625 4 1 C4.33 0.67 4.66 0.34 5 0 C5.66 0 6.32 0 7 0 C7 0.66 7 1.32 7 2 C9.64 1.67 12.28 1.34 15 1 C14.67 1.99 14.34 2.98 14 4 C4.58997722 4.3690205 4.58997722 4.3690205 0 2 C0 1.34 0 0.68 0 0 Z " fill="#093968" transform="translate(176,476)"/>
<path d="M0 0 C0.66 0 1.32 0 2 0 C1.51602818 4.35574636 0.20957142 6.0913259 -3 9 C-3.33 9.66 -3.66 10.32 -4 11 C-4.66 10.67 -5.32 10.34 -6 10 C-6.33 10.99 -6.66 11.98 -7 13 C-7.66 12.67 -8.32 12.34 -9 12 C-7.54927753 9.99406276 -6.09008971 7.99539826 -4.625 6 C-4.2125 5.42765625 -3.8 4.8553125 -3.375 4.265625 C-2.29828281 2.80684688 -1.15333422 1.39899024 0 0 Z " fill="#536D92" transform="translate(245,423)"/>
<path d="M0 0 C2 3 2 3 1.3125 6.625 C0.6628125 8.295625 0.6628125 8.295625 0 10 C-0.99 10.33 -1.98 10.66 -3 11 C-3.99 10.34 -4.98 9.68 -6 9 C-5.34 9 -4.68 9 -4 9 C-3.71125 8.2575 -3.4225 7.515 -3.125 6.75 C-2.17697356 4.43260203 -1.15154089 2.22082885 0 0 Z " fill="#3E5D80" transform="translate(208,331)"/>
<path d="M0 0 C1.60379341 -0.05416188 3.20811406 -0.09286638 4.8125 -0.125 C5.70582031 -0.14820313 6.59914062 -0.17140625 7.51953125 -0.1953125 C10 0 10 0 13 2 C13.1875 4.625 13.1875 4.625 13 7 C11 5.625 11 5.625 9 4 C9 3.34 9 2.68 9 2 C5.7 2 2.4 2 -1 2 C-0.67 1.34 -0.34 0.68 0 0 Z " fill="#123C67" transform="translate(241,260)"/>
<path d="M0 0 C4.455 0.99 4.455 0.99 9 2 C9 2.66 9 3.32 9 4 C12.96 4.33 16.92 4.66 21 5 C21 5.33 21 5.66 21 6 C18.91695462 6.05418326 16.83350232 6.09287551 14.75 6.125 C13.00976562 6.15980469 13.00976562 6.15980469 11.234375 6.1953125 C5.91177728 5.87389959 3.56582813 3.82053014 0 0 Z " fill="#0C305E" transform="translate(184,379)"/>
<path d="M0 0 C0.33 0 0.66 0 1 0 C1.15995397 9.5972382 1.15995397 9.5972382 0 12 C-1.9074492 13.83306399 -3.89217897 15.38549879 -6 17 C-6.66 16.67 -7.32 16.34 -8 16 C-7.401875 15.484375 -6.80375 14.96875 -6.1875 14.4375 C-2.47344679 10.29898357 -0.82552602 5.44847171 0 0 Z " fill="#678099" transform="translate(294,230)"/>
<path d="M0 0 C2.56278699 -0.05420701 5.12441483 -0.09377007 7.6875 -0.125 C8.40873047 -0.14175781 9.12996094 -0.15851563 9.87304688 -0.17578125 C14.04876781 -0.21391569 17.2494138 0.1210081 21 2 C21 2.66 21 3.32 21 4 C14.07 3.01 7.14 2.02 0 1 C0 0.67 0 0.34 0 0 Z " fill="#10395F" transform="translate(262,198)"/>
<path d="M0 0 C0.99 0.33 1.98 0.66 3 1 C2.5875 1.66 2.175 2.32 1.75 3 C-0.34213684 6.5865203 -2.17727335 10.27127492 -4 14 C-4.66 13.67 -5.32 13.34 -6 13 C-6 12.01 -6 11.02 -6 10 C-5.34 10 -4.68 10 -4 10 C-4 8.35 -4 6.7 -4 5 C-3.34 5 -2.68 5 -2 5 C-2 4.01 -2 3.02 -2 2 C-1.34 2 -0.68 2 0 2 C0 1.34 0 0.68 0 0 Z " fill="#0C3A6C" transform="translate(50,127)"/>
<path d="M0 0 C0.99 0.4021875 0.99 0.4021875 2 0.8125 C5.64939067 2.25705047 9.32245433 3.62871178 13 5 C12.67 6.32 12.34 7.64 12 9 C8.98472262 7.59422879 6.4052059 5.93873852 3.75 3.9375 C3.04359375 3.41027344 2.3371875 2.88304687 1.609375 2.33984375 C1.07828125 1.89769531 0.5471875 1.45554687 0 1 C0 0.67 0 0.34 0 0 Z " fill="#5A7695" transform="translate(100,436)"/>
<path d="M0 0 C0.33 0.66 0.66 1.32 1 2 C1.66 2 2.32 2 3 2 C4.64800856 5.66447432 5.33580973 8.81203466 5.625 12.8125 C5.69976563 13.78832031 5.77453125 14.76414062 5.8515625 15.76953125 C5.92503906 16.87361328 5.92503906 16.87361328 6 18 C3.40052213 15.40052213 2.9315565 13.07261547 1.875 9.5625 C1.52179687 8.40878906 1.16859375 7.25507813 0.8046875 6.06640625 C0 3 0 3 0 0 Z " fill="#637F9D" transform="translate(24,318)"/>
<path d="M0 0 C0.66 0 1.32 0 2 0 C1.67 1.65 1.34 3.3 1 5 C0.01 4.67 -0.98 4.34 -2 4 C-2.28875 4.7425 -2.5775 5.485 -2.875 6.25 C-4.8852459 11.16393443 -4.8852459 11.16393443 -6 13 C-6.99 13.33 -7.98 13.66 -9 14 C-7.34966761 8.71893635 -3.90667286 3.90667286 0 0 Z " fill="#0E365F" transform="translate(66,103)"/>
<path d="M0 0 C1.98 0 3.96 0 6 0 C3.41030732 3.88453902 1.12356704 4.86458135 -3 7 C-3.66 7 -4.32 7 -5 7 C-5.33 6.01 -5.66 5.02 -6 4 C-4.02 3.67 -2.04 3.34 0 3 C0 2.01 0 1.02 0 0 Z " fill="#4E6A8E" transform="translate(372,453)"/>
<path d="M0 0 C0.33 0 0.66 0 1 0 C1.05423638 1.91635217 1.09289963 3.83314925 1.125 5.75 C1.14820312 6.81734375 1.17140625 7.8846875 1.1953125 8.984375 C1.00487687 11.92470106 0.52670104 13.52361878 -1 16 C-1.33 16 -1.66 16 -2 16 C-1.85975781 13.52039864 -1.7130815 11.04147598 -1.5625 8.5625 C-1.52318359 7.85544922 -1.48386719 7.14839844 -1.44335938 6.41992188 C-1.11328125 1.11328125 -1.11328125 1.11328125 0 0 Z " fill="#0F385F" transform="translate(118,374)"/>
<path d="M0 0 C0.66 0 1.32 0 2 0 C0.35821735 4.77609498 -2.26546702 8.79382904 -5 13 C-6.31625194 10.36749612 -5.74813658 9.19820944 -5.0625 6.375 C-4.86785156 5.55773437 -4.67320312 4.74046875 -4.47265625 3.8984375 C-4.23869141 2.95871094 -4.23869141 2.95871094 -4 2 C-2.68 2 -1.36 2 0 2 C0 1.34 0 0.68 0 0 Z " fill="#4D698D" transform="translate(141,322)"/>
<path d="M0 0 C0.33 0 0.66 0 1 0 C1.10655578 6.44070471 0.96205088 12.62641289 0 19 C-0.33 19 -0.66 19 -1 19 C-1.22171552 16.39634072 -1.42784859 13.79303507 -1.625 11.1875 C-1.68945312 10.44951172 -1.75390625 9.71152344 -1.8203125 8.95117188 C-2.2265625 3.33984375 -2.2265625 3.33984375 0 0 Z " fill="#4D6A88" transform="translate(485,265)"/>
<path d="M0 0 C0.66 1.32 1.32 2.64 2 4 C1.01 5.485 1.01 5.485 0 7 C-0.66 7 -1.32 7 -2 7 C-2.33 9.31 -2.66 11.62 -3 14 C-3.66 13.67 -4.32 13.34 -5 13 C-4.39254603 8.14036821 -2.27241033 4.2594482 0 0 Z " fill="#536E8E" transform="translate(33,158)"/>
<path d="M0 0 C0.66 0.33 1.32 0.66 2 1 C-3.0940919 8.68490153 -3.0940919 8.68490153 -6.875 10 C-7.57625 10 -8.2775 10 -9 10 C-6.68116787 5.49115974 -3.93548431 3.06093224 0 0 Z " fill="#0F3964" transform="translate(88,78)"/>
<path d="M0 0 C1.32 0.99 2.64 1.98 4 3 C2.8572081 4.16964602 1.71068285 5.33564556 0.5625 6.5 C-0.07558594 7.1496875 -0.71367187 7.799375 -1.37109375 8.46875 C-3 10 -3 10 -4 10 C-4.1875 7.625 -4.1875 7.625 -4 5 C-3.01 4.34 -2.02 3.68 -1 3 C-0.67 2.01 -0.34 1.02 0 0 Z " fill="#33547B" transform="translate(419,413)"/>
<path d="M0 0 C0.12375 0.639375 0.2475 1.27875 0.375 1.9375 C0.684375 2.9584375 0.684375 2.9584375 1 4 C1.66 4.33 2.32 4.66 3 5 C1.75 7.5 1.75 7.5 0 10 C-1.32 10 -2.64 10 -4 10 C-2.66666667 6.66666667 -1.33333333 3.33333333 0 0 Z " fill="#426283" transform="translate(258,401)"/>
<path d="M0 0 C2 2 2 2 2 5 C3.32 5.66 4.64 6.32 6 7 C6 7.99 6 8.98 6 10 C5.34 10 4.68 10 4 10 C3.67 10.99 3.34 11.98 3 13 C-0.42857143 4.57142857 -0.42857143 4.57142857 0 0 Z " fill="#38597F" transform="translate(30,333)"/>
<path d="M0 0 C-3.42094242 2.28062828 -4.68187222 2.21925007 -8.6875 2.125 C-10.17830078 2.09792969 -10.17830078 2.09792969 -11.69921875 2.0703125 C-12.45847656 2.04710937 -13.21773437 2.02390625 -14 2 C-13.67 1.01 -13.34 0.02 -13 -1 C-8.15507803 -2.51403812 -4.7408989 -1.36602172 0 0 Z " fill="#466588" transform="translate(246,262)"/>
<path d="M0 0 C-11.52164009 4.59225513 -11.52164009 4.59225513 -17 4 C-15 2 -15 2 -12.375 1.875 C-11.59125 1.91625 -10.8075 1.9575 -10 2 C-10 1.34 -10 0.68 -10 0 C-3.375 -1.125 -3.375 -1.125 0 0 Z " fill="#7790AA" transform="translate(324,480)"/>
<path d="M0 0 C1.28497537 3.85492611 0.4052209 5.40346836 -0.9375 9.1875 C-1.31777344 10.27417969 -1.69804687 11.36085938 -2.08984375 12.48046875 C-2.39019531 13.31191406 -2.69054687 14.14335937 -3 15 C-3.33 15 -3.66 15 -4 15 C-4.45356243 8.53673535 -3.59378942 5.39068413 0 0 Z " fill="#526D8A" transform="translate(477,316)"/>
<path d="M0 0 C1 2 1 2 0.3125 4.875 C-1.05129756 8.12213706 -2.46570592 9.62920876 -5 12 C-5.33 12.99 -5.66 13.98 -6 15 C-6.66 15 -7.32 15 -8 15 C-6.62712658 11.30123909 -4.93644547 8.0485524 -2.875 4.6875 C-2.33617187 3.80449219 -1.79734375 2.92148437 -1.2421875 2.01171875 C-0.83226562 1.34785156 -0.42234375 0.68398438 0 0 Z " fill="#758697" transform="translate(217,316)"/>
<path d="M0 0 C1 2 1 2 0.0625 5.125 C-0.288125 6.07375 -0.63875 7.0225 -1 8 C-1.66 8 -2.32 8 -3 8 C-3 8.66 -3 9.32 -3 10 C-3.66 10 -4.32 10 -5 10 C-5 10.99 -5 11.98 -5 13 C-5.66 13 -6.32 13 -7 13 C-5.35821735 8.22390502 -2.73453298 4.20617096 0 0 Z " fill="#5A7198" transform="translate(53,119)"/>
<path d="M0 0 C0 3.76720668 -0.61115342 5.08859323 -3 8 C-5.67239793 9.03311636 -8.15665823 9.48726624 -11 10 C-7.50640535 6.40365256 -3.88901869 3.16548033 0 0 Z " fill="#70899B" transform="translate(222,448)"/>
<path d="M0 0 C1.32 0.33 2.64 0.66 4 1 C0.7 3.31 -2.6 5.62 -6 8 C-6.66 6.68 -7.32 5.36 -8 4 C-6.68 4.33 -5.36 4.66 -4 5 C-3.67 4.01 -3.34 3.02 -3 2 C-2.01 2 -1.02 2 0 2 C0 1.34 0 0.68 0 0 Z " fill="#5F7897" transform="translate(387,444)"/>
<path d="M0 0 C2 1.375 2 1.375 4 3 C4 3.66 4 4.32 4 5 C4.66 5 5.32 5 6 5 C6.33 6.65 6.66 8.3 7 10 C5 8.625 5 8.625 3 7 C3 6.34 3 5.68 3 5 C2.0409375 4.566875 2.0409375 4.566875 1.0625 4.125 C-1 3 -1 3 -2 1 C-1.34 0.67 -0.68 0.34 0 0 Z " fill="#3E5476" transform="translate(84,418)"/>
<path d="M0 0 C1.32 0.66 2.64 1.32 4 2 C3.34 2 2.68 2 2 2 C1.7525 2.5775 1.505 3.155 1.25 3.75 C-0.16683317 6.3002997 -1.87627537 8.01785701 -4 10 C-4.25 7.6875 -4.25 7.6875 -4 5 C-2 3.3125 -2 3.3125 0 2 C0 1.34 0 0.68 0 0 Z " fill="#4A658B" transform="translate(154,303)"/>
<path d="M0 0 C0.99 0.33 1.98 0.66 3 1 C2 3 2 3 -0.75 4.125 C-6.35797335 5.62986497 -12.24704949 5.15571896 -18 5 C-18 4.67 -18 4.34 -18 4 C-17.20335937 3.96261719 -16.40671875 3.92523438 -15.5859375 3.88671875 C-9.61505346 3.51626244 -5.2886973 2.98336771 0 0 Z " fill="#0B3E6E" transform="translate(282,252)"/>
<path d="M0 0 C4 3 8 6 12 9 C6.5388601 8.64766839 6.5388601 8.64766839 4 8 C2.5 5.9375 2.5 5.9375 2 4 C1.34 4 0.68 4 0 4 C0 2.68 0 1.36 0 0 Z " fill="#597595" transform="translate(248,244)"/>
<path d="M0 0 C1.65 0 3.3 0 5 0 C4.21625 0.5775 3.4325 1.155 2.625 1.75 C0.19952756 3.82897637 -0.85694417 5.09040333 -2 8 C-2.99 8 -3.98 8 -5 8 C-4.67 6.35 -4.34 4.7 -4 3 C-2.68 2.67 -1.36 2.34 0 2 C0 1.34 0 0.68 0 0 Z " fill="#0D3A68" transform="translate(251,201)"/>
<path d="M0 0 C0.33 0 0.66 0 1 0 C2.35345328 7.25943122 2.35345328 7.25943122 0.6875 10.75 C0.130625 11.4925 -0.42625 12.235 -1 13 C-1.68096422 14.32608822 -2.35330586 15.65686601 -3 17 C-2.36934845 11.2190275 -1.34844868 5.6556294 0 0 Z " fill="#526F92" transform="translate(21,194)"/>
<path d="M0 0 C0.66 0.33 1.32 0.66 2 1 C-1 3 -1 3 -4 3 C-4 3.66 -4 4.32 -4 5 C-1.69 5.66 0.62 6.32 3 7 C-1.17587745 8.39195915 -3.13474776 6.82323219 -7 5 C-7 4.34 -7 3.68 -7 3 C-4.69631264 1.93347808 -2.35981813 0.93578995 0 0 Z " fill="#7A8798" transform="translate(180,473)"/>
<path d="M0 0 C1.9451 2.91765 2.45276317 4.62537285 3 8 C0.8125 8.8125 0.8125 8.8125 -2 9 C-4.8125 6.5625 -4.8125 6.5625 -7 4 C-1.25 5.875 -1.25 5.875 1 7 C0.67 4.69 0.34 2.38 0 0 Z " fill="#8E9BAE" transform="translate(124,445)"/>
<path d="M0 0 C1.2077558 3.62326739 0.54311128 4.64146369 -1 8 C-1.33 7.01 -1.66 6.02 -2 5 C-2.33 5.66 -2.66 6.32 -3 7 C-3.99 7 -4.98 7 -6 7 C-6 5.68 -6 4.36 -6 3 C-4.02 2.67 -2.04 2.34 0 2 C0 1.34 0 0.68 0 0 Z " fill="#093C70" transform="translate(136,327)"/>
<path d="M0 0 C2 1.8125 2 1.8125 4 4 C4 4.99 4 5.98 4 7 C2.02 6.34 0.04 5.68 -2 5 C-2 3.68 -2 2.36 -2 1 C-1.34 0.67 -0.68 0.34 0 0 Z " fill="#0C3A6C" transform="translate(442,113)"/>
<path d="M0 0 C1.98 0.66 3.96 1.32 6 2 C0.85714286 6.42857143 0.85714286 6.42857143 -3 7 C-3.33 6.01 -3.66 5.02 -4 4 C-2.35 3.67 -0.7 3.34 1 3 C0.67 2.01 0.34 1.02 0 0 Z " fill="#3C6086" transform="translate(359,459)"/>
<path d="M0 0 C0.99 0.33 1.98 0.66 3 1 C3.66015625 2.92578125 3.66015625 2.92578125 4.0625 5.3125 C4.62591884 8.55886568 5.40454683 11.10699985 7 14 C5.109375 13.3828125 5.109375 13.3828125 3 12 C1.953125 9.1796875 1.953125 9.1796875 1.25 5.875 C1.00765625 4.77929688 0.7653125 3.68359375 0.515625 2.5546875 C0.34546875 1.71164063 0.1753125 0.86859375 0 0 Z " fill="#0C3562" transform="translate(462,149)"/>
<path d="M0 0 C1.32 0.66 2.64 1.32 4 2 C2.8803014 3.00593243 1.7540588 4.0045849 0.625 5 C-0.00148438 5.556875 -0.62796875 6.11375 -1.2734375 6.6875 C-3 8 -3 8 -5 8 C-5 7.01 -5 6.02 -5 5 C-4.01 5 -3.02 5 -2 5 C-2 4.01 -2 3.02 -2 2 C-1.34 2 -0.68 2 0 2 C0 1.34 0 0.68 0 0 Z " fill="#4C688B" transform="translate(396,436)"/>
<path d="M0 0 C0 0.66 0 1.32 0 2 C0.66 2.33 1.32 2.66 2 3 C1.34 3.66 0.68 4.32 0 5 C-2.625 4.625 -2.625 4.625 -5 4 C-5.33 3.01 -5.66 2.02 -6 1 C-3.92446352 0.4465236 -2.15634036 0 0 0 Z " fill="#1E4676" transform="translate(401,432)"/>
<path d="M0 0 C0.66 0 1.32 0 2 0 C2 0.66 2 1.32 2 2 C2.66 2 3.32 2 4 2 C4.99 4.31 5.98 6.62 7 9 C6.34 9.66 5.68 10.32 5 11 C4.16151196 9.54462432 3.32936066 8.08559627 2.5 6.625 C1.80390625 5.40683594 1.80390625 5.40683594 1.09375 4.1640625 C0 2 0 2 0 0 Z " fill="#4C6386" transform="translate(38,355)"/>
<path d="M0 0 C0.66 0.33 1.32 0.66 2 1 C-0.96283313 3.38672669 -3.94270509 5.7353371 -7 8 C-8.32 7.34 -9.64 6.68 -11 6 C-10.28972656 5.65066406 -9.57945312 5.30132812 -8.84765625 4.94140625 C-7.92855469 4.48636719 -7.00945312 4.03132813 -6.0625 3.5625 C-4.68771484 2.88380859 -4.68771484 2.88380859 -3.28515625 2.19140625 C-1.09471096 1.19474606 -1.09471096 1.19474606 0 0 Z " fill="#6E8096" transform="translate(199,464)"/>
<path d="M0 0 C0.99 0.33 1.98 0.66 3 1 C2.43454163 4.95820859 1.19097652 7.6659053 -1 11 C-2.31625194 8.36749612 -1.74813658 7.19820944 -1.0625 4.375 C-0.86785156 3.55773437 -0.67320312 2.74046875 -0.47265625 1.8984375 C-0.23869141 0.95871094 -0.23869141 0.95871094 0 0 Z " fill="#4E6B91" transform="translate(459,356)"/>
<path d="M0 0 C0.33 0 0.66 0 1 0 C1.20140476 3.62528568 0.85776765 5.86501708 -1 9 C-2.65 8.67 -4.3 8.34 -6 8 C-5.34 6.68 -4.68 5.36 -4 4 C-3.34 4.33 -2.68 4.66 -2 5 C-1.34 3.35 -0.68 1.7 0 0 Z " fill="#063A6A" transform="translate(472,326)"/>
<path d="M0 0 C0.33 0 0.66 0 1 0 C1 1.65 1 3.3 1 5 C0.34 5 -0.32 5 -1 5 C-1.33 6.65 -1.66 8.3 -2 10 C-2.99 10.33 -3.98 10.66 -5 11 C-3.77782954 6.95743617 -2.37245704 3.50711041 0 0 Z " fill="#617892" transform="translate(45,132)"/>
<path d="M0 0 C0 3 0 3 -2 6 C-4.95264073 8.04413589 -6.36672806 9 -10 9 C-6.7 6.03 -3.4 3.06 0 0 Z " fill="#6F8B9F" transform="translate(98,67)"/>
<path d="M0 0 C0.33 1.32 0.66 2.64 1 4 C0.01 4.495 0.01 4.495 -1 5 C-1.33 4.01 -1.66 3.02 -2 2 C-1.34 1.34 -0.68 0.68 0 0 Z M-4 4 C-3.01 4.33 -2.02 4.66 -1 5 C-2.65 6.65 -4.3 8.3 -6 10 C-6.33 9.01 -6.66 8.02 -7 7 C-6.01 6.01 -5.02 5.02 -4 4 Z " fill="#0B3560" transform="translate(243,429)"/>
<path d="M0 0 C0.99 0.33 1.98 0.66 3 1 C2.67 2.65 2.34 4.3 2 6 C0.68 6 -0.64 6 -2 6 C-2.33 6.66 -2.66 7.32 -3 8 C-2.67 6.35 -2.34 4.7 -2 3 C-1.34 3 -0.68 3 0 3 C0 2.01 0 1.02 0 0 Z " fill="#142D60" transform="translate(239,280)"/>
<path d="M0 0 C4 4.5 4 4.5 4 9 C1.525 8.01 1.525 8.01 -1 7 C-0.67 4.69 -0.34 2.38 0 0 Z " fill="#375D7D" transform="translate(244,238)"/>
<path d="M0 0 C0.66 0 1.32 0 2 0 C4.29648649 2.5614657 5 3.47967572 5 7 C3.35 6.67 1.7 6.34 0 6 C0 4.02 0 2.04 0 0 Z " fill="#0E3C67" transform="translate(426,93)"/>
<path d="M0 0 C3.81684226 1.55500981 6.19195732 4.03595495 9 7 C6.03 6.505 6.03 6.505 3 6 C3 5.01 3 4.02 3 3 C1.35 3 -0.3 3 -2 3 C-1.34 2.67 -0.68 2.34 0 2 C0 1.34 0 0.68 0 0 Z " fill="#507690" transform="translate(387,55)"/>
<path d="M0 0 C0.66 0.33 1.32 0.66 2 1 C0.1875 3 0.1875 3 -2 5 C-2.99 5 -3.98 5 -5 5 C-5 5.66 -5 6.32 -5 7 C-5.66 6.67 -6.32 6.34 -7 6 C-7 5.34 -7 4.68 -7 4 C-1.7265625 0.77734375 -1.7265625 0.77734375 0 0 Z " fill="#335379" transform="translate(186,471)"/>
<path d="M0 0 C1.32 0 2.64 0 4 0 C4 0.99 4 1.98 4 3 C5.32 2.67 6.64 2.34 8 2 C8 3.65 8 5.3 8 7 C3.125 4.375 3.125 4.375 2 1 C1.34 0.67 0.68 0.34 0 0 Z " fill="#688199" transform="translate(91,428)"/>
<path d="M0 0 C0.33 0 0.66 0 1 0 C1 1.65 1 3.3 1 5 C0.34 5 -0.32 5 -1 5 C-1.66 7.64 -2.32 10.28 -3 13 C-4.00573177 8.97707292 -4.07668895 8.3618129 -2.625 4.8125 C-2.34914063 4.11769531 -2.07328125 3.42289062 -1.7890625 2.70703125 C-1 1 -1 1 0 0 Z " fill="#12385B" transform="translate(269,379)"/>
<path d="M0 0 C1.32 0 2.64 0 4 0 C3.75 2.375 3.75 2.375 3 5 C0.9375 6.3125 0.9375 6.3125 -1 7 C-1 3 -1 3 0 0 Z " fill="#36567B" transform="translate(463,347)"/>
<path d="M0 0 C0 4.53846154 0 4.53846154 -1 7 C-3.4375 8.8125 -3.4375 8.8125 -6 10 C-6.66 9.67 -7.32 9.34 -8 9 C-5.36 6.03 -2.72 3.06 0 0 Z " fill="#64829D" transform="translate(81,83)"/>
<path d="M0 0 C3.77545388 1.09068668 6.47043472 1.9083091 9 5 C2.25 4.125 2.25 4.125 0 3 C0 2.01 0 1.02 0 0 Z " fill="#57728D" transform="translate(350,33)"/>
<path d="M0 0 C3.63 0.33 7.26 0.66 11 1 C9.515 2.485 9.515 2.485 8 4 C5.64828869 3.40138258 3.3140622 2.73075648 1 2 C0.67 1.34 0.34 0.68 0 0 Z " fill="#4E6988" transform="translate(281,13)"/>
<path d="M0 0 C0.99 0.33 1.98 0.66 3 1 C2.34 1 1.68 1 1 1 C1.33 1.99 1.66 2.98 2 4 C0.02 4.66 -1.96 5.32 -4 6 C-4.66 5.34 -5.32 4.68 -6 4 C-3.1875 1.9375 -3.1875 1.9375 0 0 Z " fill="#0E3760" transform="translate(199,466)"/>
<path d="M0 0 C0 0.66 0 1.32 0 2 C0.99 1.67 1.98 1.34 3 1 C3 1.66 3 2.32 3 3 C1.02 3.66 -0.96 4.32 -3 5 C-3.66 4.34 -4.32 3.68 -5 3 C-2.25 0 -2.25 0 0 0 Z " fill="#345E7B" transform="translate(205,462)"/>
<path d="M0 0 C0.66 0.33 1.32 0.66 2 1 C1.34 2.65 0.68 4.3 0 6 C-0.99 6 -1.98 6 -3 6 C-3.33 6.66 -3.66 7.32 -4 8 C-4 4 -4 4 -2 1.75 C-1.01 0.88375 -1.01 0.88375 0 0 Z " fill="#455E7B" transform="translate(228,443)"/>
<path d="M0 0 C1.98 0.66 3.96 1.32 6 2 C5.34 3.32 4.68 4.64 4 6 C2 4.6875 2 4.6875 0 3 C0 2.01 0 1.02 0 0 Z " fill="#193D61" transform="translate(75,409)"/>
<path d="M0 0 C1.32 0.99 2.64 1.98 4 3 C4.33 2.34 4.66 1.68 5 1 C5.33 2.65 5.66 4.3 6 6 C5.01 6.66 4.02 7.32 3 8 C0 3.375 0 3.375 0 0 Z " fill="#576F97" transform="translate(34,346)"/>
<path d="M0 0 C1.485 0.99 1.485 0.99 3 2 C1.25 7.75 1.25 7.75 -1 10 C-1.125 2.25 -1.125 2.25 0 0 Z " fill="#5D7796" transform="translate(129,340)"/>
<path d="M0 0 C0.33 0.66 0.66 1.32 1 2 C1.99 2 2.98 2 4 2 C3.67 2.99 3.34 3.98 3 5 C1.54207116 5.05399736 0.08357288 5.09279177 -1.375 5.125 C-2.18710938 5.14820313 -2.99921875 5.17140625 -3.8359375 5.1953125 C-6 5 -6 5 -8 3 C-5.36 3 -2.72 3 0 3 C0 2.01 0 1.02 0 0 Z " fill="#0C3A73" transform="translate(201,339)"/>
<path d="M0 0 C1.65 0.33 3.3 0.66 5 1 C4.01 1.66 3.02 2.32 2 3 C1.27617533 5.05925139 1.27617533 5.05925139 1 7 C0.01 6.67 -0.98 6.34 -2 6 C-1.49396008 3.83125748 -1.00016187 2.00032373 0 0 Z " fill="#0E3E70" transform="translate(157,297)"/>
<path d="M0 0 C-3.23521742 2.48862878 -6.59260295 4.75421558 -10 7 C-9.63206382 4.33246269 -9.18001672 3.18001672 -7.25 1.25 C-4.62056017 -0.21079991 -2.9625559 -0.24687966 0 0 Z " fill="#677C94" transform="translate(259,202)"/>
<path d="M0 0 C0 3 0 3 -1.53125 4.82421875 C-2.1809375 5.43910156 -2.830625 6.05398437 -3.5 6.6875 C-4.1496875 7.31011719 -4.799375 7.93273437 -5.46875 8.57421875 C-5.9740625 9.04472656 -6.479375 9.51523438 -7 10 C-7 6.04435836 -5.59478606 4.89133304 -3 2 C-2.01 1.34 -1.02 0.68 0 0 Z " fill="#0B4073" transform="translate(112,59)"/>
<path d="M0 0 C-5.4 3.6 -5.4 3.6 -8 5 C-8.66 4.67 -9.32 4.34 -10 4 C-10 3.01 -10 2.02 -10 1 C-6.59437148 0.22157062 -3.49234244 -0.09978121 0 0 Z " fill="#486E91" transform="translate(356,466)"/>
<path d="M0 0 C0.89694794 3.58779175 1.08304117 6.34618837 1 10 C-0.32 10.33 -1.64 10.66 -3 11 C-2.01 7.37 -1.02 3.74 0 0 Z " fill="#5E7791" transform="translate(265,384)"/>
<path d="M0 0 C0.33 0 0.66 0 1 0 C2.19287411 3.87684087 3 6.91621923 3 11 C2.01 10.67 1.02 10.34 0 10 C0 6.7 0 3.4 0 0 Z " fill="#133760" transform="translate(177,361)"/>
<path d="M0 0 C1 3 1 3 0 6 C-1.65 6 -3.3 6 -5 6 C-4.75 4.125 -4.75 4.125 -4 2 C-1.9375 0.75 -1.9375 0.75 0 0 Z " fill="#0E3969" transform="translate(227,312)"/>
<path d="M0 0 C1.32 0.33 2.64 0.66 4 1 C0.535 3.97 0.535 3.97 -3 7 C-2.25 2.25 -2.25 2.25 0 0 Z " fill="#627C9A" transform="translate(161,297)"/>
<path d="M0 0 C3.35595828 0.59927826 5.37801226 1.84622436 8 4 C7.67 4.66 7.34 5.32 7 6 C5.68 5.67 4.36 5.34 3 5 C3 4.34 3 3.68 3 3 C2.34 3 1.68 3 1 3 C0.67 2.01 0.34 1.02 0 0 Z " fill="#0C3B69" transform="translate(363,42)"/>
<path d="M0 0 C0.66 0 1.32 0 2 0 C2 1.98 2 3.96 2 6 C0.35 5.67 -1.3 5.34 -3 5 C-1.625 2.5 -1.625 2.5 0 0 Z " fill="#0A3E74" transform="translate(413,417)"/>
<path d="M0 0 C1.5 1.0625 1.5 1.0625 3 3 C3.1875 6.6875 3.1875 6.6875 3 10 C-0.00617269 6.99382731 0.40414684 4.17618402 0 0 Z " fill="#52698B" transform="translate(259,276)"/>
<path d="M0 0 C5.875 3.625 5.875 3.625 7 7 C6.34 7 5.68 7 5 7 C4.67 6.34 4.34 5.68 4 5 C2.35 5 0.7 5 -1 5 C-0.67 3.35 -0.34 1.7 0 0 Z " fill="#4D6B87" transform="translate(411,75)"/>
<path d="M0 0 C0.66 0.33 1.32 0.66 2 1 C0.3125 3.5 0.3125 3.5 -2 6 C-4.75 6.3125 -4.75 6.3125 -7 6 C-4.83312509 3.72478134 -2.54379491 1.84205838 0 0 Z " fill="#687A9B" transform="translate(117,52)"/>
<path d="M0 0 C2.64 0 5.28 0 8 0 C8 0.66 8 1.32 8 2 C5.36 2.33 2.72 2.66 0 3 C0 2.01 0 1.02 0 0 Z " fill="#446483" transform="translate(299,483)"/>
<path d="M0 0 C-3.28463659 2.18975773 -6.20696275 2.99806563 -10 4 C-9.67 3.01 -9.34 2.02 -9 1 C-6.04335481 -0.4783226 -3.25770263 -0.06032783 0 0 Z " fill="#5A7292" transform="translate(346,471)"/>
<path d="M0 0 C3.465 1.485 3.465 1.485 7 3 C6.67 3.99 6.34 4.98 6 6 C5.34 6 4.68 6 4 6 C4 5.01 4 4.02 4 3 C2.68 3 1.36 3 0 3 C0 2.01 0 1.02 0 0 Z " fill="#0F3C67" transform="translate(91,425)"/>
<path d="M0 0 C1.231394 2.46278801 1.07159196 4.2795055 1 7 C-0.32 7 -1.64 7 -3 7 C-3.33 6.01 -3.66 5.02 -4 4 C-3.34 4 -2.68 4 -2 4 C-1.34 2.68 -0.68 1.36 0 0 Z " fill="#093B6A" transform="translate(70,394)"/>
<path d="M0 0 C2.0625 2.25 2.0625 2.25 4 5 C3.75 7.3125 3.75 7.3125 3 9 C0.90250005 6.64031256 0.03094296 5.45383006 -0.1875 2.25 C-0.125625 1.5075 -0.06375 0.765 0 0 Z " fill="#3B5A7D" transform="translate(59,387)"/>
<path d="M0 0 C0.99 0 1.98 0 3 0 C2.46930939 3.82097239 1.50298434 6.06171403 -1 9 C-0.67 6.03 -0.34 3.06 0 0 Z " fill="#46638E" transform="translate(468,337)"/>
<path d="M0 0 C1 2 1 2 0.44140625 3.9453125 C0.15136719 4.66460937 -0.13867188 5.38390625 -0.4375 6.125 C-0.72496094 6.84945313 -1.01242188 7.57390625 -1.30859375 8.3203125 C-1.53675781 8.87460937 -1.76492187 9.42890625 -2 10 C-2.33 10 -2.66 10 -3 10 C-3 7.69 -3 5.38 -3 3 C-2.34 3 -1.68 3 -1 3 C-0.67 2.01 -0.34 1.02 0 0 Z " fill="#637793" transform="translate(237,292)"/>
<path d="M0 0 C3.05882701 1.52941351 3.68951234 3.94219546 5 7 C4.67 7.66 4.34 8.32 4 9 C2 7.875 2 7.875 0 6 C-0.25 2.8125 -0.25 2.8125 0 0 Z " fill="#627A98" transform="translate(454,129)"/>
<path d="M0 0 C5.57142857 5.14285714 5.57142857 5.14285714 6 9 C5.34 9 4.68 9 4 9 C4 8.01 4 7.02 4 6 C3.01 6 2.02 6 1 6 C0.67 4.02 0.34 2.04 0 0 Z " fill="#627894" transform="translate(435,101)"/>
<path d="M0 0 C0.33 0 0.66 0 1 0 C1.36630156 3.93774177 1.30233203 5.56539771 -1 8.875 C-1.66 9.57625 -2.32 10.2775 -3 11 C-2.44894091 7.0507432 -1.61064629 3.65079826 0 0 Z " fill="#4D6480" transform="translate(269,373)"/>
<path d="M0 0 C0.33 0.99 0.66 1.98 1 3 C1.99 3 2.98 3 4 3 C3.42655063 5.86724686 3.1385485 6.8614515 1 9 C0.67 6.03 0.34 3.06 0 0 Z " fill="#5D7A95" transform="translate(18,291)"/>
<path d="M0 0 C0.99 0.33 1.98 0.66 3 1 C1.25 3.0625 1.25 3.0625 -1 5 C-3.25 4.75 -3.25 4.75 -5 4 C-2.6875 1.9375 -2.6875 1.9375 0 0 Z " fill="#13375C" transform="translate(121,51)"/>
<path d="M0 0 C2.375 0.3125 2.375 0.3125 5 1 C5.66 1.99 6.32 2.98 7 4 C5.35 4 3.7 4 2 4 C2 3.34 2 2.68 2 2 C1.34 2 0.68 2 0 2 C0 1.34 0 0.68 0 0 Z " fill="#5E7692" transform="translate(359,38)"/>
</svg>
