<?xml version="1.0" encoding="UTF-8"?>
<svg version="1.1" xmlns="http://www.w3.org/2000/svg" width="225" height="225">
<path d="M0 0 C33.66 0 67.32 0 102 0 C101.67 6.27 101.34 12.54 101 19 C100.34276623 42.3317988 103.0528425 65.05367554 108.49707031 87.73339844 C109.17960296 90.80943393 109.61665642 93.87362017 110 97 C108.94941406 97.6290625 107.89882812 98.258125 106.81640625 98.90625 C82.76471244 113.48233909 67.78119118 133.67972342 59.7421875 160.6796875 C59.08637136 163.6136018 58.74665016 166.01487796 59 169 C59.33 169.33 59.66 169.66 60 170 C60.58139535 177.09302326 60.58139535 177.09302326 58.4375 180.4375 C55.11622522 182.5665223 52.95419205 183.06817573 49 183 C45.21066461 180.68429504 43.38876327 179.19058752 42 174.9375 C42 172 42 172 43.03125 170.08203125 C45.74602609 164.24745199 41.42405548 155.90009826 39.375 150.25 C34.84302141 138.28049392 28.54644063 127.57517885 20 118 C19.26265625 117.16855469 18.5253125 116.33710937 17.765625 115.48046875 C10.44254825 107.69072534 1.67384084 101.57482129 -8 97 C-7.82984375 96.40316406 -7.6596875 95.80632812 -7.484375 95.19140625 C-5.87849691 89.44270438 -4.36750963 83.66977067 -2.9375 77.875 C-2.77540039 77.25052979 -2.61330078 76.62605957 -2.44628906 75.98266602 C0.90709719 62.11848845 1.30593419 47.99363783 1.20581055 33.8046875 C1.18737479 31.10667558 1.1853031 28.40900642 1.18554688 25.7109375 C1.18063511 23.95572626 1.17480829 22.20051729 1.16796875 20.4453125 C1.16685593 19.65859161 1.1657431 18.87187073 1.16459656 18.06130981 C1.11362362 11.94801778 0.55891896 6.14810853 0 0 Z M48 49 C48 49.33 48 49.66 48 50 C50.64 50 53.28 50 56 50 C56 49.67 56 49.34 56 49 C53.36 49 50.72 49 48 49 Z M51 55 C50.67 55.99 50.34 56.98 50 58 C50.33 58.66 50.66 59.32 51 60 C49.68 60.33 48.36 60.66 47 61 C48.32 61 49.64 61 51 61 C51 61.99 51 62.98 51 64 C50.01 64.33 49.02 64.66 48 65 C48.99 65 49.98 65 51 65 C51.33 66.32 51.66 67.64 52 69 C52 67.68 52 66.36 52 65 C52.66 64.67 53.32 64.34 54 64 C53.34 64 52.68 64 52 64 C52 63.01 52 62.02 52 61 C53.32 60.67 54.64 60.34 56 60 C54.68 60 53.36 60 52 60 C52.33 59.01 52.66 58.02 53 57 C52.34 56.34 51.68 55.68 51 55 Z M63 62 C64 64 64 64 64 64 Z M38 65 C38 66.98 38 68.96 38 71 C38.33 71 38.66 71 39 71 C39 69.02 39 67.04 39 65 C38.67 65 38.34 65 38 65 Z M64 66 C65 70 65 70 65 70 Z M20 67 C21 69 21 69 21 69 Z M82 67 C83 69 83 69 83 69 Z M51 70 C51 104.32 51 138.64 51 174 C51.33 174 51.66 174 52 174 C52 139.68 52 105.36 52 70 C51.67 70 51.34 70 51 70 Z M39 72 C40 74 40 74 40 74 Z M41 76 C41.66 76.66 42.32 77.32 43 78 C43 77.34 43 76.68 43 76 C42.34 76 41.68 76 41 76 Z M60 76 C61 78 61 78 61 78 Z " fill="#D9203C" transform="translate(55,0)"/>
<path d="M0 0 C3.75319208 1.84247611 5.5026965 3.005393 7.375 6.75 C7.58125 7.4925 7.7875 8.235 8 9 C9.0725 8.95875 10.145 8.9175 11.25 8.875 C14.65747485 8.9885825 16.20739631 9.21273364 19 11 C19.391875 9.741875 19.78375 8.48375 20.1875 7.1875 C21.28690978 4.29835337 21.88820367 3.09937452 24.25 1 C27.78230865 -0.28447587 30.26488825 -0.46688897 34 0 C36.99941457 1.59968777 38.56581853 2.81504641 39.75 6.046875 C40.25160607 8.01149878 40.63435861 10.00559241 41 12 C42.44681324 9.10637351 42.43242376 6.1916991 42.71875 2.99609375 C43 1 43 1 44 0 C45.98 0 47.96 0 50 0 C50 9.57 50 19.14 50 29 C36.14 29 22.28 29 8 29 C7.67 27.35 7.34 25.7 7 24 C6.236875 24.825 5.47375 25.65 4.6875 26.5 C0.902728 29.68860266 -2.63449757 29.48489291 -7.4140625 29.37109375 C-10.01159788 28.99833565 -11.74883872 28.31581962 -14 27 C-14.66 27.66 -15.32 28.32 -16 29 C-20.56290274 29.53233865 -23.65961527 29.71831588 -27.4375 26.9375 C-30.49422915 23.43344463 -31.08254987 21.62279272 -31 17 C-29.42435501 13.35113792 -27.53250338 10.86437678 -24 9 C-20.25 8.8125 -20.25 8.8125 -17 9 C-16.79375 8.2575 -16.5875 7.515 -16.375 6.75 C-13.01530807 0.03061614 -6.88487927 -1.21932567 0 0 Z M-9 9 C-6.03 9 -3.06 9 0 9 C-1.82703227 6.7508092 -1.82703227 6.7508092 -4.5 6.75 C-7.17296773 6.7508092 -7.17296773 6.7508092 -9 9 Z M28 7 C27.3185177 8.89179203 27.3185177 8.89179203 27 11 C27.66 11.66 28.32 12.32 29 13 C30.32 13 31.64 13 33 13 C33 11.35 33 9.7 33 8 C31.35 7.67 29.7 7.34 28 7 Z M21 15 C22 17 22 17 22 17 Z M-22 16 C-22.66 17.32 -23.32 18.64 -24 20 C-23.34 20.66 -22.68 21.32 -22 22 C-19.89179203 21.6814823 -19.89179203 21.6814823 -18 21 C-18 19.35 -18 17.7 -18 16 C-19.32 16 -20.64 16 -22 16 Z M-11 16 C-10.37158027 19.9714169 -10.37158027 19.9714169 -8 22 C-3.27278254 22.50774797 -3.27278254 22.50774797 0.9375 20.6875 C2.26640663 18.90923892 2.26640663 18.90923892 2 16 C-2.29 16 -6.58 16 -11 16 Z M9 16 C8.67 17.98 8.34 19.96 8 22 C9.65 22 11.3 22 13 22 C13.33 20.35 13.66 18.7 14 17 C12.35 16.67 10.7 16.34 9 16 Z M22 17 C21.67 18.65 21.34 20.3 21 22 C24.96 22 28.92 22 33 22 C33 21.34 33 20.68 33 20 C31.741875 19.690625 30.48375 19.38125 29.1875 19.0625 C26.73822606 18.46021952 24.39734077 17.79911359 22 17 Z M42 19 C41.01 19.495 41.01 19.495 40 20 C40 20.66 40 21.32 40 22 C40.99 22 41.98 22 43 22 C42.67 21.01 42.34 20.02 42 19 Z " fill="#0990B5" transform="translate(86,191)"/>
<path d="M0 0 C3.81170297 1.40867284 4.7372381 2.49327045 6.61450195 6.11352539 C8.2337526 10.08234973 8.38582446 13.87778414 8.29296875 18.12109375 C8.28872391 18.86585464 8.28447906 19.61061554 8.28010559 20.37794495 C8.26345724 22.73151473 8.22583375 25.08419379 8.1875 27.4375 C8.17243515 29.04360733 8.15874991 30.64972823 8.14648438 32.25585938 C8.11359952 36.17091047 8.06191626 40.08530479 8 44 C5.36 44 2.72 44 0 44 C-0.33 33.77 -0.66 23.54 -1 13 C-2.88631543 14.88631543 -2.24265292 18.14200693 -2.31640625 20.66015625 C-2.33718735 21.32462265 -2.35796844 21.98908905 -2.37937927 22.6736908 C-2.44493658 24.80318543 -2.50378785 26.93280668 -2.5625 29.0625 C-2.60567939 30.50326847 -2.64929349 31.94402399 -2.69335938 33.38476562 C-2.80144527 36.92304903 -2.90047093 40.46142397 -3 44 C-10.26 44 -17.52 44 -25 44 C-25 41.69 -25 39.38 -25 37 C-24.360625 36.71125 -23.72125 36.4225 -23.0625 36.125 C-20.84793921 35.17176549 -20.84793921 35.17176549 -20 33 C-19.57621401 28.33714722 -19.57621401 28.33714722 -21.125 24.0625 C-23.84949899 22.51861724 -25.92891945 22.6732893 -29 23 C-31.63326457 25.63326457 -31.71180635 27.32553101 -32 31 C-31.38249718 33.7970198 -31.38249718 33.7970198 -30 36 C-29.01 36.33 -28.02 36.66 -27 37 C-27 39.31 -27 41.62 -27 44 C-33.34866553 43.63373083 -33.34866553 43.63373083 -36.3125 40.75 C-39.42579177 35.67648749 -40.52878651 32.0281662 -40 26 C-38.15939101 20.88719725 -35.59956163 17.89602029 -31 15 C-26.58356869 14.16103635 -22.94010771 14.69845602 -18.6875 16.0625 C-15.29005985 18.51181732 -13.31725253 21.06329673 -12 25 C-11.55717725 28.8107704 -11.25726912 32.51453824 -13 36 C-11.515 36.495 -11.515 36.495 -10 37 C-9.85424673 33.60462148 -9.76578458 30.21005098 -9.6875 26.8125 C-9.64560547 25.85279297 -9.60371094 24.89308594 -9.56054688 23.90429688 C-9.38039966 17.95544597 -9.38039966 17.95544597 -12.51171875 13.046875 C-13.33285156 12.37140625 -14.15398438 11.6959375 -15 11 C-15.14742311 6.79844136 -14.67154038 4.81843984 -12 1.5625 C-7.88862696 -0.57884013 -4.54496449 -0.66108574 0 0 Z M-9 7 C-9 7.99 -9 8.98 -9 10 C-8.01 9.67 -7.02 9.34 -6 9 C-6 8.34 -6 7.68 -6 7 C-6.99 7 -7.98 7 -9 7 Z M-1 7 C0 9 0 9 0 9 Z " fill="#158EAE" transform="translate(46,176)"/>
<path d="M0 0 C1.33900245 0.65520582 2.67362813 1.31958845 4 2 C5.34246312 1.35191436 6.67432801 0.68177416 8 0 C12.25589957 -0.30399283 15.35176961 -0.33486745 19 2 C19.99 1.34 20.98 0.68 22 0 C26.71218117 -0.46349323 29.04345429 -0.46924884 33.3125 1.625 C36.86937003 4.76828049 38.66370409 7.39837744 39.28125 12.17578125 C39.48310348 17.18006536 38.86367371 20.75386311 36 25 C32.54743757 28.45256243 29.87562221 29.67495852 25 30 C24.34 29.67 23.68 29.34 23 29 C23 27.02 23 25.04 23 23 C24.134375 22.54625 25.26875 22.0925 26.4375 21.625 C30.04721692 20.42904194 30.04721692 20.42904194 31 18 C30.91348369 16.45386986 30.75997364 14.91090613 30.5625 13.375 C30.40974609 12.14910156 30.40974609 12.14910156 30.25390625 10.8984375 C30.17011719 10.27195313 30.08632812 9.64546875 30 9 C28.02 8.67 26.04 8.34 24 8 C21.9859044 11.0211434 21.73163404 11.80660017 21.5859375 15.23046875 C21.54726562 16.03291016 21.50859375 16.83535156 21.46875 17.66210938 C21.42234375 18.91217773 21.42234375 18.91217773 21.375 20.1875 C21.33632812 21.03248047 21.29765625 21.87746094 21.2578125 22.74804688 C21.16363721 24.83167524 21.08073325 26.91580753 21 29 C18.69 29 16.38 29 14 29 C13.505 18.605 13.505 18.605 13 8 C11.68 7.67 10.36 7.34 9 7 C8.67 14.26 8.34 21.52 8 29 C5.69 29 3.38 29 1 29 C0.67 22.07 0.34 15.14 0 8 C-2.64 8 -5.28 8 -8 8 C-8.66 8.66 -9.32 9.32 -10 10 C-8.6078125 10.1546875 -8.6078125 10.1546875 -7.1875 10.3125 C-3.93496238 11.01402772 -2.95737671 11.42450433 -1 14 C0.53214888 17.06429776 0.22938548 19.6165642 0 23 C-2.2 27.6 -2.2 27.6 -5 29 C-11.96324393 29.79906078 -11.96324393 29.79906078 -14.6015625 27.765625 C-18.48917767 23.17323749 -19.35697483 19.22038369 -19.28125 13.41796875 C-18.69361446 8.3659354 -16.55158234 4.46031279 -12.875 1 C-8.62531542 -0.47815116 -4.45358699 -0.55760357 0 0 Z M-11 18 C-11 19.32 -11 20.64 -11 22 C-9.68 21.67 -8.36 21.34 -7 21 C-7 20.01 -7 19.02 -7 18 C-8.32 18 -9.64 18 -11 18 Z " fill="#0B90B4" transform="translate(157,191)"/>
<path d="M0 0 C3.17030133 2.76385245 3.91484046 4.31872368 4.4375 8.5 C3.97918775 12.16649798 3.22769177 14.08686461 1 17 C-2.23176757 18.61588379 -5.50615283 18.57451407 -9 18 C-11.97717008 16.01521994 -13.62826444 14.63168881 -14.44140625 11.0625 C-14.66451615 7.2624346 -14.21917673 5.35521746 -12.1875 2.0625 C-8.25001223 -1.64998847 -5.05313156 -1.24112003 0 0 Z M-7 7 C-7 8.32 -7 9.64 -7 11 C-5.68 10.67 -4.36 10.34 -3 10 C-3 9.01 -3 8.02 -3 7 C-4.32 7 -5.64 7 -7 7 Z " fill="#0C8FB3" transform="translate(211,202)"/>
<path d="M0 0 C1.32 0.66 2.64 1.32 4 2 C4 2.99 4 3.98 4 5 C3.34 5 2.68 5 2 5 C2 5.66 2 6.32 2 7 C2.66 7 3.32 7 4 7 C2.66530639 12.67244784 -1.48989526 14.86770748 -6 18 C-6.33 18.33 -6.66 18.66 -7 19 C-11.72727273 23 -11.72727273 23 -14 23 C-14 22.34 -14 21.68 -14 21 C-14.66 21 -15.32 21 -16 21 C-15.67 21.99 -15.34 22.98 -15 24 C-15.886875 23.690625 -16.77375 23.38125 -17.6875 23.0625 C-20.46709155 22.1709329 -23.13136375 21.50622993 -26 21 C-26.33 22.32 -26.66 23.64 -27 25 C-25.68 25.33 -24.36 25.66 -23 26 C-23.99 26 -24.98 26 -26 26 C-26.33 27.65 -26.66 29.3 -27 31 C-27.33 31 -27.66 31 -28 31 C-28 24.07 -28 17.14 -28 10 C-24.7 10.33 -21.4 10.66 -18 11 C-18.33 10.34 -18.66 9.68 -19 9 C-19.99 8.67 -20.98 8.34 -22 8 C-22 7.67 -22 7.34 -22 7 C-19.33333333 7 -16.66666667 7 -14 7 C-14.33 9.31 -14.66 11.62 -15 14 C-15.66 14 -16.32 14 -17 14 C-17.12375 14.61875 -17.2475 15.2375 -17.375 15.875 C-18 18 -18 18 -20 20 C-19.44570312 19.84402344 -18.89140625 19.68804687 -18.3203125 19.52734375 C-17.59585938 19.33269531 -16.87140625 19.13804688 -16.125 18.9375 C-15.40570313 18.74027344 -14.68640625 18.54304688 -13.9453125 18.33984375 C-12 18 -12 18 -10 19 C-9.9175 18.401875 -9.835 17.80375 -9.75 17.1875 C-8.77705573 14.34974589 -7.55550687 13.50323933 -5 12 C-4.01 12 -3.02 12 -2 12 C-1.82787268 9.13659346 -1.82787268 9.13659346 -2.6875 7.125 C-3.1440945 4.02015737 -1.73485558 2.49819204 0 0 Z M-20 14 C-19 16 -19 16 -19 16 Z M-23 21 C-22.34 21.99 -21.68 22.98 -21 24 C-22.65 23.67 -24.3 23.34 -26 23 C-25.01 22.34 -24.02 21.68 -23 21 Z " fill="#D31631" transform="translate(135,62)"/>
<path d="M0 0 C2.31 0 4.62 0 7 0 C6.67 0.66 6.34 1.32 6 2 C5.34 1.67 4.68 1.34 4 1 C4 1.99 4 2.98 4 4 C2.68 4.33 1.36 4.66 0 5 C0 5.66 0 6.32 0 7 C3.63 7 7.26 7 11 7 C11.33 5.68 11.66 4.36 12 3 C13.32 3.33 14.64 3.66 16 4 C15.65224665 6.57337476 15.34358595 8.51113946 13.8359375 10.65625 C11.18685849 12.59515038 9.17679648 12.29377097 5.9375 12.1875 C4.34228516 12.14689453 4.34228516 12.14689453 2.71484375 12.10546875 C1.81894531 12.07066406 0.92304687 12.03585938 0 12 C-2.09027317 11.86869357 -2.09027317 11.86869357 -4.1875 12.9375 C-7.44560291 14.16833888 -10.55055314 14.59418272 -14 15 C-14.99 17.475 -14.99 17.475 -16 20 C-16.99 19.01 -17.98 18.02 -19 17 C-18.0409375 15.63875 -18.0409375 15.63875 -17.0625 14.25 C-15.38571047 11.60778619 -14.46310002 10.0101501 -14 7 C-11.69 7 -9.38 7 -7 7 C-6.34 5.35 -5.68 3.7 -5 2 C-3.35 2 -1.7 2 0 2 C0 1.34 0 0.68 0 0 Z " fill="#0492B9" transform="translate(76,193)"/>
<path d="M0 0 C0 10.23 0 20.46 0 31 C-2.31 31 -4.62 31 -7 31 C-6.67 20.77 -6.34 10.54 -6 0 C-4 -1 -4 -1 0 0 Z " fill="#0392B8" transform="translate(53,189)"/>
<path d="M0 0 C3.3 0 6.6 0 10 0 C10 0.33 10 0.66 10 1 C5.545 1.495 5.545 1.495 1 2 C1 2.66 1 3.32 1 4 C5.455 3.505 5.455 3.505 10 3 C10.1875 5.375 10.1875 5.375 10 8 C9.01 8.66 8.02 9.32 7 10 C8.32 10.33 9.64 10.66 11 11 C10.01 11 9.02 11 8 11 C8 11.66 8 12.32 8 13 C8.66 13.33 9.32 13.66 10 14 C10 14.66 10 15.32 10 16 C9.01 16.33 8.02 16.66 7 17 C7.99 17.66 8.98 18.32 10 19 C8.02 19 6.04 19 4 19 C4.33 18.01 4.66 17.02 5 16 C4.34 16 3.68 16 3 16 C3 16.66 3 17.32 3 18 C1.35 17.67 -0.3 17.34 -2 17 C-1.34 16.34 -0.68 15.68 0 15 C-0.99 14.67 -1.98 14.34 -3 14 C-3 14.66 -3 15.32 -3 16 C-4.65 15.67 -6.3 15.34 -8 15 C-8.33 13.68 -8.66 12.36 -9 11 C-9.9590625 10.8453125 -9.9590625 10.8453125 -10.9375 10.6875 C-11.9584375 10.3471875 -11.9584375 10.3471875 -13 10 C-13.33 9.01 -13.66 8.02 -14 7 C-14.99 7.495 -14.99 7.495 -16 8 C-17.32 6.68 -18.64 5.36 -20 4 C-19.67 3.34 -19.34 2.68 -19 2 C-17.515 2.99 -17.515 2.99 -16 4 C-15.34 3.67 -14.68 3.34 -14 3 C-12.88625 4.2065625 -12.88625 4.2065625 -11.75 5.4375 C-8.79321632 8.30197417 -8.79321632 8.30197417 -5 9 C-4.34 8.34 -3.68 7.68 -3 7 C-3 8.32 -3 9.64 -3 11 C-2.01 11 -1.02 11 0 11 C0.33 11.66 0.66 12.32 1 13 C1.99 13.33 2.98 13.66 4 14 C4 13.34 4 12.68 4 12 C3.34 12 2.68 12 2 12 C-2 7.52941176 -2 7.52941176 -2 5 C-1.34 5 -0.68 5 0 5 C0 3.35 0 1.7 0 0 Z M1 7 C1.66 7.66 2.32 8.32 3 9 C3 8.34 3 7.68 3 7 C2.34 7 1.68 7 1 7 Z " fill="#D11531" transform="translate(95,69)"/>
<path d="M0 0 C0.66 0.99 1.32 1.98 2 3 C1.505 3.515625 1.01 4.03125 0.5 4.5625 C-1.54050648 7.87832303 -1.34224015 10.16691031 -1 14 C0.02761104 16.71582918 0.93231434 17.93231434 3 20 C3.33 20.66 3.66 21.32 4 22 C7.02934491 22.65772428 7.02934491 22.65772428 10 23 C10.185625 21.700625 10.37125 20.40125 10.5625 19.0625 C10.71912109 17.96615234 10.71912109 17.96615234 10.87890625 16.84765625 C10.91886719 16.23792969 10.95882812 15.62820312 11 15 C10.67 14.67 10.34 14.34 10 14 C9.67 15.65 9.34 17.3 9 19 C7.35 18.67 5.7 18.34 4 18 C4 16.02 4 14.04 4 12 C5.32 12.33 6.64 12.66 8 13 C7.01 13 6.02 13 5 13 C5 14.32 5 15.64 5 17 C8.06892234 16.32828556 8.06892234 16.32828556 9.1875 14.125 C10.17856873 11.91214647 10.17856873 11.91214647 10 9 C10 8.34 10 7.68 10 7 C8.35 7.33 6.7 7.66 5 8 C5.33 7.01 5.66 6.02 6 5 C11.51123596 5.61235955 11.51123596 5.61235955 13.8125 7.4375 C16.45498928 10.91445958 16.29192978 13.69403579 16 18 C13.8 22.6 13.8 22.6 11 24 C4.03675607 24.79906078 4.03675607 24.79906078 1.3984375 22.765625 C-2.56010676 18.08944991 -3.2727973 14.1754875 -3.234375 8.296875 C-2.90749915 5.09349163 -1.67168303 2.71648492 0 0 Z " fill="#178CAD" transform="translate(141,196)"/>
<path d="M0 0 C1.65 0 3.3 0 5 0 C5 0.99 5 1.98 5 3 C5.66 3.33 6.32 3.66 7 4 C6.67 6.97 6.34 9.94 6 13 C5.34 13 4.68 13 4 13 C4.03480469 14.04800781 4.06960937 15.09601563 4.10546875 16.17578125 C4.13360937 17.55467147 4.16090924 18.93357902 4.1875 20.3125 C4.22520508 21.34793945 4.22520508 21.34793945 4.26367188 22.40429688 C4.33807332 27.53799683 4.33807332 27.53799683 2.55078125 29.98046875 C1 31 1 31 0 31 C-0.16795811 27.89590179 -0.33414323 24.79171114 -0.5 21.6875 C-0.54769531 20.80642578 -0.59539063 19.92535156 -0.64453125 19.01757812 C-0.68964844 18.17001953 -0.73476563 17.32246094 -0.78125 16.44921875 C-0.82314453 15.66893311 -0.86503906 14.88864746 -0.90820312 14.0847168 C-0.98277524 12.39117604 -1 10.69518179 -1 9 C-0.01 9.33 0.98 9.66 2 10 C1.67 10.66 1.34 11.32 1 12 C1.66 11.34 2.32 10.68 3 10 C2.70630173 8.65737935 2.3721042 7.32303717 2 6 C2.33 5.34 2.66 4.68 3 4 C2.34 4 1.68 4 1 4 C0.67 2.68 0.34 1.36 0 0 Z " fill="#0292B7" transform="translate(37,179)"/>
<path d="M0 0 C2.66666667 0 5.33333333 0 8 0 C7.67 2.31 7.34 4.62 7 7 C6.34 7 5.68 7 5 7 C4.67 8.32 4.34 9.64 4 11 C2.68 11.33 1.36 11.66 0 12 C0 11.34 0 10.68 0 10 C-1.32 9.67 -2.64 9.34 -4 9 C-4.33 11.97 -4.66 14.94 -5 18 C-3.68 18.33 -2.36 18.66 -1 19 C-1.99 19 -2.98 19 -4 19 C-4.33 20.65 -4.66 22.3 -5 24 C-5.33 24 -5.66 24 -6 24 C-6 17.07 -6 10.14 -6 3 C-2.7 3.33 0.6 3.66 4 4 C3.67 3.34 3.34 2.68 3 2 C2.01 1.67 1.02 1.34 0 1 C0 0.67 0 0.34 0 0 Z M2 7 C3 9 3 9 3 9 Z " fill="#C91C35" transform="translate(113,69)"/>
<path d="M0 0 C0.33 0.66 0.66 1.32 1 2 C2.98 2 4.96 2 7 2 C8.2380014 5.57644848 7.74926071 8.33694766 7 12 C3.37 12 -0.26 12 -4 12 C-4 11.34 -4 10.68 -4 10 C-4.66 10 -5.32 10 -6 10 C-6.33 8.35 -6.66 6.7 -7 5 C-4.702779 3.25728062 -2.40133271 1.60088848 0 0 Z " fill="#D11A35" transform="translate(98,55)"/>
<path d="M0 0 C0.33 0 0.66 0 1 0 C1.33 10.23 1.66 20.46 2 31 C2.66 31 3.32 31 4 31 C4.33 30.34 4.66 29.68 5 29 C7.60018816 32.90028225 7.15085514 36.47434569 7 41 C6.01 41 5.02 41 4 41 C3.67 41.99 3.34 42.98 3 44 C2.01 44 1.02 44 0 44 C0.33 43.01 0.66 42.02 1 41 C0.34 40.01 -0.32 39.02 -1 38 C-1.10270147 35.09265861 -1.09101398 32.29424908 -0.9765625 29.39453125 C-0.95153656 28.55532639 -0.92651062 27.71612152 -0.90072632 26.85148621 C-0.81856181 24.17141105 -0.72195916 21.49207676 -0.625 18.8125 C-0.56675677 16.99547296 -0.50945356 15.17841553 -0.453125 13.36132812 C-0.31298837 8.90712607 -0.15990126 4.45353456 0 0 Z " fill="#D31934" transform="translate(107,136)"/>
<path d="M0 0 C2.9375 2 2.9375 2 5 4 C4.67 4.66 4.34 5.32 4 6 C3.67 5.505 3.34 5.01 3 4.5 C-0.17572747 2.11820439 -3.10246066 2.80831774 -7 3 C-6.67 3 -6.34 3 -6 3 C-4.33178677 3.32550502 -2.66500443 3.65846063 -1 4 C-1.33 4.99 -1.66 5.98 -2 7 C-3.32 7 -4.64 7 -6 7 C-5.67 8.98 -5.34 10.96 -5 13 C-8.62528568 13.20140476 -10.86501708 12.85776765 -14 11 C-13.67641073 7.44051799 -13.3899006 5.46536524 -11.0625 2.6875 C-7.35522444 -0.34572546 -4.76953217 -0.40419764 0 0 Z " fill="#118DAD" transform="translate(120,191)"/>
<path d="M0 0 C0 0.66 0 1.32 0 2 C0.66 2.33 1.32 2.66 2 3 C1.67 5.31 1.34 7.62 1 10 C0.67 10 0.34 10 0 10 C-0.66 7.36 -1.32 4.72 -2 2 C-4.97 1.505 -4.97 1.505 -8 1 C-10.0140956 4.0211434 -10.26836596 4.80660017 -10.4140625 8.23046875 C-10.47207031 9.43413086 -10.47207031 9.43413086 -10.53125 10.66210938 C-10.57765625 11.91217773 -10.57765625 11.91217773 -10.625 13.1875 C-10.68300781 14.4549707 -10.68300781 14.4549707 -10.7421875 15.74804688 C-10.83636279 17.83167524 -10.91926675 19.91580753 -11 22 C-13.31 22 -15.62 22 -18 22 C-18.33 14.74 -18.66 7.48 -19 0 C-18.01 0.33 -17.02 0.66 -16 1 C-16 7.6 -16 14.2 -16 21 C-14.68 21 -13.36 21 -12 21 C-12.01047363 20.44014404 -12.02094727 19.88028809 -12.03173828 19.3034668 C-12.07333326 16.76485693 -12.09933685 14.2263188 -12.125 11.6875 C-12.14175781 10.80642578 -12.15851563 9.92535156 -12.17578125 9.01757812 C-12.18222656 8.17001953 -12.18867188 7.32246094 -12.1953125 6.44921875 C-12.20578613 5.66893311 -12.21625977 4.88864746 -12.22705078 4.0847168 C-12 2 -12 2 -10 -1 C-3.72483221 -2.48322148 -3.72483221 -2.48322148 0 0 Z " fill="#1B89A8" transform="translate(189,198)"/>
<path d="M0 0 C1.32 0 2.64 0 4 0 C4 0.66 4 1.32 4 2 C4.99 2.33 5.98 2.66 7 3 C1 6 1 6 -2.0625 7.375 C-5.44084739 9.24387302 -7.59225296 10.97311801 -10 14 C-10.88527109 17.68441504 -10.88527109 17.68441504 -11 21 C-12.98 20.34 -14.96 19.68 -17 19 C-15.70738073 13.94703375 -13.83736676 11.48040241 -10 8 C-8.7315625 6.63875 -8.7315625 6.63875 -7.4375 5.25 C-5.12748005 3.11767389 -4.05810168 2.33978908 -1 2 C-1 2.66 -1 3.32 -1 4 C-0.34 3.67 0.32 3.34 1 3 C0.67 2.01 0.34 1.02 0 0 Z M-15 17 C-14 19 -14 19 -14 19 Z " fill="#CE1632" transform="translate(90,50)"/>
<path d="M0 0 C-0.70554068 3.66881155 -2.27735506 6.70450534 -4 10 C-3.67 10.33 -3.34 10.66 -3 11 C-2.01 9.35 -1.02 7.7 0 6 C0.66 6.33 1.32 6.66 2 7 C1.67 7.99 1.34 8.98 1 10 C2.65 10.33 4.3 10.66 6 11 C5.67 11.99 5.34 12.98 5 14 C4.01 14 3.02 14 2 14 C1.34 15.32 0.68 16.64 0 18 C-3.36998988 16.60552143 -5.34891369 15.30217261 -7 12 C-7.22524841 7.78958749 -6.66035467 4.85207055 -4.0625 1.5 C-2 0 -2 0 0 0 Z " fill="#0C8EB0" transform="translate(62,201)"/>
<path d="M0 0 C2 1 2 1 2.61889648 2.57324219 C3.15569228 5.99140378 3.12228133 9.37830795 3.09765625 12.828125 C3.0962413 13.57713074 3.09482635 14.32613647 3.09336853 15.09783936 C3.08778659 17.48193412 3.07523745 19.86593378 3.0625 22.25 C3.05748266 23.86979031 3.05292016 25.48958209 3.04882812 27.109375 C3.03782308 31.07295312 3.02057091 35.03646045 3 39 C2.67 39 2.34 39 2 39 C1.67 28.77 1.34 18.54 1 8 C-0.65 8 -2.3 8 -4 8 C-4 14.93 -4 21.86 -4 29 C-4.33 29 -4.66 29 -5 29 C-5.33 22.07 -5.66 15.14 -6 8 C-6.99 8.495 -6.99 8.495 -8 9 C-7.67 6.69 -7.34 4.38 -7 2 C-4.83125748 2.50603992 -3.00032373 2.99983813 -1 4 C-0.67 2.68 -0.34 1.36 0 0 Z " fill="#2188AD" transform="translate(51,181)"/>
<path d="M0 0 C5.366057 0.31565041 8.92985888 1.42621755 13 5 C13.375 7.75 13.375 7.75 13 10 C12.67 9.34 12.34 8.68 12 8 C11.34 8 10.68 8 10 8 C10 8.66 10 9.32 10 10 C2.25 11.125 2.25 11.125 0 10 C-0.44921875 7.96875 -0.44921875 7.96875 -0.6875 5.5 C-0.77386719 4.6853125 -0.86023438 3.870625 -0.94921875 3.03125 C-0.96597656 2.3609375 -0.98273438 1.690625 -1 1 C-0.67 0.67 -0.34 0.34 0 0 Z M10 5 C11 7 11 7 11 7 Z " fill="#C81A31" transform="translate(108,57)"/>
<path d="M0 0 C3 1 3 1 4 3 C4.02172852 4.87939453 4.02172852 4.87939453 3.87890625 7.1328125 C3.83056641 7.93847656 3.78222656 8.74414062 3.73242188 9.57421875 C3.64831055 10.83685547 3.64831055 10.83685547 3.5625 12.125 C3.51029297 12.97449219 3.45808594 13.82398438 3.40429688 14.69921875 C3.27448622 16.79979124 3.1378826 18.89994191 3 21 C2.34 21.33 1.68 21.66 1 22 C0.51171875 19.98177083 0.0234375 17.96354167 -0.46484375 15.9453125 C-0.94846992 13.9414343 -0.94846992 13.9414343 -2 12 C-2.12082534 10.33654418 -2.1753794 8.66779409 -2.1875 7 C-2.20167969 6.113125 -2.21585938 5.22625 -2.23046875 4.3125 C-2 2 -2 2 0 0 Z " fill="#0392B9" transform="translate(161,197)"/>
<path d="M0 0 C1.98 0 3.96 0 6 0 C6 9.57 6 19.14 6 29 C-4.56 29 -15.12 29 -26 29 C-26 28.67 -26 28.34 -26 28 C-15.77 28 -5.54 28 5 28 C5 19.42 5 10.84 5 2 C3.68 2 2.36 2 1 2 C1 4.31 1 6.62 1 9 C0.34 9 -0.32 9 -1 9 C-1.09765625 2.84765625 -1.09765625 2.84765625 -1 1 C-0.67 0.67 -0.34 0.34 0 0 Z " fill="#1F8EAD" transform="translate(130,191)"/>
<path d="M0 0 C1.32 0.33 2.64 0.66 4 1 C4 5.62 4 10.24 4 15 C5.32 15.66 6.64 16.32 8 17 C7.67 18.32 7.34 19.64 7 21 C1.20501792 17.67096774 1.20501792 17.67096774 0.3125 14.75 C-0.03374188 11.70307144 -0.0961942 8.75367261 -0.0625 5.6875 C-0.05347656 4.61886719 -0.04445313 3.55023438 -0.03515625 2.44921875 C-0.02355469 1.64097656 -0.01195312 0.83273438 0 0 Z " fill="#0393BA" transform="translate(9,198)"/>
<path d="M0 0 C6.0546875 -0.1953125 6.0546875 -0.1953125 8 0 C11.00617269 3.00617269 10.59585316 5.82381598 11 10 C10.01 10 9.02 10 8 10 C8 11.32 8 12.64 8 14 C6.02 14.99 6.02 14.99 4 16 C4 14.68 4 13.36 4 12 C4.66 12 5.32 12 6 12 C6 9.69 6 7.38 6 5 C3.05270463 3.84188612 3.05270463 3.84188612 0 4 C0 2.68 0 1.36 0 0 Z " fill="#0392BB" transform="translate(202,203)"/>
<path d="M0 0 C3.17030133 2.76385245 3.91484046 4.31872368 4.4375 8.5 C3.98361382 12.13108948 3.13143595 14.06927557 1 17 C0.34 16.67 -0.32 16.34 -1 16 C-0.34 15.01 0.32 14.02 1 13 C1.06282845 10.50942702 1.06282845 10.50942702 0.6875 7.875 C0.58824219 6.98554688 0.48898438 6.09609375 0.38671875 5.1796875 C0.21971516 3.02881235 0.21971516 3.02881235 -1 2 C-2.34747084 1.76924918 -3.70377565 1.58846937 -5.0625 1.4375 C-6.361875 1.293125 -7.66125 1.14875 -9 1 C-9 1.66 -9 2.32 -9 3 C-9.99 3.495 -9.99 3.495 -11 4 C-11.68729254 6.11846285 -11.68729254 6.11846285 -12.125 8.5625 C-12.29257813 9.38878906 -12.46015625 10.21507812 -12.6328125 11.06640625 C-12.75398437 11.70449219 -12.87515625 12.34257812 -13 13 C-13.33 13 -13.66 13 -14 13 C-14.48867825 5.79199579 -14.48867825 5.79199579 -12.1875 2.0625 C-8.25001223 -1.64998847 -5.05313156 -1.24112003 0 0 Z " fill="#24889F" transform="translate(211,202)"/>
<path d="M0 0 C0.33 0.66 0.66 1.32 1 2 C4.3 2 7.6 2 11 2 C11 1.34 11 0.68 11 0 C11.66 0.33 12.32 0.66 13 1 C12.67 2.65 12.34 4.3 12 6 C11.67 5.34 11.34 4.68 11 4 C10.01 4.495 10.01 4.495 9 5 C9 5.99 9 6.98 9 8 C2.60924751 8.36174071 2.60924751 8.36174071 0 6.8125 C-1 5 -1 5 -0.6875 2.3125 C-0.460625 1.549375 -0.23375 0.78625 0 0 Z " fill="#D9213F" transform="translate(107,65)"/>
<path d="M0 0 C0.66 0 1.32 0 2 0 C2.59732819 2.76264289 3 5.16032769 3 8 C3.99 8 4.98 8 6 8 C6 8.99 6 9.98 6 11 C2.37 11 -1.26 11 -5 11 C-4.67 9.68 -4.34 8.36 -4 7 C-3.34 6.67 -2.68 6.34 -2 6 C-1.27306096 4.02111039 -0.60183749 2.02045442 0 0 Z " fill="#0392BD" transform="translate(28,208)"/>
<path d="M0 0 C1.5 1 1.5 1 3 3 C3.42372144 6.45332972 3.58512383 9.82975235 2 13 C0.35 12.67 -1.3 12.34 -3 12 C-2.88601335 10.37419034 -2.75844341 8.74932843 -2.625 7.125 C-2.55539063 6.22007812 -2.48578125 5.31515625 -2.4140625 4.3828125 C-2 2 -2 2 0 0 Z " fill="#0392B7" transform="translate(192,199)"/>
<path d="M0 0 C1.65 0 3.3 0 5 0 C5 0.99 5 1.98 5 3 C5.66 3.33 6.32 3.66 7 4 C6.67 6.97 6.34 9.94 6 13 C3.125 13.1875 3.125 13.1875 0 13 C-0.66 12.01 -1.32 11.02 -2 10 C-0.68 9.67 0.64 9.34 2 9 C1.67 9.99 1.34 10.98 1 12 C1.66 11.34 2.32 10.68 3 10 C2.70630173 8.65737935 2.3721042 7.32303717 2 6 C2.33 5.34 2.66 4.68 3 4 C2.34 4 1.68 4 1 4 C0.67 2.68 0.34 1.36 0 0 Z " fill="#0A9CC0" transform="translate(37,179)"/>
<path d="M0 0 C-0.639375 0.20625 -1.27875 0.4125 -1.9375 0.625 C-4.34925077 1.89538209 -4.34925077 1.89538209 -4.75 5.125 C-4.8325 6.07375 -4.915 7.0225 -5 8 C-4.01 8.33 -3.02 8.66 -2 9 C-2 9.66 -2 10.32 -2 11 C-1.34 11.33 -0.68 11.66 0 12 C-1.32 12.33 -2.64 12.66 -4 13 C-4 12.34 -4 11.68 -4 11 C-5.65 10.67 -7.3 10.34 -9 10 C-9.36103152 3.6217765 -9.36103152 3.6217765 -7.875 1.0625 C-5.214973 -0.44484863 -2.99793795 -0.19986253 0 0 Z " fill="#0391B9" transform="translate(42,178)"/>
<path d="M0 0 C2 3 2 3 3 5 C3.99 5.33 4.98 5.66 6 6 C6 8.31 6 10.62 6 13 C-0.34917127 12.63370166 -0.34917127 12.63370166 -3.375 9.6875 C-4.79090842 7.3458053 -5.6031217 5.67892855 -6 3 C-5.34 3 -4.68 3 -4 3 C-3.5875 3.94875 -3.175 4.8975 -2.75 5.875 C-0.9959869 9.00716624 -0.29148243 9.86500606 3 11 C2.65213292 9.02463255 2.65213292 9.02463255 2 7 C1.34 6.67 0.68 6.34 0 6 C0 4.02 0 2.04 0 0 Z " fill="#2389A5" transform="translate(13,207)"/>
<path d="M0 0 C0.33 0.66 0.66 1.32 1 2 C2.32 2 3.64 2 5 2 C5 1.34 5 0.68 5 0 C5.66 0 6.32 0 7 0 C7 2.64 7 5.28 7 8 C4.69 8 2.38 8 0 8 C0 5.36 0 2.72 0 0 Z " fill="#108DB3" transform="translate(46,212)"/>
<path d="M0 0 C3.5625 1.8125 3.5625 1.8125 6 4 C6 4.99 6 5.98 6 7 C4.35 6.34 2.7 5.68 1 5 C1 4.01 1 3.02 1 2 C-0.64666203 2.1135629 -2.29236082 2.24117381 -3.9375 2.375 C-4.85402344 2.44460937 -5.77054688 2.51421875 -6.71484375 2.5859375 C-7.46894531 2.72257813 -8.22304687 2.85921875 -9 3 C-9.33 3.66 -9.66 4.32 -10 5 C-11.32 4.34 -12.64 3.68 -14 3 C-9.55662887 -0.44002926 -5.41666977 -0.87426951 0 0 Z " fill="#1B89A4" transform="translate(86,191)"/>
<path d="M0 0 C4.62 0 9.24 0 14 0 C14 6 14 6 13 8 C15.62187494 6.95125002 16.79371361 6.35068687 18.25 3.875 C18.4975 3.25625 18.745 2.6375 19 2 C19.33 2.99 19.66 3.98 20 5 C16.73239437 10.63380282 16.73239437 10.63380282 14 12 C14 11.01 14 10.02 14 9 C13.34 9 12.68 9 12 9 C12 8.34 12 7.68 12 7 C11.34 6.67 10.68 6.34 10 6 C10.99 4.35 11.98 2.7 13 1 C8.71 1 4.42 1 0 1 C0 0.67 0 0.34 0 0 Z " fill="#238CA9" transform="translate(75,206)"/>
<path d="M0 0 C0.33 0.33 0.66 0.66 1 1 C1.66 1 2.32 1 3 1 C3.33 2.98 3.66 4.96 4 7 C3.34 7 2.68 7 2 7 C2 6.34 2 5.68 2 5 C-2.02339001 3.61691223 -2.02339001 3.61691223 -6.125 2.5 C-8.2579885 1.93120307 -10.05862407 1.04002282 -12 0 C-7.45950903 -2.20538133 -4.52381649 -2.26190825 0 0 Z " fill="#CE142F" transform="translate(123,51)"/>
<path d="M0 0 C3 1 3 1 4 3 C4.763125 2.62875 5.52625 2.2575 6.3125 1.875 C7.199375 1.58625 8.08625 1.2975 9 1 C9.99 1.66 10.98 2.32 12 3 C11.01 3.66 10.02 4.32 9 5 C10.32 5.33 11.64 5.66 13 6 C12.195625 6.12375 11.39125 6.2475 10.5625 6.375 C9.2940625 6.684375 9.2940625 6.684375 8 7 C7.67 7.66 7.34 8.32 7 9 C4.03595495 6.19195732 1.55500981 3.81684226 0 0 Z " fill="#CC1E35" transform="translate(93,74)"/>
<path d="M0 0 C0.33 0 0.66 0 1 0 C1.33 1.98 1.66 3.96 2 6 C2.66 5.67 3.32 5.34 4 5 C4 6.98 4 8.96 4 11 C3.38125 11.061875 2.7625 11.12375 2.125 11.1875 C-0.27761141 11.828919 -0.27761141 11.828919 -1.25 14.5625 C-1.4975 15.366875 -1.745 16.17125 -2 17 C-3.44715727 13.12813552 -2.5441918 10.1767672 -1.5625 6.25 C-1.27503906 5.07953125 -0.98757812 3.9090625 -0.69140625 2.703125 C-0.46324219 1.81109375 -0.23507813 0.9190625 0 0 Z " fill="#C4243D" transform="translate(54,69)"/>
<path d="M0 0 C-0.47745015 2.57823079 -1.10225502 4.15542763 -2.5625 6.375 C-4.26054198 9.47577231 -4.24294519 11.51778564 -4 15 C-5.5625 14 -5.5625 14 -7 12 C-6.9278556 7.45490286 -6.8504993 5.09741846 -4.0625 1.5 C-2 0 -2 0 0 0 Z " fill="#198CA6" transform="translate(62,201)"/>
<path d="M0 0 C2.31 0.33 4.62 0.66 7 1 C7 3.31 7 5.62 7 8 C4.04590299 6.62845496 1.55991624 5.01136276 -1 3 C-0.67 2.01 -0.34 1.02 0 0 Z " fill="#0393B9" transform="translate(44,179)"/>
<path d="M0 0 C-0.65226562 0.44730469 -1.30453125 0.89460938 -1.9765625 1.35546875 C-6.83963578 4.71945307 -11.53485553 8.12237454 -16 12 C-16.66 11.67 -17.32 11.34 -18 11 C-14.66437233 6.48709197 -12.66710699 4.31793186 -7 3 C-7 2.01 -7 1.02 -7 0 C-3.98968256 -0.93423645 -3.13349732 -1.04449911 0 0 Z " fill="#C01E39" transform="translate(157,102)"/>
<path d="M0 0 C-1 3 -1 3 -3.3125 4.1875 C-6 5 -6 5 -10 5 C-10 3.68 -10 2.36 -10 1 C-3.375 -1.125 -3.375 -1.125 0 0 Z " fill="#0393BB" transform="translate(191,214)"/>
<path d="M0 0 C0.33 0 0.66 0 1 0 C1 1.65 1 3.3 1 5 C1.66 5.33 2.32 5.66 3 6 C2.67 6.99 2.34 7.98 2 9 C2 9.99 2 10.98 2 12 C0.68 11.67 -0.64 11.34 -2 11 C-2.28571429 3.57142857 -2.28571429 3.57142857 0 0 Z " fill="#128DB0" transform="translate(8,198)"/>
<path d="M0 0 C0.66 0 1.32 0 2 0 C2.185625 0.9590625 2.185625 0.9590625 2.375 1.9375 C2.684375 2.9584375 2.684375 2.9584375 3 4 C3.66 4.33 4.32 4.66 5 5 C5.6328125 7.50390625 5.6328125 7.50390625 6.125 10.5625 C6.29257813 11.57441406 6.46015625 12.58632812 6.6328125 13.62890625 C6.75398438 14.41136719 6.87515625 15.19382813 7 16 C6.34 16.33 5.68 16.66 5 17 C4.16080602 14.73117913 3.32848276 12.46022973 2.5 10.1875 C2.26152344 9.54490234 2.02304688 8.90230469 1.77734375 8.24023438 C0.72931254 5.35066261 0 3.09923939 0 0 Z " fill="#BD223C" transform="translate(93,144)"/>
<path d="M0 0 C0.99 0.33 1.98 0.66 3 1 C2.67 2.32 2.34 3.64 2 5 C1.34 5 0.68 5 0 5 C0 5.66 0 6.32 0 7 C-1.98 7 -3.96 7 -6 7 C-5.1875 5.0625 -5.1875 5.0625 -4 3 C-3.01 2.67 -2.02 2.34 -1 2 C-0.67 1.34 -0.34 0.68 0 0 Z " fill="#0392BC" transform="translate(68,212)"/>
<path d="M0 0 C2.4375 0.375 2.4375 0.375 5 1 C5.33 1.66 5.66 2.32 6 3 C8.01669827 4.13350534 8.01669827 4.13350534 10 5 C7.51599398 6.24200301 6.17792364 5.98221651 3.4375 5.6875 C2.63183594 5.60886719 1.82617188 5.53023437 0.99609375 5.44921875 C0.33738281 5.30097656 -0.32132813 5.15273437 -1 5 C-1.33 4.34 -1.66 3.68 -2 3 C-1.34 2.34 -0.68 1.68 0 1 C0 0.67 0 0.34 0 0 Z " fill="#0B8FB5" transform="translate(15,193)"/>
<path d="M0 0 C3.01327566 1.50663783 3.61056618 4.03166411 5 7 C5.66 7 6.32 7 7 7 C7.33 6.34 7.66 5.68 8 5 C8.33 6.32 8.66 7.64 9 9 C9.66 9 10.32 9 11 9 C11 9.66 11 10.32 11 11 C7.60854311 10.69168574 5.46591817 10.33999434 2.6875 8.3125 C0.66000566 5.53408183 0.30831426 3.39145689 0 0 Z " fill="#B7223C" transform="translate(97,172)"/>
<path d="M0 0 C1.4540625 0.0309375 1.4540625 0.0309375 2.9375 0.0625 C2.9375 2.3725 2.9375 4.6825 2.9375 7.0625 C2.6075 7.0625 2.2775 7.0625 1.9375 7.0625 C1.9375 5.4125 1.9375 3.7625 1.9375 2.0625 C0.6175 2.0625 -0.7025 2.0625 -2.0625 2.0625 C-2.0625 4.3725 -2.0625 6.6825 -2.0625 9.0625 C-2.7225 9.0625 -3.3825 9.0625 -4.0625 9.0625 C-4.16015625 2.91015625 -4.16015625 2.91015625 -4.0625 1.0625 C-3.0625 0.0625 -3.0625 0.0625 0 0 Z " fill="#258AA4" transform="translate(133.0625,190.9375)"/>
<path d="M0 0 C0.61875 0.350625 1.2375 0.70125 1.875 1.0625 C2.57625 1.371875 3.2775 1.68125 4 2 C4.66 1.67 5.32 1.34 6 1 C8.64752004 3.57784846 10.94432065 5.91648098 13 9 C11.35 9 9.7 9 8 9 C7.34 7.68 6.68 6.36 6 5 C5.01 5.495 5.01 5.495 4 6 C2.62437146 4.71034824 1.29233607 3.37310707 0 2 C0 1.34 0 0.68 0 0 Z " fill="#CF142F" transform="translate(75,71)"/>
<path d="M0 0 C1.0725 0.165 2.145 0.33 3.25 0.5 C7.03028752 1.08810915 7.03028752 1.08810915 11 1 C10.67 2.32 10.34 3.64 10 5 C6.53058454 4.54177532 3.32604951 4.10868317 0 3 C0 2.01 0 1.02 0 0 Z " fill="#D5233D" transform="translate(107,61)"/>
<path d="M0 0 C5.8961027 5.59373846 5.8961027 5.59373846 6.09765625 10.26171875 C6.08605469 11.06222656 6.07445312 11.86273438 6.0625 12.6875 C6.05347656 13.49574219 6.04445312 14.30398437 6.03515625 15.13671875 C6.02355469 15.75160156 6.01195312 16.36648437 6 17 C5.67 17 5.34 17 5 17 C4.89042969 16.33613281 4.78085938 15.67226562 4.66796875 14.98828125 C3.77839831 10.03416944 2.89625691 6.21273732 0 2 C0 1.34 0 0.68 0 0 Z " fill="#1D8BAA" transform="translate(190,193)"/>
<path d="M0 0 C0 0.66 0 1.32 0 2 C0.66 2 1.32 2 2 2 C2 2.99 2 3.98 2 5 C0.02 5.33 -1.96 5.66 -4 6 C-4.33 4.35 -4.66 2.7 -5 1 C-3 0 -3 0 0 0 Z " fill="#0593BA" transform="translate(87,213)"/>
<path d="M0 0 C0.33 0 0.66 0 1 0 C1.48979592 7.34693878 1.48979592 7.34693878 -0.875 10.5 C-3 12 -3 12 -5 12 C-4.67 9.69 -4.34 7.38 -4 5 C-3.67 5.66 -3.34 6.32 -3 7 C-2.01 7 -1.02 7 0 7 C0 4.69 0 2.38 0 0 Z " fill="#BE2742" transform="translate(114,170)"/>
<path d="M0 0 C1.9375 0.8125 1.9375 0.8125 4 2 C4.33 2.99 4.66 3.98 5 5 C5.66 5 6.32 5 7 5 C7 5.66 7 6.32 7 7 C4.03 6.505 4.03 6.505 1 6 C1 5.34 1 4.68 1 4 C0.01 4.495 0.01 4.495 -1 5 C-0.67 3.35 -0.34 1.7 0 0 Z " fill="#DF203F" transform="translate(92,76)"/>
<path d="M0 0 C0.33 0 0.66 0 1 0 C1.36923077 5.53846154 1.36923077 5.53846154 -0.5 7.875 C-1.2425 8.431875 -1.2425 8.431875 -2 9 C-2.66 8.67 -3.32 8.34 -4 8 C-3.67 6.35 -3.34 4.7 -3 3 C-2.34 3 -1.68 3 -1 3 C-0.67 2.01 -0.34 1.02 0 0 Z " fill="#0394BF" transform="translate(92,206)"/>
<path d="M0 0 C1.0209375 0.2165625 1.0209375 0.2165625 2.0625 0.4375 C5.36273082 1.06945909 8.67144426 1.54313941 12 2 C12.33 1.34 12.66 0.68 13 0 C13.99 0.66 14.98 1.32 16 2 C13.41991408 3.29004296 11.44258426 3.20410224 8.5625 3.25 C7.11037109 3.28867188 7.11037109 3.28867188 5.62890625 3.328125 C3 3 3 3 1.15234375 1.484375 C0.77207031 0.99453125 0.39179687 0.5046875 0 0 Z " fill="#1F89A9" transform="translate(73,217)"/>
<path d="M0 0 C2.66666667 0 5.33333333 0 8 0 C7.67 1.98 7.34 3.96 7 6 C6.01 5.67 5.02 5.34 4 5 C3.67 4.01 3.34 3.02 3 2 C2.01 1.67 1.02 1.34 0 1 C0 0.67 0 0.34 0 0 Z " fill="#CB142C" transform="translate(113,69)"/>
<path d="M0 0 C0.66 0.33 1.32 0.66 2 1 C1.67 1.99 1.34 2.98 1 4 C1.99 4.33 2.98 4.66 4 5 C4 5.66 4 6.32 4 7 C4.66 7.33 5.32 7.66 6 8 C4.68 8.33 3.36 8.66 2 9 C2 8.34 2 7.68 2 7 C1.01 6.34 0.02 5.68 -1 5 C-0.67 3.35 -0.34 1.7 0 0 Z " fill="#0A8DAE" transform="translate(36,182)"/>
<path d="M0 0 C4.455 0.99 4.455 0.99 9 2 C5.00889681 3.9955516 3.30013434 4.19546065 -1 4 C-0.67 2.68 -0.34 1.36 0 0 Z " fill="#D2152E" transform="translate(99,48)"/>
<path d="M0 0 C0.66 0.99 1.32 1.98 2 3 C1.2884375 3.7734375 1.2884375 3.7734375 0.5625 4.5625 C-1.42809407 7.66782675 -1.65060818 10.36632504 -2 14 C-2.33 14 -2.66 14 -3 14 C-3.29341888 8.32723489 -3.00559652 5.00932754 0 0 Z " fill="#1A8FB1" transform="translate(141,196)"/>
<path d="M0 0 C-0.33 0.66 -0.66 1.32 -1 2 C-2.32 1.67 -3.64 1.34 -5 1 C-5 1.66 -5 2.32 -5 3 C-5.99 3 -6.98 3 -8 3 C-8.33 3.99 -8.66 4.98 -9 6 C-9.33 5.01 -9.66 4.02 -10 3 C-7.29536552 -0.8183075 -4.37912428 -0.24787496 0 0 Z " fill="#058FB0" transform="translate(150,207)"/>
<path d="M0 0 C2 2 2 2 2.25 5.5 C2 9 2 9 0 11 C-1.05404945 7.01803543 -0.84098656 4.01804691 0 0 Z " fill="#2387A5" transform="translate(155,205)"/>
<path d="M0 0 C0.66 0.33 1.32 0.66 2 1 C2.75 3.875 2.75 3.875 3 7 C2.01 8.485 2.01 8.485 1 10 C0.34 10 -0.32 10 -1 10 C-0.67 6.7 -0.34 3.4 0 0 Z " fill="#B1223D" transform="translate(99,162)"/>
<path d="M0 0 C-1.07401108 2.91517292 -1.77810176 4.77810176 -4 7 C-4.66 5.35 -5.32 3.7 -6 2 C-2.25 0 -2.25 0 0 0 Z " fill="#BF223F" transform="translate(127,131)"/>
<path d="M0 0 C2.64 0.66 5.28 1.32 8 2 C8.33 1.34 8.66 0.68 9 0 C9 0.99 9 1.98 9 3 C1.25 4.125 1.25 4.125 -1 3 C-0.67 2.01 -0.34 1.02 0 0 Z " fill="#CE0725" transform="translate(109,64)"/>
<path d="M0 0 C7.42857143 -0.28571429 7.42857143 -0.28571429 11 2 C10.67 2.66 10.34 3.32 10 4 C8.68 3.67 7.36 3.34 6 3 C6 2.34 6 1.68 6 1 C4.02 1 2.04 1 0 1 C0 0.67 0 0.34 0 0 Z " fill="#158CAE" transform="translate(152,192)"/>
</svg>
