<svg width="66" height="51" viewBox="0 0 66 51" fill="none" xmlns="http://www.w3.org/2000/svg">
<path d="M15 51C14.15 51 13.438 50.712 12.864 50.136C12.29 49.56 12.002 48.848 12 48C11.998 47.152 12.286 46.44 12.864 45.864C13.442 45.288 14.154 45 15 45H16.8L22.725 25.275C23.125 23.975 23.863 22.938 24.939 22.164C26.015 21.39 27.202 21.002 28.5 21H37.5C38.8 21 39.988 21.388 41.064 22.164C42.14 22.94 42.877 23.977 43.275 25.275L49.2 45H51C51.85 45 52.563 45.288 53.139 45.864C53.715 46.44 54.002 47.152 54 48C53.998 48.848 53.71 49.561 53.136 50.139C52.562 50.717 51.85 51.004 51 51H15ZM30 12V3.00001C30 2.15001 30.288 1.43801 30.864 0.86401C31.44 0.290011 32.152 0.00201034 33 1.03448e-05C33.848 -0.00198965 34.561 0.286011 35.139 0.86401C35.717 1.44201 36.004 2.15401 36 3.00001V12C36 12.85 35.712 13.563 35.136 14.139C34.56 14.715 33.848 15.002 33 15C32.152 14.998 31.44 14.71 30.864 14.136C30.288 13.562 30 12.85 30 12ZM45.75 16.05L52.125 9.67501C52.675 9.12501 53.363 8.83701 54.189 8.81101C55.015 8.78501 55.727 9.07301 56.325 9.67501C56.875 10.225 57.15 10.925 57.15 11.775C57.15 12.625 56.875 13.325 56.325 13.875L49.95 20.325C49.35 20.925 48.65 21.225 47.85 21.225C47.05 21.225 46.35 20.925 45.75 20.325C45.15 19.725 44.85 19.013 44.85 18.189C44.85 17.365 45.15 16.652 45.75 16.05ZM54 30H63C63.85 30 64.563 30.288 65.139 30.864C65.715 31.44 66.002 32.152 66 33C65.998 33.848 65.71 34.561 65.136 35.139C64.562 35.717 63.85 36.004 63 36H54C53.15 36 52.438 35.712 51.864 35.136C51.29 34.56 51.002 33.848 51 33C50.998 32.152 51.286 31.44 51.864 30.864C52.442 30.288 53.154 30 54 30ZM16.05 20.25L9.67501 13.875C9.12501 13.325 8.83801 12.638 8.81401 11.814C8.79001 10.99 9.07701 10.277 9.67501 9.67501C10.225 9.12501 10.925 8.85001 11.775 8.85001C12.625 8.85001 13.325 9.12501 13.875 9.67501L20.325 16.05C20.925 16.65 21.225 17.35 21.225 18.15C21.225 18.95 20.925 19.65 20.325 20.25C19.725 20.85 19.013 21.15 18.189 21.15C17.365 21.15 16.652 20.85 16.05 20.25ZM3.00001 36C2.15001 36 1.43801 35.712 0.86401 35.136C0.29001 34.56 0.00201034 33.848 1.03448e-05 33C-0.00198965 32.152 0.28601 31.44 0.86401 30.864C1.44201 30.288 2.15401 30 3.00001 30H12C12.85 30 13.563 30.288 14.139 30.864C14.715 31.44 15.002 32.152 15 33C14.998 33.848 14.71 34.561 14.136 35.139C13.562 35.717 12.85 36.004 12 36H3.00001Z" fill="black"/>
</svg>
