<svg width="63" height="63" viewBox="0 0 63 63" fill="none" xmlns="http://www.w3.org/2000/svg">
<g clip-path="url(#clip0_82_5)">
<path d="M1.33354 31.123C1.33208 36.4162 2.71515 41.5846 5.34503 46.1402L1.08203 61.7051L17.0108 57.5285C21.4165 59.9269 26.3527 61.1836 31.3689 61.184H31.3821C47.9416 61.184 61.4214 47.7091 61.4285 31.1467C61.4317 23.121 58.309 15.5742 52.6356 9.89636C46.9631 4.21903 39.419 1.09076 31.3809 1.0871C14.8195 1.0871 1.34062 14.5613 1.33379 31.123" fill="url(#paint0_linear_82_5)"/>
<path d="M0.261279 31.1132C0.25957 36.5969 1.69221 41.9502 4.41586 46.6688L0 62.7917L16.4999 58.4655C21.0462 60.9442 26.1648 62.2511 31.3733 62.2531H31.3867C48.5403 62.2531 62.5043 48.2934 62.5117 31.1381C62.5146 22.8241 59.2796 15.006 53.4035 9.12475C47.5267 3.24426 39.7127 0.00341861 31.3867 0C14.2302 0 0.268116 13.9577 0.261279 31.1132ZM10.0876 45.8562L9.47149 44.8782C6.88165 40.7603 5.5147 36.0016 5.51665 31.1152C5.52202 16.8559 17.1267 5.25489 31.3965 5.25489C38.3069 5.25782 44.8013 7.95168 49.686 12.8393C54.5705 17.7274 57.2582 24.2252 57.2565 31.1362C57.2502 45.3954 45.6452 56.9979 31.3867 56.9979H31.3765C26.7337 56.9955 22.1804 55.7487 18.2094 53.3925L17.2644 52.8321L7.47307 55.3992L10.0876 45.8562Z" fill="url(#paint1_linear_82_5)"/>
<path d="M23.6065 18.1059C23.0239 16.811 22.4107 16.7848 21.8566 16.7621C21.4029 16.7426 20.8843 16.744 20.3661 16.744C19.8475 16.744 19.0048 16.9391 18.2925 17.7169C17.5795 18.4953 15.5703 20.3766 15.5703 24.2027C15.5703 28.0289 18.3572 31.7268 18.7457 32.2462C19.1347 32.7646 24.1259 40.8677 32.0307 43.985C38.6002 46.5755 39.9372 46.0603 41.363 45.9304C42.789 45.801 45.9644 44.0497 46.6122 42.2337C47.2605 40.4179 47.2605 38.8614 47.0662 38.5362C46.8718 38.2122 46.3531 38.0175 45.5754 37.6288C44.7977 37.24 40.974 35.3584 40.2612 35.0988C39.5482 34.8395 39.0298 34.71 38.5111 35.4887C37.9925 36.2662 36.5032 38.0175 36.0492 38.5362C35.5958 39.0561 35.1418 39.1208 34.3643 38.7318C33.5861 38.3416 31.0815 37.5214 28.11 34.8722C25.798 32.8108 24.2372 30.2651 23.7835 29.4864C23.3298 28.7089 23.7349 28.2875 24.1249 27.8999C24.4743 27.5515 24.9029 26.9918 25.2921 26.5379C25.6799 26.0837 25.8093 25.7596 26.0686 25.241C26.3282 24.7218 26.1983 24.2677 26.0041 23.8787C25.8093 23.4897 24.298 19.6435 23.6065 18.1059Z" fill="white"/>
</g>
<defs>
<linearGradient id="paint0_linear_82_5" x1="3018.4" y1="6062.89" x2="3018.4" y2="1.0871" gradientUnits="userSpaceOnUse">
<stop stop-color="#1FAF38"/>
<stop offset="1" stop-color="#60D669"/>
</linearGradient>
<linearGradient id="paint1_linear_82_5" x1="3125.58" y1="6279.17" x2="3125.58" y2="0" gradientUnits="userSpaceOnUse">
<stop stop-color="#F9F9F9"/>
<stop offset="1" stop-color="white"/>
</linearGradient>
<clipPath id="clip0_82_5">
<rect width="62.5117" height="63" fill="white"/>
</clipPath>
</defs>
</svg>
